<?xml version="1.0" encoding="UTF-8"?>
<svg version="1.1" xmlns="http://www.w3.org/2000/svg" width="250" height="250">
<path d="M0 0 C0.85464844 -0.01417969 1.70929688 -0.02835937 2.58984375 -0.04296875 C5.0625 0.1875 5.0625 0.1875 6.92578125 1.23046875 C10.14061655 2.67038584 12.84444163 2.05255878 16.3125 1.6875 C25.349375 0.90295862 31.41955103 2.24206243 39.0625 7.1875 C39.49304688 7.68507813 39.92359375 8.18265625 40.3671875 8.6953125 C42.79187392 10.8294835 45.27338627 11.29146367 48.375 12.125 C55.95819248 14.35535073 61.74830197 17.30314144 66.0625 24.1875 C70.8584675 34.3549511 69.38822055 43.75553897 66.0625 54.1875 C63.51503749 60.78477471 60.01872417 65.21668389 54.0625 69.1875 C48.11821729 69.9752965 43.12622015 69.56331344 38.0625 66.1875 C35.65718062 64.26226473 33.33621425 62.26613225 31.0625 60.1875 C30.4025 60.785625 29.7425 61.38375 29.0625 62 C26.07603554 64.17763034 23.61888348 65.22177085 20.171875 66.39453125 C17.98454592 67.21680496 16.04374916 68.24618506 14 69.375 C10.16552281 71.31092513 7.40275674 71.80753668 3.0625 71.1875 C-2.25312367 69.31551954 -5.75978999 66.95406502 -8.9375 62.1875 C-10.13375 62.6 -11.33 63.0125 -12.5625 63.4375 C-24.54067657 67.41759032 -35.78187683 70.35752766 -48.4375 70.4375 C-49.25347656 70.458125 -50.06945312 70.47875 -50.91015625 70.5 C-57.4884818 70.54223644 -62.38392124 69.54464962 -67.375 64.9375 C-69.49364572 61.20868353 -69.63571693 59.44662328 -68.9375 55.1875 C-63.47855331 42.99452418 -53.65087917 35.1282569 -41.9375 29.1875 C-40.07616774 28.69508406 -38.20089948 28.25047124 -36.3125 27.875 C-33.89088127 27.39547738 -33.89088127 27.39547738 -31.9375 26.1875 C-30.63947906 23.44920924 -30.06499807 20.8877773 -29.484375 17.91796875 C-28.73114497 14.15719883 -27.58093293 11.97006098 -24.9375 9.1875 C-22.76228803 8.25465218 -20.60152439 7.60130705 -18.3203125 6.97265625 C-15.07259053 5.90250524 -12.47807973 4.18418994 -9.6640625 2.2734375 C-6.47175379 0.26560533 -3.6753983 0.02763457 0 0 Z M-10.9375 6.1875 C-10.9375 6.8475 -10.9375 7.5075 -10.9375 8.1875 C-8.69424083 8.6583445 -6.44233562 9.08814737 -4.1875 9.5 C-2.93453125 9.74363281 -1.6815625 9.98726562 -0.390625 10.23828125 C3.23443031 10.58631344 3.23443031 10.58631344 5.515625 7.73046875 C6.02609375 6.89128906 6.5365625 6.05210938 7.0625 5.1875 C0.93646358 1.10347572 -4.86237898 3.14993949 -10.9375 6.1875 Z M12.0625 6.1875 C12.7225 8.1675 13.3825 10.1475 14.0625 12.1875 C24.9525 11.1975 24.9525 11.1975 36.0625 10.1875 C31.55578015 5.68078015 26.60047931 4.39899828 20.3125 3.875 C17.16850234 4.17730747 14.89103046 4.81609129 12.0625 6.1875 Z M8.0625 8.1875 C7.4025 9.5075 6.7425 10.8275 6.0625 12.1875 C8.5375 12.6825 8.5375 12.6825 11.0625 13.1875 C10.7325 11.5375 10.4025 9.8875 10.0625 8.1875 C9.4025 8.1875 8.7425 8.1875 8.0625 8.1875 Z M-14.9375 10.1875 C-15.2675 10.5175 -15.5975 10.8475 -15.9375 11.1875 C-15.9375 12.8375 -15.9375 14.4875 -15.9375 16.1875 C-10.6575 16.1875 -5.3775 16.1875 0.0625 16.1875 C0.3925 15.1975 0.7225 14.2075 1.0625 13.1875 C-2.56909638 11.56388483 -5.72795488 10.82639494 -9.6875 10.5 C-10.65171875 10.41363281 -11.6159375 10.32726562 -12.609375 10.23828125 C-13.37765625 10.22152344 -14.1459375 10.20476562 -14.9375 10.1875 Z M-23.625 13.4375 C-26.23476436 15.88656504 -26.23476436 15.88656504 -25.75 18.5 C-25.481875 19.056875 -25.21375 19.61375 -24.9375 20.1875 C-22.9575 19.1975 -20.9775 18.2075 -18.9375 17.1875 C-18.9375 15.2075 -18.9375 13.2275 -18.9375 11.1875 C-21.2660839 10.97352111 -21.2660839 10.97352111 -23.625 13.4375 Z M15.0625 15.1875 C17.21513129 19.78311751 19.27092021 23.12068424 24.0625 25.1875 C29.73122214 25.66707556 35.43996725 24.88320146 41.0625 24.1875 C41.10375 22.929375 41.145 21.67125 41.1875 20.375 C41.21070313 19.66730469 41.23390625 18.95960937 41.2578125 18.23046875 C41.19504462 15.87390281 41.19504462 15.87390281 39.0625 13.1875 C31.01066199 12.18102025 22.88180976 13.16961361 15.0625 15.1875 Z M43.0625 14.1875 C43.00831674 16.27054538 42.96962449 18.35399768 42.9375 20.4375 C42.91429687 21.59765625 42.89109375 22.7578125 42.8671875 23.953125 C43.05765967 27.10734412 43.60641574 28.48827661 45.0625 31.1875 C45.15234375 33.22265625 45.15234375 33.22265625 45 35.25 C44.63337 39.05745844 44.63337 39.05745844 46.5 40.8125 C47.015625 41.26625 47.53125 41.72 48.0625 42.1875 C49.0727418 45.50686593 49.24686196 47.52686963 48.3125 50.875 C44.70221671 54.58556894 40.01842635 55.15256122 35.0625 56.1875 C37.15233706 60.89968068 40.40710046 63.85980023 45.0625 66.1875 C50.07124826 66.56551874 53.12354072 66.40086152 57.0625 63.1875 C64.11319911 55.44432152 66.27648458 45.45876004 66.0625 35.1875 C65.06421876 28.76997777 63.26943122 24.30460841 58.0625 20.1875 C56.70125 19.1046875 56.70125 19.1046875 55.3125 18 C51.32228368 15.77468705 47.53387203 14.94266505 43.0625 14.1875 Z M4.0625 18.1875 C4.3925 19.5075 4.7225 20.8275 5.0625 22.1875 C7.3725 22.5175 9.6825 22.8475 12.0625 23.1875 C12.0625 21.5375 12.0625 19.8875 12.0625 18.1875 C8.77553767 17.38796862 7.35226808 17.09091064 4.0625 18.1875 Z M-14.9375 19.1875 C-14.9375 20.8375 -14.9375 22.4875 -14.9375 24.1875 C-12.697665 25.13770416 -12.697665 25.13770416 -9.9375 25.1875 C-7.1875 22.9375 -7.1875 22.9375 -4.9375 20.1875 C-4.2775 19.5275 -3.6175 18.8675 -2.9375 18.1875 C-4.37489513 18.16037934 -5.81243863 18.14104933 -7.25 18.125 C-8.05050781 18.11339844 -8.85101563 18.10179688 -9.67578125 18.08984375 C-12.10611334 18.09092145 -12.10611334 18.09092145 -14.9375 19.1875 Z M-25.9375 23.1875 C-25.9375 23.5175 -25.9375 23.8475 -25.9375 24.1875 C-23.2975 24.1875 -20.6575 24.1875 -17.9375 24.1875 C-18.2675 22.8675 -18.5975 21.5475 -18.9375 20.1875 C-21.30970987 20.1875 -23.86627733 22.12985438 -25.9375 23.1875 Z M-1.9375 21.1875 C-2.5975 21.8475 -3.2575 22.5075 -3.9375 23.1875 C-2.6175 22.8575 -1.2975 22.5275 0.0625 22.1875 C-0.5975 21.8575 -1.2575 21.5275 -1.9375 21.1875 Z M16.0625 22.1875 C16.0625 22.8475 16.0625 23.5075 16.0625 24.1875 C16.7225 23.8575 17.3825 23.5275 18.0625 23.1875 C17.4025 22.8575 16.7425 22.5275 16.0625 22.1875 Z M6.0625 25.1875 C6.3925 27.4975 6.7225 29.8075 7.0625 32.1875 C8.7699998 30.90687515 10.43623596 29.56982443 12.0625 28.1875 C12.0625 27.5275 12.0625 26.8675 12.0625 26.1875 C9.0925 25.6925 9.0925 25.6925 6.0625 25.1875 Z M-3.9375 26.1875 C-2.6285428 29.30947478 -2.6285428 29.30947478 0.0625 31.1875 C0.0625 29.5375 0.0625 27.8875 0.0625 26.1875 C-1.2575 26.1875 -2.5775 26.1875 -3.9375 26.1875 Z M-24.9375 27.1875 C-26.27054698 30.07936786 -26.27054698 30.07936786 -25 32.375 C-24.649375 32.973125 -24.29875 33.57125 -23.9375 34.1875 C-22.76530457 33.40404285 -21.59986332 32.61047164 -20.4375 31.8125 C-19.7878125 31.37164062 -19.138125 30.93078125 -18.46875 30.4765625 C-17.71078125 29.83847656 -17.71078125 29.83847656 -16.9375 29.1875 C-16.9375 28.5275 -16.9375 27.8675 -16.9375 27.1875 C-19.5775 27.1875 -22.2175 27.1875 -24.9375 27.1875 Z M3.0625 27.1875 C4.0625 29.1875 4.0625 29.1875 4.0625 29.1875 Z M26.0625 27.1875 C26.0625 27.8475 26.0625 28.5075 26.0625 29.1875 C27.61955194 30.76590572 27.61955194 30.76590572 29.5625 32.3125 C30.2121875 32.85132813 30.861875 33.39015625 31.53125 33.9453125 C32.0365625 34.35523438 32.541875 34.76515625 33.0625 35.1875 C36.22365776 33.81766497 37.0552092 33.1984362 39.0625 30.1875 C39.0625 29.1975 39.0625 28.2075 39.0625 27.1875 C34.7725 27.1875 30.4825 27.1875 26.0625 27.1875 Z M-29.9375 29.1875 C-29.6075 32.4875 -29.2775 35.7875 -28.9375 39.1875 C-28.2775 38.8575 -27.6175 38.5275 -26.9375 38.1875 C-27.26710216 33.17214948 -27.26710216 33.17214948 -29.9375 29.1875 Z M-8.9375 29.1875 C-10.0518337 32.38748135 -10.0518337 32.38748135 -9.9375 36.1875 C-7.95942838 38.6926951 -5.66379898 40.53721259 -2.9375 42.1875 C-2.2775 42.1875 -1.6175 42.1875 -0.9375 42.1875 C-0.61440035 37.55640497 -0.98927808 34.8473617 -3.9375 31.1875 C-6.50849402 29.84060085 -6.50849402 29.84060085 -8.9375 29.1875 Z M15.0625 30.1875 C14.26430463 32.54421551 13.57102775 34.84963375 12.9375 37.25 C12.75574219 37.91322266 12.57398437 38.57644531 12.38671875 39.25976562 C11.93819596 40.90041479 11.49942614 42.54372449 11.0625 44.1875 C12.64659994 44.07262252 14.22978963 43.94515492 15.8125 43.8125 C16.69421875 43.74289063 17.5759375 43.67328125 18.484375 43.6015625 C21.05316382 43.18899945 22.82091015 42.47589043 25.0625 41.1875 C24.94791307 39.74913249 24.82040884 38.31179034 24.6875 36.875 C24.61789063 36.07449219 24.54828125 35.27398437 24.4765625 34.44921875 C24.16685574 31.91525559 24.16685574 31.91525559 22.0625 29.1875 C19.25688238 28.90693824 17.59671737 28.92039132 15.0625 30.1875 Z M-56.328125 42.39453125 C-63.3312695 50.05962495 -63.3312695 50.05962495 -66.0625 59.6875 C-65.21590388 63.41444941 -65.21590388 63.41444941 -61.9375 65.625 C-48.09176323 71.31604127 -29.08812601 66.18034243 -15.8125 60.9375 C-14.51414954 60.36919845 -13.21900379 59.79283345 -11.9375 59.1875 C-13.19560265 56.67129469 -14.24103155 56.37914364 -16.75 55.1875 C-17.43707031 54.8575 -18.12414062 54.5275 -18.83203125 54.1875 C-20.26371434 53.50751694 -21.69876417 52.83458713 -23.13671875 52.16796875 C-25.53495973 50.86220197 -25.85635878 49.68763907 -26.9375 47.1875 C-27.5975 46.176875 -28.2575 45.16625 -28.9375 44.125 C-31.64480133 39.49834325 -32.21706626 34.42960339 -32.9375 29.1875 C-39.98093615 29.1875 -51.49753101 37.72424458 -56.328125 42.39453125 Z M0.0625 31.1875 C1.0625 33.1875 1.0625 33.1875 1.0625 33.1875 Z M41.0625 31.1875 C38.94620229 34.16354365 37.22105378 36.71183865 36.0625 40.1875 C38.0425 39.8575 40.0225 39.5275 42.0625 39.1875 C42.0625 36.5475 42.0625 33.9075 42.0625 31.1875 C41.7325 31.1875 41.4025 31.1875 41.0625 31.1875 Z M-15.9375 32.1875 C-18.9075 34.6625 -18.9075 34.6625 -21.9375 37.1875 C-20.4504879 41.78371922 -18.13937872 44.65722347 -14.9375 48.1875 C-14.6075 48.1875 -14.2775 48.1875 -13.9375 48.1875 C-13.88347726 46.08361431 -13.84469744 43.97933286 -13.8125 41.875 C-13.78929687 40.70324219 -13.76609375 39.53148437 -13.7421875 38.32421875 C-13.68429382 35.02356339 -13.68429382 35.02356339 -15.9375 32.1875 Z M10.0625 34.1875 C7.70296906 36.54703094 7.57108587 37.96645617 7.0625 41.1875 C8.0525 41.6825 8.0525 41.6825 9.0625 42.1875 C10.93793354 38.31986554 10.93793354 38.31986554 10.0625 34.1875 Z M28.0625 34.1875 C28.0625 35.8375 28.0625 37.4875 28.0625 39.1875 C29.0525 38.8575 30.0425 38.5275 31.0625 38.1875 C30.4025 36.8675 29.7425 35.5475 29.0625 34.1875 C28.7325 34.1875 28.4025 34.1875 28.0625 34.1875 Z M-25.9375 40.1875 C-25.9375 44.475491 -25.28132125 45.60840214 -22.5078125 48.72265625 C-19.87517506 51.17847475 -17.19587042 52.65053282 -13.9375 54.1875 C-13.2775 53.8575 -12.6175 53.5275 -11.9375 53.1875 C-12.55238281 52.66800781 -13.16726562 52.14851563 -13.80078125 51.61328125 C-14.60902344 50.91589844 -15.41726562 50.21851563 -16.25 49.5 C-17.05050781 48.81550781 -17.85101563 48.13101563 -18.67578125 47.42578125 C-20.95168103 45.17346592 -22.3068279 42.91803892 -23.9375 40.1875 C-24.5975 40.1875 -25.2575 40.1875 -25.9375 40.1875 Z M-10.9375 40.1875 C-10.6075 43.8175 -10.2775 47.4475 -9.9375 51.1875 C-7.6275 51.5175 -5.3175 51.8475 -2.9375 52.1875 C-2.6075 49.8775 -2.2775 47.5675 -1.9375 45.1875 C-4.9075 43.5375 -7.8775 41.8875 -10.9375 40.1875 Z M28.0625 43.1875 C27.26157746 45.83441668 27.26157746 45.83441668 26.875 48.8125 C26.71644531 49.81539062 26.55789062 50.81828125 26.39453125 51.8515625 C26.28496094 52.62242188 26.17539063 53.39328125 26.0625 54.1875 C27.0525 53.8575 28.0425 53.5275 29.0625 53.1875 C29.79610568 51.18014169 29.79610568 51.18014169 30.125 48.8125 C30.69420911 45.48398197 31.12201616 44.09822575 33.0625 41.1875 C30.73892489 41.00259993 30.73892489 41.00259993 28.0625 43.1875 Z M44.0625 42.1875 C43.16659711 43.4505762 42.32030905 44.7490707 41.5 46.0625 C41.04496094 46.78179687 40.58992188 47.50109375 40.12109375 48.2421875 C38.90317105 50.11117363 38.90317105 50.11117363 39.0625 52.1875 C41.47127257 52.07408466 41.47127257 52.07408466 44.0625 51.1875 C46.12446218 48.9734011 46.12446218 48.9734011 47.0625 46.1875 C46.37109649 43.88462207 46.37109649 43.88462207 45.0625 42.1875 C44.7325 42.1875 44.4025 42.1875 44.0625 42.1875 Z M37.0625 43.1875 C38.0525 44.6725 38.0525 44.6725 39.0625 46.1875 C39.3925 45.1975 39.7225 44.2075 40.0625 43.1875 C39.0725 43.1875 38.0825 43.1875 37.0625 43.1875 Z M15.875 46.1875 C14.78832031 46.373125 13.70164062 46.55875 12.58203125 46.75 C11.75058594 46.894375 10.91914062 47.03875 10.0625 47.1875 C12.84029328 51.18057785 14.55776679 53.39883443 19.375 54.5625 C21.2003125 54.871875 21.2003125 54.871875 23.0625 55.1875 C24.37876692 51.56776598 25.0625 49.09182869 25.0625 45.1875 C21.87779658 45.1875 19.01226093 45.64775618 15.875 46.1875 Z M33.0625 46.1875 C32.7325 47.5075 32.4025 48.8275 32.0625 50.1875 C32.7225 49.8575 33.3825 49.5275 34.0625 49.1875 C33.7325 48.1975 33.4025 47.2075 33.0625 46.1875 Z M8.0625 51.1875 C8.36691479 54.73900592 9.03843993 56.15888802 11.375 58.9375 C13.80729578 60.97384065 14.98250563 61.8452784 18.0625 62.1875 C19.0525 60.8675 20.0425 59.5475 21.0625 58.1875 C20.37542969 57.84976563 19.68835938 57.51203125 18.98046875 57.1640625 C18.07941406 56.71804687 17.17835938 56.27203125 16.25 55.8125 C15.35667969 55.37164062 14.46335937 54.93078125 13.54296875 54.4765625 C11.0625 53.1875 11.0625 53.1875 8.0625 51.1875 Z M-1.5 55.6875 C-2.51191406 56.3371875 -3.52382812 56.986875 -4.56640625 57.65625 C-5.34886719 58.1615625 -6.13132813 58.666875 -6.9375 59.1875 C-4.55160307 63.60691524 -2.62622398 65.46882205 1.86328125 67.53515625 C6.05469592 68.77843556 10.14452906 68.14648547 14.0625 66.1875 C13.26540513 63.03105126 13.26540513 63.03105126 10.6875 60.875 C8.00575527 58.12940421 6.60326562 55.67449587 5.0625 52.1875 C2.82473705 52.1875 0.28018222 54.54163558 -1.5 55.6875 Z M26.0625 57.1875 C25.0725 57.6825 25.0725 57.6825 24.0625 58.1875 C24.0625 58.8475 24.0625 59.5075 24.0625 60.1875 C25.7125 59.5275 27.3625 58.8675 29.0625 58.1875 C28.0725 57.8575 27.0825 57.5275 26.0625 57.1875 Z " fill="#E6E6E6" transform="translate(110.9375,70.8125)"/>
<path d="M0 0 C9.36690328 8.60187732 13.56024776 19.19457356 14.9609375 31.80078125 C15.0859375 35.48828125 15.0859375 35.48828125 14.9609375 37.80078125 C15.54359375 38.05214844 16.12625 38.30351563 16.7265625 38.5625 C29.26496258 45.51122872 36.01881655 62.82392817 39.9609375 75.80078125 C43.09096827 86.95177918 41.8305232 100.386697 36.51953125 110.5625 C29.4363001 122.60892327 19.37184618 129.07944037 6.9609375 134.80078125 C5.26710937 135.58195312 5.26710937 135.58195312 3.5390625 136.37890625 C-14.29115864 143.39804308 -35.29558094 141.08188146 -54.0390625 139.80078125 C-54.3690625 138.81078125 -54.6990625 137.82078125 -55.0390625 136.80078125 C-54.42724121 136.80601807 -53.81541992 136.81125488 -53.18505859 136.81665039 C-45.80248508 136.87094413 -38.4215965 136.85704562 -31.0390625 136.80078125 C-29.52723389 136.79208008 -29.52723389 136.79208008 -27.98486328 136.78320312 C-7.86425582 136.58068065 10.92512509 132.30398759 26.02734375 117.89453125 C34.93630243 108.24765882 37.58158781 98.52394088 37.23046875 85.51953125 C35.93928015 67.70487111 26.50696492 52.97160037 13.9609375 40.80078125 C12.84589844 41.4453125 11.73085937 42.08984375 10.58203125 42.75390625 C5.47347266 45.70683029 0.91139697 46.45013695 -5.0390625 45.80078125 C-8.33220648 44.46951028 -9.61716433 43.71903021 -11.1015625 40.48828125 C-11.01057182 36.57568191 -9.53132154 34.75214064 -7.0390625 31.80078125 C-3.2969076 29.40996006 -0.13370515 29.71232598 4.08984375 30.375 C6.26229102 30.86935648 8.07109438 31.6196293 9.9609375 32.80078125 C10.79493083 23.62685465 7.42389992 14.57552775 1.58203125 7.5390625 C-10.14655732 -5.03737585 -25.53743726 -8.67296783 -42.24609375 -9.32421875 C-65.0823182 -9.73429685 -89.92215998 -4.06636468 -109.0390625 8.80078125 C-108.0696875 9.27515625 -107.1003125 9.74953125 -106.1015625 10.23828125 C-103.0390625 11.80078125 -103.0390625 11.80078125 -102.0390625 12.80078125 C-102.0390625 16.17943062 -102.11835634 18.75263272 -104.421875 21.375 C-107.58414792 23.84951401 -109.76141169 24.75913363 -113.7890625 25.36328125 C-117.0390625 24.80078125 -117.0390625 24.80078125 -118.9765625 23.23828125 C-120.38814055 19.99995514 -120.24051597 17.29264146 -120.0390625 13.80078125 C-121.58618919 14.34808496 -123.12654182 14.91454566 -124.6640625 15.48828125 C-125.52257812 15.80152344 -126.38109375 16.11476563 -127.265625 16.4375 C-139.2094911 22.30849897 -146.34791933 36.54092419 -151.08105469 48.41479492 C-152.21378076 52.41830611 -152.34398153 56.16887006 -152.33984375 60.29296875 C-152.3453978 61.10796844 -152.35095184 61.92296814 -152.35667419 62.76266479 C-152.36845705 65.40055293 -152.36219288 68.03789329 -152.3515625 70.67578125 C-152.35007202 71.57317017 -152.34858154 72.47055908 -152.3470459 73.3951416 C-152.54614657 103.08477699 -152.54614657 103.08477699 -143.3515625 130.86328125 C-138.89461744 134.59747846 -133.76723509 135.80078125 -128.0390625 135.80078125 C-128.3896875 134.99640625 -128.7403125 134.19203125 -129.1015625 133.36328125 C-130.41313854 128.37929231 -130.44445051 123.58310813 -128.07421875 118.890625 C-126.9765625 117.23828125 -126.9765625 117.23828125 -125.0390625 114.80078125 C-122.27093124 115.08713966 -121.2077708 115.62002236 -119.2890625 117.67578125 C-116.92142856 123.5948661 -117.1534151 129.62356472 -119.5390625 135.48828125 C-120.0340625 136.25140625 -120.5290625 137.01453125 -121.0390625 137.80078125 C-113.44778921 143.18813649 -104.02921213 143.2227344 -95.0390625 143.80078125 C-95.0596875 142.70765625 -95.0803125 141.61453125 -95.1015625 140.48828125 C-95.0390625 136.80078125 -95.0390625 136.80078125 -94.0390625 133.80078125 C-91.6640625 134.05078125 -91.6640625 134.05078125 -89.0390625 134.80078125 C-86.86074726 137.70520157 -86.84190969 140.25203072 -87.0390625 143.80078125 C-89.0190625 144.79078125 -89.0190625 144.79078125 -91.0390625 145.80078125 C-87.66725974 157.34424715 -83.43512108 167.94883355 -73.0390625 174.80078125 C-69.77429279 176.37253467 -66.47863411 177.66600455 -63.0390625 178.80078125 C-63.3690625 179.79078125 -63.6990625 180.78078125 -64.0390625 181.80078125 C-75.13831738 179.36775043 -82.30052945 173.972585 -88.53125 164.49609375 C-91.67692353 158.87299858 -94.0390625 153.28010641 -94.0390625 146.80078125 C-95.00585938 146.83558594 -95.97265625 146.87039062 -96.96875 146.90625 C-114.44787644 147.26967738 -114.44787644 147.26967738 -121.8515625 141.67578125 C-125.43595613 139.56731441 -127.31517447 139.52798972 -131.4140625 139.36328125 C-137.47462224 139.04539556 -141.64477509 138.12964502 -146.0390625 133.80078125 C-157.59232147 118.94659114 -156.42867336 92.74586413 -156.46459961 74.86083984 C-156.47661187 72.03918425 -156.52611587 69.21964303 -156.57617188 66.3984375 C-156.67197854 55.7879806 -156.05038418 47.36483717 -151.0390625 37.80078125 C-150.6675708 37.0835791 -150.2960791 36.36637695 -149.91333008 35.62744141 C-144.12309986 25.27476286 -136.47732461 15.10651003 -125.0390625 10.80078125 C-121.69961309 10.1749264 -118.43353804 9.87873372 -115.0390625 9.80078125 C-115.0390625 9.14078125 -115.0390625 8.48078125 -115.0390625 7.80078125 C-101.94706504 -2.71164891 -85.13146678 -7.62148624 -69.0390625 -11.19921875 C-67.39550781 -11.57046875 -67.39550781 -11.57046875 -65.71875 -11.94921875 C-44.08839936 -16.01549877 -17.447648 -14.70767439 0 0 Z M-115.0390625 12.80078125 C-116.65855261 15.37291259 -117.08315001 16.47747284 -116.6640625 19.55078125 C-116.4578125 20.29328125 -116.2515625 21.03578125 -116.0390625 21.80078125 C-110.87907873 21.42668874 -110.87907873 21.42668874 -106.6015625 18.73828125 C-106.0859375 18.09890625 -105.5703125 17.45953125 -105.0390625 16.80078125 C-105.3690625 15.81078125 -105.6990625 14.82078125 -106.0390625 13.80078125 C-108.99570769 12.32245865 -111.78135987 12.74045342 -115.0390625 12.80078125 Z M-6.0390625 35.80078125 C-7.33539871 36.8672324 -7.33539871 36.8672324 -7.1015625 39.36328125 C-7.0809375 40.16765625 -7.0603125 40.97203125 -7.0390625 41.80078125 C-3.8411056 43.3997597 -0.51783048 43.1686658 2.9609375 42.80078125 C6.363996 41.64315989 6.363996 41.64315989 8.9609375 39.80078125 C9.2909375 38.81078125 9.6209375 37.82078125 9.9609375 36.80078125 C1.88546263 32.38624732 1.88546263 32.38624732 -6.0390625 35.80078125 Z M-124.0390625 118.80078125 C-125.88493027 121.95047626 -126.31077088 124.28962799 -126.2890625 127.92578125 C-126.29421875 128.79460937 -126.299375 129.6634375 -126.3046875 130.55859375 C-126.2496966 133.00282012 -126.2496966 133.00282012 -124.0390625 134.80078125 C-121.29757789 131.69857498 -120.6660641 129.7962275 -120.7890625 125.67578125 C-120.80453125 124.80695313 -120.82 123.938125 -120.8359375 123.04296875 C-120.9048794 120.76523753 -120.9048794 120.76523753 -122.0390625 118.80078125 C-122.6990625 118.80078125 -123.3590625 118.80078125 -124.0390625 118.80078125 Z M-92.0390625 137.80078125 C-92.0390625 139.45078125 -92.0390625 141.10078125 -92.0390625 142.80078125 C-91.3790625 142.80078125 -90.7190625 142.80078125 -90.0390625 142.80078125 C-90.3690625 141.15078125 -90.6990625 139.50078125 -91.0390625 137.80078125 C-91.3690625 137.80078125 -91.6990625 137.80078125 -92.0390625 137.80078125 Z " fill="#E6E6E6" transform="translate(181.0390625,41.19921875)"/>
</svg>
