<svg xmlns="http://www.w3.org/2000/svg" xmlns:xlink="http://www.w3.org/1999/xlink" width="100" zoomAndPan="magnify" viewBox="0 0 75 74.999997" height="100" preserveAspectRatio="xMidYMid meet" version="1.0"><defs><g/><clipPath id="f93bbbf136"><path d="M 29.484375 10.5625 L 51.84375 10.5625 L 51.84375 31.90625 L 29.484375 31.90625 Z M 29.484375 10.5625 " clip-rule="nonzero"/></clipPath><clipPath id="c4b4e98127"><path d="M 16.054688 50 L 20 50 L 20 55 L 16.054688 55 Z M 16.054688 50 " clip-rule="nonzero"/></clipPath><clipPath id="e1a3f3ccae"><path d="M 20 48.054688 L 26 48.054688 L 26 51 L 20 51 Z M 20 48.054688 " clip-rule="nonzero"/></clipPath><clipPath id="832c2b2b13"><path d="M 17 48.054688 L 22 48.054688 L 22 53 L 17 53 Z M 17 48.054688 " clip-rule="nonzero"/></clipPath><clipPath id="5280f47dfb"><path d="M 16.054688 55 L 22 55 L 22 58 L 16.054688 58 Z M 16.054688 55 " clip-rule="nonzero"/></clipPath><clipPath id="49dd6cbd26"><path d="M 37.5 30 L 43.597656 30 L 43.597656 58 L 37.5 58 Z M 37.5 30 " clip-rule="nonzero"/></clipPath></defs><g clip-path="url(#f93bbbf136)"><path fill="#e6e6e6" d="M 47.222656 16.703125 C 47.546875 16.605469 47.835938 16.433594 47.96875 16.191406 C 47.164062 15.613281 46.40625 15.457031 46.023438 15.980469 C 45.84375 16.226562 45.808594 16.40625 45.867188 16.53125 C 45.9375 16.667969 46.125 16.75 46.363281 16.785156 C 46.621094 16.820312 46.9375 16.792969 47.222656 16.703125 M 35.160156 13.582031 C 35.007812 13.46875 34.695312 13.402344 34.152344 13.421875 C 33.863281 13.765625 33.773438 14.101562 33.949219 14.394531 C 34.039062 14.542969 34.25 14.546875 34.46875 14.472656 C 34.722656 14.386719 34.984375 14.207031 35.136719 14.011719 C 35.257812 13.851562 35.296875 13.683594 35.160156 13.582031 Z M 32.882812 25.570312 C 32.738281 26.144531 32.832031 26.585938 33.070312 26.925781 C 33.257812 26.804688 33.382812 26.632812 33.453125 26.433594 C 33.5625 26.132812 33.558594 25.78125 33.492188 25.492188 C 33.429688 25.226562 33.324219 25.027344 33.210938 25 C 33.113281 24.976562 32.996094 25.128906 32.882812 25.570312 Z M 36.625 27.238281 C 36.605469 27.378906 36.605469 27.570312 36.628906 27.796875 C 36.660156 27.789062 36.6875 27.777344 36.714844 27.769531 C 36.859375 27.722656 36.945312 27.6875 36.9375 27.667969 C 36.824219 27.304688 36.726562 27.113281 36.648438 27.050781 C 36.648438 27.050781 36.636719 27.125 36.625 27.238281 Z M 38.050781 21.417969 C 38.183594 21.425781 38.308594 21.40625 38.414062 21.363281 C 38.277344 21.351562 38.136719 21.320312 38 21.265625 C 38.015625 21.316406 38.03125 21.367188 38.050781 21.417969 Z M 35.167969 22.617188 C 36.089844 22.453125 37.066406 22.152344 37.914062 21.734375 C 37.902344 21.707031 37.886719 21.675781 37.875 21.648438 C 37.636719 21.609375 37.378906 21.515625 37.125 21.375 C 36.863281 21.230469 36.609375 21.039062 36.378906 20.808594 C 35.78125 20.210938 35.355469 19.367188 35.511719 18.472656 C 34.492188 18.777344 33.4375 19.378906 32.632812 20.242188 C 31.933594 20.992188 31.691406 21.550781 31.773438 21.945312 C 31.851562 22.328125 32.257812 22.566406 32.847656 22.679688 C 33.472656 22.796875 34.296875 22.769531 35.167969 22.617188 Z M 40.410156 17.039062 L 40.402344 17.003906 L 40.371094 17.011719 Z M 37.289062 17.402344 C 37.304688 17.621094 37.335938 17.824219 37.375 18.015625 C 37.5625 18.03125 37.738281 18.066406 37.90625 18.109375 C 38.089844 17.84375 38.414062 17.585938 38.832031 17.359375 C 38.734375 17.3125 38.628906 17.28125 38.515625 17.265625 C 38.222656 17.214844 37.890625 17.25 37.570312 17.328125 C 37.472656 17.347656 37.378906 17.375 37.289062 17.402344 Z M 37.03125 17.230469 C 37.023438 17.042969 37.023438 16.84375 37.03125 16.632812 C 37.03125 16.578125 37.046875 16.515625 37.074219 16.453125 C 36.695312 16.511719 36.410156 16.648438 36.292969 16.867188 C 36.160156 17.113281 36.09375 17.382812 36.074219 17.664062 C 36.316406 17.53125 36.65625 17.363281 37.03125 17.230469 Z M 37.121094 18 C 37.089844 17.835938 37.066406 17.660156 37.050781 17.480469 C 36.625 17.625 36.261719 17.804688 36.070312 17.90625 C 36.070312 17.96875 36.074219 18.027344 36.082031 18.085938 C 36.3125 18.042969 36.542969 18.015625 36.761719 18.003906 C 36.882812 17.996094 37.003906 17.996094 37.121094 18 Z M 38.082031 19.480469 C 38.34375 19.761719 38.660156 19.957031 39.003906 20.082031 C 39.046875 19.730469 39.007812 19.429688 38.90625 19.183594 C 38.761719 18.84375 38.484375 18.597656 38.125 18.445312 C 38.089844 18.429688 38.054688 18.417969 38.015625 18.402344 C 38.003906 18.441406 37.992188 18.476562 37.984375 18.511719 C 37.933594 18.757812 37.894531 18.996094 37.871094 19.222656 C 37.9375 19.316406 38.007812 19.402344 38.082031 19.480469 Z M 38.960938 20.328125 C 38.566406 20.191406 38.207031 19.96875 37.902344 19.648438 C 37.878906 19.625 37.859375 19.601562 37.835938 19.574219 C 37.804688 20.101562 37.835938 20.5625 37.921875 20.960938 C 38.199219 21.105469 38.46875 21.160156 38.699219 21.089844 L 38.71875 21.050781 C 38.832031 20.789062 38.910156 20.546875 38.960938 20.328125 Z M 39.289062 20.417969 C 39.257812 20.410156 39.226562 20.40625 39.195312 20.398438 C 39.164062 20.535156 39.125 20.675781 39.070312 20.824219 C 39.152344 20.71875 39.226562 20.585938 39.289062 20.417969 Z M 39.4375 16.8125 C 39.398438 16.90625 39.375 17.003906 39.359375 17.105469 C 39.484375 17.054688 39.617188 17.003906 39.753906 16.953125 L 39.6875 16.921875 C 39.605469 16.882812 39.519531 16.847656 39.4375 16.8125 Z M 40.0625 16.089844 C 39.851562 16.21875 39.671875 16.386719 39.546875 16.59375 C 39.628906 16.625 39.710938 16.660156 39.789062 16.699219 C 39.890625 16.746094 39.984375 16.792969 40.082031 16.84375 C 40.171875 16.816406 40.265625 16.792969 40.359375 16.765625 C 40.289062 16.484375 40.1875 16.261719 40.0625 16.089844 Z M 40.496094 15.890625 C 40.421875 15.914062 40.351562 15.941406 40.28125 15.972656 C 40.414062 16.164062 40.519531 16.40625 40.59375 16.707031 C 40.96875 16.617188 41.359375 16.550781 41.753906 16.507812 C 42.234375 16.457031 42.722656 16.445312 43.191406 16.480469 C 42.890625 16.140625 42.445312 15.917969 41.964844 15.820312 C 41.476562 15.71875 40.949219 15.742188 40.496094 15.890625 Z M 39.308594 16.503906 C 39.449219 16.257812 39.652344 16.054688 39.898438 15.902344 C 39.703125 15.726562 39.46875 15.636719 39.222656 15.613281 C 38.949219 15.585938 38.664062 15.636719 38.394531 15.730469 C 38.082031 15.839844 37.796875 16.003906 37.59375 16.179688 C 37.792969 16.179688 38.007812 16.195312 38.226562 16.230469 C 38.578125 16.28125 38.945312 16.371094 39.308594 16.503906 Z M 39.097656 17.222656 C 39.109375 17.042969 39.144531 16.878906 39.203125 16.726562 C 38.863281 16.605469 38.519531 16.519531 38.191406 16.472656 C 37.894531 16.425781 37.613281 16.414062 37.359375 16.425781 C 37.304688 16.503906 37.277344 16.578125 37.273438 16.640625 C 37.269531 16.820312 37.269531 16.988281 37.273438 17.152344 C 37.351562 17.128906 37.433594 17.105469 37.511719 17.085938 C 37.863281 17.003906 38.226562 16.964844 38.554688 17.023438 C 38.75 17.054688 38.933594 17.117188 39.09375 17.222656 Z M 39.65625 20.480469 L 39.660156 20.492188 L 39.667969 20.480469 Z M 39.34375 20.179688 C 39.316406 20.050781 39.289062 19.914062 39.265625 19.769531 C 39.269531 19.894531 39.257812 20.019531 39.242188 20.15625 C 39.273438 20.164062 39.308594 20.171875 39.34375 20.179688 Z M 39.46875 20.6875 L 39.457031 20.652344 C 39.441406 20.683594 39.429688 20.710938 39.414062 20.742188 Z M 40.816406 22.414062 C 40.316406 22.300781 39.863281 21.863281 39.546875 20.941406 C 39.179688 21.277344 38.734375 21.578125 38.238281 21.839844 C 38.3125 21.964844 38.390625 22.082031 38.472656 22.183594 C 38.699219 22.453125 38.964844 22.640625 39.25 22.734375 C 39.53125 22.832031 39.828125 22.84375 40.121094 22.769531 C 40.363281 22.707031 40.597656 22.589844 40.816406 22.414062 Z M 42.574219 21.71875 C 42.128906 22.132812 41.628906 22.417969 41.148438 22.441406 C 40.859375 22.730469 40.523438 22.921875 40.179688 23.007812 C 39.84375 23.09375 39.496094 23.082031 39.167969 22.96875 C 38.84375 22.855469 38.539062 22.648438 38.285156 22.339844 C 38.1875 22.222656 38.101562 22.09375 38.019531 21.949219 C 37.148438 22.382812 36.152344 22.691406 35.207031 22.859375 C 34.308594 23.019531 33.453125 23.046875 32.800781 22.921875 C 32.109375 22.792969 31.632812 22.492188 31.53125 21.996094 C 31.4375 21.523438 31.691406 20.890625 32.449219 20.074219 C 33.324219 19.140625 34.472656 18.503906 35.578125 18.203125 C 35.609375 18.097656 35.648438 17.996094 35.699219 17.890625 C 35.71875 17.847656 35.761719 17.820312 35.804688 17.820312 L 35.824219 17.808594 C 35.824219 17.4375 35.902344 17.078125 36.078125 16.753906 C 36.25 16.429688 36.683594 16.242188 37.246094 16.191406 C 37.480469 15.925781 37.871094 15.65625 38.3125 15.5 C 38.613281 15.394531 38.9375 15.339844 39.246094 15.371094 C 39.5625 15.402344 39.863281 15.523438 40.113281 15.773438 L 40.121094 15.78125 C 40.214844 15.734375 40.316406 15.695312 40.417969 15.660156 C 40.914062 15.496094 41.484375 15.472656 42.011719 15.582031 C 42.546875 15.691406 43.042969 15.941406 43.378906 16.324219 C 43.433594 16.386719 43.480469 16.449219 43.527344 16.515625 C 43.636719 16.527344 43.746094 16.546875 43.851562 16.566406 C 44.523438 16.6875 45.128906 16.921875 45.597656 17.304688 C 46.453125 18 46.839844 19.160156 46.289062 20.960938 C 45.753906 22.722656 44.785156 23.09375 43.933594 22.832031 C 43.46875 22.691406 43.042969 22.359375 42.738281 21.964844 C 42.679688 21.882812 42.625 21.800781 42.574219 21.71875 Z M 43.789062 19.921875 C 43.621094 20.351562 43.363281 20.796875 43.054688 21.191406 C 43.617188 21.105469 43.925781 20.941406 44.082031 20.757812 C 44.15625 20.667969 44.191406 20.574219 44.203125 20.484375 C 44.210938 20.390625 44.191406 20.296875 44.160156 20.214844 C 44.097656 20.050781 44 19.933594 43.960938 19.929688 C 43.902344 19.925781 43.84375 19.925781 43.789062 19.921875 Z M 43.730469 18.238281 C 43.929688 18.421875 44.011719 18.703125 43.996094 19.035156 C 43.988281 19.234375 43.945312 19.453125 43.875 19.679688 L 43.972656 19.683594 C 44.082031 19.691406 44.292969 19.878906 44.390625 20.128906 C 44.433594 20.242188 44.457031 20.375 44.445312 20.507812 C 44.433594 20.644531 44.378906 20.785156 44.269531 20.917969 C 44.058594 21.164062 43.625 21.382812 42.820312 21.46875 L 42.753906 21.542969 C 42.804688 21.632812 42.867188 21.726562 42.933594 21.8125 C 43.210938 22.171875 43.59375 22.46875 44.003906 22.597656 C 44.738281 22.820312 45.574219 22.476562 46.058594 20.886719 C 46.574219 19.203125 46.226562 18.125 45.445312 17.492188 C 45.011719 17.140625 44.441406 16.917969 43.808594 16.804688 C 43.765625 16.796875 43.722656 16.789062 43.679688 16.78125 C 43.855469 17.179688 43.894531 17.664062 43.730469 18.238281 Z M 41.542969 18.097656 C 41.976562 18.023438 42.492188 17.992188 43.09375 18.015625 C 43.257812 18.019531 43.398438 18.050781 43.511719 18.097656 C 43.65625 17.550781 43.585938 17.097656 43.382812 16.742188 C 42.867188 16.6875 42.320312 16.695312 41.78125 16.753906 C 41.390625 16.792969 41.007812 16.859375 40.640625 16.945312 C 40.65625 17.03125 40.667969 17.125 40.675781 17.222656 C 40.859375 17.355469 41.03125 17.503906 41.1875 17.667969 C 41.316406 17.804688 41.4375 17.945312 41.542969 18.097656 Z M 39.824219 19.949219 C 39.835938 20.035156 39.859375 20.121094 39.886719 20.203125 C 40.082031 19.929688 40.214844 19.632812 40.273438 19.324219 C 40.308594 19.136719 40.339844 18.957031 40.363281 18.785156 C 40.226562 18.882812 40.117188 18.988281 40.03125 19.101562 C 39.839844 19.363281 39.78125 19.660156 39.824219 19.949219 Z M 39.636719 20.230469 C 39.632812 20.207031 39.625 20.183594 39.617188 20.15625 L 39.601562 20.226562 Z M 40.234375 20.777344 C 40.558594 21.144531 41.042969 21.398438 41.554688 21.386719 C 41.570312 21.34375 41.589844 21.300781 41.605469 21.253906 C 41.757812 20.855469 41.839844 20.480469 41.863281 20.132812 C 41.652344 20.21875 41.425781 20.296875 41.195312 20.355469 C 40.816406 20.453125 40.421875 20.507812 40.027344 20.503906 C 40.085938 20.601562 40.15625 20.691406 40.234375 20.777344 Z M 41.4375 21.628906 C 40.898438 21.605469 40.398438 21.332031 40.050781 20.941406 C 39.96875 20.851562 39.898438 20.753906 39.832031 20.652344 C 39.800781 20.6875 39.769531 20.722656 39.734375 20.757812 C 40.054688 21.773438 40.53125 22.175781 41.042969 22.195312 C 41.191406 22.039062 41.324219 21.847656 41.4375 21.628906 Z M 42.160156 21.507812 C 42.125 21.523438 42.089844 21.535156 42.050781 21.546875 C 41.941406 21.582031 41.828125 21.605469 41.714844 21.621094 C 41.621094 21.820312 41.515625 21.996094 41.394531 22.15625 C 41.753906 22.0625 42.117188 21.820312 42.449219 21.5 C 42.355469 21.503906 42.261719 21.507812 42.160156 21.507812 Z M 42.816406 21.097656 C 42.769531 21.148438 42.71875 21.195312 42.660156 21.238281 L 42.699219 21.234375 C 42.738281 21.191406 42.777344 21.144531 42.816406 21.097656 Z M 42.785156 19.875 C 42.761719 19.8125 42.730469 19.746094 42.695312 19.683594 C 42.519531 19.804688 42.324219 19.917969 42.117188 20.019531 C 42.101562 20.425781 42.015625 20.867188 41.835938 21.339844 L 41.832031 21.351562 L 41.859375 21.347656 C 41.878906 21.296875 41.921875 21.265625 41.976562 21.265625 L 42.117188 21.265625 C 42.195312 21.234375 42.265625 21.199219 42.328125 21.164062 C 42.285156 21 42.265625 20.84375 42.273438 20.691406 C 42.292969 20.355469 42.449219 20.058594 42.785156 19.875 Z M 42.871094 20.421875 C 42.878906 20.324219 42.875 20.226562 42.855469 20.125 C 42.636719 20.269531 42.53125 20.472656 42.515625 20.703125 C 42.511719 20.804688 42.519531 20.910156 42.542969 21.015625 C 42.742188 20.847656 42.847656 20.640625 42.871094 20.421875 Z M 43.082031 20.019531 C 43.117188 20.164062 43.128906 20.308594 43.113281 20.445312 C 43.097656 20.613281 43.042969 20.777344 42.953125 20.921875 C 43.1875 20.605469 43.382812 20.265625 43.523438 19.933594 C 43.355469 19.945312 43.207031 19.976562 43.082031 20.019531 Z M 42.894531 19.535156 C 42.9375 19.617188 42.976562 19.699219 43.007812 19.78125 C 43.179688 19.722656 43.382812 19.6875 43.621094 19.679688 C 43.695312 19.449219 43.746094 19.226562 43.75 19.027344 C 43.757812 18.828125 43.722656 18.652344 43.632812 18.519531 C 43.597656 18.617188 43.550781 18.714844 43.503906 18.820312 C 43.382812 19.066406 43.171875 19.3125 42.894531 19.535156 Z M 41.542969 18.566406 C 41.449219 18.507812 41.347656 18.457031 41.242188 18.40625 C 41.007812 18.464844 40.804688 18.539062 40.632812 18.625 C 40.605469 18.859375 40.566406 19.105469 40.515625 19.371094 C 40.457031 19.679688 40.328125 19.976562 40.144531 20.257812 C 40.476562 20.25 40.8125 20.199219 41.136719 20.117188 C 41.390625 20.050781 41.640625 19.964844 41.871094 19.863281 C 41.867188 19.378906 41.746094 18.945312 41.542969 18.566406 Z M 42.363281 19.21875 C 42.238281 19.078125 42.09375 18.945312 41.929688 18.820312 C 42.035156 19.105469 42.101562 19.414062 42.117188 19.746094 C 42.277344 19.664062 42.429688 19.574219 42.570312 19.476562 C 42.507812 19.390625 42.4375 19.304688 42.363281 19.21875 Z M 41.730469 18.390625 C 42.050781 18.585938 42.324219 18.8125 42.546875 19.054688 C 42.625 19.144531 42.699219 19.234375 42.765625 19.328125 C 43 19.136719 43.179688 18.925781 43.285156 18.714844 C 43.34375 18.585938 43.394531 18.464844 43.4375 18.34375 C 43.34375 18.296875 43.226562 18.265625 43.085938 18.261719 C 42.542969 18.238281 42.082031 18.261719 41.6875 18.320312 Z M 37.34375 18.757812 C 37.066406 18.945312 36.789062 19.171875 36.515625 19.441406 C 36.648438 19.6875 36.800781 19.921875 36.96875 20.128906 C 37.179688 20.390625 37.40625 20.617188 37.640625 20.785156 C 37.570312 20.347656 37.558594 19.847656 37.617188 19.285156 C 37.515625 19.125 37.421875 18.953125 37.34375 18.757812 Z M 37.734375 18.527344 C 37.671875 18.558594 37.613281 18.589844 37.554688 18.625 C 37.589844 18.71875 37.628906 18.804688 37.667969 18.886719 C 37.6875 18.769531 37.707031 18.648438 37.734375 18.527344 Z M 39.109375 18.078125 C 38.851562 18.113281 38.585938 18.175781 38.324219 18.265625 C 38.691406 18.449219 38.972656 18.71875 39.132812 19.085938 C 39.15625 19.148438 39.179688 19.214844 39.199219 19.28125 C 39.15625 18.917969 39.125 18.519531 39.109375 18.078125 Z M 39.40625 18.050781 L 39.351562 18.054688 C 39.371094 18.613281 39.414062 19.101562 39.472656 19.535156 C 39.554688 18.882812 39.523438 18.398438 39.40625 18.050781 Z M 40.433594 18.136719 C 40.1875 18.082031 39.925781 18.050781 39.660156 18.046875 C 39.738281 18.320312 39.777344 18.65625 39.757812 19.070312 C 39.78125 19.035156 39.808594 18.996094 39.835938 18.957031 C 39.96875 18.777344 40.15625 18.613281 40.40625 18.472656 C 40.417969 18.355469 40.425781 18.246094 40.433594 18.136719 Z M 40.839844 18.25 C 40.785156 18.230469 40.730469 18.210938 40.675781 18.195312 L 40.664062 18.34375 C 40.730469 18.316406 40.804688 18.289062 40.878906 18.261719 Z M 40.691406 17.945312 C 40.765625 17.96875 40.84375 17.992188 40.917969 18.015625 C 41.039062 18.058594 41.15625 18.101562 41.269531 18.152344 L 41.277344 18.148438 C 41.195312 18.042969 41.109375 17.9375 41.011719 17.839844 C 40.910156 17.734375 40.804688 17.640625 40.691406 17.546875 C 40.695312 17.671875 40.695312 17.804688 40.691406 17.945312 Z M 39.570312 17.800781 C 39.875 17.796875 40.167969 17.828125 40.449219 17.886719 C 40.453125 17.695312 40.453125 17.519531 40.441406 17.355469 C 40.3125 17.265625 40.179688 17.183594 40.046875 17.105469 C 39.792969 17.183594 39.554688 17.273438 39.335938 17.367188 L 39.339844 17.433594 C 39.367188 17.46875 39.394531 17.5 39.421875 17.535156 C 39.476562 17.613281 39.527344 17.703125 39.570312 17.800781 Z M 38.292969 18.015625 C 38.566406 17.925781 38.835938 17.863281 39.101562 17.832031 C 39.097656 17.734375 39.097656 17.636719 39.097656 17.535156 C 39.082031 17.523438 39.070312 17.511719 39.054688 17.5 C 38.738281 17.660156 38.476562 17.835938 38.292969 18.015625 Z M 37.46875 18.390625 C 37.523438 18.359375 37.578125 18.328125 37.636719 18.300781 C 37.570312 18.289062 37.503906 18.277344 37.433594 18.269531 C 37.445312 18.308594 37.457031 18.351562 37.46875 18.390625 Z M 36.402344 19.210938 C 36.683594 18.9375 36.96875 18.710938 37.253906 18.523438 C 37.226562 18.433594 37.199219 18.34375 37.175781 18.246094 C 37.046875 18.238281 36.910156 18.242188 36.773438 18.25 C 36.5625 18.257812 36.339844 18.285156 36.117188 18.328125 C 36.171875 18.625 36.269531 18.925781 36.402344 19.210938 Z M 36.269531 19.699219 C 36.226562 19.75 36.148438 19.753906 36.097656 19.710938 C 36.046875 19.664062 36.042969 19.589844 36.085938 19.539062 C 36.132812 19.488281 36.175781 19.441406 36.21875 19.394531 C 36.0625 19.066406 35.945312 18.722656 35.878906 18.378906 L 35.777344 18.402344 C 35.582031 19.25 35.980469 20.066406 36.550781 20.632812 C 36.765625 20.847656 37.003906 21.027344 37.242188 21.160156 C 37.425781 21.257812 37.605469 21.332031 37.777344 21.378906 C 37.753906 21.296875 37.730469 21.210938 37.707031 21.121094 C 37.382812 20.933594 37.0625 20.636719 36.777344 20.285156 C 36.617188 20.082031 36.46875 19.859375 36.339844 19.625 Z M 39.644531 31.683594 C 39.710938 31.699219 39.753906 31.765625 39.738281 31.832031 C 39.722656 31.898438 39.65625 31.9375 39.589844 31.921875 C 37.601562 31.476562 36.71875 29.625 36.457031 28.300781 C 36.441406 28.230469 36.429688 28.15625 36.417969 28.085938 C 36.214844 28.117188 35.980469 28.136719 35.726562 28.136719 C 35.300781 28.140625 34.824219 28.09375 34.375 27.980469 C 33.835938 27.84375 33.332031 27.605469 32.996094 27.242188 C 32.625 27.378906 32.109375 27.371094 31.402344 27.113281 C 29.484375 26.414062 29.621094 19.929688 29.660156 18.117188 L 29.660156 18.101562 C 29.675781 17.378906 30.277344 15.96875 31.160156 14.851562 C 31.832031 14.007812 32.667969 13.328125 33.550781 13.226562 C 33.726562 13.203125 33.890625 13.191406 34.039062 13.183594 C 34.277344 12.925781 34.605469 12.671875 35.003906 12.429688 C 35.746094 11.976562 36.746094 11.5625 37.859375 11.25 C 38.96875 10.9375 40.199219 10.726562 41.414062 10.683594 C 44.851562 10.570312 48.148438 11.800781 48.289062 15.871094 C 48.289062 15.957031 48.28125 16.035156 48.261719 16.109375 C 48.808594 16.53125 49.363281 17.132812 49.839844 17.835938 C 50.351562 18.589844 50.773438 19.46875 51.007812 20.386719 C 51.6875 23.058594 50.761719 26.0625 45.714844 27.347656 C 45.542969 27.390625 44.0625 27.425781 42.78125 27.414062 C 41.871094 27.40625 41.050781 27.375 40.851562 27.300781 C 40.785156 27.277344 40.753906 27.207031 40.777344 27.140625 C 40.800781 27.078125 40.871094 27.046875 40.933594 27.070312 C 41.109375 27.132812 41.898438 27.164062 42.785156 27.171875 C 44.046875 27.183594 45.496094 27.148438 45.652344 27.109375 C 50.519531 25.871094 51.417969 23 50.769531 20.445312 C 50.542969 19.558594 50.132812 18.707031 49.636719 17.972656 C 49.1875 17.3125 48.671875 16.746094 48.164062 16.339844 C 47.992188 16.625 47.660156 16.824219 47.292969 16.9375 C 46.972656 17.035156 46.621094 17.066406 46.328125 17.027344 C 46.007812 16.980469 45.75 16.855469 45.644531 16.636719 C 45.546875 16.433594 45.578125 16.167969 45.824219 15.835938 C 46.292969 15.195312 47.144531 15.324219 48.039062 15.945312 C 48.042969 15.921875 48.042969 15.902344 48.042969 15.878906 C 47.910156 11.988281 44.734375 10.816406 41.421875 10.929688 C 40.230469 10.96875 39.019531 11.175781 37.925781 11.484375 C 36.828125 11.789062 35.855469 12.199219 35.128906 12.636719 C 34.839844 12.8125 34.589844 12.992188 34.390625 13.175781 C 34.851562 13.183594 35.140625 13.261719 35.304688 13.382812 C 35.582031 13.59375 35.535156 13.886719 35.328125 14.15625 C 35.148438 14.390625 34.839844 14.605469 34.542969 14.703125 C 34.21875 14.8125 33.898438 14.785156 33.738281 14.519531 C 33.53125 14.179688 33.582031 13.8125 33.832031 13.441406 C 33.75 13.449219 33.664062 13.457031 33.574219 13.464844 C 32.769531 13.558594 31.988281 14.203125 31.351562 15.003906 C 30.496094 16.078125 29.917969 17.425781 29.902344 18.105469 L 29.902344 18.117188 C 29.863281 19.894531 29.730469 26.242188 31.484375 26.878906 C 32.074219 27.097656 32.511719 27.121094 32.824219 27.027344 C 32.574219 26.644531 32.476562 26.148438 32.640625 25.507812 C 32.796875 24.894531 33.039062 24.703125 33.269531 24.761719 C 33.46875 24.8125 33.644531 25.085938 33.726562 25.433594 C 33.804688 25.761719 33.808594 26.164062 33.683594 26.515625 C 33.59375 26.753906 33.449219 26.96875 33.230469 27.117188 C 33.53125 27.421875 33.96875 27.621094 34.433594 27.742188 C 34.863281 27.851562 35.316406 27.894531 35.722656 27.890625 C 35.964844 27.890625 36.191406 27.871094 36.382812 27.84375 C 36.355469 27.589844 36.355469 27.367188 36.378906 27.203125 C 36.425781 26.828125 36.578125 26.675781 36.800781 26.863281 C 36.910156 26.949219 37.035156 27.179688 37.167969 27.589844 C 37.222656 27.769531 37.074219 27.910156 36.785156 28 C 36.746094 28.015625 36.703125 28.027344 36.65625 28.039062 C 36.664062 28.109375 36.679688 28.179688 36.691406 28.253906 C 36.949219 29.507812 37.777344 31.265625 39.644531 31.683594 Z M 39.644531 31.683594 " fill-opacity="1" fill-rule="nonzero"/></g><g clip-path="url(#c4b4e98127)"><path fill="#e6e6e6" d="M 19.460938 54.492188 L 16.898438 50.242188 C 16.363281 51.039062 16.046875 51.992188 16.046875 53.023438 C 16.046875 53.535156 16.125 54.027344 16.269531 54.492188 Z M 19.460938 54.492188 " fill-opacity="1" fill-rule="nonzero"/></g><g clip-path="url(#e1a3f3ccae)"><path fill="#e6e6e6" d="M 20.535156 50.914062 L 25.523438 50.914062 C 24.882812 49.550781 23.640625 48.523438 22.140625 48.179688 Z M 20.535156 50.914062 " fill-opacity="1" fill-rule="nonzero"/></g><g clip-path="url(#832c2b2b13)"><path fill="#e6e6e6" d="M 18.933594 52.453125 L 21.507812 48.074219 C 21.347656 48.058594 21.183594 48.050781 21.023438 48.050781 C 19.539062 48.050781 18.207031 48.703125 17.292969 49.734375 Z M 18.933594 52.453125 " fill-opacity="1" fill-rule="nonzero"/></g><g clip-path="url(#5280f47dfb)"><path fill="#e6e6e6" d="M 19.96875 57.839844 L 21.542969 55.09375 L 16.5 55.09375 C 17.164062 56.53125 18.492188 57.601562 20.085938 57.90625 Z M 19.96875 57.839844 " fill-opacity="1" fill-rule="nonzero"/></g><path fill="#e6e6e6" d="M 22.578125 51.515625 L 25.089844 55.878906 C 25.660156 55.070312 25.996094 54.085938 25.996094 53.023438 C 25.996094 52.496094 25.914062 51.992188 25.761719 51.515625 Z M 22.578125 51.515625 " fill-opacity="1" fill-rule="nonzero"/><path fill="#e6e6e6" d="M 23.089844 53.609375 L 20.585938 57.976562 C 20.730469 57.988281 20.875 57.996094 21.023438 57.996094 C 22.472656 57.996094 23.777344 57.371094 24.6875 56.378906 Z M 23.089844 53.609375 " fill-opacity="1" fill-rule="nonzero"/><g clip-path="url(#49dd6cbd26)"><path fill="#e6e6e6" d="M 42.636719 31.339844 C 42.535156 31.324219 42.460938 31.3125 42.378906 31.296875 C 42.367188 31.34375 42.347656 31.375 42.347656 31.402344 C 42.351562 31.578125 42.363281 31.757812 42.363281 31.9375 C 42.363281 32.03125 42.382812 32.144531 42.335938 32.210938 C 42.238281 32.355469 42.292969 32.46875 42.351562 32.59375 C 42.378906 32.648438 42.40625 32.707031 42.425781 32.765625 C 42.523438 33.007812 42.519531 33.015625 42.222656 33.121094 C 42.140625 33.398438 42.054688 33.691406 41.964844 33.984375 C 41.925781 34.113281 41.828125 34.1875 41.703125 34.160156 C 41.324219 34.074219 41.148438 34.253906 40.996094 34.578125 C 40.820312 34.953125 40.820312 35.09375 41.113281 35.375 C 41.222656 35.480469 41.316406 35.617188 41.375 35.757812 C 41.691406 36.539062 41.867188 37.355469 41.964844 38.191406 C 42.054688 38.992188 42.179688 39.792969 42.261719 40.59375 C 42.332031 41.261719 42.359375 41.933594 42.410156 42.601562 C 42.421875 42.769531 42.449219 42.933594 42.476562 43.101562 C 42.511719 43.347656 42.488281 43.574219 42.34375 43.789062 C 42.292969 43.855469 42.296875 43.960938 42.285156 44.050781 C 42.109375 45.390625 42.035156 46.746094 41.714844 48.0625 C 41.59375 48.574219 41.484375 49.078125 41.496094 49.609375 C 41.503906 49.996094 41.359375 50.332031 41.046875 50.574219 C 40.945312 50.652344 40.917969 50.746094 40.902344 50.867188 C 40.792969 51.65625 40.679688 52.441406 40.554688 53.230469 C 40.519531 53.449219 40.542969 53.644531 40.652344 53.835938 C 40.675781 53.878906 40.707031 53.925781 40.722656 53.972656 C 40.890625 54.410156 41.09375 54.847656 40.632812 55.238281 C 41.0625 56.074219 41.742188 56.535156 42.644531 56.695312 C 42.871094 56.734375 43.097656 56.777344 43.324219 56.8125 C 43.492188 56.839844 43.582031 56.949219 43.621094 57.101562 C 43.660156 57.242188 43.566406 57.320312 43.476562 57.417969 C 43.273438 57.628906 43.011719 57.734375 42.773438 57.875 C 42.65625 57.945312 42.492188 57.960938 42.351562 57.957031 C 41.910156 57.945312 41.472656 57.910156 41.03125 57.882812 C 40.320312 57.835938 39.609375 57.789062 38.898438 57.742188 C 38.796875 57.734375 38.691406 57.714844 38.570312 57.695312 C 38.5 57.089844 38.246094 56.511719 38.449219 55.929688 C 38.34375 55.785156 38.195312 55.667969 38.1875 55.542969 C 38.179688 55.425781 38.324219 55.304688 38.410156 55.171875 C 38.410156 55.167969 38.417969 55.140625 38.40625 55.128906 C 38.113281 54.644531 38.097656 54.113281 38.152344 53.574219 C 38.25 52.601562 38.335938 51.632812 38.46875 50.664062 C 38.53125 50.203125 38.632812 49.738281 38.835938 49.304688 C 38.878906 49.21875 38.890625 49.105469 38.890625 49.007812 C 38.910156 48.367188 38.917969 47.730469 38.9375 47.089844 C 38.9375 47 38.949219 46.894531 38.992188 46.816406 C 39.113281 46.582031 39.074219 46.347656 39.039062 46.109375 C 38.992188 45.808594 38.953125 45.507812 38.890625 45.210938 C 38.855469 45.0625 38.796875 44.910156 38.722656 44.773438 C 38.566406 44.488281 38.503906 44.191406 38.511719 43.867188 C 38.515625 43.667969 38.476562 43.464844 38.453125 43.203125 C 38.476562 43.171875 38.546875 43.089844 38.585938 42.996094 C 38.675781 42.753906 38.734375 42.496094 38.582031 42.261719 C 38.191406 41.667969 37.941406 41.015625 37.742188 40.339844 C 37.636719 39.972656 37.578125 39.613281 37.617188 39.226562 C 37.640625 38.988281 37.726562 38.726562 37.515625 38.511719 C 37.5 38.492188 37.523438 38.429688 37.53125 38.390625 C 37.671875 37.835938 37.710938 37.277344 37.703125 36.707031 C 37.699219 36.40625 37.726562 36.097656 37.773438 35.800781 C 37.871094 35.167969 38.269531 34.726562 38.753906 34.355469 C 38.933594 34.21875 39.140625 34.109375 39.328125 33.984375 C 39.515625 33.859375 39.625 33.390625 39.539062 33.109375 C 39.4375 32.789062 39.332031 32.472656 39.234375 32.152344 C 39.066406 31.589844 39.1875 31.0625 39.496094 30.59375 C 39.804688 30.121094 40.46875 29.984375 41.054688 30.15625 C 41.390625 30.253906 41.738281 30.296875 42.0625 30.46875 C 42.449219 30.675781 42.585938 30.804688 42.636719 31.339844 Z M 42.636719 31.339844 " fill-opacity="1" fill-rule="nonzero"/></g><g fill="#e6e6e6" fill-opacity="1"><g transform="translate(24.656052, 63.492711)"><g><path d="M 1.484375 0.03125 C 1.234375 0.03125 1.003906 -0.0195312 0.796875 -0.125 C 0.597656 -0.238281 0.441406 -0.390625 0.328125 -0.578125 C 0.210938 -0.773438 0.15625 -0.992188 0.15625 -1.234375 C 0.15625 -1.484375 0.210938 -1.703125 0.328125 -1.890625 C 0.441406 -2.085938 0.597656 -2.238281 0.796875 -2.34375 C 1.003906 -2.457031 1.234375 -2.515625 1.484375 -2.515625 C 1.691406 -2.515625 1.878906 -2.476562 2.046875 -2.40625 C 2.210938 -2.34375 2.351562 -2.242188 2.46875 -2.109375 L 2.171875 -1.828125 C 1.992188 -2.015625 1.769531 -2.109375 1.5 -2.109375 C 1.332031 -2.109375 1.179688 -2.070312 1.046875 -2 C 0.910156 -1.925781 0.804688 -1.820312 0.734375 -1.6875 C 0.660156 -1.5625 0.625 -1.410156 0.625 -1.234375 C 0.625 -1.066406 0.660156 -0.914062 0.734375 -0.78125 C 0.804688 -0.65625 0.910156 -0.554688 1.046875 -0.484375 C 1.179688 -0.410156 1.332031 -0.375 1.5 -0.375 C 1.769531 -0.375 1.992188 -0.46875 2.171875 -0.65625 L 2.46875 -0.375 C 2.351562 -0.238281 2.207031 -0.132812 2.03125 -0.0625 C 1.863281 0 1.679688 0.03125 1.484375 0.03125 Z M 1.484375 0.03125 "/></g></g></g><g fill="#e6e6e6" fill-opacity="1"><g transform="translate(29.371444, 63.492711)"><g><path d="M 0.328125 -2.484375 L 0.796875 -2.484375 L 0.796875 0 L 0.328125 0 Z M 0.328125 -2.484375 "/></g></g></g><g fill="#e6e6e6" fill-opacity="1"><g transform="translate(32.643235, 63.492711)"><g><path d="M 2.546875 -2.484375 L 2.546875 0 L 2.15625 0 L 0.796875 -1.6875 L 0.796875 0 L 0.328125 0 L 0.328125 -2.484375 L 0.71875 -2.484375 L 2.078125 -0.796875 L 2.078125 -2.484375 Z M 2.546875 -2.484375 "/></g></g></g><g fill="#e6e6e6" fill-opacity="1"><g transform="translate(37.652299, 63.492711)"><g><path d="M 2.203125 -0.390625 L 2.203125 0 L 0.328125 0 L 0.328125 -2.484375 L 2.140625 -2.484375 L 2.140625 -2.09375 L 0.796875 -2.09375 L 0.796875 -1.453125 L 2 -1.453125 L 2 -1.078125 L 0.796875 -1.078125 L 0.796875 -0.390625 Z M 2.203125 -0.390625 "/></g></g></g><g fill="#e6e6e6" fill-opacity="1"><g transform="translate(42.166012, 63.492711)"><g><path d="M 2.609375 0 L 2.609375 -1.640625 L 1.796875 -0.28125 L 1.59375 -0.28125 L 0.765625 -1.625 L 0.765625 0 L 0.328125 0 L 0.328125 -2.484375 L 0.71875 -2.484375 L 1.703125 -0.84375 L 2.671875 -2.484375 L 3.046875 -2.484375 L 3.046875 0 Z M 2.609375 0 "/></g></g></g><g fill="#e6e6e6" fill-opacity="1"><g transform="translate(47.688122, 63.492711)"><g><path d="M 1.9375 -0.578125 L 0.703125 -0.578125 L 0.453125 0 L -0.015625 0 L 1.09375 -2.484375 L 1.546875 -2.484375 L 2.671875 0 L 2.1875 0 Z M 1.796875 -0.9375 L 1.328125 -2.015625 L 0.859375 -0.9375 Z M 1.796875 -0.9375 "/></g></g></g><g fill="#e6e6e6" fill-opacity="1"><g transform="translate(5.633874, 58.706232)"><g><path d="M 4.96875 0.1875 C 4.09375 0.1875 3.242188 0.0664062 2.421875 -0.171875 C 1.597656 -0.410156 0.9375 -0.71875 0.4375 -1.09375 L 1.3125 -3.03125 C 1.789062 -2.6875 2.359375 -2.40625 3.015625 -2.1875 C 3.671875 -1.976562 4.328125 -1.875 4.984375 -1.875 C 5.722656 -1.875 6.265625 -1.984375 6.609375 -2.203125 C 6.960938 -2.421875 7.140625 -2.707031 7.140625 -3.0625 C 7.140625 -3.332031 7.035156 -3.550781 6.828125 -3.71875 C 6.617188 -3.894531 6.351562 -4.035156 6.03125 -4.140625 C 5.707031 -4.253906 5.269531 -4.375 4.71875 -4.5 C 3.875 -4.695312 3.179688 -4.894531 2.640625 -5.09375 C 2.097656 -5.300781 1.632812 -5.625 1.25 -6.0625 C 0.863281 -6.507812 0.671875 -7.101562 0.671875 -7.84375 C 0.671875 -8.488281 0.84375 -9.070312 1.1875 -9.59375 C 1.539062 -10.125 2.066406 -10.539062 2.765625 -10.84375 C 3.472656 -11.15625 4.335938 -11.3125 5.359375 -11.3125 C 6.066406 -11.3125 6.757812 -11.226562 7.4375 -11.0625 C 8.113281 -10.894531 8.707031 -10.648438 9.21875 -10.328125 L 8.421875 -8.375 C 7.390625 -8.957031 6.363281 -9.25 5.34375 -9.25 C 4.625 -9.25 4.085938 -9.128906 3.734375 -8.890625 C 3.390625 -8.660156 3.21875 -8.359375 3.21875 -7.984375 C 3.21875 -7.597656 3.414062 -7.3125 3.8125 -7.125 C 4.21875 -6.9375 4.828125 -6.753906 5.640625 -6.578125 C 6.484375 -6.378906 7.175781 -6.175781 7.71875 -5.96875 C 8.257812 -5.769531 8.722656 -5.453125 9.109375 -5.015625 C 9.492188 -4.585938 9.6875 -4 9.6875 -3.25 C 9.6875 -2.613281 9.507812 -2.035156 9.15625 -1.515625 C 8.800781 -0.992188 8.269531 -0.578125 7.5625 -0.265625 C 6.851562 0.0351562 5.988281 0.1875 4.96875 0.1875 Z M 4.96875 0.1875 "/></g></g></g><g fill="#e6e6e6" fill-opacity="1"><g transform="translate(14.147141, 58.706232)"><g><path d="M 6.703125 0.1875 C 5.546875 0.1875 4.503906 -0.0546875 3.578125 -0.546875 C 2.648438 -1.046875 1.925781 -1.734375 1.40625 -2.609375 C 0.882812 -3.484375 0.625 -4.46875 0.625 -5.5625 C 0.625 -6.65625 0.882812 -7.640625 1.40625 -8.515625 C 1.925781 -9.390625 2.648438 -10.070312 3.578125 -10.5625 C 4.503906 -11.0625 5.546875 -11.3125 6.703125 -11.3125 C 7.859375 -11.3125 8.894531 -11.0625 9.8125 -10.5625 C 10.738281 -10.070312 11.46875 -9.390625 12 -8.515625 C 12.53125 -7.640625 12.796875 -6.65625 12.796875 -5.5625 C 12.796875 -4.46875 12.53125 -3.484375 12 -2.609375 C 11.46875 -1.734375 10.738281 -1.046875 9.8125 -0.546875 C 8.894531 -0.0546875 7.859375 0.1875 6.703125 0.1875 Z M 6.703125 -2 C 7.359375 -2 7.953125 -2.148438 8.484375 -2.453125 C 9.015625 -2.753906 9.429688 -3.175781 9.734375 -3.71875 C 10.035156 -4.257812 10.1875 -4.875 10.1875 -5.5625 C 10.1875 -6.25 10.035156 -6.863281 9.734375 -7.40625 C 9.429688 -7.945312 9.015625 -8.367188 8.484375 -8.671875 C 7.953125 -8.972656 7.359375 -9.125 6.703125 -9.125 C 6.046875 -9.125 5.453125 -8.972656 4.921875 -8.671875 C 4.390625 -8.367188 3.972656 -7.945312 3.671875 -7.40625 C 3.367188 -6.863281 3.21875 -6.25 3.21875 -5.5625 C 3.21875 -4.875 3.367188 -4.257812 3.671875 -3.71875 C 3.972656 -3.175781 4.390625 -2.753906 4.921875 -2.453125 C 5.453125 -2.148438 6.046875 -2 6.703125 -2 Z M 6.703125 -2 "/></g></g></g><g fill="#e6e6e6" fill-opacity="1"><g transform="translate(25.932296, 58.706232)"><g><path d="M 11.515625 -11.125 L 11.515625 0 L 9.40625 0 L 3.859375 -6.75 L 3.859375 0 L 1.3125 0 L 1.3125 -11.125 L 3.453125 -11.125 L 8.984375 -4.375 L 8.984375 -11.125 Z M 11.515625 -11.125 "/></g></g></g><g fill="#e6e6e6" fill-opacity="1"><g transform="translate(37.145666, 58.706232)"><g><path d="M 1.3125 -11.125 L 6.375 -11.125 C 7.582031 -11.125 8.648438 -10.890625 9.578125 -10.421875 C 10.503906 -9.960938 11.222656 -9.316406 11.734375 -8.484375 C 12.242188 -7.648438 12.5 -6.675781 12.5 -5.5625 C 12.5 -4.445312 12.242188 -3.46875 11.734375 -2.625 C 11.222656 -1.789062 10.503906 -1.144531 9.578125 -0.6875 C 8.648438 -0.226562 7.582031 0 6.375 0 L 1.3125 0 Z M 6.25 -2.109375 C 7.351562 -2.109375 8.238281 -2.414062 8.90625 -3.03125 C 9.570312 -3.65625 9.90625 -4.5 9.90625 -5.5625 C 9.90625 -6.625 9.570312 -7.460938 8.90625 -8.078125 C 8.238281 -8.703125 7.351562 -9.015625 6.25 -9.015625 L 3.890625 -9.015625 L 3.890625 -2.109375 Z M 6.25 -2.109375 "/></g></g></g><g fill="#e6e6e6" fill-opacity="1"><g transform="translate(48.644931, 58.706232)"><g><path d="M 9.9375 -2.0625 L 9.9375 0 L 1.3125 0 L 1.3125 -11.125 L 9.71875 -11.125 L 9.71875 -9.0625 L 3.875 -9.0625 L 3.875 -6.640625 L 9.046875 -6.640625 L 9.046875 -4.640625 L 3.875 -4.640625 L 3.875 -2.0625 Z M 9.9375 -2.0625 "/></g></g></g><g fill="#e6e6e6" fill-opacity="1"><g transform="translate(57.682337, 58.706232)"><g><path d="M 8.40625 0 L 6.265625 -3.09375 L 3.890625 -3.09375 L 3.890625 0 L 1.3125 0 L 1.3125 -11.125 L 6.140625 -11.125 C 7.117188 -11.125 7.96875 -10.957031 8.6875 -10.625 C 9.414062 -10.300781 9.976562 -9.835938 10.375 -9.234375 C 10.769531 -8.628906 10.96875 -7.914062 10.96875 -7.09375 C 10.96875 -6.257812 10.765625 -5.539062 10.359375 -4.9375 C 9.960938 -4.34375 9.398438 -3.890625 8.671875 -3.578125 L 11.171875 0 Z M 8.359375 -7.09375 C 8.359375 -7.71875 8.15625 -8.195312 7.75 -8.53125 C 7.351562 -8.863281 6.765625 -9.03125 5.984375 -9.03125 L 3.890625 -9.03125 L 3.890625 -5.15625 L 5.984375 -5.15625 C 6.765625 -5.15625 7.351562 -5.320312 7.75 -5.65625 C 8.15625 -6 8.359375 -6.476562 8.359375 -7.09375 Z M 8.359375 -7.09375 "/></g></g></g></svg>