<?xml version="1.0" encoding="UTF-8"?>
<svg version="1.1" xmlns="http://www.w3.org/2000/svg" width="512" height="512">
<path d="M0 0 C0.83088638 -0.00938095 1.66177277 -0.0187619 2.51783752 -0.02842712 C3.40647995 -0.01719315 4.29512238 -0.00595917 5.21069336 0.00561523 C6.58988197 0.00343239 6.58988197 0.00343239 7.99693298 0.00120544 C9.93776625 0.00286337 11.87861281 0.01441275 13.81933594 0.03515625 C16.79345355 0.06413995 19.76579183 0.05575748 22.73999023 0.04272461 C24.62606662 0.04896124 26.51213738 0.0573516 28.39819336 0.06811523 C29.28886002 0.0651796 30.17952667 0.06224396 31.09718323 0.05921936 C31.92491745 0.07190353 32.75265167 0.08458771 33.60546875 0.09765625 C34.33286758 0.10305923 35.06026642 0.10846222 35.80970764 0.11402893 C38.28798673 0.61227334 39.16082295 1.56710145 40.73803711 3.50170898 C42.09504358 6.21572192 41.85042321 8.35017215 41.83569336 11.38452148 C41.8324707 12.55112305 41.82924805 13.71772461 41.82592773 14.91967773 C41.81754883 16.14299805 41.80916992 17.36631836 41.80053711 18.62670898 C41.79602539 19.85776367 41.79151367 21.08881836 41.78686523 22.35717773 C41.77505041 25.4054029 41.75857738 28.45353212 41.73803711 31.50170898 C42.53725586 31.55721924 43.33647461 31.61272949 44.15991211 31.66992188 C50.66606631 32.14289714 57.12727883 32.75374894 63.60058594 33.55517578 C108.5345041 39.05521883 153.95578618 38.74503839 198.86303711 33.18530273 C205.13946691 32.41464437 211.43074572 31.93978598 217.73803711 31.50170898 C217.72756348 30.73503906 217.71708984 29.96836914 217.70629883 29.1784668 C217.66471012 25.70291424 217.6387016 22.22741407 217.61303711 18.75170898 C217.5962793 17.54514648 217.57952148 16.33858398 217.56225586 15.09545898 C217.55581055 13.93530273 217.54936523 12.77514648 217.54272461 11.57983398 C217.53225098 10.51152344 217.52177734 9.44321289 217.51098633 8.3425293 C217.73881711 5.49194972 218.17115963 3.87093224 219.73803711 1.50170898 C221.9912027 0.37512619 223.25605778 0.35845145 225.75708008 0.32470703 C226.58488983 0.3118718 227.41269958 0.29903656 228.26559448 0.28581238 C229.16142242 0.27842545 230.05725037 0.27103851 230.98022461 0.26342773 C231.90014191 0.25535599 232.8200592 0.24728424 233.76785278 0.2389679 C235.71639113 0.22512541 237.66495374 0.21440399 239.61352539 0.20654297 C242.59429773 0.18931728 245.57396467 0.14543161 248.55444336 0.10131836 C250.44636228 0.09119263 252.33829063 0.08267615 254.23022461 0.07592773 C255.12200409 0.05841965 256.01378357 0.04091156 256.93258667 0.02287292 C258.18375778 0.02726128 258.18375778 0.02726128 259.46020508 0.03173828 C260.19141571 0.02587204 260.92262634 0.0200058 261.67599487 0.01396179 C264.80761831 0.75470343 265.80612174 1.91766953 267.73803711 4.50170898 C268.33392834 7.55612331 268.26017345 10.5730897 268.21905518 13.67645264 C268.22247288 14.61500383 268.22589057 15.55355502 268.22941184 16.52054715 C268.23601318 19.67310473 268.21397705 22.82481547 268.19213867 25.97729492 C268.19101068 28.23401367 268.1916431 30.49073389 268.19390869 32.74745178 C268.19505866 38.8814448 268.17150333 45.0151264 268.14361286 51.1490469 C268.11864641 57.55656299 268.11626096 63.96408584 268.11151123 70.37164307 C268.10048222 81.12876816 268.07547948 91.8857568 268.03979492 102.64282227 C268.00307815 113.72256905 267.97476478 124.80228474 267.95776367 135.88208008 C267.95671278 136.56505117 267.95566188 137.24802226 267.95457914 137.95168945 C267.94935899 141.37795904 267.94430416 144.80422884 267.93933153 148.23049879 C267.89786547 176.65431435 267.82711617 205.07800553 267.73803711 233.50170898 C268.35459671 233.56079941 268.97115631 233.61988983 269.60639954 233.68077087 C270.41594589 233.76339676 271.22549225 233.84602264 272.05957031 233.93115234 C272.86175491 234.01086777 273.66393951 234.09058319 274.49043274 234.17271423 C280.9506216 235.11832915 286.3270568 239.53988392 290.23803711 244.56420898 C294.7066515 250.9163963 295.00219936 256.24057122 294.86303711 263.81420898 C294.85401367 264.74555664 294.84499023 265.6769043 294.83569336 266.63647461 C294.81222133 268.92499721 294.7763532 271.21338678 294.73803711 273.50170898 C300.34803711 273.50170898 305.95803711 273.50170898 311.73803711 273.50170898 C311.72915466 271.85768097 311.72027222 270.21365295 311.71112061 268.51980591 C311.62996746 253.01213276 311.56979859 237.50452575 311.53078842 221.99669075 C311.51019901 214.02431816 311.48214813 206.05210452 311.4362793 198.07983398 C311.39630011 191.12788051 311.37057799 184.17604221 311.36168313 177.22397697 C311.35648701 173.54586196 311.34435095 169.86807631 311.31511688 166.19006729 C311.28267859 162.07521457 311.28208476 157.96092758 311.28393555 153.84594727 C311.26955444 152.6382518 311.25517334 151.43055634 311.24035645 150.18626404 C311.2811856 141.77467341 312.68849087 134.9095684 317.52709961 127.91577148 C318.13295898 127.32538086 318.73881836 126.73499023 319.36303711 126.12670898 C319.95342773 125.52084961 320.54381836 124.91499023 321.15209961 124.29077148 C329.85077427 118.27265517 338.39082129 117.87877177 348.73803711 118.00170898 C350.03999023 117.98624023 351.34194336 117.97077148 352.68334961 117.95483398 C362.77049808 117.99559014 371.67438564 119.56490535 379.21630859 126.70336914 C385.56210738 134.20267186 386.52886887 141.97191052 386.36303711 151.50170898 C386.38237305 152.61288086 386.40170898 153.72405273 386.42163086 154.86889648 C386.37282701 163.16555076 384.65848677 169.86862183 379.21630859 176.30004883 C369.41563041 185.57643454 357.70818037 185.01354173 345.11303711 184.75170898 C343.42425626 184.73160831 341.73545225 184.71336386 340.04663086 184.69702148 C335.943186 184.65331914 331.840872 184.58449162 327.73803711 184.50170898 C327.74172428 185.12640013 327.74541145 185.75109127 327.74921036 186.39471245 C327.83773055 201.62817534 327.90382865 216.86155876 327.9452858 232.09521294 C327.96586951 239.46225118 327.99390928 246.82911723 328.03979492 254.19604492 C328.07979179 260.62062137 328.10550036 267.04507305 328.11439109 273.46977055 C328.11958427 276.86844089 328.13170103 280.26675445 328.16095734 283.66530991 C328.19010029 287.46889939 328.19398836 291.27175583 328.19213867 295.07543945 C328.20651978 296.18962753 328.22090088 297.30381561 328.23571777 298.45176697 C328.19305026 306.5891885 326.62425153 313.32993181 321.94897461 320.08764648 C321.34311523 320.67803711 320.73725586 321.26842773 320.11303711 321.87670898 C319.52264648 322.48256836 318.93225586 323.08842773 318.32397461 323.71264648 C310.4746266 329.14316218 302.99448622 330.00875665 293.65991211 329.68920898 C291.34092537 329.66471804 289.02191191 329.64265875 286.70288086 329.62280273 C283.09663119 329.57136187 279.49379129 329.50188931 275.88891602 329.38891602 C258.86330235 328.49445108 258.86330235 328.49445108 244.42163086 336.23999023 C242.90786739 337.77254395 241.47541709 339.33499554 240.0783844 340.97434998 C237.92361584 343.42976224 235.49305057 345.52242695 233.05053711 347.68920898 C232.1675293 348.5000293 231.28452148 349.31084961 230.37475586 350.14624023 C227.76544301 352.47722638 225.08990891 354.68498085 222.36303711 356.87670898 C218.15989311 360.26556867 214.17600534 363.81410164 210.23803711 367.50170898 C206.27899771 371.20875118 202.27199842 374.77750612 198.05053711 378.18920898 C197.17397461 378.92526367 196.29741211 379.66131836 195.39428711 380.41967773 C192.73803711 382.50170898 192.73803711 382.50170898 189.83178711 384.17749023 C186.41125205 386.42101534 184.76494162 387.90490557 182.73803711 391.50170898 C181.88213452 395.71410711 181.68273739 399.83538251 181.61303711 404.12670898 C181.5837915 405.2243457 181.5545459 406.32198242 181.52441406 407.45288086 C181.66175418 413.48749396 181.66175418 413.48749396 184.44018555 418.67456055 C186.46074003 420.43604534 188.53780458 421.97381399 190.73803711 423.50170898 C192.25714304 424.98235654 193.76093392 426.47915647 195.23803711 428.00170898 C197.98659701 430.78792039 200.76663502 433.45479291 203.73803711 436.00170898 C207.53162444 439.25335526 211.01196358 442.75883993 214.51928711 446.31420898 C216.53234343 448.2989124 218.59250113 450.16267815 220.73803711 452.00170898 C224.53162444 455.25335526 228.01196358 458.75883993 231.51928711 462.31420898 C233.53234343 464.2989124 235.59250113 466.16267815 237.73803711 468.00170898 C241.53162444 471.25335526 245.01196358 474.75883993 248.51928711 478.31420898 C250.53234343 480.2989124 252.59250113 482.16267815 254.73803711 484.00170898 C258.57930515 487.2986057 262.14775222 490.81797429 265.68334961 494.43920898 C267.62944525 496.44725945 267.62944525 496.44725945 269.41772461 497.93920898 C272.14547449 500.28168346 272.7279599 501.43788667 273.30053711 505.06420898 C272.64314872 509.08158246 271.8640738 510.00997145 268.73803711 512.50170898 C266.31895447 513.04328918 266.31895447 513.04328918 263.59326172 513.09863281 C262.05532204 513.14175346 262.05532204 513.14175346 260.48631287 513.18574524 C259.3821553 513.19333359 258.27799774 513.20092194 257.14038086 513.20874023 C255.99573868 513.22442551 254.8510965 513.24011078 253.67176819 513.25627136 C251.24675913 513.2809087 248.82161624 513.29447953 246.39648438 513.29785156 C242.71179997 513.31404957 239.03292372 513.39941051 235.34936523 513.48803711 C215.61729893 513.72075713 215.61729893 513.72075713 208.96069336 508.32592773 C207.50075465 506.76526111 206.08514999 505.16074131 204.73803711 503.50170898 C203.57831062 502.42029052 202.40306753 501.35504738 201.20678711 500.31420898 C200.21486665 499.37918212 199.2252441 498.44171099 198.23803711 497.50170898 C193.48091953 493.03912346 188.57300278 488.86344486 183.48413086 484.77905273 C180.47484185 482.28344037 177.59873224 479.6639744 174.73803711 477.00170898 C170.04690458 472.63850028 165.21743634 468.51417896 160.20288086 464.52124023 C158.01456417 462.72827712 156.01756511 460.84295549 153.98803711 458.87670898 C151.29196961 456.53538721 150.964629 456.49780223 147.11303711 456.56420898 C145.44241211 457.02827148 145.44241211 457.02827148 143.73803711 457.50170898 C139.12980335 458.66835044 134.64886135 458.68530863 129.92553711 458.68920898 C129.15661133 458.70145508 128.38768555 458.71370117 127.59545898 458.72631836 C123.70544054 458.73616651 120.29137358 458.48855757 116.53881836 457.42749023 C112.55509793 456.45714929 110.59410435 456.18021874 106.73803711 457.50170898 C104.28625997 459.28645301 102.18811703 461.35693787 100.05053711 463.50170898 C98.81214001 464.6995993 97.57123186 465.89489887 96.32788086 467.08764648 C95.71928223 467.67384766 95.11068359 468.26004883 94.48364258 468.86401367 C92.12385891 471.0779198 89.641178 473.10859942 87.11303711 475.12670898 C83.17915746 478.27611996 79.42536893 481.56953131 75.73803711 485.00170898 C72.02944176 488.45334953 68.25297634 491.76693192 64.30053711 494.93920898 C59.31239576 498.94571902 54.62699141 503.2165099 49.9765625 507.60498047 C45.95463167 511.38424593 44.18160487 512.62047389 38.70922852 512.67871094 C37.66119049 512.69154617 36.61315247 512.70438141 35.53335571 512.71760559 C34.3969162 512.72499252 33.26047668 512.73237946 32.08959961 512.73999023 C30.92552582 512.74806198 29.76145203 512.75613373 28.56210327 512.76445007 C26.09569797 512.77829816 23.62927345 512.78901706 21.1628418 512.796875 C17.38545614 512.81410671 13.60894117 512.8579901 9.83178711 512.90209961 C7.43856439 512.91222451 5.04533423 512.92074125 2.65209961 512.92749023 C1.51970856 512.94499832 0.3873175 512.96250641 -0.77938843 512.98054504 C-1.83373077 512.97761948 -2.88807312 512.97469391 -3.97436523 512.97167969 C-4.90098969 512.97754593 -5.82761414 512.98341217 -6.78231812 512.98945618 C-10.05283904 512.34614331 -11.23501486 511.10033843 -13.26196289 508.50170898 C-13.82446289 505.06420898 -13.82446289 505.06420898 -13.26196289 501.50170898 C-11.64193498 499.7385583 -10.00667822 498.13258473 -8.26196289 496.50170898 C-7.09484886 495.33155603 -5.9323762 494.15676205 -4.77368164 492.97827148 C7.04812956 481.05812445 7.04812956 481.05812445 12.91772461 476.10327148 C15.93359849 473.44982021 18.69941425 470.54771024 21.51928711 467.68920898 C24.14574833 465.09974017 26.90780169 462.71333934 29.70678711 460.31420898 C31.97442283 458.29078018 34.10380661 456.16517552 36.23803711 454.00170898 C39.59918193 450.59452109 43.07504914 447.42712724 46.70678711 444.31420898 C48.97442283 442.29078018 51.10380661 440.16517552 53.23803711 438.00170898 C56.59144901 434.60235993 60.05679367 431.43988108 63.68334961 428.33764648 C66.88545529 425.47644939 69.86179488 422.39889177 72.85522461 419.32202148 C74.73803711 417.50170898 74.73803711 417.50170898 76.73803711 416.50170898 C78.74571997 401.60711304 78.74571997 401.60711304 74.67553711 387.93139648 C71.83633709 385.42289874 68.97462966 383.46548424 65.73803711 381.50170898 C63.9245051 380.0706579 62.1323942 378.61203085 60.36303711 377.12670898 C59.45811523 376.39709961 58.55319336 375.66749023 57.62084961 374.91577148 C53.81004908 371.72461332 50.20119938 368.34040895 46.57446289 364.94360352 C43.22721926 361.82631563 39.80807805 358.86604416 36.23803711 356.00170898 C31.54368824 352.2353128 27.12343787 348.2491623 22.76733398 344.10131836 C21.72597789 343.11970108 20.66272841 342.1610066 19.58349609 341.22119141 C17.73803711 339.50170898 17.73803711 339.50170898 15.81640625 337.15136719 C10.23246747 331.20849862 5.79004305 329.97535534 -2.18313599 329.60177612 C-8.06774153 329.50281341 -13.94068052 329.56956694 -19.82446289 329.68920898 C-23.42833321 329.73581804 -27.03132403 329.76913801 -30.63548279 329.78010559 C-32.86735309 329.78955206 -35.09927557 329.82036697 -37.33045959 329.87651062 C-45.45693594 329.95049766 -52.10329048 328.37885697 -58.84790039 323.71264648 C-59.43829102 323.10678711 -60.02868164 322.50092773 -60.63696289 321.87670898 C-61.24282227 321.28631836 -61.84868164 320.69592773 -62.47290039 320.08764648 C-67.92808162 312.20264654 -68.83719067 304.45979462 -68.71606445 295.07543945 C-68.71664856 293.87429001 -68.71723267 292.67314056 -68.71783447 291.43559265 C-68.71554131 288.17361067 -68.69561807 284.91233412 -68.66753864 281.65049124 C-68.64236629 278.22992673 -68.64017062 274.80934524 -68.63543701 271.38870239 C-68.62305334 264.92549011 -68.59029506 258.46255164 -68.55003905 251.99945939 C-68.50517682 244.63544028 -68.48329817 237.27140741 -68.46325731 229.90728545 C-68.42155761 214.77194129 -68.35129644 199.63685265 -68.26196289 184.50170898 C-69.3001416 184.52265625 -70.33832031 184.54360352 -71.40795898 184.56518555 C-75.30299794 184.63822857 -79.19797786 184.68373932 -83.09350586 184.72143555 C-84.7713442 184.74140598 -86.44911425 184.7685923 -88.12670898 184.8034668 C-99.95531828 185.0429979 -110.61410952 184.9379668 -119.74023438 176.30004883 C-126.08603316 168.80074611 -127.05279465 161.03150745 -126.88696289 151.50170898 C-126.90629883 150.39053711 -126.92563477 149.27936523 -126.94555664 148.13452148 C-126.89675279 139.83786721 -125.18241255 133.13479613 -119.74023438 126.70336914 C-111.05916451 118.48669771 -100.69151439 117.86591233 -89.26196289 118.00170898 C-87.96000977 117.98624023 -86.65805664 117.97077148 -85.31665039 117.95483398 C-76.30547675 117.99124277 -69.16449146 119.1099294 -61.67602539 124.29077148 C-61.08563477 124.89663086 -60.49524414 125.50249023 -59.88696289 126.12670898 C-59.28110352 126.71709961 -58.67524414 127.30749023 -58.05102539 127.91577148 C-52.38876849 136.10008168 -51.69201017 144.11700516 -51.80786133 153.84594727 C-51.80727722 155.14463242 -51.80669312 156.44331757 -51.80609131 157.78135681 C-51.80495239 161.3118707 -51.82832642 164.84183136 -51.85638714 168.37221766 C-51.88153953 172.07305691 -51.88375362 175.77391145 -51.88848877 179.474823 C-51.90087819 186.46926468 -51.93364452 193.46345368 -51.97388673 200.45778453 C-52.01873077 208.42639008 -52.0406231 216.39500824 -52.06066847 224.36370873 C-52.10238128 240.74319381 -52.1734679 257.12240906 -52.26196289 273.50170898 C-46.65196289 273.50170898 -41.04196289 273.50170898 -35.26196289 273.50170898 C-35.46821289 271.56295898 -35.67446289 269.62420898 -35.88696289 267.62670898 C-36.56126617 258.34749069 -35.64585882 251.20333172 -30.10180664 243.54467773 C-25.63357684 238.58314018 -19.78880508 234.98508221 -13.26196289 233.50170898 C-11.59547431 233.47734512 -9.92839501 233.47374871 -8.26196289 233.50170898 C-8.26565006 232.32519146 -8.26933723 231.14867393 -8.27313614 229.93650436 C-8.35973346 202.01977826 -8.42570784 174.1030626 -8.46622421 146.18623041 C-8.47122714 142.75151339 -8.47640442 139.31679667 -8.48168945 135.88208008 C-8.48273869 135.19827854 -8.48378794 134.514477 -8.48486897 133.8099542 C-8.50228286 122.73221935 -8.53382592 111.65456739 -8.57057407 100.57688174 C-8.60795623 89.21345901 -8.62989346 77.85009779 -8.63831687 66.4866097 C-8.64354077 60.1024889 -8.65585528 53.71855618 -8.68488312 47.33449554 C-8.71196648 41.32961682 -8.72042216 35.32500426 -8.71439362 29.32007027 C-8.71549702 27.11253222 -8.72349273 24.90498558 -8.73878479 22.69750023 C-8.75860159 19.69015398 -8.75393218 16.68382091 -8.74298096 13.67645264 C-8.75463232 12.79707684 -8.76628369 11.91770105 -8.77828813 11.0116775 C-8.71998796 5.11400376 -8.71998796 5.11400376 -6.36035633 1.95961285 C-3.99974505 0.31952752 -2.84679641 0.00064962 0 0 Z M7.73803711 15.50170898 C7.73803711 87.44170898 7.73803711 159.38170898 7.73803711 233.50170898 C13.67803711 233.50170898 19.61803711 233.50170898 25.73803711 233.50170898 C25.73803711 161.56170898 25.73803711 89.62170898 25.73803711 15.50170898 C19.79803711 15.50170898 13.85803711 15.50170898 7.73803711 15.50170898 Z M233.73803711 15.50170898 C233.73803711 87.44170898 233.73803711 159.38170898 233.73803711 233.50170898 C239.67803711 233.50170898 245.61803711 233.50170898 251.73803711 233.50170898 C251.73803711 161.56170898 251.73803711 89.62170898 251.73803711 15.50170898 C245.79803711 15.50170898 239.85803711 15.50170898 233.73803711 15.50170898 Z M41.73803711 47.50170898 C41.73803711 58.39170898 41.73803711 69.28170898 41.73803711 80.50170898 C46.90997639 81.97940592 51.53049029 82.98490717 56.80444336 83.53686523 C57.56039291 83.62044785 58.31634247 83.70403046 59.09519958 83.79014587 C60.6891315 83.9651708 62.28338493 84.13728987 63.87792969 84.30664062 C66.27022452 84.56098619 68.6613694 84.82446759 71.05249023 85.08959961 C72.61558183 85.26006746 74.17873133 85.43000531 75.74194336 85.59936523 C76.78180138 85.71345482 76.78180138 85.71345482 77.84266663 85.82984924 C89.36506653 87.04560272 100.85225333 87.66151469 112.43725586 87.70483398 C113.69976166 87.71175766 114.96226746 87.71868134 116.26303101 87.72581482 C120.31723549 87.74300222 124.37130457 87.74973268 128.42553711 87.75170898 C129.11560223 87.75244541 129.80566734 87.75318184 130.51664352 87.75394058 C152.38643092 87.7729563 174.01470872 87.24150457 195.73803711 84.50170898 C196.86999512 84.36297363 198.00195312 84.22423828 199.16821289 84.08129883 C209.08049458 83.67917582 209.08049458 83.67917582 217.73803711 80.50170898 C217.82647504 78.05340472 217.85332463 75.633503 217.83569336 73.18530273 C217.83427841 72.4542482 217.83286346 71.72319366 217.83140564 70.96998596 C217.82579119 68.62635266 217.81323633 66.28281359 217.80053711 63.93920898 C217.79552397 62.3539239 217.79096074 60.76863733 217.78686523 59.18334961 C217.77581708 55.28943288 217.75854283 51.39558693 217.73803711 47.50170898 C216.60865723 47.62449219 215.47927734 47.74727539 214.31567383 47.8737793 C209.12509918 48.4359332 203.93194647 48.97130677 198.73803711 49.50170898 C197.53759766 49.62481445 196.3371582 49.74791992 195.1003418 49.87475586 C177.32529949 51.67782601 159.61186402 53.14153111 141.73803711 53.50170898 C140.35865967 53.53458008 140.35865967 53.53458008 138.95141602 53.56811523 C108.74757791 54.21018088 78.6246957 51.82492703 48.71020508 47.8371582 C45.5740827 47.42694136 45.5740827 47.42694136 41.73803711 47.50170898 Z M41.73803711 97.50170898 C41.73803711 108.39170898 41.73803711 119.28170898 41.73803711 130.50170898 C47.6383399 131.81288738 53.19073133 132.91798959 59.14819336 133.53686523 C59.91876572 133.62044785 60.68933807 133.70403046 61.48326111 133.79014587 C63.10397598 133.96475901 64.72495942 134.1368959 66.34619141 134.30664062 C68.77117245 134.56112734 71.19503155 134.82471654 73.61889648 135.08959961 C91.90813245 137.06166042 110.03763064 137.73888536 128.42553711 137.75170898 C129.56477631 137.7530484 130.7040155 137.75438782 131.8777771 137.75576782 C175.83754403 139.5322152 175.83754403 139.5322152 217.73803711 130.50170898 C217.73803711 119.61170898 217.73803711 108.72170898 217.73803711 97.50170898 C207.78447196 98.2431672 207.78447196 98.2431672 197.87084961 99.22045898 C196.71713867 99.34807617 195.56342773 99.47569336 194.37475586 99.60717773 C192.04132499 99.86933181 189.70799068 100.13234693 187.37475586 100.39624023 C174.09079291 101.86236324 160.86826991 102.6565089 147.50366211 102.70483398 C146.19786194 102.71171234 144.89206177 102.7185907 143.54669189 102.72567749 C139.36047063 102.74467515 135.174296 102.74933494 130.98803711 102.75170898 C130.27634369 102.7525927 129.56465027 102.75347641 128.83139038 102.7543869 C105.19304911 102.78043792 81.94109952 101.97127482 58.46850586 98.95385742 C57.74796021 98.8618808 57.02741455 98.76990417 56.28503418 98.67514038 C54.26163259 98.41522033 52.23906285 98.14884826 50.21655273 97.88208008 C46.49285007 97.41112504 46.49285007 97.41112504 41.73803711 97.50170898 Z M-108.26196289 138.50170898 C-111.86199831 143.68666565 -111.9553189 150.43484386 -111.26196289 156.50170898 C-110.32544504 161.04382057 -109.35415857 163.61673239 -105.68579102 166.58911133 C-101.71017136 168.80994735 -98.66036793 169.02041641 -94.23852539 168.89233398 C-93.49234955 168.88667419 -92.74617371 168.8810144 -91.97738647 168.87518311 C-89.61323652 168.85293797 -87.2506483 168.80276883 -84.88696289 168.75170898 C-83.27630782 168.73162843 -81.66562881 168.71338038 -80.05493164 168.69702148 C-76.12334782 168.6531128 -72.19291937 168.58417217 -68.26196289 168.50170898 C-68.14534028 164.46028683 -68.07456939 160.41930033 -68.01196289 156.37670898 C-67.97844727 155.23459961 -67.94493164 154.09249023 -67.91040039 152.91577148 C-67.76671236 144.45648616 -67.76671236 144.45648616 -72.26196289 137.50170898 C-77.87505698 133.51669413 -83.03607046 134.02215659 -89.69946289 134.06420898 C-90.81901367 134.04422852 -91.93856445 134.02424805 -93.09204102 134.00366211 C-99.39573389 134.00740317 -103.57582551 134.0824538 -108.26196289 138.50170898 Z M330.73803711 138.50170898 C328.02027366 142.28218502 327.37382688 144.82804421 327.44506836 149.45874023 C327.45473633 150.57055664 327.4644043 151.68237305 327.47436523 152.82788086 C327.49950195 153.97836914 327.52463867 155.12885742 327.55053711 156.31420898 C327.56407227 157.4840332 327.57760742 158.65385742 327.59155273 159.85913086 C327.62683433 162.74046098 327.67613431 165.62084802 327.73803711 168.50170898 C332.47023473 168.60098052 337.20181924 168.67336531 341.93481445 168.72143555 C343.54299485 168.74148525 345.15110294 168.76873262 346.7590332 168.8034668 C349.07773731 168.85228162 351.39547336 168.87474327 353.71459961 168.89233398 C354.42734039 168.91297913 355.14008118 168.93362427 355.87442017 168.95489502 C360.97228435 168.95715916 363.80692233 167.69033782 367.73803711 164.50170898 C371.11159633 159.54745691 371.44523143 153.29677353 370.73803711 147.50170898 C369.82834447 142.7864688 368.93584964 139.64543968 365.40209961 136.27124023 C360.53550378 133.2810022 354.7520784 133.92521361 349.23803711 134.00170898 C348.12299805 133.98624023 347.00795898 133.97077148 345.85913086 133.95483398 C339.72957061 133.98405716 335.40021869 134.08171866 330.73803711 138.50170898 Z M41.73803711 147.50170898 C41.73803711 175.88170898 41.73803711 204.26170898 41.73803711 233.50170898 C99.81803711 233.50170898 157.89803711 233.50170898 217.73803711 233.50170898 C217.73803711 205.12170898 217.73803711 176.74170898 217.73803711 147.50170898 C207.03544013 148.24125241 207.03544013 148.24125241 196.37084961 149.22045898 C195.13463867 149.34807617 193.89842773 149.47569336 192.62475586 149.60717773 C190.12467073 149.86938812 187.62466993 150.13240395 185.12475586 150.39624023 C167.0633034 152.25688934 149.19898806 152.7386861 131.05053711 152.75170898 C129.81891846 152.75338074 128.5872998 152.75505249 127.31835938 152.7567749 C104.89138271 152.75859232 82.69390155 151.82667009 60.44116211 148.95385742 C59.37055542 148.81589249 59.37055542 148.81589249 58.27832031 148.67514038 C56.30443427 148.41700316 54.33173255 148.1498552 52.35913086 147.88208008 C48.1845903 147.37982921 48.1845903 147.37982921 41.73803711 147.50170898 Z M-17.26196289 253.50170898 C-21.08272957 260.63380678 -20.26196289 264.69730333 -20.26196289 273.50170898 C78.73803711 273.50170898 177.73803711 273.50170898 279.73803711 273.50170898 C280.15175819 263.05662416 280.15175819 263.05662416 276.73803711 253.50170898 C271.31774591 248.71007089 266.36993337 248.93555206 259.35107422 248.99377441 C257.62239184 248.98441447 257.62239184 248.98441447 255.85878658 248.97486544 C252.66847395 248.96168659 249.47877179 248.96640828 246.28847456 248.97881031 C242.84463752 248.98786728 239.40088248 248.9738879 235.95706177 248.96289062 C229.2140321 248.94510763 222.47118057 248.94894434 215.72814393 248.96054119 C210.24777404 248.96957613 204.76745406 248.97079926 199.28707886 248.96644592 C198.11691897 248.96552652 198.11691897 248.96552652 196.92311949 248.96458855 C195.33832906 248.96330965 193.75353865 248.96201279 192.16874826 248.96069819 C177.30946942 248.94929304 162.45028931 248.96240505 147.59102666 248.98389965 C134.84212914 249.00177059 122.09337731 248.99866647 109.34448242 248.98022461 C94.53824369 248.95881673 79.73209147 248.95039167 64.92583942 248.96267366 C63.34689142 248.96394786 61.7679434 248.96520534 60.18899536 248.96644592 C59.02369802 248.96737158 59.02369802 248.96737158 57.83485931 248.96831593 C52.36131045 248.97176908 46.88781648 248.96594125 41.41427612 248.95652771 C34.74347583 248.94530724 28.0728638 248.94834865 21.40208507 248.96965069 C17.99874686 248.98016063 14.59572249 248.98428428 11.19238663 248.97105408 C7.5029429 248.960153 3.81438689 248.97379824 0.125 248.99377441 C-0.95067765 248.98485153 -2.0263553 248.97592864 -3.13462925 248.96673536 C-9.13285082 249.02989878 -12.75052381 249.40005602 -17.26196289 253.50170898 Z M-52.26196289 289.50170898 C-53.64871338 303.62343367 -53.64871338 303.62343367 -48.26196289 310.50170898 C-44.57991877 313.37189261 -41.87687678 313.87748281 -37.25987339 313.88202572 C-36.04836347 313.89046566 -34.83685355 313.8989056 -33.58863121 313.9076013 C-32.24760859 313.90180629 -30.90658719 313.89572527 -29.56556702 313.88938904 C-28.1383427 313.89356192 -26.71112171 313.89903918 -25.28390688 313.90570885 C-21.36177676 313.92018831 -17.43985634 313.91591099 -13.51771462 313.90854204 C-9.28790752 313.90381884 -5.05814634 313.91631268 -0.82835388 313.92655945 C7.45818074 313.94376938 15.74463961 313.94458293 24.03118747 313.93934654 C30.76538833 313.93530774 37.49956677 313.93674495 44.23376656 313.9420948 C45.19163176 313.94284322 46.14949696 313.94359165 47.13638838 313.94436275 C49.08218833 313.9458942 51.02798827 313.94743255 52.97378821 313.94897772 C71.22756333 313.96271066 89.48129561 313.95725946 107.73506976 313.9457925 C124.44024546 313.93585894 141.14531042 313.94880152 157.85046905 313.9727267 C174.99747602 313.99709994 192.14443137 314.00672996 209.29145533 314.00007397 C218.92056757 313.99657784 228.54959461 313.99883974 238.17869377 314.016325 C246.37562608 314.03102479 254.5724132 314.03171157 262.76934259 314.01425409 C266.95238703 314.00572338 271.13517187 314.00364478 275.31820297 314.01890564 C279.14701294 314.03270141 282.97533968 314.02805608 286.80412132 314.0086664 C288.18966694 314.00489029 289.57525079 314.00787464 290.96076249 314.01827805 C300.74626061 314.32096185 300.74626061 314.32096185 308.73803711 309.50170898 C313.0242765 303.32980199 313.0242765 303.32980199 311.73803711 289.50170898 C191.61803711 289.50170898 71.49803711 289.50170898 -52.26196289 289.50170898 Z M31.73803711 329.50170898 C38.8925167 336.68468053 46.27219474 343.58644916 54.17553711 349.93920898 C58.36050284 353.30524617 62.32039665 356.83421653 66.23803711 360.50170898 C75.47097947 370.47904716 75.47097947 370.47904716 86.73803711 375.50170898 C88.43937718 373.90462783 88.43937718 373.90462783 90.05053711 371.81420898 C93.03427927 368.24006678 96.07320908 365.36206257 99.73803711 362.50170898 C98.40408038 359.50568683 96.98019708 357.53569289 94.57006836 355.32202148 C93.93351318 354.7291333 93.29695801 354.13624512 92.64111328 353.52539062 C91.21362938 352.22893585 89.77989519 350.93933828 88.34082031 349.65576172 C84.74322874 346.4194509 81.46264413 343.29711059 78.57397461 339.40405273 C74.77307126 334.59357191 71.13473162 330.30562902 64.81164551 329.1494751 C53.86397041 327.90159064 42.69303659 328.68356787 31.73803711 329.50170898 Z M90.73803711 329.50170898 C94.43584733 333.81582091 97.45295512 337.33153132 101.61303711 340.93920898 C105.61327006 344.45675922 109.37762612 348.1099613 113.04663086 351.97045898 C114.76800529 353.73517995 114.76800529 353.73517995 117.73803711 354.50170898 C118.94459961 354.28514648 118.94459961 354.28514648 120.17553711 354.06420898 C126.5719884 353.05424299 133.19175881 352.86513941 139.48803711 354.43920898 C143.28032446 354.51213759 143.82062372 354.00847334 146.61303711 351.62670898 C148.00943395 350.27344409 149.38332904 348.89670577 150.73803711 347.50170898 C152.23803711 346.00170898 153.73803711 344.50170898 155.23803711 343.00170898 C155.98053711 342.24760742 156.72303711 341.49350586 157.48803711 340.71655273 C160.27802456 337.97015884 163.20911427 335.42776922 166.20678711 332.91186523 C167.85701989 331.55956267 167.85701989 331.55956267 168.73803711 329.50170898 C142.99803711 329.50170898 117.25803711 329.50170898 90.73803711 329.50170898 Z M186.90722656 334.74853516 C186.52139404 335.32708252 186.13556152 335.90562988 185.73803711 336.50170898 C184.46274447 337.64523707 183.17461328 338.774985 181.86303711 339.87670898 C178.04191589 343.16670911 174.5212123 346.69625645 170.98803711 350.29077148 C168.20988866 353.02068819 165.27781825 355.52260304 162.26928711 357.99389648 C160.4757587 359.53171424 160.4757587 359.53171424 159.73803711 362.50170898 C160.24592773 362.92581055 160.75381836 363.34991211 161.27709961 363.78686523 C165.90430065 367.72951781 169.89395657 371.79271033 173.73803711 376.50170898 C179.51836442 372.42732355 184.69327274 367.8646458 189.88647461 363.07202148 C192.58461585 360.63999828 195.34515977 358.33993024 198.17553711 356.06420898 C202.70294733 352.41265622 206.98236704 348.57108784 211.2331543 344.60766602 C215.5439876 340.61401305 220.04629904 336.92593095 224.65600586 333.27905273 C226.81744294 331.66782283 226.81744294 331.66782283 227.73803711 329.50170898 C222.88185686 329.32779619 218.02751327 329.20124577 213.16894531 329.1171875 C211.51888432 329.08212794 209.86903857 329.03446339 208.21972656 328.97363281 C196.18521073 328.12513363 196.18521073 328.12513363 186.90722656 334.74853516 Z M99.27709961 384.35327148 C93.42383716 392.52406933 91.84863387 401.62933299 92.73803711 411.50170898 C94.99561213 422.17759088 99.8782128 429.87984432 108.61303711 436.37670898 C117.69030812 442.25103902 125.93810628 443.56360162 136.73803711 442.50170898 C147.93554277 440.07437873 156.11114425 433.6039493 162.29663086 424.10327148 C167.2933735 415.08476038 168.20093662 405.32779876 165.61303711 395.37670898 C162.25727975 385.55801154 155.4154246 376.93976862 146.11303711 372.15014648 C128.22832592 364.7514118 111.57989644 369.69103417 99.27709961 384.35327148 Z M81.37451172 433.76757812 C80.80224854 434.35144287 80.22998535 434.93530762 79.64038086 435.53686523 C78.69122803 436.49858643 78.69122803 436.49858643 77.72290039 437.47973633 C76.70945557 438.51155029 76.70945557 438.51155029 75.67553711 439.56420898 C71.10168601 444.18533503 66.52959363 448.70364179 61.55834961 452.90014648 C58.54247573 455.55359776 55.77665997 458.45570773 52.95678711 461.31420898 C50.33032588 463.9036778 47.56827253 466.29007863 44.76928711 468.68920898 C42.50165139 470.71263778 40.37226761 472.83824245 38.23803711 475.00170898 C35.48947721 477.78792039 32.7094392 480.45479291 29.73803711 483.00170898 C25.16095362 486.92623639 20.95931195 491.20161366 16.73803711 495.50170898 C15.74803711 496.49170898 15.74803711 496.49170898 14.73803711 497.50170898 C28.29363271 499.33599856 28.29363271 499.33599856 40.70678711 495.14624023 C43.50019861 492.67028972 45.94293485 489.89841174 48.3527832 487.05297852 C50.41995539 484.73806628 52.79194056 482.90189557 55.23803711 481.00170898 C59.40470416 477.65868542 63.34219614 474.15052173 67.23803711 470.50170898 C72.02986876 466.01479283 76.96055854 461.79344178 82.08178711 457.68139648 C86.43703681 454.10752982 90.58774568 450.30989396 94.73803711 446.50170898 C91.20457542 441.71757186 87.65616123 436.97956512 83.73803711 432.50170898 C82.55009028 432.38831305 82.55009028 432.38831305 81.37451172 433.76757812 Z M175.73803711 432.50170898 C174.22599337 434.24455392 172.75351028 436.02182128 171.30053711 437.81420898 C170.49745117 438.8003418 169.69436523 439.78647461 168.86694336 440.80249023 C166.6837174 443.49681145 166.6837174 443.49681145 164.73803711 446.50170898 C170.08094281 451.45190594 175.43101329 456.31602713 181.11303711 460.87670898 C185.90864201 464.74325083 190.40682378 468.85022882 194.89941406 473.05761719 C199.11613604 476.98434969 203.48322331 480.65189654 208.03491211 484.18920898 C210.73803711 486.50170898 210.73803711 486.50170898 213.31616211 489.50170898 C217.87506905 494.73530435 221.2217327 497.68135916 228.39038086 498.19702148 C233.8611654 498.30216966 239.29272285 498.02138326 244.73803711 497.50170898 C244.03291992 496.79788086 243.32780273 496.09405273 242.60131836 495.36889648 C240.69594524 493.46419356 238.79834064 491.55217395 236.90600586 489.63452148 C231.96547133 484.64138436 227.01697584 479.7639115 221.66381836 475.20874023 C218.62004736 472.51071199 215.8121946 469.58373165 212.95678711 466.68920898 C210.94373079 464.70450557 208.88357308 462.84073982 206.73803711 461.00170898 C202.94444978 457.7500627 199.46411064 454.24457804 195.95678711 450.68920898 C193.33937468 448.10866151 190.5887631 445.72919097 187.79663086 443.34155273 C184.55929735 440.4482243 181.55050332 437.33475746 178.52319336 434.22436523 C177.0315705 432.38597602 177.0315705 432.38597602 175.73803711 432.50170898 Z " fill="#E51743" transform="translate(126.261962890625,-0.501708984375)"/>
<path d="M0 0 C2.17825889 2.19819718 2.94147556 3.48498489 3.29296875 6.578125 C3.25816406 7.45984375 3.22335937 8.3415625 3.1875 9.25 C3.16042969 10.14203125 3.13335937 11.0340625 3.10546875 11.953125 C3.07066406 12.62859375 3.03585937 13.3040625 3 14 C3.59167969 13.96519531 4.18335938 13.93039062 4.79296875 13.89453125 C9.71920277 13.72576956 13.00379636 13.75308454 17 17 C18.42662219 19.85324437 18.31033868 21.83454549 18 25 C16.6875 27.875 16.6875 27.875 14 30 C10.2972193 30.42089162 6.70972387 30.2878234 3 30 C3.04640625 30.66386719 3.0928125 31.32773437 3.140625 32.01171875 C3.31448913 36.26518048 3.36591825 39.23767032 1.5 43.125 C-1.52855311 45.39641483 -3.36785992 45.7468015 -7.09375 45.46875 C-9 45 -9 45 -11.5 43.125 C-13.61183532 38.72534308 -13.33528878 34.79649232 -13 30 C-13.74765625 30.05800781 -14.4953125 30.11601562 -15.265625 30.17578125 C-23.31152433 30.54437611 -23.31152433 30.54437611 -26.6875 27.875 C-28.20736887 24.54576344 -28.53875486 22.61735408 -28 19 C-26.22015595 15.8640843 -25.47691793 15.15897264 -22 14 C-20.43881572 13.93259135 -18.8749748 13.91485544 -17.3125 13.9375 C-16.10013672 13.95103516 -16.10013672 13.95103516 -14.86328125 13.96484375 C-13.94095703 13.98224609 -13.94095703 13.98224609 -13 14 C-13.03480469 13.32453125 -13.06960937 12.6490625 -13.10546875 11.953125 C-13.13253906 11.06109375 -13.15960938 10.1690625 -13.1875 9.25 C-13.23970703 7.92742187 -13.23970703 7.92742187 -13.29296875 6.578125 C-12.94262147 3.49506897 -12.14001467 2.21484036 -10 0 C-6.20519658 -1.26493447 -3.87641726 -0.89988258 0 0 Z " fill="#E51743" transform="translate(261,383)"/>
</svg>
