<?xml version="1.0" encoding="UTF-8"?>
<svg version="1.1" xmlns="http://www.w3.org/2000/svg" width="512" height="512">
<path d="M0 0 C3.45731563 2.88026727 6.74567918 5.89386191 10 9 C10.90298828 9.79083984 10.90298828 9.79083984 11.82421875 10.59765625 C28.4535972 25.75403615 36.79235454 49.44472265 38.875 71.3125 C39.74849868 91.88339384 35.21754419 109.69615081 25.671875 127.76953125 C23.94946591 130.89294357 23.94946591 130.89294357 23 134 C23.886875 134.61875 24.77375 135.2375 25.6875 135.875 C29.84721814 139.38260081 32.46448179 143.80233881 34 149 C34.06008594 150.727976 34.07499485 152.45786082 34.05517578 154.18676758 C34.04720978 155.08792801 34.03924377 155.98908844 34.03103638 156.91755676 C34.02079437 157.60476303 34.01055237 158.2919693 34 159 C49.90749444 159.40852707 60.96351406 156.35175342 74.91796875 148.93359375 C76.71985419 148.01232361 78.52355109 147.09458887 80.32893372 146.18019104 C85.0161829 143.79515529 89.6790275 141.36602431 94.33746338 138.92529297 C100.04081804 135.94799405 105.77209916 133.02490469 111.49892902 130.09310246 C115.94274884 127.81678791 120.38214332 125.53295423 124.80986023 123.22544861 C125.61727661 122.80611557 126.42469299 122.38678253 127.25657654 121.95474243 C128.76632328 121.17009433 130.27443278 120.3822851 131.78060913 119.59080505 C136.77587601 117 136.77587601 117 139 117 C138.79375 116.113125 138.5875 115.22625 138.375 114.3125 C137.96837509 110.72064664 138.26329552 109.12606806 140 106 C143.58952442 103.60698372 146.22845126 103.67731843 150.37890625 103.6640625 C151.1056102 103.6574057 151.83231415 103.6507489 152.58103943 103.64389038 C154.12179031 103.63376587 155.66258503 103.6290733 157.20336914 103.62939453 C159.53022611 103.62506012 161.85512422 103.58885197 164.18164062 103.55078125 C174.20238452 103.47443452 182.58968912 104.43560043 190.8125 110.625 C198.49439037 118.25989445 199.5431223 126.11668461 199.66894031 136.53126526 C199.67799728 139.5952866 199.66273052 142.65866936 199.64697266 145.72265625 C199.65375416 147.93448607 199.66266028 150.14631024 199.67352295 152.35812378 C199.69625912 158.34575703 199.68750314 164.33295808 199.67162752 170.3205986 C199.65893922 176.59663784 199.67071678 182.8726409 199.67855835 189.14868164 C199.68822789 200.36110359 199.67272219 211.57334795 199.64726166 222.7857281 C199.62492509 232.93635067 199.62880594 243.08668727 199.65185547 253.23730469 C199.67865863 265.04636065 199.68854896 276.85527829 199.67379415 288.66437054 C199.6660124 294.90767466 199.66492315 301.15078212 199.68147659 307.39407349 C199.69595544 313.26462465 199.68583652 319.13463755 199.65700531 325.00513077 C199.65041284 327.15530632 199.65226053 329.30552744 199.66331863 331.45568466 C199.7664114 353.54320613 199.7664114 353.54320613 192.35544777 361.84144592 C184.57823162 369.57131324 174.67207617 370.56671486 164.23046875 370.546875 C163.47427246 370.53849609 162.71807617 370.53011719 161.93896484 370.52148438 C159.60801505 370.4998423 157.28008089 370.52147051 154.94921875 370.546875 C153.45832657 370.54423487 151.96743626 370.53911642 150.4765625 370.53125 C149.78486969 370.53934692 149.09317688 370.54744385 148.38052368 370.55578613 C145.00147363 370.49005015 143.26440546 370.20410431 140.55712891 368.11425781 C138.69476409 365.585553 138.56773094 364.34857403 138.75 361.25 C138.78609375 360.45078125 138.8221875 359.6515625 138.859375 358.828125 C138.90578125 358.22484375 138.9521875 357.6215625 139 357 C138.16485367 356.74819473 137.32970734 356.49638947 136.46925354 356.23695374 C132.62565512 354.86652826 129.09155117 353.10733794 125.49194336 351.20874023 C123.98358575 350.42324361 122.47511166 349.63797062 120.96653748 348.85289001 C120.17310881 348.43826948 119.37968014 348.02364895 118.56220818 347.59646416 C114.30892164 345.38090006 110.03913204 343.19750089 105.77148438 341.00976562 C100.36307916 338.23688609 94.96034125 335.45488025 89.57983398 332.62817383 C85.21325464 330.33524388 80.82814387 328.08184429 76.4289875 325.85209846 C74.77292514 325.00428425 73.12363368 324.14308176 71.4822216 323.26724052 C58.88497201 316.55948057 48.25474987 314.70201232 34 315 C34.00983414 315.68761414 34.01966827 316.37522827 34.02980042 317.0836792 C34.04127357 318.43589569 34.04127357 318.43589569 34.05297852 319.81542969 C34.06281265 320.70929382 34.07264679 321.60315796 34.08277893 322.52410889 C33.8756189 328.72019856 30.23281934 334.20607322 25.8125 338.375 C23.96484375 339.75 23.96484375 339.75 22 341 C21.36191406 341.4125 20.72382813 341.825 20.06640625 342.25 C11.27920976 346.76107413 0.59037147 345.34412042 -9 345 C-8.97381592 345.73114014 -8.94763184 346.46228027 -8.9206543 347.21557617 C-8.81649856 350.53933082 -8.75161379 353.86274194 -8.6875 357.1875 C-8.64560547 358.33798828 -8.60371094 359.48847656 -8.56054688 360.67382812 C-8.54443359 361.78564453 -8.52832031 362.89746094 -8.51171875 364.04296875 C-8.48553467 365.06414795 -8.45935059 366.08532715 -8.43237305 367.13745117 C-9.24461525 371.23359731 -10.61328891 372.58223673 -14 375 C-17.10859443 375.71570895 -20.13127908 375.78990253 -23.3125 375.8125 C-24.56643555 375.85020508 -24.56643555 375.85020508 -25.84570312 375.88867188 C-27.89663409 375.9472699 -29.94836593 375.97656493 -32 376 C-31.54375244 377.18811279 -31.08750488 378.37622559 -30.61743164 379.6003418 C-21.20348899 404.12128235 -11.83427914 428.65819717 -2.57250977 453.23706055 C-2.23752975 454.12561234 -1.90254974 455.01416412 -1.55741882 455.92964172 C-0.91296965 457.64001493 -0.26931496 459.35068776 0.37345886 461.06169128 C1.74594714 464.70910167 3.12970237 468.34988956 4.56982422 471.97119141 C5.02502441 473.12022949 5.48022461 474.26926758 5.94921875 475.453125 C6.33811279 476.41637695 6.72700684 477.37962891 7.12768555 478.37207031 C8.50234072 482.51334886 8.55801668 485.67537076 8 490 C6.94311523 491.71289062 6.94311523 491.71289062 5 493 C2.39002909 493.32251958 0.02256776 493.46801478 -2.58984375 493.46875 C-3.33077774 493.47636353 -4.07171173 493.48397705 -4.83509827 493.49182129 C-6.40101759 493.50261853 -7.9670089 493.50547688 -9.53295898 493.50097656 C-11.9261924 493.50000459 -14.31621442 493.54161326 -16.70898438 493.5859375 C-18.23176416 493.59114506 -19.75455507 493.59383268 -21.27734375 493.59375 C-21.99099594 493.61014526 -22.70464813 493.62654053 -23.43992615 493.64343262 C-26.89194451 493.59554011 -28.63008762 493.33757924 -31.2121582 490.98120117 C-33.42265491 487.29522886 -35.42521239 483.55983087 -37.328125 479.70703125 C-37.72199402 478.91979172 -38.11586304 478.13255219 -38.52166748 477.32145691 C-39.34805879 475.66634397 -40.17151598 474.00976312 -40.9921875 472.35180664 C-42.25280388 469.80683944 -43.52411063 467.26742559 -44.796875 464.72851562 C-45.59959442 463.11750429 -46.40169962 461.50618672 -47.203125 459.89453125 C-47.58430481 459.13308304 -47.96548462 458.37163483 -48.35821533 457.58711243 C-51 452.2310705 -51 452.2310705 -51 450 C-94.56 450 -138.12 450 -183 450 C-183.66 451.98 -184.32 453.96 -185 456 C-185.54977711 457.26511237 -186.12701921 458.51890784 -186.73999023 459.75463867 C-187.2357682 460.76049263 -187.2357682 460.76049263 -187.74156189 461.78666687 C-188.0936824 462.48999649 -188.44580292 463.19332611 -188.80859375 463.91796875 C-189.1759816 464.65702957 -189.54336945 465.39609039 -189.92189026 466.157547 C-190.69564952 467.71078217 -191.4714789 469.26298764 -192.24926758 470.81420898 C-193.43724367 473.18698803 -194.61443054 475.56491533 -195.79101562 477.94335938 C-196.54622652 479.45605309 -197.30206443 480.96843397 -198.05859375 482.48046875 C-198.40869003 483.18987106 -198.75878632 483.89927338 -199.11949158 484.63017273 C-200.75689766 487.87441866 -202.17734128 490.67712218 -205 493 C-207.62253458 493.29818578 -210.00293966 493.42058924 -212.625 493.3984375 C-213.36830566 493.40130768 -214.11161133 493.40417786 -214.87744141 493.40713501 C-216.4475989 493.40917476 -218.01778186 493.403651 -219.58789062 493.39111328 C-221.99146332 493.37505703 -224.39335461 493.39096352 -226.796875 493.41015625 C-228.32292038 493.4081738 -229.84896471 493.40433009 -231.375 493.3984375 C-232.09381348 493.40451019 -232.81262695 493.41058289 -233.55322266 493.4168396 C-238.53806181 493.3465663 -238.53806181 493.3465663 -240.68933105 491.73258972 C-243.13181901 488.50383425 -242.46616385 484.86059835 -242 481 C-241.20322424 477.80705358 -240.06237527 474.80763645 -238.84375 471.75390625 C-238.50971161 470.8814325 -238.17567322 470.00895874 -237.83151245 469.11004639 C-236.73488899 466.25528515 -235.61756881 463.40911905 -234.5 460.5625 C-233.72850756 458.5652656 -232.9585094 456.5674534 -232.18994141 454.5690918 C-230.59882711 450.43717961 -229.00007852 446.30834511 -227.39550781 442.18164062 C-225.08849822 436.2405372 -222.81542326 430.28696963 -220.5546875 424.328125 C-220.2003363 423.3943956 -219.84598511 422.4606662 -219.480896 421.49864197 C-218.7828162 419.65879118 -218.08483654 417.81890239 -217.38696289 415.97897339 C-212.32018123 402.62824818 -207.1925554 389.30231035 -202 376 C-202.57043533 375.98768845 -203.14087067 375.97537689 -203.72859192 375.96269226 C-205.30106311 375.92875403 -206.8735166 375.89398756 -208.44595337 375.85848999 C-210.09617497 375.82463226 -211.74669405 375.80457919 -213.3972168 375.79223633 C-217.27296724 375.6405444 -219.64770778 375.20130984 -223.0625 373.25 C-226.13195926 368.10122962 -225.52608224 363.05279682 -225.3125 357.1875 C-225.28994141 356.01767578 -225.26738281 354.84785156 -225.24414062 353.64257812 C-225.18532091 350.76041231 -225.10317141 347.88086319 -225 345 C-225.58378418 345.02094727 -226.16756836 345.04189453 -226.76904297 345.06347656 C-248.65807735 345.74629343 -248.65807735 345.74629343 -256 341 C-256.64839844 340.5875 -257.29679687 340.175 -257.96484375 339.75 C-263.1186878 335.91458117 -266.29601706 331.17000028 -268 325 C-268.24247497 321.53931886 -268.19513261 318.09973946 -268.12890625 314.6328125 C-268.11960083 313.7054126 -268.11029541 312.7780127 -268.10070801 311.82250977 C-268.07654281 309.54805169 -268.04271168 307.27417275 -268 305 C-269.22106445 305.02094727 -270.44212891 305.04189453 -271.70019531 305.06347656 C-276.23246524 305.13590159 -280.76468407 305.18180888 -285.29736328 305.21972656 C-287.25871381 305.23983632 -289.22000444 305.26712818 -291.18115234 305.30175781 C-294.00112695 305.35030421 -296.82030865 305.37297486 -299.640625 305.390625 C-300.95489471 305.42159271 -300.95489471 305.42159271 -302.29571533 305.45318604 C-303.52653839 305.45363922 -303.52653839 305.45363922 -304.78222656 305.45410156 C-305.50170471 305.46298401 -306.22118286 305.47186646 -306.96246338 305.48101807 C-309.93149521 304.78009425 -311.07477736 303.32719911 -313 301 C-313.50336456 298.5199585 -313.50336456 298.5199585 -313.50793457 295.68652344 C-313.51921387 294.6097937 -313.53049316 293.53306396 -313.54211426 292.42370605 C-313.53401733 291.24747681 -313.52592041 290.07124756 -313.51757812 288.859375 C-313.5245874 287.61675903 -313.53159668 286.37414307 -313.53881836 285.09387207 C-313.55340873 281.68864814 -313.54998748 278.28439618 -313.53730202 274.87922668 C-313.52717116 271.31497902 -313.53656792 267.75077274 -313.54284668 264.18652344 C-313.55012288 258.20109606 -313.54053627 252.21586614 -313.52148438 246.23046875 C-313.49971546 239.31161042 -313.50676687 232.39322358 -313.52879 225.47437668 C-313.54694495 219.53284038 -313.54950193 213.59144598 -313.53903532 207.6498909 C-313.53280082 204.10176109 -313.53196329 200.55385286 -313.54518127 197.0057373 C-313.55888678 193.05051359 -313.53988835 189.09581752 -313.51757812 185.140625 C-313.52567505 183.96439575 -313.53377197 182.7881665 -313.54211426 181.57629395 C-313.53083496 180.49956421 -313.51955566 179.42283447 -313.50793457 178.31347656 C-313.50642647 177.37844299 -313.50491837 176.44340942 -313.50336456 175.4800415 C-312.84785047 172.25037008 -311.52568179 171.04644734 -309 169 C-306.96246338 168.51898193 -306.96246338 168.51898193 -304.78222656 168.54589844 C-303.5514035 168.54635162 -303.5514035 168.54635162 -302.29571533 168.54681396 C-301.41953552 168.56745911 -300.54335571 168.58810425 -299.640625 168.609375 C-298.73624695 168.61503479 -297.8318689 168.62069458 -296.90008545 168.62652588 C-294.01618147 168.64888752 -291.13352739 168.69908314 -288.25 168.75 C-286.29298671 168.77006529 -284.33595392 168.78831601 -282.37890625 168.8046875 C-277.58545711 168.84875161 -272.79294035 168.91777748 -268 169 C-268.07871338 168.1224707 -268.15742676 167.24494141 -268.23852539 166.34082031 C-268.33641357 165.18163086 -268.43430176 164.02244141 -268.53515625 162.828125 C-268.63449463 161.6824707 -268.73383301 160.53681641 -268.83618164 159.35644531 C-269.26252288 150.6212153 -266.90715261 143.51652204 -261 137 C-257.55630288 134.24504231 -253.94138836 131.97069418 -250 130 C-250.4125 128.80375 -250.825 127.6075 -251.25 126.375 C-251.83827898 124.5849511 -252.42096551 122.79306059 -253 121 C-253.34804687 119.93652344 -253.69609375 118.87304688 -254.0546875 117.77734375 C-260.70146152 96.26023223 -258.41481277 75.17514613 -248.1875 55.25 C-245.00475391 49.70059656 -241.19968561 44.81265748 -237 40 C-236.48050781 39.38511719 -235.96101563 38.77023438 -235.42578125 38.13671875 C-224.17449239 25.80848033 -205.74640877 16.82363859 -189.18847656 15.83154297 C-171.17680292 15.15744494 -157.18300326 16.81579704 -141 25 C-140.6596875 23.94039062 -140.6596875 23.94039062 -140.3125 22.859375 C-138.73845809 19.43021227 -136.56478446 16.95653876 -134 14.25 C-133.50870605 13.72631836 -133.01741211 13.20263672 -132.51123047 12.66308594 C-97.74231414 -23.9722428 -40.87530726 -31.3396737 0 0 Z M-120.8046875 23.390625 C-127.6635407 31.54314091 -133.28649245 41.01994846 -137 51 C-137.5878125 52.55267578 -137.5878125 52.55267578 -138.1875 54.13671875 C-144.97466362 75.18163927 -141.78420945 97.05440936 -132.08203125 116.46118164 C-131.10045184 118.33840358 -130.07141295 120.17263894 -129 122 C-128.61610107 122.66265869 -128.23220215 123.32531738 -127.83666992 124.00805664 C-125.35683883 128.0036953 -125.35683883 128.0036953 -121.10546875 129.68359375 C-120.14253906 129.60238281 -119.17960937 129.52117187 -118.1875 129.4375 C-116.72376953 129.34275391 -116.72376953 129.34275391 -115.23046875 129.24609375 C-114.49441406 129.16488281 -113.75835937 129.08367187 -113 129 C-113.7734375 127.8553125 -113.7734375 127.8553125 -114.5625 126.6875 C-114.92601562 126.13578125 -115.28953125 125.5840625 -115.6640625 125.015625 C-116.644092 123.536984 -117.64142901 122.06977594 -118.6484375 120.609375 C-130.41581136 103.03539308 -133.96231526 83.76622302 -130.41845703 63.06933594 C-126.88225355 45.58225267 -116.5841113 29.32440014 -101.84277344 19.21582031 C-88.37555391 10.49130782 -75.62050316 6.63918889 -59.6875 6.6875 C-58.1106543 6.66333008 -58.1106543 6.66333008 -56.50195312 6.63867188 C-45.90979727 6.63216164 -36.27516826 8.77720011 -26.875 13.6875 C-26.19759766 14.03562744 -25.52019531 14.38375488 -24.82226562 14.74243164 C-7.23548932 24.06183038 4.47173445 39.50726698 10.30859375 58.37890625 C15.52436547 78.15169055 12.16149519 97.94689885 2.8828125 115.78125 C0.64355471 119.60935875 -1.86334025 123.03531226 -4.71484375 126.42578125 C-6.10540001 127.79040887 -6.10540001 127.79040887 -6 129 C-2.17334377 129.62278311 1.1906195 129.8082064 5 129 C8.28419297 126.20349734 10.04789939 122.80610571 12 119 C12.53367187 117.9996875 13.06734375 116.999375 13.6171875 115.96875 C22.95333457 97.20355888 25.88653553 74.72300684 19.390625 54.48046875 C10.16435246 31.3888709 -3.91506282 14.16341201 -26.4375 3.1875 C-28.2773354 2.42289308 -30.13268852 1.69481357 -32 1 C-33.03511719 0.608125 -34.07023437 0.21625 -35.13671875 -0.1875 C-65.72994961 -10.05407389 -98.92617604 0.6495199 -120.8046875 23.390625 Z M-52 22 C-52 29.92 -52 37.84 -52 46 C-47.05 47.98 -47.05 47.98 -42 50 C-39.32725307 47.38094665 -36.66170548 44.75523261 -34 42.125 C-33.236875 41.37863281 -32.47375 40.63226563 -31.6875 39.86328125 C-30.965625 39.14785156 -30.24375 38.43242188 -29.5 37.6953125 C-28.8296875 37.03547363 -28.159375 36.37563477 -27.46875 35.69580078 C-25.78176993 34.12193881 -25.78176993 34.12193881 -26 32 C-38.2491303 24.7096128 -38.2491303 24.7096128 -52 22 Z M-77.1875 24.1875 C-78.1930896 24.52044067 -78.1930896 24.52044067 -79.21899414 24.86010742 C-84.32848878 26.62104167 -88.58500579 28.84643271 -93 32 C-91.6415798 35.04332765 -90.11536976 37.12309151 -87.7421875 39.453125 C-87.11699219 40.071875 -86.49179688 40.690625 -85.84765625 41.328125 C-85.19667969 41.96234375 -84.54570312 42.5965625 -83.875 43.25 C-83.21628906 43.8996875 -82.55757812 44.549375 -81.87890625 45.21875 C-80.25708853 46.81706311 -78.62913581 48.40914676 -77 50 C-73.7 48.68 -70.4 47.36 -67 46 C-67 38.08 -67 30.16 -67 22 C-70.673385 22 -73.74227835 23.04246673 -77.1875 24.1875 Z M-203 36 C-203.8765625 36.36222656 -204.753125 36.72445312 -205.65625 37.09765625 C-219.93093391 43.59616204 -231.14945444 55.50698758 -237.2265625 69.90625 C-242.89644046 85.08031187 -243.37541568 102.92378907 -237 118 C-234.0485598 123.8718942 -234.0485598 123.8718942 -230 129 C-227.32212027 129.09512944 -224.67011131 129.12555279 -221.99194336 129.11352539 C-221.15299026 129.11367142 -220.31403717 129.11381744 -219.44966125 129.1139679 C-216.66302956 129.1132685 -213.87646384 129.10547485 -211.08984375 129.09765625 C-209.16313209 129.09579217 -207.23641995 129.09436822 -205.30970764 129.09336853 C-200.22812603 129.08954259 -195.1465728 129.07971166 -190.06500244 129.06866455 C-184.88383366 129.05845206 -179.70266031 129.05387126 -174.52148438 129.04882812 C-164.34764375 129.03808946 -154.17382423 129.02101213 -144 129 C-144.22925171 128.46567352 -144.45850342 127.93134705 -144.69470215 127.38082886 C-145.74816517 124.91954711 -146.79598295 122.45589911 -147.84375 119.9921875 C-148.20436523 119.15196045 -148.56498047 118.3117334 -148.93652344 117.44604492 C-158.25249523 95.48544931 -159.64351715 69.76317517 -152 47 C-151.60554688 46.113125 -151.21109375 45.22625 -150.8046875 44.3125 C-149.88550541 42.070496 -149.88550541 42.070496 -149.984375 39.85546875 C-151.62730958 36.85395365 -154.10391906 36.43055791 -157.25 35.3125 C-158.38953125 34.89613281 -159.5290625 34.47976562 -160.703125 34.05078125 C-174.06308093 29.79269103 -190.16620425 30.50237682 -203 36 Z M-106 45 C-113.2903872 57.2491303 -113.2903872 57.2491303 -116 71 C-108.08 71 -100.16 71 -92 71 C-90.68 67.7 -89.36 64.4 -88 61 C-90.61905335 58.32725307 -93.24476739 55.66170548 -95.875 53 C-96.62136719 52.236875 -97.36773437 51.47375 -98.13671875 50.6875 C-98.85214844 49.965625 -99.56757813 49.24375 -100.3046875 48.5 C-100.96452637 47.8296875 -101.62436523 47.159375 -102.30419922 46.46875 C-103.87806119 44.78176993 -103.87806119 44.78176993 -106 45 Z M-16.69580078 46.46875 C-17.35563965 47.1390625 -18.01547852 47.809375 -18.6953125 48.5 C-19.76845703 49.5828125 -19.76845703 49.5828125 -20.86328125 50.6875 C-21.98283203 51.8321875 -21.98283203 51.8321875 -23.125 53 C-23.87910156 53.763125 -24.63320313 54.52625 -25.41015625 55.3125 C-27.27792551 57.20391191 -29.13953976 59.10139821 -31 61 C-29.68 64.3 -28.36 67.6 -27 71 C-19.08 71 -11.16 71 -3 71 C-5.01169349 60.94153257 -7.87912743 53.59575038 -13 45 C-15.12193881 44.78176993 -15.12193881 44.78176993 -16.69580078 46.46875 Z M-73.3125 68.625 C-76.78782242 73.51619452 -76.59805518 78.12743039 -76 84 C-73.54432448 89.00230198 -70.0029693 92.49851535 -65 95 C-59.74424835 95.5238576 -55.35473905 95.66505372 -50.5625 93.3125 C-46.91000213 90.01634339 -43.26816793 86.69047167 -42.76171875 81.609375 C-42.60363092 75.51883322 -42.73509059 71.7259807 -47 67 C-52.24751332 62.37719065 -55.3475439 61.64669 -62.23828125 61.71875 C-67.38802556 62.24319355 -70.01372397 64.88044342 -73.3125 68.625 Z M-116 86 C-114.53771205 93.31143977 -113.25485773 98.33105999 -109.875 104.625 C-109.50246094 105.34300781 -109.12992188 106.06101562 -108.74609375 106.80078125 C-107.84186192 108.53968862 -106.92255573 110.27074438 -106 112 C-102.95667235 110.6415798 -100.87690849 109.11536976 -98.546875 106.7421875 C-97.928125 106.11699219 -97.309375 105.49179688 -96.671875 104.84765625 C-96.03765625 104.19667969 -95.4034375 103.54570313 -94.75 102.875 C-94.1003125 102.21628906 -93.450625 101.55757812 -92.78125 100.87890625 C-91.18293689 99.25708853 -89.59085324 97.62913581 -88 96 C-89.32 92.7 -90.64 89.4 -92 86 C-99.92 86 -107.84 86 -116 86 Z M-28 87 C-28.99 89.97 -29.98 92.94 -31 96 C-28.38308836 98.67470955 -25.75518292 101.33834481 -23.125 104 C-22.37863281 104.763125 -21.63226563 105.52625 -20.86328125 106.3125 C-19.79013672 107.3953125 -19.79013672 107.3953125 -18.6953125 108.5 C-18.03547363 109.1703125 -17.37563477 109.840625 -16.69580078 110.53125 C-15.12193881 112.21823007 -15.12193881 112.21823007 -13 112 C-11.69523021 109.52700609 -10.40634614 107.04760211 -9.125 104.5625 C-8.76019531 103.87478516 -8.39539063 103.18707031 -8.01953125 102.47851562 C-7.66503906 101.78564453 -7.31054688 101.09277344 -6.9453125 100.37890625 C-6.62062988 99.7557251 -6.29594727 99.13254395 -5.96142578 98.49047852 C-4.53696789 94.80056107 -3.85802978 90.86113402 -3 87 C-11.25 87 -19.5 87 -28 87 Z M-77 107 C-79.67274693 109.61905335 -82.33829452 112.24476739 -85 114.875 C-85.763125 115.62136719 -86.52625 116.36773437 -87.3125 117.13671875 C-88.034375 117.85214844 -88.75625 118.56757813 -89.5 119.3046875 C-90.1703125 119.96452637 -90.840625 120.62436523 -91.53125 121.30419922 C-93.21823007 122.87806119 -93.21823007 122.87806119 -93 125 C-87.1943516 129.00172237 -83.02069279 129.52515287 -76.0625 129.25 C-75.18787109 129.23195312 -74.31324219 129.21390625 -73.41210938 129.1953125 C-71.27425892 129.14858353 -69.13697955 129.07685441 -67 129 C-67 123.06 -67 117.12 -67 111 C-71.95 109.02 -71.95 109.02 -77 107 Z M-47.5625 109 C-49.026875 109.66 -50.49125 110.32 -52 111 C-52 116.94 -52 122.88 -52 129 C-48.97818586 129.10867663 -45.96033673 129.18762754 -42.9375 129.25 C-42.08994141 129.28351563 -41.24238281 129.31703125 -40.36914062 129.3515625 C-34.35286661 129.44447793 -30.96479755 128.42213997 -26 125 C-27.35473124 121.97328771 -28.8739592 119.87863194 -31.22265625 117.546875 C-31.84333984 116.928125 -32.46402344 116.309375 -33.10351562 115.671875 C-33.74998047 115.03765625 -34.39644531 114.4034375 -35.0625 113.75 C-35.71283203 113.1003125 -36.36316406 112.450625 -37.03320312 111.78125 C-41.60515035 106.85945563 -41.60515035 106.85945563 -47.5625 109 Z M154 120 C154 197.22 154 274.44 154 354 C173.28967439 355.94145069 173.28967439 355.94145069 181 350 C184.34826481 345.01358407 184.43059469 338.9782074 184.38095093 333.16407776 C184.3856309 332.31013001 184.39031087 331.45618226 184.39513266 330.57635731 C184.40703556 327.73376786 184.39764388 324.89166473 184.38818359 322.04907227 C184.39225141 320.00340495 184.39759447 317.95773983 184.40411377 315.91207886 C184.41776893 310.36868167 184.41249586 304.82545233 184.40297651 299.28205228 C184.39536961 293.47399529 184.40242849 287.66595246 184.40713501 281.8578949 C184.41258998 272.10404893 184.40540815 262.35027115 184.39111328 252.59643555 C184.37479188 241.32994162 184.38007267 230.06361061 184.3965925 218.79712063 C184.41022015 209.11450673 184.41212062 199.43194179 184.40427649 189.7493214 C184.39960644 183.97051921 184.3989567 178.19179352 184.40888596 172.41299629 C184.41757175 166.97842815 184.4115041 161.54406937 184.39420319 156.10952377 C184.39024678 154.1185675 184.39135784 152.12759352 184.39799118 150.13664436 C184.40623039 147.41182946 184.39585653 144.68767886 184.38095093 141.96290588 C184.38764309 141.18137022 184.39433526 140.39983456 184.40123022 139.594616 C184.3445943 134.23007597 183.80897101 128.67311844 181 124 C173.28967439 118.05854931 173.28967439 118.05854931 154 120 Z M131.8125 138.02734375 C131.19479736 138.33571671 130.57709473 138.64408966 129.94067383 138.96180725 C128.63215718 139.61572469 127.32414717 140.27065675 126.01660156 140.92651367 C124.00994331 141.9325151 122.00119442 142.93424561 119.9921875 143.93554688 C118.72383001 144.57005605 117.45559663 145.20481339 116.1875 145.83984375 C115.02605469 146.42113037 113.86460937 147.00241699 112.66796875 147.60131836 C110.14625638 148.75442848 110.14625638 148.75442848 109 150 C108.90295359 152.24024643 108.87813344 154.48362054 108.87974548 156.72596741 C108.87889106 157.43735994 108.87803663 158.14875248 108.87715632 158.88170236 C108.87549943 161.28322048 108.88102626 163.68466988 108.88647461 166.08618164 C108.88675646 167.80059304 108.88659878 169.51500456 108.8860321 171.22941589 C108.88574406 175.89863973 108.89164196 180.56783812 108.89860606 185.23705602 C108.90483839 190.11111527 108.9054433 194.98517505 108.90663147 199.85923767 C108.90974514 209.0956943 108.91795902 218.33213915 108.92798096 227.56859058 C108.93914098 238.08110865 108.94465226 248.59362728 108.94967639 259.10614979 C108.9601416 280.73743978 108.97774174 302.36871915 109 324 C111.93461618 325.56795872 114.87322654 327.12829173 117.8125 328.6875 C118.62654297 329.12255859 119.44058594 329.55761719 120.27929688 330.00585938 C126.44336811 333.2691912 132.62245374 336.10111534 139 339 C139 271.68 139 204.36 139 135 C136.6529038 135 133.80925835 137.02993414 131.8125 138.02734375 Z M-250 149 C-254.10608335 156.28417629 -253.42374522 164.33685288 -253.38818359 172.46875 C-253.39225356 174.03328822 -253.39759782 175.59782357 -253.40411377 177.16235352 C-253.41774269 181.39375919 -253.4125071 185.62494443 -253.40297651 189.85635376 C-253.39535692 194.29421564 -253.4024319 198.73205922 -253.40713501 203.16992188 C-253.41258588 210.62112806 -253.40541853 218.0722449 -253.39111328 225.5234375 C-253.37478805 234.12587392 -253.38007703 242.728097 -253.3965925 251.33052826 C-253.41022645 258.72949799 -253.4121177 266.12840366 -253.40427649 273.5273819 C-253.39961046 277.94073481 -253.39894559 282.35398759 -253.40888596 286.76733398 C-253.41758119 290.91740863 -253.41148728 295.06720943 -253.39420319 299.21725464 C-253.39025195 300.73615058 -253.39134893 302.25506974 -253.39799118 303.7739563 C-253.59699928 314.79089405 -253.59699928 314.79089405 -250 325 C-244.76903043 329.60215696 -240.2993301 329.56906739 -233.67602539 329.50793457 C-232.63790994 329.51417453 -231.59979448 329.5204145 -230.53022099 329.52684355 C-227.05246822 329.54279535 -223.57541419 329.53016017 -220.09765625 329.51757812 C-217.60407095 329.52299824 -215.11048886 329.53012027 -212.61691284 329.53881836 C-206.5476224 329.55517232 -200.47860607 329.55276772 -194.40932631 329.5411678 C-189.47624701 329.53213018 -184.54322315 329.53091088 -179.61013794 329.53526306 C-178.55654322 329.53618246 -178.55654322 329.53618246 -177.48166376 329.53712043 C-176.05470934 329.53839935 -174.62775493 329.5396962 -173.20080054 329.5410108 C-159.8237009 329.55241396 -146.44671096 329.53930706 -133.06962931 329.51780933 C-121.59421618 329.49993855 -110.1189649 329.50304274 -98.64355469 329.52148438 C-85.31396921 329.54289578 -71.98447984 329.55131535 -58.65487957 329.53903532 C-57.23320708 329.53776114 -55.81153458 329.53650366 -54.38986206 329.53526306 C-53.69039225 329.53464596 -52.99092244 329.53402886 -52.27025658 329.53339306 C-47.34373195 329.52994096 -42.41726835 329.53576546 -37.49075317 329.54518127 C-30.85869572 329.55757831 -24.22689668 329.54873813 -17.59485245 329.52560425 C-15.15918613 329.52031003 -12.72349411 329.52184304 -10.28783798 329.53065491 C-6.96620117 329.5415652 -3.6455485 329.52790007 -0.32397461 329.50793457 C0.64275649 329.51685746 1.60948759 329.52578034 2.60551357 329.53497362 C8.21627625 329.4694373 11.61400406 328.85950393 16 325 C20.08501321 317.7383493 19.42389039 309.74272756 19.38818359 301.63891602 C19.39225366 300.08585238 19.39759798 298.53279163 19.40411377 296.97973633 C19.41774262 292.77925372 19.41250682 288.57899319 19.40297651 284.3785069 C19.39535552 279.9718094 19.40243241 275.56513029 19.40713501 271.15843201 C19.41258605 263.75850021 19.40541869 256.35865836 19.39111328 248.95874023 C19.37479405 240.41880724 19.3800726 231.87908923 19.3965925 223.33916146 C19.41023318 215.99198021 19.41211424 208.64486346 19.40427649 201.29767364 C19.39961337 196.91614667 19.39893738 192.53472053 19.40888596 188.15320015 C19.41759081 184.03184897 19.4114699 179.91077322 19.39420319 175.7894516 C19.39025679 174.28226363 19.39134052 172.77505223 19.39799118 171.26787376 C19.83952492 159.63909194 19.83952492 159.63909194 16 149 C10.81273425 144.37085433 6.27653583 144.431143 -0.32397461 144.49206543 C-1.36209006 144.48582547 -2.40020552 144.4795855 -3.46977901 144.47315645 C-6.94753178 144.45720465 -10.42458581 144.46983983 -13.90234375 144.48242188 C-16.39592905 144.47700176 -18.88951114 144.46987973 -21.38308716 144.46118164 C-27.4523776 144.44482768 -33.52139393 144.44723228 -39.59067369 144.4588322 C-44.52375299 144.46786982 -49.45677685 144.46908912 -54.38986206 144.46473694 C-55.44345678 144.46381754 -55.44345678 144.46381754 -56.51833624 144.46287957 C-57.94529066 144.46160065 -59.37224507 144.4603038 -60.79919946 144.4589892 C-74.1762991 144.44758604 -87.55328904 144.46069294 -100.93037069 144.48219067 C-112.40578382 144.50006145 -123.8810351 144.49695726 -135.35644531 144.47851562 C-148.68603079 144.45710422 -162.01552016 144.44868465 -175.34512043 144.46096468 C-176.76679292 144.46223886 -178.18846542 144.46349634 -179.61013794 144.46473694 C-180.65934265 144.46566259 -180.65934265 144.46566259 -181.72974342 144.46660694 C-186.65626805 144.47005904 -191.58273165 144.46423454 -196.50924683 144.45481873 C-203.14130428 144.44242169 -209.77310332 144.45126187 -216.40514755 144.47439575 C-218.84081387 144.47968997 -221.27650589 144.47815696 -223.71216202 144.46934509 C-227.03379883 144.4584348 -230.3544515 144.47209993 -233.67602539 144.49206543 C-234.64275649 144.48314254 -235.60948759 144.47421966 -236.60551357 144.46502638 C-242.21643776 144.53056458 -245.6135695 145.14086044 -250 149 Z M85.71875 161.46484375 C83.68420152 162.57624013 81.64489697 163.67859312 79.60546875 164.78100586 C78.23548539 165.53351179 76.87412188 166.30200288 75.5234375 167.08862305 C61.06963683 175.46182206 52.31041145 174.29575341 34 175 C34 215.92 34 256.84 34 299 C42.58 299.33 51.16 299.66 60 300 C66.35420716 302.41428415 71.74628866 304.71161698 77.5 308.0625 C78.90366264 308.83350533 80.30992867 309.59978988 81.71875 310.36132812 C83.67653989 311.42004304 85.62805685 312.48342525 87.56140137 313.5861969 C90.58665692 315.42709983 90.58665692 315.42709983 94 316 C94 263.86 94 211.72 94 158 C90.82390304 158 88.41647482 159.92607277 85.71875 161.46484375 Z M-298 185 C-298 219.32 -298 253.64 -298 289 C-288.1 289 -278.2 289 -268 289 C-268 254.68 -268 220.36 -268 185 C-277.9 185 -287.8 185 -298 185 Z M-209 345 C-209 349.62 -209 354.24 -209 359 C-148.28 359 -87.56 359 -25 359 C-25 354.38 -25 349.76 -25 345 C-85.72 345 -146.44 345 -209 345 Z M-184 375 C-190.50296821 391.04839654 -196.66024068 407.21642168 -202.74493408 423.42651367 C-204.74011981 428.74034274 -206.73937751 434.05264233 -208.73788452 439.36522293 C-209.4614525 441.2891897 -210.18449925 443.21335173 -210.9074707 445.13754272 C-214.15352904 453.77111314 -217.42546356 462.39445578 -220.74108887 471.00157166 C-222.30013683 474.41237779 -222.30013683 474.41237779 -223 478 C-220.36 478 -217.72 478 -215 478 C-204.39902463 459.1586761 -194.81243263 439.83368909 -185.19909668 420.47723389 C-181.85350955 413.74219634 -178.50199339 407.01011342 -175.14810371 400.27920723 C-173.9878967 397.94865117 -172.83045452 395.61673774 -171.67332458 393.28465271 C-170.96451819 391.86021447 -170.25562505 390.43581939 -169.54663086 389.01147461 C-169.2302919 388.37205933 -168.91395294 387.73264404 -168.58802795 387.07385254 C-167.24203181 384.37501681 -165.85330431 381.76029776 -164.27833557 379.18678284 C-162.83177676 377.1343982 -162.83177676 377.1343982 -163 375 C-169.93 375 -176.86 375 -184 375 Z M-145 375 C-147.31 379.599375 -149.62 384.19875 -152 388.9375 C-152.73089844 390.39019287 -153.46179688 391.84288574 -154.21484375 393.33959961 C-154.78332031 394.47405518 -155.35179687 395.60851074 -155.9375 396.77734375 C-156.52402344 397.94515381 -157.11054688 399.11296387 -157.71484375 400.31616211 C-159.07198134 402.65437619 -159.07198134 402.65437619 -159 404 C-131.28 404 -103.56 404 -75 404 C-79.59514794 394.29913212 -84.19953706 384.60092588 -89 375 C-107.48 375 -125.96 375 -145 375 Z M-71 375 C-69.34489972 380.0581974 -69.34489972 380.0581974 -67.14453125 384.68530273 C-66.77755127 385.3673024 -66.41057129 386.04930206 -66.0324707 386.75196838 C-65.62988037 387.49252975 -65.22729004 388.23309113 -64.8125 388.99609375 C-60.3324693 397.37452452 -56.04124229 405.84040432 -51.8125 414.34765625 C-51.17272172 415.63302216 -50.53291025 416.91837156 -49.89306641 418.20370483 C-47.26565737 423.48422361 -44.64221111 428.76670289 -42.02246094 434.05102539 C-34.66715013 448.88297832 -27.26099096 463.6440985 -19 478 C-16.36 478 -13.72 478 -11 478 C-16.146125 462.60167266 -21.99488048 447.48358123 -27.84877014 432.34494019 C-28.17840256 431.49247711 -28.50803497 430.64001404 -28.84765625 429.76171875 C-29.1815184 428.89854034 -29.51538055 428.03536194 -29.85935974 427.14602661 C-34.26667599 415.73938626 -38.60407073 404.30599069 -42.94308472 392.87322998 C-43.93780841 390.2524175 -44.9336917 387.63204799 -45.9296875 385.01171875 C-46.22689194 384.22714798 -46.52409637 383.44257721 -46.83030701 382.63423157 C-48.28763098 378.76240129 -48.28763098 378.76240129 -50 375 C-56.93 375 -63.86 375 -71 375 Z M-171.90991211 425.94824219 C-173.53394233 429.85885737 -173.53394233 429.85885737 -174 434 C-136.38 434 -98.76 434 -60 434 C-61.41156979 430.47107553 -62.77384533 427.45137797 -64.625 424.1875 C-65.07101563 423.39730469 -65.51703125 422.60710937 -65.9765625 421.79296875 C-66.48316406 420.90544922 -66.48316406 420.90544922 -67 420 C-79.91692814 419.72180396 -92.8331426 419.50866629 -105.75245762 419.37825394 C-111.7518204 419.3156561 -117.74913227 419.23078192 -123.74731445 419.09472656 C-129.53763344 418.96421006 -135.32598216 418.8925662 -141.11765862 418.86147308 C-143.32552052 418.83932099 -145.53327591 418.7960577 -147.74029732 418.73123932 C-161.84774742 417.64966685 -161.84774742 417.64966685 -171.90991211 425.94824219 Z " fill="#E51743" transform="translate(313,19)"/>
<path d="M0 0 C1.16473343 -0.0071553 2.32946686 -0.01431061 3.52949524 -0.02168274 C7.37935608 -0.03859115 11.22805615 -0.01915377 15.07788086 0.00219727 C17.75159768 0.00136883 20.42527409 -0.00103408 23.09898376 -0.00511169 C28.7018674 -0.00962942 34.30441683 0.0062183 39.90722656 0.03417969 C46.38249414 0.06624622 52.85715958 0.06620905 59.33247 0.04896492 C65.56624586 0.03309645 71.7998012 0.03983428 78.03356743 0.05690193 C80.68457991 0.06209191 83.33560972 0.06159211 85.98661995 0.05535698 C89.68807665 0.04991904 93.38850423 0.07023607 97.08984375 0.09765625 C98.18969604 0.09113037 99.28954834 0.08460449 100.42272949 0.07788086 C101.43070084 0.09060532 102.43867218 0.10332977 103.47718811 0.11643982 C104.35192811 0.11924674 105.22666811 0.12205366 106.12791538 0.12494564 C109.3735298 0.82332036 110.52968367 1.96762909 112.48022461 4.63110352 C112.98358917 7.42349243 112.98358917 7.42349243 112.98815918 10.70385742 C112.99943848 11.94887024 113.01071777 13.19388306 113.02233887 14.47662354 C113.01456189 15.85364002 113.00636923 17.23065421 112.99780273 18.60766602 C113.0032237 20.05988263 113.01034622 21.51209374 113.01904297 22.96429443 C113.0372826 26.90648627 113.03020639 30.8482595 113.01752663 34.79045868 C113.00740218 38.91524894 113.01679076 43.04000326 113.02307129 47.16479492 C113.03034933 54.09178098 113.02075595 61.01859647 113.00170898 67.94555664 C112.97993984 75.95502453 112.98699111 83.96408515 113.00901461 91.97354317 C113.02716421 98.84924876 113.02972911 105.72483171 113.01925993 112.60055351 C113.01302254 116.70758617 113.01219599 120.81442738 113.02540588 124.92144775 C113.03695749 128.78263674 113.02895189 132.64330046 113.00582886 136.50443268 C113.00053799 137.92179746 113.00206209 139.33920642 113.01087952 140.75655365 C113.02180169 142.69046962 113.00567921 144.62448215 112.98815918 146.55834961 C112.98665108 147.64087006 112.98514297 148.7233905 112.98358917 149.8387146 C112.34748953 153.36744452 111.36520569 154.5408392 108.48022461 156.63110352 C106.12791538 157.13726139 106.12791538 157.13726139 103.47718811 157.14576721 C102.46921677 157.15849167 101.46124542 157.17121613 100.42272949 157.18432617 C99.3228772 157.17780029 98.2230249 157.17127441 97.08984375 157.16455078 C95.92686264 157.17316635 94.76388153 157.18178192 93.56565857 157.19065857 C89.7153406 157.21339011 85.86574623 157.20656576 82.01538086 157.19750977 C80.01800871 157.20142009 78.02063618 157.2053405 76.02326769 157.21080917 C69.74329346 157.22780763 63.46356222 157.22424345 57.18359375 157.20751953 C50.7088721 157.1905997 44.23482471 157.20643003 37.76017672 157.23874241 C32.19738058 157.26545042 26.63479417 157.2727111 21.07194036 157.26422733 C17.75115875 157.25930123 14.43087219 157.26359806 11.11012459 157.28201485 C7.4062478 157.2994056 3.70381816 157.28496069 0 157.26220703 C-1.09782806 157.27389923 -2.19565613 157.28559143 -3.32675171 157.29763794 C-7.75080348 157.24225382 -10.74933607 157.03607267 -14.69932556 154.95982361 C-17.68869609 149.49371431 -17.21505388 143.84322464 -17.16674805 137.74047852 C-17.1735265 136.30943693 -17.18243092 134.87840407 -17.19329834 133.4473877 C-17.21607195 129.56708852 -17.20726387 125.68745482 -17.19140291 121.80714417 C-17.17873365 117.74421409 -17.19048686 113.68134054 -17.19833374 109.6184082 C-17.20742735 102.79571311 -17.19545012 95.97328874 -17.17163086 89.15063477 C-17.14441991 81.26548441 -17.15323429 73.38098048 -17.18076289 65.49584579 C-17.20346133 58.72284288 -17.20665052 51.95003443 -17.19356954 45.17700577 C-17.18577898 41.13307348 -17.1847223 37.08944493 -17.20125198 33.04553223 C-17.21570846 29.24330933 -17.20565486 25.44191884 -17.1767807 21.63978577 C-17.17017598 20.24542116 -17.17205726 18.85098635 -17.18309402 17.45664978 C-17.25835669 6.9816106 -17.25835669 6.9816106 -14.69932556 2.30238342 C-9.84767302 -0.24781046 -5.40594922 -0.05757499 0 0 Z M-0.51977539 16.63110352 C-0.51977539 47.65110352 -0.51977539 78.67110352 -0.51977539 110.63110352 C31.82022461 110.63110352 64.16022461 110.63110352 97.48022461 110.63110352 C97.48022461 79.61110352 97.48022461 48.59110352 97.48022461 16.63110352 C65.14022461 16.63110352 32.80022461 16.63110352 -0.51977539 16.63110352 Z M-0.51977539 126.63110352 C-0.51977539 131.25110352 -0.51977539 135.87110352 -0.51977539 140.63110352 C31.82022461 140.63110352 64.16022461 140.63110352 97.48022461 140.63110352 C97.48022461 136.01110352 97.48022461 131.39110352 97.48022461 126.63110352 C65.14022461 126.63110352 32.80022461 126.63110352 -0.51977539 126.63110352 Z " fill="#E51743" transform="translate(204.519775390625,177.368896484375)"/>
<path d="M0 0 C8.97957375 8.10655963 15.67191112 19.96335189 16.3359375 32.19921875 C16.64260648 47.34665517 13.37265676 59.70957125 2.96875 71.25390625 C-7.92327636 81.65263432 -20.3980562 85.54660149 -35.1171875 85.3125 C-48.31996659 84.24990209 -59.82325655 78.21719214 -68.890625 68.68359375 C-77.18501443 58.13128719 -81.22218094 45.38579126 -80 32 C-77.92001053 17.98191971 -72.23697143 6.85702306 -61 -2 C-41.47859457 -14.45855418 -18.60384982 -14.65053173 0 0 Z M-58 18 C-59.74970221 20.5700233 -60.96477162 23.07487794 -62 26 C-62.4125 27.155 -62.825 28.31 -63.25 29.5 C-65.08387045 38.0580621 -63.76469883 45.11544207 -60 53 C-54.39036708 61.23736321 -46.89979766 67.04711023 -37 69 C-30.24271484 69.6068719 -24.17998982 68.9035297 -18 66 C-17.34 65.34 -16.68 64.68 -16 64 C-16.6612085 63.3702124 -17.32241699 62.7404248 -18.00366211 62.09155273 C-20.46292454 59.73489486 -22.90782049 57.36504123 -25.34448242 54.98510742 C-26.39932403 53.96033486 -27.45950189 52.94102427 -28.52514648 51.92749023 C-30.0612795 50.464609 -31.57677795 48.98277733 -33.08984375 47.49609375 C-34.00628662 46.61107178 -34.92272949 45.7260498 -35.86694336 44.81420898 C-38.41641049 41.45061649 -38.82009167 39.17739122 -39 35 C-38.04357118 32.20428498 -37.64701022 31.32350511 -35 30 C-32.375 29.5 -32.375 29.5 -29 30 C-22.93614549 34.37039802 -17.73948289 40.13494926 -12.5 45.4375 C-11.77296875 46.16904297 -11.0459375 46.90058594 -10.296875 47.65429688 C-8.52890501 49.43389824 -6.76333622 51.21580918 -5 53 C-0.99834138 49.30531793 -0.19913622 45.4686024 0.2265625 40.19140625 C0.50839037 30.1352756 -1.45126617 22.8888758 -7.91015625 15.078125 C-14.43982814 8.58506809 -22.59983321 5.08538575 -31.75 4.625 C-42.74789392 4.94160604 -50.80530524 9.88084725 -58 18 Z " fill="#E51743" transform="translate(156,189)"/>
<path d="M0 0 C0.87022797 -0.00832352 1.74045593 -0.01664703 2.63705444 -0.02522278 C5.51866101 -0.04935137 8.40004136 -0.05809831 11.28173828 -0.06469727 C13.28329538 -0.07366131 15.28485178 -0.08278311 17.28640747 -0.09205627 C21.48457468 -0.10855652 25.68266205 -0.11624829 29.88085938 -0.11914062 C35.26029431 -0.12452595 40.63897887 -0.16220794 46.01820183 -0.20788479 C50.1531956 -0.23762745 54.28800806 -0.24486357 58.42309952 -0.24586678 C60.40625572 -0.25007451 62.3894122 -0.2625309 64.37246323 -0.28338432 C67.14730754 -0.31024124 69.92040457 -0.30549052 72.6953125 -0.29296875 C73.92362793 -0.31522018 73.92362793 -0.31522018 75.17675781 -0.33792114 C79.39233143 -0.28375068 81.02391753 -0.04009325 84.48547363 2.60679626 C87.12018223 6.17816678 87.1991549 9.21602682 87.14111328 13.49389648 C87.14589691 14.274021 87.15068054 15.05414551 87.15560913 15.85791016 C87.15900086 17.50189234 87.1498491 19.14594264 87.12890625 20.78979492 C87.1021247 23.29946944 87.12867278 25.80467278 87.16064453 28.31420898 C87.1573403 29.91578131 87.15093377 31.51735086 87.14111328 33.11889648 C87.15629501 34.23784302 87.15629501 34.23784302 87.17178345 35.37939453 C87.09017444 39.02588316 86.66654265 41.0498551 84.48448181 44.00401306 C80.44650597 47.09534535 77.66205062 47.00832605 72.71118164 46.9375 C71.83905533 46.9446553 70.96692902 46.95181061 70.06837463 46.95918274 C67.19234466 46.97605948 64.31787556 46.95667502 61.44189453 46.93530273 C59.44079967 46.93613145 57.43970488 46.93859094 55.43861389 46.94261169 C51.24801099 46.9454689 47.05794281 46.93077454 42.86743164 46.90332031 C37.49469947 46.86921581 32.12292206 46.87526389 26.750144 46.89398289 C22.61943089 46.90454789 18.48894019 46.89561994 14.35824776 46.88059807 C12.37709781 46.87541361 10.39592466 46.87590124 8.41477776 46.88214302 C5.6471848 46.88759002 2.88096221 46.86723777 0.11352539 46.83984375 C-0.70580475 46.84636963 -1.52513489 46.85289551 -2.36929321 46.85961914 C-5.93572317 46.7995555 -8.09715778 46.61406577 -11.02662659 44.49728394 C-13.2116084 41.29807466 -13.16407092 38.18382061 -13.20263672 34.43530273 C-13.22391632 33.67595932 -13.24519592 32.91661591 -13.26712036 32.13426208 C-13.30792772 30.53161125 -13.33928637 28.92869555 -13.36181641 27.32568359 C-13.39778593 24.87999885 -13.46573362 22.43677891 -13.53857422 19.99194336 C-13.57432587 18.4314388 -13.60824094 16.87089086 -13.64013672 15.31030273 C-13.65978485 14.5830751 -13.67943298 13.85584747 -13.69967651 13.10658264 C-13.74239763 9.06197161 -13.50406745 5.873147 -11.52294922 2.30639648 C-7.66717434 -0.2641201 -4.47265189 0.00361254 0 0 Z M2.47705078 16.30639648 C2.47705078 20.92639648 2.47705078 25.54639648 2.47705078 30.30639648 C24.91705078 30.30639648 47.35705078 30.30639648 70.47705078 30.30639648 C70.47705078 25.68639648 70.47705078 21.06639648 70.47705078 16.30639648 C48.03705078 16.30639648 25.59705078 16.30639648 2.47705078 16.30639648 Z " fill="#E51743" transform="translate(87.52294921875,287.693603515625)"/>
<path d="M0 0 C1.9140625 1.24609375 1.9140625 1.24609375 3 3 C3.3984375 5.15625 3.3984375 5.15625 3.375 7.5 C3.38660156 8.66015625 3.38660156 8.66015625 3.3984375 9.84375 C3 12 3 12 1.92578125 13.69140625 C-0.945922 15.64276647 -3.77902881 15.88708489 -7.1875 16.4375 C-17.74715401 18.34690309 -24.86409665 21.82290429 -31.21875 30.703125 C-34.40635315 36.257282 -35.18435281 42.47080589 -36.19140625 48.70703125 C-37.31846774 53.29694833 -37.31846774 53.29694833 -40 55 C-42.15625 55.3984375 -42.15625 55.3984375 -44.5 55.375 C-45.66015625 55.38660156 -45.66015625 55.38660156 -46.84375 55.3984375 C-49.56338743 54.8958958 -50.39601656 54.23970858 -52 52 C-54.72065553 43.35008975 -51.72990037 33.47685144 -47.8125 25.625 C-41.04905436 13.19525904 -31.60134122 5.20052191 -18.046875 0.65625 C-12.15083505 -0.6136663 -5.97440158 -0.81269433 0 0 Z " fill="#E51743" transform="translate(138,65)"/>
<path d="M0 0 C1.56041016 -0.04253906 1.56041016 -0.04253906 3.15234375 -0.0859375 C6.7633968 0.48601453 7.90425644 1.46672854 10.0625 4.375 C10.59375 6.375 10.59375 6.375 10.5625 8.375 C10.5728125 9.035 10.583125 9.695 10.59375 10.375 C9.80523443 13.3435292 8.48949783 14.53048165 6.0625 16.375 C3.1875 16.90625 3.1875 16.90625 0.0625 16.875 C-1.484375 16.89046875 -1.484375 16.89046875 -3.0625 16.90625 C-6.58325553 16.25567561 -7.74240112 15.14695045 -9.9375 12.375 C-11.03060383 9.32992506 -11.05931739 7.8115123 -10.1875 4.6875 C-7.7486555 0.17563767 -4.72771076 0.05843895 0 0 Z " fill="#E51743" transform="translate(276.9375,207.625)"/>
<path d="M0 0 C1.56041016 -0.04253906 1.56041016 -0.04253906 3.15234375 -0.0859375 C6.7633968 0.48601453 7.90425644 1.46672854 10.0625 4.375 C10.59375 6.375 10.59375 6.375 10.5625 8.375 C10.5728125 9.035 10.583125 9.695 10.59375 10.375 C9.80523443 13.3435292 8.48949783 14.53048165 6.0625 16.375 C3.1875 16.90625 3.1875 16.90625 0.0625 16.875 C-1.484375 16.89046875 -1.484375 16.89046875 -3.0625 16.90625 C-6.58325553 16.25567561 -7.74240112 15.14695045 -9.9375 12.375 C-11.03060383 9.32992506 -11.05931739 7.8115123 -10.1875 4.6875 C-7.7486555 0.17563767 -4.72771076 0.05843895 0 0 Z " fill="#E51743" transform="translate(246.9375,207.625)"/>
</svg>
