<?xml version="1.0" encoding="UTF-8"?>
<svg version="1.1" xmlns="http://www.w3.org/2000/svg" width="512" height="512">
<path d="M0 0 C1.81965239 3.1319779 2.43080776 5.84515967 3.06292725 9.41700745 C3.19030777 10.11193298 3.31768829 10.80685852 3.44892883 11.52284241 C3.86492826 13.81571318 4.25780708 16.11187099 4.64984131 18.40895081 C4.93446813 20.01375892 5.22023242 21.61836567 5.50708008 23.22277832 C6.10517787 26.58777822 6.69237897 29.95443942 7.27142334 33.32276917 C8.00952774 37.61371599 8.76974499 41.90035871 9.53774643 46.18604374 C10.13026537 49.50243414 10.71307145 52.82047397 11.29285431 56.13911247 C11.56951842 57.71857933 11.84857431 59.29762937 12.13018036 60.87622261 C15.66284888 80.77890434 15.66284888 80.77890434 14.41546631 86.43629456 C11.81527381 90.15812544 9.09120582 91.05497457 4.70680428 91.87250519 C3.93172964 92.0002256 3.15665501 92.12794601 2.35809326 92.25953674 C1.09476827 92.48755352 1.09476827 92.48755352 -0.19407845 92.7201767 C-3.0964726 93.23981541 -6.00240717 93.73613751 -8.90875244 94.23316956 C-11.06359158 94.61386106 -13.21817924 94.99597807 -15.37254333 95.37934875 C-20.30434186 96.25349489 -25.23789495 97.11705073 -30.17285156 97.97315979 C-38.48074723 99.41483299 -46.78444942 100.87989792 -55.08789015 102.34698021 C-75.48513187 105.95004338 -95.88770165 109.52252362 -116.29074073 113.0925824 C-134.98642181 116.36405552 -153.68099741 119.64184291 -172.37550926 122.91998982 C-175.56966158 123.48008028 -178.76382682 124.04009707 -181.95799255 124.60011101 C-213.08413948 130.05767715 -244.20553861 135.54166313 -275.32281494 141.04957581 C-277.26625626 141.39353601 -279.20969765 141.73749582 -281.15313911 142.08145523 C-298.68646233 145.18476759 -316.21936214 148.29046294 -333.75141448 151.40094739 C-340.52087525 152.60191389 -347.29052402 153.80181656 -354.06031209 155.00093669 C-358.69538941 155.8220347 -363.33019282 156.64465559 -367.96477884 157.46852195 C-370.7570547 157.96454109 -373.54957631 158.45916492 -376.34217298 158.95337439 C-378.23423658 159.28865968 -380.12599445 159.62566885 -382.01774311 159.96272659 C-383.6835582 160.25709169 -383.6835582 160.25709169 -385.38302612 160.55740356 C-386.34639704 160.72839852 -387.30976795 160.89939348 -388.30233192 161.07557011 C-390.58453369 161.43629456 -390.58453369 161.43629456 -392.58453369 161.43629456 C-392.58453369 162.75629456 -392.58453369 164.07629456 -392.58453369 165.43629456 C-391.73082111 165.43515539 -390.87710853 165.43401623 -389.99752587 165.43284255 C-339.44372503 165.36576562 -288.88992889 165.31426389 -238.33609248 165.28309857 C-232.27136383 165.27934627 -226.20663526 165.27546332 -220.14190674 165.27149963 C-218.9344853 165.2707127 -217.72706387 165.26992577 -216.4830539 165.26911499 C-196.91089103 165.25604707 -177.33875448 165.23238562 -157.76660725 165.20483617 C-137.69644416 165.17682051 -117.6262949 165.16012644 -97.55611306 165.15402907 C-85.1632846 165.14990465 -72.77053055 165.13685972 -60.37772498 165.11254515 C-51.88928904 165.09673532 -43.40089178 165.09188337 -34.91244217 165.09579042 C-30.00884919 165.0977194 -25.10538659 165.09468124 -20.20181656 165.07867813 C-15.7180152 165.06415114 -11.23443272 165.06329495 -6.75062159 165.07359787 C-5.12338752 165.07487249 -3.49614016 165.07100606 -1.86893251 165.06164501 C0.3332857 165.04970657 2.53470076 165.05603176 4.7369051 165.06715107 C5.96302204 165.06601191 7.18913899 165.06487275 8.452411 165.06369907 C11.41546631 165.43629456 11.41546631 165.43629456 13.30928117 166.60592526 C14.86437406 169.1790879 14.79156635 171.08991732 14.79298973 174.09134674 C14.80081297 175.27634089 14.80863621 176.46133504 14.81669652 177.6822381 C14.81000436 178.99048469 14.80331219 180.29873128 14.79641724 181.6466217 C14.79987195 183.04538384 14.80463525 184.44414325 14.81059897 185.84289694 C14.82316443 189.6955342 14.81691356 193.54794956 14.80764031 197.4005878 C14.80087275 201.55197605 14.81131962 205.70332524 14.81958008 209.85470581 C14.83294419 217.9907853 14.83002778 226.12678193 14.82134216 234.26286471 C14.81457653 240.87318709 14.81364402 247.48348619 14.8169136 254.09381104 C14.8173733 255.03338586 14.817833 255.97296068 14.81830663 256.94100747 C14.81926577 258.84952868 14.82023841 260.75804988 14.82122441 262.66657108 C14.82978615 280.57736364 14.81993189 298.48811019 14.80382331 316.3988952 C14.79041942 331.77873496 14.79274729 347.1585068 14.80657959 362.53834534 C14.82262158 380.38353104 14.8289621 398.22867637 14.8197428 416.07386827 C14.81878712 417.97550487 14.817844 419.87714147 14.8169136 421.77877808 C14.81645078 422.71450436 14.81598795 423.65023064 14.8155111 424.61431226 C14.81291706 431.21934544 14.8173011 437.8243531 14.82435226 444.42938232 C14.83275214 452.47491728 14.83051909 460.52036439 14.81451003 468.56588924 C14.80660686 472.67357144 14.80357035 476.781107 14.81345749 480.88878822 C14.82236282 484.64528704 14.81754091 488.40150257 14.80152483 492.15797549 C14.79655851 494.16876756 14.80641068 496.17957912 14.81669652 498.19035101 C14.80887328 499.37534516 14.80105004 500.56033931 14.79298973 501.78124237 C14.79250267 502.80827853 14.79201562 503.83531468 14.7915138 504.89347315 C14.41546631 507.43629456 14.41546631 507.43629456 13.40831816 509.2661401 C10.18321087 511.15984517 6.78785814 510.84561415 3.15231323 510.81381798 C1.86699349 510.82035846 1.86699349 510.82035846 0.55570769 510.82703108 C-2.34129435 510.83805727 -5.23782738 510.82753117 -8.13482666 510.81724548 C-10.22242923 510.82069914 -12.31002998 510.82546172 -14.39762688 510.83142722 C-20.15430252 510.84400703 -25.91082989 510.83773522 -31.66750622 510.82846856 C-37.86798825 510.82170687 -44.06844401 510.83214494 -50.2689209 510.84040833 C-61.72031139 510.85300511 -73.17163541 510.85187435 -84.6230256 510.84367392 C-95.20083727 510.83613598 -105.77863151 510.83415306 -116.35644531 510.83774185 C-117.05729519 510.83797101 -117.75814507 510.83820016 -118.48023282 510.83843626 C-121.3250005 510.83937023 -124.16976817 510.84032543 -127.01453584 510.84131555 C-153.71667298 510.85049863 -180.41877982 510.84216255 -207.12091228 510.82602486 C-230.85945336 510.81178737 -254.59794616 510.81306123 -278.33648682 510.82740784 C-304.98886672 510.8434615 -331.64121983 510.84984745 -358.2936039 510.84057105 C-361.13327662 510.83960885 -363.97294934 510.83867033 -366.81262207 510.83774185 C-367.51185444 510.83750462 -368.21108682 510.83726739 -368.93150805 510.83702297 C-379.50431348 510.83360631 -390.07709959 510.83760924 -400.64990234 510.84518051 C-412.66811996 510.85374379 -424.68626808 510.85135497 -436.70448351 510.83533828 C-442.84146647 510.82743026 -448.97835122 510.82440689 -455.11533356 510.83428574 C-460.72592213 510.84318093 -466.33632084 510.83838579 -471.94689202 510.82235308 C-473.98385245 510.81898321 -476.0208287 510.82074833 -478.05777907 510.82798044 C-480.81254563 510.83701594 -483.56664953 510.82783571 -486.32138062 510.81381798 C-487.12444082 510.82084148 -487.92750103 510.82786497 -488.7548964 510.83510131 C-491.65589048 510.80530696 -493.9976326 510.75647457 -496.57738554 509.34910738 C-498.14133674 506.37879371 -497.9607905 503.79610765 -497.96205711 500.45376587 C-497.96641744 499.73533268 -497.97077776 499.0168995 -497.97527021 498.27669561 C-497.98628615 495.85062174 -497.97577536 493.42510915 -497.96548462 490.9990387 C-497.96893869 489.24966928 -497.97370155 487.50030203 -497.97966635 485.75093937 C-497.99224053 480.9291832 -497.98597694 476.10760416 -497.9767077 471.28584719 C-497.9699437 466.09150751 -497.98038523 460.89719914 -497.98864746 455.7028656 C-498.0020154 445.52139667 -497.99909346 435.33999393 -497.99040954 425.15852237 C-497.98364541 416.88677853 -497.98271075 408.6150533 -497.98598099 400.3433075 C-497.98644069 399.16782697 -497.98690039 397.99234644 -497.98737402 396.78124529 C-497.98833315 394.39357908 -497.98930579 392.00591287 -497.99029179 389.61824667 C-497.99885465 367.20797221 -497.98899751 344.79773451 -497.97289069 322.38746607 C-497.9594867 303.14167954 -497.96181454 283.89594729 -497.97564697 264.65016174 C-497.99168698 242.32227274 -497.99803059 219.99441599 -497.98881018 197.66652203 C-497.98785449 195.28744189 -497.98691138 192.90836176 -497.98598099 190.52928162 C-497.98551816 189.35860596 -497.98505533 188.18793031 -497.98457848 186.98177963 C-497.98198385 178.71613198 -497.98636976 170.45050472 -497.99341965 162.18486023 C-498.00181732 152.11730326 -497.99959111 142.0498165 -497.98357742 131.98226762 C-497.9756713 126.84170939 -497.97264278 121.70126838 -497.98252487 116.56071091 C-497.99142403 111.86051705 -497.98661838 107.16054975 -497.97059222 102.46037662 C-497.96722403 100.75450455 -497.96898378 99.04861358 -497.97621958 97.34275353 C-497.98526413 95.03449968 -497.97606614 92.72703496 -497.96205711 90.41882324 C-497.96157006 89.13357726 -497.961083 87.84833128 -497.96058118 86.52413845 C-497.58453369 83.43629456 -497.58453369 83.43629456 -496.28747046 81.51615334 C-493.2350894 79.58059087 -489.54017304 80.17796553 -486.02984619 80.19581604 C-475.02220045 79.94012019 -464.39514816 78.30153123 -453.57672119 76.40919495 C-452.6904373 76.25423766 -451.80415341 76.09928037 -450.89101243 75.93962741 C-445.10562375 74.92261443 -439.3244241 73.88298774 -433.5438447 72.83903885 C-428.24186675 71.88483398 -422.93694011 70.94728615 -417.63235474 70.00770569 C-408.43414047 68.37628219 -399.23774084 66.73494737 -390.04248047 65.08695984 C-376.69308698 62.69470462 -363.3406048 60.32006759 -349.98721576 57.95022857 C-328.7065848 54.17338726 -307.42760279 50.38733938 -286.14980343 46.59458347 C-239.25167648 38.23518552 -192.34887737 29.90215366 -145.44044177 21.60079227 C-130.15816982 18.8962401 -114.87715502 16.18480097 -99.59796321 13.46289957 C-89.56823472 11.67656616 -79.53734554 9.89685807 -69.50551808 8.12235034 C-63.70144467 7.09543106 -57.89796968 6.06538823 -52.09591293 5.02713013 C-46.77053228 4.07423292 -41.4436762 3.1300857 -36.11553001 2.19277942 C-34.18816589 1.8521325 -32.26136331 1.5082894 -30.33520317 1.16089928 C-5.48227532 -3.31690927 -5.48227532 -3.31690927 0 0 Z M-24.41265869 16.74879456 C-25.5361673 16.94855896 -25.5361673 16.94855896 -26.68237305 17.15235901 C-29.06701443 17.57711917 -31.45076975 18.00664033 -33.83453369 18.43629456 C-35.45426917 18.72567176 -37.07406025 19.01473785 -38.69390869 19.30348206 C-42.65810398 20.01081541 -46.62151154 20.72241896 -50.58453369 21.43629456 C-49.33783054 25.53484988 -47.83612341 28.99760895 -45.60015869 32.64723206 C-45.00090576 33.63392883 -44.40165283 34.62062561 -43.78424072 35.63722229 C-43.1408374 36.68466614 -42.49743408 37.73210999 -41.83453369 38.81129456 C-40.48167695 41.03837346 -39.13015024 43.26626075 -37.77984619 45.49488831 C-37.43481049 46.0632692 -37.08977478 46.63165009 -36.73428345 47.21725464 C-32.98957268 53.39543487 -29.34351375 59.62985236 -25.70953369 65.87379456 C-25.10915283 66.90359436 -24.50877197 67.93339417 -23.89019775 68.99440002 C-19.72978291 76.14579611 -19.72978291 76.14579611 -18.58453369 78.43629456 C-16.85507716 78.29393999 -15.12597715 78.14725073 -13.39703369 77.99879456 C-12.434104 77.91758362 -11.47117432 77.83637268 -10.47906494 77.75270081 C-7.79803768 77.45963305 -5.21823509 77.00925702 -2.58453369 76.43629456 C-3.20363761 68.97433039 -4.32371634 61.66957129 -5.65093994 54.30348206 C-5.8492894 53.18563324 -6.04763885 52.06778442 -6.2519989 50.9160614 C-6.88016747 47.38050368 -7.51351381 43.8458969 -8.14703369 40.31129456 C-8.57641398 37.89989742 -9.00545383 35.48843964 -9.43414307 33.07691956 C-10.48033813 27.1960043 -11.53077451 21.3158589 -12.58453369 15.43629456 C-16.66367246 15.43629456 -20.42095913 16.02426422 -24.41265869 16.74879456 Z M-82.88531494 26.89723206 C-84.2007856 27.12317551 -84.2007856 27.12317551 -85.54283142 27.35368347 C-87.38637177 27.6722085 -89.22945051 27.99341563 -91.07208252 28.31715393 C-93.903349 28.81239923 -96.73690159 29.29267273 -99.57086182 29.77223206 C-101.36333741 30.08382514 -103.15566101 30.3962942 -104.94781494 30.70973206 C-105.7987825 30.85252594 -106.64975006 30.99531982 -107.52650452 31.1424408 C-109.55902725 31.50658928 -111.57470258 31.96265788 -113.58453369 32.43629456 C-113.91453369 33.09629456 -114.24453369 33.75629456 -114.58453369 34.43629456 C-113.35990888 37.05183232 -113.35990888 37.05183232 -111.52593994 40.02613831 C-111.19016937 40.59448395 -110.8543988 41.16282959 -110.50845337 41.74839783 C-109.3954989 43.62810854 -108.27133262 45.50085101 -107.14703369 47.37379456 C-106.37683896 48.66982029 -105.60739673 49.9662935 -104.83868408 51.26319885 C-103.23901935 53.95920082 -101.63481912 56.65242436 -100.0269165 59.34352112 C-97.29402393 63.91903961 -94.5800382 68.50564496 -91.86801147 73.09355164 C-88.44748586 78.87884221 -85.01509319 84.65688351 -81.58453369 90.43629456 C-66.40453369 87.79629456 -51.22453369 85.15629456 -35.58453369 82.43629456 C-36.59265526 78.40380828 -38.16913932 75.3074744 -40.20953369 71.74879456 C-40.59415771 71.07106995 -40.97878174 70.39334534 -41.37506104 69.69508362 C-46.9974303 59.86618932 -52.86839575 50.17617297 -58.769104 40.51246643 C-60.03155952 38.37328683 -61.23555497 36.19896724 -62.39215088 34.00074768 C-62.97899658 32.9018219 -63.56584229 31.80289612 -64.17047119 30.67066956 C-64.68400146 29.66745667 -65.19753174 28.66424377 -65.72662354 27.63063049 C-67.39829809 25.17253584 -67.39829809 25.17253584 -70.21661377 25.01783752 C-74.46172937 25.54528429 -78.67130972 26.16131357 -82.88531494 26.89723206 Z M-139.66290283 37.0471344 C-140.84917015 37.24766922 -140.84917015 37.24766922 -142.05940247 37.45225525 C-142.90429733 37.5990976 -143.7491922 37.74593994 -144.61968994 37.89723206 C-145.49475693 38.04786102 -146.36982391 38.19848999 -147.27140808 38.35368347 C-149.11836544 38.67303372 -150.96500375 38.99423399 -152.81134033 39.31715393 C-155.63877052 39.80985464 -158.4679764 40.29127263 -161.29742432 40.77223206 C-163.09246627 41.08404154 -164.88739236 41.39651898 -166.68218994 41.70973206 C-167.52910904 41.85252594 -168.37602814 41.99531982 -169.24861145 42.1424408 C-170.03630417 42.282435 -170.82399689 42.4224292 -171.63555908 42.56666565 C-172.32742813 42.68657867 -173.01929718 42.8064917 -173.73213196 42.93003845 C-175.89789808 43.41718083 -175.89789808 43.41718083 -178.58453369 45.43629456 C-178.13207275 46.18266174 -177.67961182 46.92902893 -177.21343994 47.69801331 C-171.7192867 56.79518611 -166.33132196 65.95404058 -160.95953369 75.12379456 C-160.5987674 75.73959381 -160.2380011 76.35539307 -159.86630249 76.98985291 C-155.09648276 85.13328596 -150.33719895 93.28283744 -145.58453369 101.43629456 C-140.65881663 100.61950378 -135.7332886 99.80158492 -130.80792236 98.98268127 C-129.13707373 98.70503761 -127.46617643 98.42768668 -125.79522705 98.15065002 C-116.71266464 96.64459209 -107.63423857 95.1312986 -98.58453369 93.43629456 C-102.29987926 85.61221388 -106.44415432 78.17385832 -110.94781494 70.78395081 C-114.6961551 64.63189465 -118.32897088 58.41096035 -121.97930908 52.20045471 C-123.01883568 50.43624509 -124.06347561 48.67503587 -125.11383057 46.91725159 C-126.07861426 45.28973965 -127.0234679 43.65021188 -127.94586182 41.99830627 C-128.36802979 41.26499084 -128.79019775 40.53167542 -129.22515869 39.77613831 C-129.58641846 39.12894836 -129.94767822 38.48175842 -130.31988525 37.81495667 C-130.94588623 37.13251892 -130.94588623 37.13251892 -131.58453369 36.43629456 C-134.50597565 36.43629456 -136.83905868 36.56476182 -139.66290283 37.0471344 Z M-202.55523682 47.94947815 C-203.32283325 48.08647125 -204.09042969 48.22346436 -204.88128662 48.36460876 C-205.70117065 48.51974945 -206.52105469 48.67489014 -207.36578369 48.83473206 C-208.21628296 48.98914764 -209.06678223 49.14356323 -209.9430542 49.30265808 C-212.65837261 49.79775932 -215.37137059 50.30452973 -218.08453369 50.81129456 C-219.9112225 51.14536205 -221.7380442 51.4787037 -223.56500244 51.81129456 C-226.91540551 52.42473078 -230.2655754 53.03925862 -233.61383057 53.6643219 C-234.28571411 53.78947174 -234.95759766 53.91462158 -235.64984131 54.04356384 C-237.64562921 54.44869657 -239.61277125 54.92782826 -241.58453369 55.43629456 C-239.79765452 60.51805498 -237.07718315 65.03818191 -234.39703369 69.68629456 C-233.87818604 70.59000793 -233.35933838 71.49372131 -232.82476807 72.42481995 C-228.48361126 79.9508979 -224.04968531 87.42074197 -219.58453369 94.87379456 C-218.95007324 95.93308167 -218.31561279 96.99236877 -217.66192627 98.08375549 C-214.73751545 102.94253611 -211.79321394 107.75964309 -208.58453369 112.43629456 C-198.21855246 111.06085983 -187.9765824 109.27503983 -177.70953369 107.31129456 C-176.23172355 107.03105941 -174.75385918 106.75111006 -173.27593994 106.47145081 C-169.71150962 105.79634341 -166.14781843 105.11742595 -162.58453369 104.43629456 C-163.89233602 100.97518764 -165.40698066 97.83613086 -167.27984619 94.64723206 C-167.82334717 93.71789856 -168.36684814 92.78856506 -168.92681885 91.83106995 C-169.51511475 90.83454407 -170.10341064 89.83801819 -170.70953369 88.81129456 C-171.31974365 87.77545227 -171.92995361 86.73960999 -172.55865479 85.67237854 C-173.87233606 83.44290505 -175.18698789 81.21400321 -176.50250244 78.98561096 C-178.30035872 75.93029758 -180.07172787 72.86036791 -181.83627319 69.78572083 C-183.26958137 67.2916212 -184.71311062 64.80352457 -186.15820312 62.3162384 C-186.85744375 61.10745535 -187.55233841 59.89614755 -188.24279785 58.68232727 C-189.21210125 56.98026307 -190.19873689 55.2881048 -191.18609619 53.59645081 C-191.74635498 52.62328918 -192.30661377 51.65012756 -192.8838501 50.6474762 C-195.58106054 47.14063799 -198.39899295 47.18514941 -202.55523682 47.94947815 Z M-264.82891846 59.17066956 C-265.72977676 59.33083557 -266.63063507 59.49100159 -267.55879211 59.65602112 C-268.5379509 59.83101135 -269.51710968 60.00600159 -270.52593994 60.18629456 C-271.52334702 60.36386292 -272.52075409 60.54143127 -273.54838562 60.72438049 C-276.748079 61.29421355 -279.94755778 61.86524188 -283.14703369 62.43629456 C-285.31043117 62.8217897 -287.47384244 63.20720741 -289.63726807 63.59254456 C-294.95318401 64.53956114 -300.26892404 65.48756031 -305.58453369 66.43629456 C-304.1304316 70.36417654 -302.28362402 73.85096701 -300.16265869 77.45973206 C-299.82566452 78.03476974 -299.48867035 78.60980743 -299.14146423 79.20227051 C-298.04282591 81.07413215 -296.9389028 82.94280918 -295.83453369 84.81129456 C-295.07344903 86.10444958 -294.31246363 87.39766302 -293.55157471 88.69093323 C-286.68268856 100.34573474 -279.67117524 111.91262136 -272.58453369 123.43629456 C-262.21175303 122.3571388 -251.97539404 120.70137925 -241.70953369 118.87379456 C-239.82766357 118.54085388 -239.82766357 118.54085388 -237.90777588 118.20118713 C-236.73118408 117.98873352 -235.55459229 117.77627991 -234.34234619 117.55738831 C-232.75124023 117.27012878 -232.75124023 117.27012878 -231.12799072 116.97706604 C-228.60763497 116.55260643 -228.60763497 116.55260643 -226.58453369 115.43629456 C-228.12111489 109.82912106 -230.87235845 105.33534163 -233.89703369 100.43629456 C-234.97995221 98.65949127 -236.06194933 96.88212616 -237.14312744 95.10426331 C-237.70628662 94.18048889 -238.2694458 93.25671448 -238.84967041 92.3049469 C-242.30877812 86.58520082 -245.67360737 80.80896623 -249.04278564 75.03590393 C-254.01585653 66.5430155 -254.01585653 66.5430155 -259.58453369 58.43629456 C-261.35709821 58.43629456 -263.08785765 58.86028546 -264.82891846 59.17066956 Z M-337.92047119 71.96754456 C-338.7998233 72.12291687 -339.67917542 72.27828918 -340.58517456 72.43836975 C-343.37750558 72.93287769 -346.16850791 73.43447765 -348.95953369 73.93629456 C-350.85918981 74.274004 -352.75892861 74.61124867 -354.65875244 74.94801331 C-359.30165423 75.77206178 -363.94337797 76.60247054 -368.58453369 77.43629456 C-368.00395967 81.35549734 -366.83499046 84.07695053 -364.76812744 87.44410706 C-364.17588379 88.41871887 -363.58364014 89.39333069 -362.97344971 90.3974762 C-362.32948242 91.44153625 -361.68551514 92.48559631 -361.02203369 93.56129456 C-359.664407 95.79124247 -358.30766903 98.02173165 -356.95172119 100.25270081 C-356.59930862 100.83049789 -356.24689606 101.40829498 -355.88380432 102.00360107 C-351.74249527 108.79831011 -347.69558341 115.64856895 -343.64703369 122.49879456 C-342.93610891 123.70018488 -342.22509234 124.90152089 -341.51397705 126.10279846 C-339.87012783 128.88021657 -338.22698068 131.65804709 -336.58453369 134.43629456 C-326.50987871 133.87700124 -316.73985289 132.18358066 -306.83453369 130.37379456 C-305.25129221 130.08877865 -303.66795933 129.80426998 -302.08453369 129.52027893 C-298.25012362 128.8314491 -294.41700861 128.13580743 -290.58453369 127.43629456 C-290.58453369 123.53207882 -292.24469594 121.09692545 -294.14703369 117.81129456 C-294.73182495 116.78685242 -294.73182495 116.78685242 -295.32843018 115.74171448 C-300.4394413 106.85245162 -305.73577125 98.0702463 -311.05328369 89.30348206 C-313.12889708 85.87806313 -315.16588488 82.4425505 -317.11578369 78.94410706 C-317.46955078 78.32366516 -317.82331787 77.70322327 -318.18780518 77.0639801 C-319.06522015 75.51795215 -319.92169324 73.96008732 -320.77593994 72.40113831 C-322.42768385 70.16325642 -322.42768385 70.16325642 -325.11407471 70.2177887 C-329.45649975 70.49119499 -333.64301084 71.19152275 -337.92047119 71.96754456 Z M-400.33453369 82.81129456 C-401.50435791 83.00078674 -401.50435791 83.00078674 -402.69781494 83.19410706 C-404.6736084 83.53772331 -406.63179086 83.97953711 -408.58453369 84.43629456 C-408.91453369 85.09629456 -409.24453369 85.75629456 -409.58453369 86.43629456 C-406.49125474 89.41304915 -406.49125474 89.41304915 -402.58453369 90.43629456 C-402.30609619 91.01637268 -402.02765869 91.59645081 -401.74078369 92.19410706 C-400.28685204 95.01355559 -398.55646097 97.60052603 -396.80328369 100.24098206 C-393.81007193 105.63260067 -393.26313009 110.82900296 -393.17047119 116.89723206 C-393.15110504 117.68779999 -393.13173889 118.47836792 -393.11178589 119.29289246 C-393.05237316 121.79891938 -393.00575942 124.30499321 -392.95953369 126.81129456 C-392.92131856 128.51834499 -392.8822648 130.22537686 -392.84234619 131.93238831 C-392.74670358 136.10020499 -392.66253255 140.26811186 -392.58453369 144.43629456 C-383.90113683 143.84513706 -375.44929987 142.45656232 -366.89703369 140.87379456 C-365.61119385 140.63982971 -364.325354 140.40586487 -363.00054932 140.16481018 C-359.86106517 139.59293389 -356.72245384 139.01668027 -353.58453369 138.43629456 C-354.7256018 134.77023329 -355.9375281 131.52030601 -357.94781494 128.24879456 C-358.41622803 127.47833801 -358.88464111 126.70788147 -359.36724854 125.91407776 C-359.87207764 125.0964093 -360.37690674 124.27874084 -360.89703369 123.43629456 C-361.97995221 121.65949127 -363.06194933 119.88212616 -364.14312744 118.10426331 C-364.70628662 117.18048889 -365.2694458 116.25671448 -365.84967041 115.3049469 C-369.30877812 109.58520082 -372.67360737 103.80896623 -376.04278564 98.03590393 C-377.53779939 95.49083516 -379.0575247 92.96226746 -380.58453369 90.43629456 C-381.34685303 89.12797668 -381.34685303 89.12797668 -382.12457275 87.79322815 C-382.62956299 86.96774475 -383.13455322 86.14226135 -383.65484619 85.29176331 C-384.09844482 84.549505 -384.54204346 83.8072467 -384.99908447 83.04249573 C-386.49630402 81.18990974 -386.49630402 81.18990974 -389.00689697 81.15870667 C-392.8165902 81.56897577 -396.56073003 82.14944703 -400.33453369 82.81129456 Z M-482.58453369 95.43629456 C-482.58453369 130.08629456 -482.58453369 164.73629456 -482.58453369 200.43629456 C-451.45322326 204.11499181 -451.45322326 204.11499181 -415.58453369 194.43629456 C-406.80911489 185.36836179 -407.42745616 176.16360057 -407.41656494 164.16285706 C-407.41323654 162.8845401 -407.40990814 161.60622314 -407.40647888 160.28916931 C-407.40051557 157.59113215 -407.39863612 154.89312689 -407.39923096 152.19508362 C-407.39933248 148.76021239 -407.3856778 145.32554831 -407.36845875 141.89072609 C-407.35458097 138.58560046 -407.35524793 135.28051138 -407.35406494 131.97535706 C-407.34328667 130.14214401 -407.34328667 130.14214401 -407.33229065 128.27189636 C-407.35673146 119.07311284 -407.55014635 110.81165686 -413.58453369 103.43629456 C-430.95099752 86.63003924 -462.70672459 95.43629456 -482.58453369 95.43629456 Z M-392.58453369 180.43629456 C-393.24453369 183.73629456 -393.90453369 187.03629456 -394.58453369 190.43629456 C-395.76812744 193.49488831 -395.76812744 193.49488831 -397.02203369 195.87379456 C-397.6388501 197.07842346 -397.6388501 197.07842346 -398.26812744 198.30738831 C-399.5281125 200.3450496 -400.90318465 201.75494552 -402.58453369 203.43629456 C-402.58453369 204.09629456 -402.58453369 204.75629456 -402.58453369 205.43629456 C-403.16461182 205.71473206 -403.74468994 205.99316956 -404.34234619 206.28004456 C-407.16179473 207.7339762 -409.74876517 209.46436728 -412.38922119 211.21754456 C-417.14044986 213.85523734 -421.56558719 214.68912378 -426.95709229 214.75514221 C-428.19792572 214.7750119 -429.43875916 214.79488159 -430.7171936 214.81535339 C-432.05578432 214.82722689 -433.39437693 214.83888992 -434.73297119 214.85035706 C-436.11446264 214.86908547 -437.49594285 214.88866011 -438.87741089 214.90904236 C-442.49732819 214.96019316 -446.11728251 214.99990952 -449.73736572 215.03718567 C-453.43781527 215.07733282 -457.13811551 215.12827152 -460.83843994 215.17848206 C-468.08708004 215.27605208 -475.33560538 215.35570378 -482.58453369 215.43629456 C-482.58453369 225.33629456 -482.58453369 235.23629456 -482.58453369 245.43629456 C-452.22453369 245.43629456 -421.86453369 245.43629456 -390.58453369 245.43629456 C-386.62453369 234.89691956 -382.66453369 224.35754456 -378.58453369 213.49879456 C-377.33156494 210.16664856 -376.07859619 206.83450256 -374.78765869 203.40138245 C-373.66976406 200.42367375 -373.66976406 200.42367375 -372.55230713 197.44580078 C-372.05291123 196.11561777 -371.55286265 194.78567969 -371.05230713 193.45593262 C-370.29590151 191.44612972 -369.54154616 189.43556852 -368.78765869 187.42481995 C-368.36130127 186.29008743 -367.93494385 185.15535492 -367.4956665 183.98623657 C-366.52845365 181.73065187 -366.52845365 181.73065187 -366.58453369 180.43629456 C-375.16453369 180.43629456 -383.74453369 180.43629456 -392.58453369 180.43629456 Z M-349.58453369 180.43629456 C-353.85168749 191.78630689 -353.85168749 191.78630689 -358.11578369 203.13746643 C-359.8531178 207.76436926 -361.59081648 212.39113295 -363.33062744 217.0171051 C-364.7325706 220.74479021 -366.13292747 224.47306757 -367.53216553 228.20176888 C-368.06747454 229.62740552 -368.60336416 231.05282429 -369.13983154 232.47802544 C-369.88854171 234.46737403 -370.63522214 236.45747288 -371.38140869 238.44776917 C-371.80776611 239.58250168 -372.23412354 240.71723419 -372.67340088 241.88635254 C-373.64061373 244.14193724 -373.64061373 244.14193724 -373.58453369 245.43629456 C-357.41453369 245.43629456 -341.24453369 245.43629456 -324.58453369 245.43629456 C-321.2284942 237.38179979 -317.98075926 229.34878521 -314.94000244 221.17848206 C-314.52535233 220.06820648 -314.11070221 218.95793091 -313.68348694 217.81401062 C-312.81770892 215.49355421 -311.95311133 213.17265705 -311.08966064 210.85133362 C-309.7620041 207.28434827 -308.42833815 203.71964714 -307.09429932 200.15504456 C-306.25083854 197.89215855 -305.4077267 195.62914245 -304.56500244 193.36598206 C-304.16508591 192.29838654 -303.76516937 191.23079102 -303.35313416 190.13084412 C-302.80675041 188.65758163 -302.80675041 188.65758163 -302.24932861 187.15455627 C-301.92687668 186.28918243 -301.60442474 185.42380859 -301.27220154 184.5322113 C-300.4806177 182.48721385 -300.4806177 182.48721385 -300.58453369 180.43629456 C-316.75453369 180.43629456 -332.92453369 180.43629456 -349.58453369 180.43629456 Z M-282.58453369 180.43629456 C-285.87427167 187.81294728 -285.87427167 187.81294728 -288.87457275 195.27565002 C-289.47474213 196.85175552 -289.47474213 196.85175552 -290.08703613 198.45970154 C-290.50386658 199.56314911 -290.92069702 200.66659668 -291.35015869 201.80348206 C-291.7884198 202.96002289 -292.22668091 204.11656372 -292.67822266 205.30815125 C-293.59725984 207.73641396 -294.51490135 210.16520531 -295.43121338 212.59449768 C-296.37122178 215.08417895 -297.31322547 217.57296449 -298.25933838 220.06031799 C-299.62793398 223.66034005 -300.98993201 227.26279083 -302.35015869 230.86598206 C-302.77508606 231.98157501 -303.20001343 233.09716797 -303.63781738 234.24656677 C-304.02532166 235.27839081 -304.41282593 236.31021484 -304.81207275 237.37330627 C-305.15530579 238.2810379 -305.49853882 239.18876953 -305.85217285 240.12400818 C-306.73550518 242.50870857 -306.73550518 242.50870857 -306.58453369 245.43629456 C-290.41453369 245.43629456 -274.24453369 245.43629456 -257.58453369 245.43629456 C-253.31737989 234.08628223 -253.31737989 234.08628223 -249.05328369 222.73512268 C-247.31594959 218.10821985 -245.5782509 213.48145616 -243.83843994 208.85548401 C-242.43649678 205.1277989 -241.03613991 201.39952154 -239.63690186 197.67082024 C-239.10159285 196.24518359 -238.56570323 194.81976483 -238.02923584 193.39456367 C-237.28052567 191.40521509 -236.53384524 189.41511623 -235.78765869 187.42481995 C-235.36130127 186.29008743 -234.93494385 185.15535492 -234.4956665 183.98623657 C-233.52845365 181.73065187 -233.52845365 181.73065187 -233.58453369 180.43629456 C-249.75453369 180.43629456 -265.92453369 180.43629456 -282.58453369 180.43629456 Z M-216.58453369 180.43629456 C-222.85638949 196.03366394 -222.85638949 196.03366394 -228.86578369 211.72535706 C-229.20960083 212.64674469 -229.55341797 213.56813232 -229.90765381 214.5174408 C-230.61431345 216.41344214 -231.31977543 218.30989033 -232.02398682 220.20680237 C-233.10762456 223.12344428 -234.19749335 226.03771203 -235.28765869 228.95191956 C-235.98073605 230.81376139 -236.67345876 232.6757353 -237.36578369 234.53785706 C-237.69066772 235.40536591 -238.01555176 236.27287476 -238.35028076 237.16667175 C-238.79204651 238.36095291 -238.79204651 238.36095291 -239.24273682 239.57936096 C-239.50284546 240.27848602 -239.7629541 240.97761108 -240.03094482 241.69792175 C-240.68567959 243.44984657 -240.68567959 243.44984657 -240.58453369 245.43629456 C-224.41453369 245.43629456 -208.24453369 245.43629456 -191.58453369 245.43629456 C-185.31267789 229.83892517 -185.31267789 229.83892517 -179.30328369 214.14723206 C-178.95946655 213.22584442 -178.61564941 212.30445679 -178.26141357 211.35514832 C-177.55475394 209.45914697 -176.84929195 207.56269878 -176.14508057 205.66578674 C-175.06144283 202.74914483 -173.97157403 199.83487708 -172.88140869 196.92066956 C-172.18833133 195.05882772 -171.49560862 193.19685382 -170.80328369 191.33473206 C-170.47839966 190.46722321 -170.15351563 189.59971436 -169.81878662 188.70591736 C-169.52427612 187.90972992 -169.22976563 187.11354248 -168.92633057 186.29322815 C-168.66622192 185.59410309 -168.40611328 184.89497803 -168.13812256 184.17466736 C-167.48338779 182.42274254 -167.48338779 182.42274254 -167.58453369 180.43629456 C-183.75453369 180.43629456 -199.92453369 180.43629456 -216.58453369 180.43629456 Z M-150.58453369 180.43629456 C-154.85168749 191.78630689 -154.85168749 191.78630689 -159.11578369 203.13746643 C-160.8531178 207.76436926 -162.59081648 212.39113295 -164.33062744 217.0171051 C-165.7325706 220.74479021 -167.13292747 224.47306757 -168.53216553 228.20176888 C-169.06747454 229.62740552 -169.60336416 231.05282429 -170.13983154 232.47802544 C-170.88854171 234.46737403 -171.63522214 236.45747288 -172.38140869 238.44776917 C-172.80776611 239.58250168 -173.23412354 240.71723419 -173.67340088 241.88635254 C-174.64061373 244.14193724 -174.64061373 244.14193724 -174.58453369 245.43629456 C-158.41453369 245.43629456 -142.24453369 245.43629456 -125.58453369 245.43629456 C-122.29479571 238.05964183 -122.29479571 238.05964183 -119.29449463 230.59693909 C-118.89438171 229.54620209 -118.4942688 228.49546509 -118.08203125 227.41288757 C-117.66520081 226.30944 -117.24837036 225.20599243 -116.81890869 224.06910706 C-116.38064758 222.91256622 -115.94238647 221.75602539 -115.49084473 220.56443787 C-114.57180755 218.13617515 -113.65416604 215.7073838 -112.737854 213.27809143 C-111.7978456 210.78841016 -110.85584191 208.29962463 -109.909729 205.81227112 C-108.5411334 202.21224906 -107.17913537 198.60979828 -105.81890869 195.00660706 C-105.39398132 193.8910141 -104.96905396 192.77542114 -104.53125 191.62602234 C-104.14374573 190.5941983 -103.75624146 189.56237427 -103.35699463 188.49928284 C-102.84214508 187.13768539 -102.84214508 187.13768539 -102.31689453 185.74858093 C-101.43356221 183.36388055 -101.43356221 183.36388055 -101.58453369 180.43629456 C-117.75453369 180.43629456 -133.92453369 180.43629456 -150.58453369 180.43629456 Z M-83.58453369 180.43629456 C-86.94057318 188.49078933 -90.18830812 196.5238039 -93.22906494 204.69410706 C-93.64371506 205.80438263 -94.05836517 206.9146582 -94.48558044 208.05857849 C-95.35135846 210.3790349 -96.21595605 212.69993206 -97.07940674 215.02125549 C-98.40706328 218.58824084 -99.74072923 222.15294197 -101.07476807 225.71754456 C-101.91822884 227.98043056 -102.76134068 230.24344666 -103.60406494 232.50660706 C-104.00398148 233.57420258 -104.40389801 234.6417981 -104.81593323 235.741745 C-105.18018906 236.72391998 -105.54444489 237.70609497 -105.91973877 238.71803284 C-106.2421907 239.58340668 -106.56464264 240.44878052 -106.89686584 241.34037781 C-107.68844968 243.38537526 -107.68844968 243.38537526 -107.58453369 245.43629456 C-91.41453369 245.43629456 -75.24453369 245.43629456 -58.58453369 245.43629456 C-54.31737989 234.08628223 -54.31737989 234.08628223 -50.05328369 222.73512268 C-48.31594959 218.10821985 -46.5782509 213.48145616 -44.83843994 208.85548401 C-43.43649678 205.1277989 -42.03613991 201.39952154 -40.63690186 197.67082024 C-40.10159285 196.24518359 -39.56570323 194.81976483 -39.02923584 193.39456367 C-38.28052567 191.40521509 -37.53384524 189.41511623 -36.78765869 187.42481995 C-36.36130127 186.29008743 -35.93494385 185.15535492 -35.4956665 183.98623657 C-34.52845365 181.73065187 -34.52845365 181.73065187 -34.58453369 180.43629456 C-50.75453369 180.43629456 -66.92453369 180.43629456 -83.58453369 180.43629456 Z M-17.58453369 180.43629456 C-20.71548147 188.76293636 -23.84505132 197.09009241 -26.97216797 205.41817379 C-28.42411793 209.28481184 -29.87668133 213.15121716 -31.33062744 217.0171051 C-32.7325706 220.74479021 -34.13292747 224.47306757 -35.53216553 228.20176888 C-36.06747454 229.62740552 -36.60336416 231.05282429 -37.13983154 232.47802544 C-37.88854171 234.46737403 -38.63522214 236.45747288 -39.38140869 238.44776917 C-39.80776611 239.58250168 -40.23412354 240.71723419 -40.67340088 241.88635254 C-41.64061373 244.14193724 -41.64061373 244.14193724 -41.58453369 245.43629456 C-28.05453369 245.43629456 -14.52453369 245.43629456 -0.58453369 245.43629456 C-0.58453369 223.98629456 -0.58453369 202.53629456 -0.58453369 180.43629456 C-6.19453369 180.43629456 -11.80453369 180.43629456 -17.58453369 180.43629456 Z M-482.58453369 260.43629456 C-482.58453369 337.98629456 -482.58453369 415.53629456 -482.58453369 495.43629456 C-323.52453369 495.43629456 -164.46453369 495.43629456 -0.58453369 495.43629456 C-0.58453369 417.88629456 -0.58453369 340.33629456 -0.58453369 260.43629456 C-159.64453369 260.43629456 -318.70453369 260.43629456 -482.58453369 260.43629456 Z " fill="#E51743" transform="translate(497.58453369140625,1.5637054443359375)"/>
<path d="M0 0 C0.7094265 0.00439648 1.41885299 0.00879297 2.14977726 0.01332268 C2.90420083 0.0101162 3.65862439 0.00690973 4.43590927 0.00360608 C6.99032171 -0.00476424 9.54450395 0.00125471 12.09892067 0.00710186 C13.93817125 0.00408438 15.77742058 0.00019694 17.61666766 -0.0044907 C22.69148044 -0.01483143 27.76622307 -0.01257353 32.84104177 -0.00831011 C38.30601727 -0.00585384 43.77097538 -0.01484329 49.2359446 -0.0223476 C59.95027409 -0.03512731 70.66457855 -0.03688423 81.37891438 -0.03454734 C90.08355517 -0.03276769 98.78818834 -0.03450621 107.49282822 -0.03877178 C108.72950218 -0.03936697 109.96617615 -0.03996216 111.24032508 -0.04057538 C113.75224682 -0.04178707 116.26416856 -0.04300121 118.7760903 -0.04421776 C139.66853025 -0.05386427 160.56096057 -0.0542917 181.45340135 -0.04891384 C182.11829417 -0.04874276 182.78318699 -0.04857167 183.46822807 -0.0483954 C184.81280386 -0.04804874 186.15737964 -0.04770021 187.50195542 -0.04734981 C208.42748739 -0.04199159 229.35297724 -0.0499242 250.27850136 -0.06838337 C273.77136792 -0.08908285 297.26421434 -0.09979892 320.75709143 -0.09580788 C333.20250038 -0.0938914 345.64787094 -0.09642667 358.09327301 -0.11052242 C368.68785688 -0.12239998 379.28237874 -0.12388203 389.8769634 -0.11173225 C395.28687613 -0.10581801 400.69667523 -0.10481392 406.10658059 -0.11673465 C411.05291144 -0.12750762 415.99903262 -0.12459356 420.94535331 -0.11047297 C422.74075885 -0.10780216 424.53618039 -0.11026632 426.33157035 -0.11820883 C428.76057501 -0.12821375 431.1888364 -0.11998078 433.6178101 -0.10693184 C434.6784381 -0.11789585 434.6784381 -0.11789585 435.76049292 -0.12908137 C438.58391482 -0.09735252 440.50615091 -0.02978023 442.88117555 1.57443014 C444.72555485 4.50554201 444.35707749 7.80751265 444.32766518 11.16318402 C444.33234515 11.97625751 444.33702512 12.78933101 444.34184691 13.6270431 C444.35384612 16.36097468 444.34432058 19.09440954 444.33489785 21.82834515 C444.33896136 23.78448929 444.344302 25.74063114 444.35082802 27.69676861 C444.36453358 33.01692763 444.3591896 38.33691262 444.34969077 43.65707478 C444.34211094 49.21705878 444.3491351 54.77702758 444.35384926 60.33701214 C444.35931171 69.67513352 444.35210236 79.01318378 444.33782753 88.35129437 C444.32150011 99.1571275 444.32678827 109.96279085 444.34330675 120.76861987 C444.35690768 130.03575663 444.3588481 139.3028422 444.35099074 148.56998572 C444.34630656 154.10945722 444.34570981 159.64884883 444.35560021 165.18831524 C444.36424733 170.39544731 444.35828928 175.60235984 444.34091744 180.80946812 C444.33694052 182.72392491 444.33810713 184.63840007 444.34470543 186.55284962 C444.35286355 189.15962256 444.34266925 191.76568525 444.32766518 194.37241253 C444.33435735 195.13592636 444.34104951 195.89944019 444.34794447 196.6860908 C444.29146824 201.72005693 444.29146824 201.72005693 442.88100097 203.96099183 C439.95759037 205.93605157 437.02820292 205.67918317 433.62060341 205.6453217 C432.4872373 205.65186218 432.4872373 205.65186218 431.33097491 205.6585348 C428.77855559 205.66955385 426.22666942 205.6590384 423.67425331 205.6487492 C421.83413843 205.65220314 419.99402562 205.65696593 418.15391716 205.66293094 C413.08132929 205.67550683 408.00890976 205.66924073 402.93632111 205.65997228 C397.47204087 205.65320899 392.00779041 205.66364946 386.54351601 205.67191204 C375.83265183 205.68528073 365.12185058 205.6823577 354.41098389 205.67367412 C345.709225 205.66691029 337.0074838 205.66597521 328.30572304 205.66924557 C327.06918457 205.66970527 325.83264609 205.67016497 324.55863675 205.6706386 C322.04695654 205.67159773 319.53527634 205.67257037 317.02359614 205.67355637 C294.12134971 205.68187514 271.21913083 205.67323528 248.31689087 205.65752858 C227.39790732 205.64329115 206.47897856 205.644565 185.5599955 205.65891156 C162.07187977 205.67496611 138.58378816 205.68129539 115.09566674 205.67207476 C112.59301298 205.67111908 110.09035923 205.67017596 107.58770546 205.66924557 C106.35621938 205.66878274 105.1247333 205.66831992 103.85592946 205.66784307 C95.16047559 205.66524832 86.4650411 205.6696346 77.76959023 205.67668423 C67.17868598 205.68508147 56.58784847 205.6828566 45.99695191 205.666842 C40.58906044 205.6589353 35.18128041 205.65590835 29.77338967 205.66578946 C24.82894405 205.67468741 19.88471382 205.66988496 14.94028792 205.6538568 C13.14558725 205.6504881 11.35086862 205.65224948 9.55617937 205.65948416 C7.12813101 205.66852595 4.70083335 205.65933336 2.27282509 205.6453217 C1.56602561 205.6523452 0.85922613 205.65936869 0.13100848 205.66660503 C-2.69406647 205.63372322 -4.61305908 205.5663077 -6.98677096 203.95673832 C-8.81069507 201.06835973 -8.48091763 197.84832234 -8.46547142 194.53772625 C-8.47755835 193.34473402 -8.47755835 193.34473402 -8.48988947 192.12764093 C-8.51328671 189.4537149 -8.51528042 186.7801986 -8.51739708 184.10617718 C-8.52968329 182.19268097 -8.54325375 180.27919263 -8.55801597 178.36571392 C-8.59423612 173.1611808 -8.61166619 167.95673659 -8.62525979 162.75210127 C-8.64205909 157.31045626 -8.67413869 151.8688992 -8.70408836 146.42731366 C-8.75201066 137.28594814 -8.78799108 128.14459464 -8.81671348 119.00314984 C-8.85005388 108.43133749 -8.90107674 97.8597254 -8.96187016 87.28803775 C-9.01999256 77.12567941 -9.06663381 66.96330098 -9.10767379 56.80086026 C-9.12529057 52.47320017 -9.14675004 48.14558418 -9.17124572 43.81795773 C-9.19950121 38.72088644 -9.21765213 33.62387618 -9.22797981 28.52673802 C-9.23336525 26.65503065 -9.24219219 24.78332958 -9.25469604 22.91165623 C-9.27117191 20.35830709 -9.2751932 17.80523284 -9.27601829 15.25183758 C-9.28368856 14.50971323 -9.29135884 13.76758888 -9.29926154 13.00297591 C-9.27395713 5.59773107 -8.21666031 0.06725415 0 0 Z M6.94671425 15.26779827 C6.94671425 73.01779827 6.94671425 130.76779827 6.94671425 190.26779827 C146.20671425 190.26779827 285.46671425 190.26779827 428.94671425 190.26779827 C428.94671425 132.51779827 428.94671425 74.76779827 428.94671425 15.26779827 C289.68671425 15.26779827 150.42671425 15.26779827 6.94671425 15.26779827 Z " fill="#E51743" transform="translate(38.053285747766495,276.7322017252445)"/>
<path d="M0 0 C1.24885918 0.00566899 1.24885918 0.00566899 2.52294785 0.0114525 C3.40458731 0.00762695 4.28622677 0.0038014 5.19458258 -0.00014007 C8.16644775 -0.01050804 11.13812108 -0.00647076 14.10999924 -0.0025093 C16.23348028 -0.00685367 18.35695975 -0.01203589 20.48043686 -0.01799697 C26.26134479 -0.03142773 32.04218752 -0.03196112 37.82310802 -0.02943367 C42.64198247 -0.02836671 47.46084358 -0.03324023 52.27971518 -0.03803909 C63.64437724 -0.04914838 75.00900625 -0.04956369 86.37367111 -0.04352492 C98.1138934 -0.0374827 109.85399591 -0.04979926 121.59419775 -0.07109499 C131.65960222 -0.08868422 141.72496847 -0.09471659 151.79038775 -0.09145725 C157.80830889 -0.08963997 163.82614461 -0.09232472 169.8440519 -0.10617179 C175.50175899 -0.11870201 181.15927875 -0.11685175 186.81698281 -0.1037609 C188.89753649 -0.10138505 190.97810316 -0.1041656 193.05864197 -0.11238402 C195.89095874 -0.12276822 198.7226372 -0.11481824 201.55493027 -0.10207289 C202.38527234 -0.10944718 203.21561441 -0.11682146 204.07111835 -0.12441921 C209.67249139 -0.07110565 209.67249139 -0.07110565 211.81239247 1.63734591 C213.70235286 4.03240088 213.48002368 5.86619462 213.48338181 8.88970262 C213.49184128 10.05905854 213.50030075 11.22841447 213.50901657 12.43320543 C213.49990753 14.35958596 213.49990753 14.35958596 213.49061447 16.32488328 C213.49467919 17.68990322 213.50002051 19.05491988 213.50654465 20.41993028 C213.52023613 24.12859533 213.51491218 27.83701037 213.50540739 31.54567987 C213.49782022 35.42403293 213.50485378 39.30236436 213.50956589 43.18071824 C213.5150262 49.69414445 213.50782464 56.20746865 213.49354416 62.72087938 C213.47721706 70.25484323 213.48250538 77.78856355 213.49902338 85.32252151 C213.51263043 91.78714012 213.51456175 98.25168535 213.50670737 104.71631366 C213.50202653 108.57905681 213.5014172 112.44168542 213.51131684 116.30442125 C213.51997295 119.93569878 213.51398979 123.56666185 213.49663407 127.19790536 C213.49076471 129.16896329 213.49969634 131.14004776 213.50901657 133.11109239 C213.49632736 134.86512628 213.49632736 134.86512628 213.48338181 136.6545952 C213.48225073 137.67296716 213.48111965 138.69133912 213.4799543 139.74057084 C213.03331011 142.73565561 212.42710036 143.41575532 210.10243088 145.27214891 C207.1847722 145.56712759 204.48047973 145.67664349 201.5616594 145.65309983 C200.67916551 145.65777981 199.79667162 145.66245978 198.8874355 145.66728157 C195.91858496 145.67928558 192.95019142 145.66975325 189.98133713 145.6603325 C187.85770767 145.6643958 185.73408032 145.66973631 183.610457 145.67626268 C177.83370549 145.68997081 172.05711422 145.68462318 166.2803598 145.67512542 C160.2439135 145.66754693 154.20748122 145.67456938 148.1710344 145.67928392 C138.03258152 145.68474675 127.89419413 145.67753599 117.75575119 145.66326219 C106.02288588 145.6469347 94.29017694 145.65222284 82.55731541 145.66874141 C72.49613118 145.68234122 62.43499412 145.6842833 52.37380368 145.6764254 C46.3592579 145.6717406 40.3447857 145.67114615 34.3302446 145.68103486 C28.67661687 145.68968036 23.02319138 145.68372688 17.36958557 145.66635209 C15.29064765 145.66237431 13.2116928 145.66354324 11.13276154 145.67014009 C8.30267616 145.6782947 5.47324562 145.6681079 2.64320236 145.65309983 C1.81354242 145.659792 0.98388247 145.66648417 0.12908131 145.67337912 C-5.46915819 145.61548848 -5.46915819 145.61548848 -7.60655463 143.90252382 C-9.46928727 141.550147 -9.28800661 139.79630816 -9.30975479 136.81990892 C-9.32518326 135.68709993 -9.34061172 134.55429094 -9.35650772 133.3871544 C-9.35821472 132.14344575 -9.35992172 130.8997371 -9.36168045 129.61834031 C-9.37508468 128.30920167 -9.38848892 127.00006303 -9.40229934 125.65125352 C-9.43848117 122.05824114 -9.4559411 118.46535747 -9.46954316 114.87219745 C-9.48636134 111.1121637 -9.5184377 107.35225673 -9.54837173 103.59230882 C-9.59627584 97.27566034 -9.63226256 90.95902914 -9.66099685 84.64226609 C-9.69432789 77.34229949 -9.74535051 70.04262325 -9.80615354 62.74283737 C-9.86432689 55.72003808 -9.91093994 48.69720953 -9.95195717 41.67429048 C-9.96955106 38.68634009 -9.99100303 35.69845427 -10.0155291 32.71055299 C-10.04909483 28.53528726 -10.06566272 24.36012106 -10.08043045 20.18474656 C-10.0922586 18.94508638 -10.10408676 17.70542619 -10.11627334 16.42820054 C-10.11760269 15.2897519 -10.11893203 14.15130327 -10.12030166 12.97835618 C-10.12562314 11.99132518 -10.13094461 11.00429418 -10.13642734 9.98735315 C-9.504683 2.80604323 -7.20613602 0.0556992 0 0 Z M6.10243088 15.27214891 C6.10243088 21.87214891 6.10243088 28.47214891 6.10243088 35.27214891 C69.46243088 35.27214891 132.82243088 35.27214891 198.10243088 35.27214891 C198.10243088 28.67214891 198.10243088 22.07214891 198.10243088 15.27214891 C134.74243088 15.27214891 71.38243088 15.27214891 6.10243088 15.27214891 Z M6.10243088 50.27214891 C6.10243088 76.67214891 6.10243088 103.07214891 6.10243088 130.27214891 C69.46243088 130.27214891 132.82243088 130.27214891 198.10243088 130.27214891 C198.10243088 103.87214891 198.10243088 77.47214891 198.10243088 50.27214891 C134.74243088 50.27214891 71.38243088 50.27214891 6.10243088 50.27214891 Z " fill="#E51743" transform="translate(238.89756911993027,306.7278510928154)"/>
<path d="M0 0 C0.79212891 -0.03738281 1.58425781 -0.07476562 2.40039062 -0.11328125 C14.58843025 -0.28892954 25.44279541 6.93833355 35.9375 12.4375 C37.20939118 13.09968452 38.48136507 13.76171019 39.75341797 14.42358398 C50.10112745 19.82045606 60.37163147 25.35710778 70.58032227 31.01269531 C72.35778463 31.98822792 74.14308896 32.94952523 75.93334961 33.90136719 C88.73217274 40.7334105 96.39698 48.37844 101.0625 62.375 C102.40646875 76.85413679 101.52377538 88.99927598 92.125 100.625 C88.61696071 104.18475022 85.13409477 106.69605151 80.7734375 109.125 C80.16833847 109.46347961 79.56323944 109.80195923 78.93980408 110.1506958 C71.562026 114.25390923 64.095544 118.19415629 56.625 122.125 C55.13113543 122.9126666 53.63732092 123.70042816 52.14355469 124.48828125 C49.17547892 126.05302775 46.20648514 127.61601343 43.23681641 129.17773438 C39.47076689 131.15876423 35.70967585 133.14900147 31.94921875 135.140625 C29.90384905 136.21913549 27.85829144 137.29728971 25.8125 138.375 C24.89799072 138.8606543 23.98348145 139.34630859 23.04125977 139.84667969 C11.63059867 145.83038548 0.21419242 147.4444277 -12.49609375 144.5703125 C-23.65299161 140.36289978 -31.89653991 132.0870402 -36.9375 121.375 C-38.74042733 116.76301991 -39.21454361 112.84932286 -39.28808594 107.90771484 C-39.30134415 107.18484283 -39.31460236 106.46197083 -39.32826233 105.7171936 C-39.36915731 103.34014717 -39.39603991 100.96319185 -39.421875 98.5859375 C-39.44570241 96.9193141 -39.47006426 95.25269826 -39.49493408 93.58609009 C-39.54477312 90.09438918 -39.58756519 86.60268985 -39.62548828 83.11083984 C-39.67439811 78.66601951 -39.74155598 74.22169958 -39.81423569 69.77721214 C-39.86833214 66.33346945 -39.91210181 62.88965134 -39.95294952 59.4457283 C-39.97365121 57.80886051 -39.9975533 56.17202959 -40.02489471 54.53525925 C-40.28154851 38.56076169 -39.65927031 23.43416913 -28.3125 11 C-20.27651406 3.5546668 -10.70741287 0.18360334 0 0 Z M-19.53125 26.4296875 C-23.92077192 32.50185948 -24.05771434 39.6898822 -24.08276367 46.9777832 C-24.08914352 48.24632645 -24.09552338 49.51486969 -24.10209656 50.82185364 C-24.10362575 52.18982912 -24.10473943 53.55780511 -24.10546875 54.92578125 C-24.1086881 56.34913668 -24.11205267 57.77249179 -24.11555481 59.19584656 C-24.12152238 62.17215745 -24.12339717 65.14843941 -24.12280273 68.12475586 C-24.12270128 71.9137576 -24.13634654 75.70257125 -24.15357494 79.49152851 C-24.16476616 82.43001638 -24.16671976 85.3684598 -24.16619301 88.30696678 C-24.16736269 89.70262487 -24.17172665 91.09828449 -24.17952538 92.49392128 C-24.37317305 109.39310107 -24.37317305 109.39310107 -15.9375 123.375 C-9.82308422 128.58261683 -4.61410989 129.99963957 3.31640625 129.88671875 C9.77186751 129.0048987 14.91719272 125.90193542 20.51953125 122.77050781 C24.53687284 120.56590676 28.62455062 118.50060973 32.70336914 116.41259766 C42.60404455 111.33287337 52.45466617 106.15496893 62.25 100.875 C63.12736816 100.40739258 64.00473633 99.93978516 64.90869141 99.45800781 C73.84302391 94.60054041 81.20064034 90.12952484 85.0625 80.375 C86.98274862 73.78046197 85.84369986 67.45163733 83.12890625 61.23828125 C77.82606919 51.60509974 66.38400508 47.23889798 57.0625 42.3125 C55.83270409 41.65863094 54.60305149 41.00449227 53.37353516 40.35009766 C42.20584475 34.41561298 31.01210845 28.52431233 19.75439453 22.76245117 C17.9494054 21.8321271 16.15344647 20.88408475 14.36669922 19.91918945 C1.40295613 13.06011119 -10.32323745 15.08709022 -19.53125 26.4296875 Z " fill="#E51743" transform="translate(98.9375,306.625)"/>
<path d="M0 0 C1.31102188 -0.00708481 2.62204376 -0.01416962 3.97279358 -0.02146912 C5.4342197 -0.01917507 6.8956455 -0.01666534 8.35707092 -0.01396179 C9.88942718 -0.01830688 11.42178126 -0.02348934 12.95413208 -0.02944946 C17.12352796 -0.04287284 21.29283337 -0.04341443 25.46224666 -0.04088616 C28.93904593 -0.03981868 32.41582673 -0.04469411 35.89262205 -0.04949158 C44.09302523 -0.06059838 52.29338261 -0.06101764 60.49378967 -0.05497742 C68.96213557 -0.04893587 77.43031539 -0.0612505 85.89863294 -0.08254749 C93.16151585 -0.10014336 100.4243458 -0.10616803 107.68724924 -0.10290974 C112.02844254 -0.10109347 116.36951739 -0.10376715 120.71069145 -0.11762428 C124.79253339 -0.13016531 128.87411582 -0.12829412 132.9559536 -0.11521339 C134.4559869 -0.11283987 135.95603825 -0.11560994 137.45605087 -0.12383652 C139.49989249 -0.13423925 141.54380752 -0.124437 143.58764648 -0.11352539 C144.73268111 -0.11369313 145.87771574 -0.11386087 147.05744839 -0.1140337 C149.85731506 0.26069641 149.85731506 0.26069641 151.72426701 1.64931965 C153.21921541 3.77537697 153.25813643 5.17855957 153.23231506 7.76069641 C153.24004944 8.53413391 153.24778381 9.30757141 153.25575256 10.10444641 C152.74499675 12.86853669 152.1079794 13.58578678 149.85731506 15.26069641 C147.0602417 15.63821983 147.0602417 15.63821983 143.59437561 15.64164734 C142.28197906 15.65010681 140.96958252 15.65856628 139.61741638 15.6672821 C138.15962096 15.66144897 136.70182675 15.65530444 135.24403381 15.64888 C133.71152878 15.65294429 132.17902668 15.65828536 130.64653015 15.66481018 C126.48127711 15.67850675 122.31624655 15.67317555 118.15098953 15.66367292 C113.79617453 15.65608841 109.44137884 15.66311857 105.08656311 15.66783142 C97.77280754 15.67329251 90.45914279 15.66608813 83.145401 15.65180969 C74.68440949 15.63548248 66.22363484 15.64077074 57.76264858 15.65728891 C50.50398366 15.67089375 43.2453841 15.67282836 35.98671055 15.6649729 C31.64889533 15.66029085 27.31118211 15.65968608 22.97337341 15.66958237 C18.8956065 15.67823522 14.81811973 15.67226114 10.74038315 15.6548996 C9.24196717 15.65092572 7.7435277 15.65208417 6.245121 15.65868759 C4.20350728 15.66685679 2.16184217 15.65480705 0.12025452 15.64164734 C-1.5953492 15.63995072 -1.5953492 15.63995072 -3.34561157 15.63821983 C-6.14268494 15.26069641 -6.14268494 15.26069641 -7.9833374 13.88532448 C-9.58100517 11.64646527 -9.94686169 10.00222191 -10.14268494 7.26069641 C-8.26937043 1.06434842 -6.32317177 0.0113402 0 0 Z " fill="#E51743" transform="translate(269.14268493652344,406.7393035888672)"/>
<path d="M0 0 C6.62152965 5.39419806 11.08816677 11.55201435 12.0065918 20.21679688 C12.14570284 23.40545518 12.1654778 26.57413223 12.14453125 29.765625 C12.17450195 31.374375 12.17450195 31.374375 12.20507812 33.015625 C12.19961577 41.99574415 10.56762932 49.56193799 4.39453125 56.328125 C-2.56692656 62.51608749 -8.51983961 62.95646562 -17.6953125 62.73046875 C-25.53464469 61.98994551 -29.64526441 58.55287504 -34.75 52.78125 C-39.50812384 45.40916952 -39.78663318 38.57304166 -39.73046875 30.015625 C-39.75044922 28.943125 -39.77042969 27.870625 -39.79101562 26.765625 C-39.78555327 17.78550585 -38.15356682 10.21931201 -31.98046875 3.453125 C-23.65713874 -3.94539056 -9.85246962 -6.09608142 0 0 Z M-22.29296875 17.390625 C-24.16202223 21.12873195 -23.56413397 25.58893678 -23.60546875 29.703125 C-23.63447266 30.65380859 -23.66347656 31.60449219 -23.69335938 32.58398438 C-23.73373163 37.02803818 -23.75416715 39.63463999 -21.3984375 43.49609375 C-18.65700656 45.96287298 -17.71138423 46.35115184 -13.98046875 46.703125 C-9.71760764 46.34186558 -8.27304821 45.37070446 -5.29296875 42.390625 C-3.42391527 38.65251805 -4.02180353 34.19231322 -3.98046875 30.078125 C-3.93696289 28.65209961 -3.93696289 28.65209961 -3.89257812 27.19726562 C-3.85220587 22.75321182 -3.83177035 20.14661001 -6.1875 16.28515625 C-8.92893094 13.81837702 -9.87455327 13.43009816 -13.60546875 13.078125 C-17.86832986 13.43938442 -19.31288929 14.41054554 -22.29296875 17.390625 Z " fill="#E51743" transform="translate(66.29296875,119.609375)"/>
<path d="M0 0 C0.93238495 -0.00708481 1.8647699 -0.01416962 2.82540894 -0.02146912 C3.85143723 -0.0189917 4.87746552 -0.01651428 5.93458557 -0.01396179 C7.55176483 -0.02162819 7.55176483 -0.02162819 9.20161438 -0.02944946 C12.78005969 -0.04339631 16.35831351 -0.04238486 19.93678284 -0.04008484 C22.41538566 -0.04396896 24.89398782 -0.04830304 27.37258911 -0.05307007 C32.57377782 -0.06054325 37.77489867 -0.06023304 42.97608948 -0.05497742 C48.3257722 -0.04960452 53.67526576 -0.05664921 59.0249176 -0.07548523 C65.47222945 -0.09789885 71.91938298 -0.10574433 78.36673164 -0.10181236 C80.82878735 -0.10232707 83.29084668 -0.10759268 85.752882 -0.11762428 C89.1912391 -0.12991359 92.6290502 -0.12324188 96.06739807 -0.11161804 C97.09140213 -0.11926178 98.11540619 -0.12690552 99.17044067 -0.13478088 C100.57324783 -0.12425941 100.57324783 -0.12425941 102.00439453 -0.11352539 C102.81758368 -0.11369313 103.63077284 -0.11386087 104.46860409 -0.1140337 C107.08073781 0.35273096 107.96537875 1.18079779 109.56568909 3.26069641 C109.96412659 5.41694641 109.96412659 5.41694641 109.94068909 7.76069641 C109.95229065 8.92085266 109.95229065 8.92085266 109.96412659 10.10444641 C109.46278932 12.81756572 108.71471825 13.56438609 106.56568909 15.26069641 C104.4713974 15.63821983 104.4713974 15.63821983 102.01112366 15.64164734 C100.61048424 15.65433655 100.61048424 15.65433655 99.18154907 15.6672821 C98.15911606 15.66120941 97.13668304 15.65513672 96.08326721 15.64888 C94.46586891 15.65676544 94.46586891 15.65676544 92.8157959 15.66481018 C89.24269735 15.67804088 85.67004236 15.66926095 82.09693909 15.65913391 C79.61976536 15.66115376 77.14259222 15.66406444 74.66542053 15.66783142 C68.80414841 15.67282655 62.94303793 15.66230955 57.08178949 15.64637911 C52.40497051 15.63511491 47.72834088 15.63909846 43.05152893 15.65180969 C36.60953263 15.66916954 30.16771969 15.67193993 23.72570801 15.66214371 C21.26644854 15.66013847 18.80718131 15.66261226 16.34793091 15.66958237 C12.9144457 15.67717741 9.48155197 15.66561935 6.04811096 15.64888 C5.02567795 15.6549527 4.00324493 15.66102539 2.9498291 15.6672821 C2.01606949 15.65882263 1.08230988 15.65036316 0.12025452 15.64164734 C-1.09758099 15.63995072 -1.09758099 15.63995072 -2.34001923 15.63821983 C-4.95550101 15.16674509 -5.81906578 14.33330461 -7.43431091 12.26069641 C-8.47655364 9.21414074 -8.55888522 7.67274987 -7.62181091 4.57319641 C-5.59499626 0.62624156 -4.27068457 0.01078621 0 0 Z " fill="#E51743" transform="translate(312.43431091308594,371.7393035888672)"/>
<path d="M0 0 C0.87591797 0.00322266 1.75183594 0.00644531 2.65429688 0.00976562 C3.52634766 -0.00634766 4.39839844 -0.02246094 5.296875 -0.0390625 C6.55467773 -0.0400293 6.55467773 -0.0400293 7.83789062 -0.04101562 C8.60544678 -0.04399658 9.37300293 -0.04697754 10.16381836 -0.05004883 C12.74569368 0.41818281 13.62614347 1.27288329 15.21679688 3.32226562 C15.61523438 5.47851562 15.61523438 5.47851562 15.59179688 7.82226562 C15.59953125 8.59570312 15.60726563 9.36914062 15.61523438 10.16601562 C15.11490746 12.87366719 14.35315234 13.62190107 12.21679688 15.32226562 C10.1796875 15.71044922 10.1796875 15.71044922 7.87304688 15.72070312 C7.03902344 15.72457031 6.205 15.7284375 5.34570312 15.73242188 C4.04439453 15.71501953 4.04439453 15.71501953 2.71679688 15.69726562 C1.84925781 15.70886719 0.98171875 15.72046875 0.08789062 15.73242188 C-0.74613281 15.72855469 -1.58015625 15.7246875 -2.43945312 15.72070312 C-3.58124023 15.71562744 -3.58124023 15.71562744 -4.74609375 15.71044922 C-7.3140555 15.22110847 -8.18336455 14.35259512 -9.78320312 12.32226562 C-10.82544585 9.27570996 -10.90777743 7.73431909 -9.97070312 4.63476562 C-7.43322118 -0.30664658 -5.08231429 0.0430373 0 0 Z " fill="#E51743" transform="translate(269.783203125,371.677734375)"/>
</svg>
