<?xml version="1.0" encoding="UTF-8"?>
<svg version="1.1" xmlns="http://www.w3.org/2000/svg" width="512" height="512">
<path d="M0 0 C5.28 0 10.56 0 16 0 C16 9.9 16 19.8 16 30 C20.29 30 24.58 30 29 30 C33.35440945 30.45164711 37.61847096 30.96192973 41.9375 31.625 C43.10410156 31.80248779 44.27070313 31.97997559 45.47265625 32.1628418 C83.67901747 38.29385987 120.12668368 54.36631709 150 79 C150.83990479 79.68763428 150.83990479 79.68763428 151.69677734 80.38916016 C164.33606566 90.7957071 176.02117947 101.98034799 186 115 C186.41427246 115.53254395 186.82854492 116.06508789 187.25537109 116.61376953 C216.3130694 154.12735487 234 200.34819372 234 248 C243.9 248 253.8 248 264 248 C264 253.28 264 258.56 264 264 C254.1 264 244.2 264 234 264 C234 268.29 234 272.58 234 277 C228.9479601 327.58315724 208.12994867 373.49200181 174 411 C169.14032976 408.49653351 165.72143296 404.91447559 162 401 C163.36958751 396.86209732 165.17575461 394.55388615 168.25 391.5 C200.25043659 357.00961589 214.18230427 309.81234871 218 264 C208.43 264 198.86 264 189 264 C189 267.63 189 271.26 189 275 C188.66575521 278.87171885 188.03180866 282.67045548 187.375 286.5 C187.19751221 287.54099854 187.02002441 288.58199707 186.8371582 289.65454102 C178.654406 335.06065731 151.76343804 377.42294818 114 404 C85.00526972 424.02890952 51.52931615 437 16 437 C16 446.57 16 456.14 16 466 C61.97993114 461.64400652 103.91167292 448.78293164 140 419 C140.98226563 418.20078125 141.96453125 417.4015625 142.9765625 416.578125 C145.65726206 414.39284587 148.33125226 412.19984627 151 410 C154.12857014 411.3881735 156.28189174 413.01101878 158.6875 415.4375 C159.28949219 416.03433594 159.89148438 416.63117188 160.51171875 417.24609375 C162 419 162 419 163 422 C149.70069568 434.65991469 134.85775892 444.82457932 119 454 C118.06752441 454.54865723 118.06752441 454.54865723 117.11621094 455.10839844 C86.9468379 472.73340243 50.75857643 482 16 482 C16 491.9 16 501.8 16 512 C10.72 512 5.44 512 0 512 C0 502.1 0 492.2 0 482 C-4.29 482 -8.58 482 -13 482 C-16.47971786 481.70418506 -19.86446506 481.36411087 -23.3125 480.875 C-24.23981934 480.74448242 -25.16713867 480.61396484 -26.12255859 480.47949219 C-65.63937649 474.51992527 -103.13293932 458.45312936 -134 433 C-134.55993652 432.54157715 -135.11987305 432.0831543 -135.69677734 431.61083984 C-148.33606566 421.2042929 -160.02117947 410.01965201 -170 397 C-170.62140869 396.20118408 -170.62140869 396.20118408 -171.25537109 395.38623047 C-200.3130694 357.87264513 -218 311.65180628 -218 264 C-227.9 264 -237.8 264 -248 264 C-248 258.72 -248 253.44 -248 248 C-238.1 248 -228.2 248 -218 248 C-218 243.71 -218 239.42 -218 235 C-217.54835289 230.64559055 -217.03807027 226.38152904 -216.375 222.0625 C-216.10876831 220.31259766 -216.10876831 220.31259766 -215.8371582 218.52734375 C-208.69674344 174.03077524 -188.03389199 135.91569683 -159 102 C-163.23816537 96.93376232 -167.67408963 92.19961931 -172.375 87.5625 C-173.01566406 86.92634766 -173.65632813 86.29019531 -174.31640625 85.63476562 C-175.87530879 84.08749668 -177.43651416 82.54263508 -179 81 C-178.13192399 79.93183555 -177.25505217 78.87081915 -176.375 77.8125 C-175.88773437 77.22082031 -175.40046875 76.62914063 -174.8984375 76.01953125 C-172.48592888 73.45313834 -169.70590288 71.25491907 -167 69 C-149.84 86.16 -132.68 103.32 -115 121 C-109.47124405 116.87120266 -109.47124405 116.87120266 -104.04296875 112.61328125 C-75.16179308 89.34240236 -37.11901384 75 0 75 C0 50.25 0 25.5 0 0 Z M16 46 C16 55.57 16 65.14 16 75 C19.774375 75.4125 23.54875 75.825 27.4375 76.25 C37.8566051 77.4693862 47.91954363 79.09175554 58 82 C58.7007666 82.19932129 59.4015332 82.39864258 60.12353516 82.60400391 C88.21967214 90.78899649 112.83443515 105.9431076 134 126 C134.89460938 126.84175781 135.78921875 127.68351562 136.7109375 128.55078125 C158.44214362 149.58196252 173.6748697 177.05870056 182 206 C182.19432617 206.67144043 182.38865234 207.34288086 182.58886719 208.03466797 C186.26716289 221.13338067 187.52473005 234.50127993 189 248 C198.57 248 208.14 248 218 248 C218 239.73754261 217.7639219 232.35307814 216.4375 224.3125 C216.17296021 222.70616699 216.17296021 222.70616699 215.90307617 221.06738281 C206.19509937 165.34920848 174.82035485 116.22350821 128.91650391 83.34716797 C124.09543365 79.95829336 119.13308348 76.88850934 114 74 C112.90123535 73.37593262 112.90123535 73.37593262 111.78027344 72.73925781 C88.65158839 59.73814752 64.2367013 51.11818011 38 47.1875 C37.17604736 47.0632666 36.35209473 46.9390332 35.50317383 46.81103516 C28.84871729 45.90975136 22.8707346 46 16 46 Z M-72 111 C-72.61601074 111.33580078 -73.23202148 111.67160156 -73.86669922 112.01757812 C-84.53956565 117.86283727 -93.74587827 125.13217246 -103 133 C-98.76183463 138.06623768 -94.32591037 142.80038069 -89.625 147.4375 C-88.98433594 148.07365234 -88.34367187 148.70980469 -87.68359375 149.36523438 C-86.12469121 150.91250332 -84.56348584 152.45736492 -83 154 C-83.88967344 155.08839774 -84.78711574 156.17044608 -85.6875 157.25 C-86.18636719 157.85328125 -86.68523437 158.4565625 -87.19921875 159.078125 C-89 161 -89 161 -94 165 C-100.6 158.4 -107.2 151.8 -114 145 C-123.24064187 154.24064187 -143 174.85165011 -143 189 C-147.62 187.02 -152.24 185.04 -157 183 C-151.22793829 165.68381488 -140.46816247 150.88281033 -128.6171875 137.20703125 C-126.70447292 135.05270192 -126.70447292 135.05270192 -127 132 C-128.78186895 129.80063172 -128.78186895 129.80063172 -131.15625 127.55078125 C-132.01347656 126.70322266 -132.87070313 125.85566406 -133.75390625 124.98242188 C-134.66011719 124.10134766 -135.56632812 123.22027344 -136.5 122.3125 C-137.40621094 121.41982422 -138.31242187 120.52714844 -139.24609375 119.60742188 C-141.49085168 117.39810749 -143.74229998 115.19607467 -146 113 C-156.16141122 122.97930708 -164.3343153 133.87442317 -171.76269531 145.98339844 C-172.86617132 147.78188143 -173.99029314 149.56765962 -175.1171875 151.3515625 C-192.47927641 180.00946829 -202 214.61999291 -202 248 C-192.43 248 -182.86 248 -173 248 C-172.608125 244.308125 -172.21625 240.61625 -171.8125 236.8125 C-170.54129695 225.61542442 -168.35689599 214.86852438 -165.50292969 203.97851562 C-164.91543686 201.66733026 -164.42907328 199.34560059 -164 197 C-163.08476562 197.28875 -162.16953125 197.5775 -161.2265625 197.875 C-159.44378906 198.431875 -159.44378906 198.431875 -157.625 199 C-155.84996094 199.556875 -155.84996094 199.556875 -154.0390625 200.125 C-151.20676561 201.09222606 -151.20676561 201.09222606 -149 201 C-149.17128418 201.65895264 -149.34256836 202.31790527 -149.51904297 202.99682617 C-153.45346249 218.20982644 -157 232.20436223 -157 248 C-147.43 248 -137.86 248 -128 248 C-128 253.28 -128 258.56 -128 264 C-137.57 264 -147.14 264 -157 264 C-157 271.41756254 -156.71077555 277.34327555 -155.375 284.4375 C-155.19678711 285.38979492 -155.01857422 286.34208984 -154.83496094 287.32324219 C-149.44963871 314.74191321 -137.67629475 341.04774101 -119 362 C-118.26007813 362.84820312 -117.52015625 363.69640625 -116.7578125 364.5703125 C-114.53926519 367.08057191 -112.28092855 369.54639552 -110 372 C-109.3503125 372.71542969 -108.700625 373.43085938 -108.03125 374.16796875 C-83.41016376 400.16215403 -45.7274477 418.03378067 -10 421 C-6.7 421 -3.4 421 0 421 C0 411.43 0 401.86 0 392 C5.28 392 10.56 392 16 392 C16 401.57 16 411.14 16 421 C23.41756254 421 29.34327555 420.71077555 36.4375 419.375 C37.86594238 419.10768066 37.86594238 419.10768066 39.32324219 418.83496094 C66.74191321 413.44963871 93.04774101 401.67629475 114 383 C115.27230469 381.89011719 115.27230469 381.89011719 116.5703125 380.7578125 C119.08057191 378.53926519 121.54639552 376.28092855 124 374 C124.71542969 373.3503125 125.43085938 372.700625 126.16796875 372.03125 C143.18089037 355.9170073 156.60072783 334.17613366 164 312 C164.38212646 310.87392334 164.38212646 310.87392334 164.77197266 309.72509766 C169.80816772 294.65294064 173 279.95039271 173 264 C163.43 264 153.86 264 144 264 C144 258.72 144 253.44 144 248 C153.57 248 163.14 248 173 248 C173 206.3253637 153.14555352 168.60431696 125 139 C124.38125 138.31679687 123.7625 137.63359375 123.125 136.9296875 C99.12466495 111.32218716 60.95857431 93.6298279 26 91 C22.7 91 19.4 91 16 91 C16 100.57 16 110.14 16 120 C10.72 120 5.44 120 0 120 C0 110.43 0 100.86 0 91 C-25.19682976 91 -50.09379279 98.68325699 -72 111 Z M-202 264 C-202.00640199 274.73266329 -202.00640199 274.73266329 -200.875 285.25 C-200.74375732 286.08861572 -200.61251465 286.92723145 -200.47729492 287.79125977 C-194.73300186 322.42512833 -181.59763051 355.16200609 -160 383 C-159.23171875 383.99773437 -158.4634375 384.99546875 -157.671875 386.0234375 C-122.24127897 430.50285481 -72.00912454 458.23228047 -15.6796875 465.73828125 C-10.46556893 466.10913682 -5.22729053 466 0 466 C0 456.43 0 446.86 0 437 C-3.774375 436.5875 -7.54875 436.175 -11.4375 435.75 C-21.8566051 434.5306138 -31.91954363 432.90824446 -42 430 C-42.7007666 429.80067871 -43.4015332 429.60135742 -44.12353516 429.39599609 C-72.21967214 421.21100351 -96.83443515 406.0568924 -118 386 C-118.89460938 385.15824219 -119.78921875 384.31648438 -120.7109375 383.44921875 C-142.44214362 362.41803748 -157.6748697 334.94129944 -166 306 C-166.19432617 305.32855957 -166.38865234 304.65711914 -166.58886719 303.96533203 C-170.26716289 290.86661933 -171.52473005 277.49872007 -173 264 C-182.57 264 -192.14 264 -202 264 Z " fill="#E51743" transform="translate(248,0)"/>
<path d="M0 0 C13.21186069 11.74188433 22.26311052 27.63267658 23.74267578 45.41552734 C24.90008457 65.08317989 20.34413633 82.83951648 7.5625 98.25 C9.06230936 101.44910076 10.8937131 104.26609027 12.875 107.1875 C23.04059156 123.07123681 26.35639918 142.05506683 22.48413086 160.5065918 C18.26716391 177.86994788 8.66475201 193.35681352 -6.4375 203.25 C-23.7423211 213.54062539 -42.25844729 217.06725636 -62.1875 213.25 C-80.32701804 208.24358616 -95.41011178 197.20628047 -105.4375 181.25 C-113.66090742 166.49836124 -114.4375 154.53766358 -114.4375 137.25 C-99.2575 137.25 -84.0775 137.25 -68.4375 137.25 C-67.9425 143.685 -67.9425 143.685 -67.4375 150.25 C-65.18234615 157.10219825 -62.52220223 161.30497328 -56.4375 165.25 C-50.70340389 168.05333588 -44.08699506 168.26631508 -37.96875 166.5625 C-31.22342785 163.86437114 -28.1580754 160.33516969 -24.625 154 C-22.48084114 147.22897204 -22.52232247 141.56411957 -25.375 135 C-28.57579266 129.37650792 -31.55904141 127.08299209 -37.4375 124.25 C-42.7175 123.59 -47.9975 122.93 -53.4375 122.25 C-53.4375 107.07 -53.4375 91.89 -53.4375 76.25 C-48.1575 75.59 -42.8775 74.93 -37.4375 74.25 C-30.67716233 70.99200594 -27.22974428 67.79553622 -24.25 60.89453125 C-22.11452262 53.94396303 -22.86454431 47.7633656 -26.10546875 41.29296875 C-28.96661014 36.90476655 -32.58396982 34.15617031 -37.25 31.875 C-45.37878555 30.28112048 -52.33292549 30.70588601 -59.4375 35.25 C-67.64792766 42.35478403 -67.62977418 50.74956437 -68.4375 61.25 C-83.6175 61.25 -98.7975 61.25 -114.4375 61.25 C-114.4375 38.09448878 -110.69167424 20.17694636 -94.4375 3.25 C-68.48284535 -22.02402559 -27.79182104 -21.95766013 0 0 Z M-86.0703125 18.23828125 C-88.84723444 21.77129579 -90.9666925 25.3783712 -93 29.375 C-93.33475342 30.03169678 -93.66950684 30.68839355 -94.0144043 31.36499023 C-96.21668509 36.01025409 -97.02120877 40.12904757 -97.4375 45.25 C-92.8175 45.25 -88.1975 45.25 -83.4375 45.25 C-82.798125 43.31125 -82.15875 41.3725 -81.5 39.375 C-77.21817583 28.38338991 -70.76769202 22.21412782 -60.13671875 17.30859375 C-50.44377465 13.50716415 -38.37038561 13.91267257 -28.83203125 17.98828125 C-18.95640142 23.19191655 -12.08592034 30.6602261 -8.4375 41.25 C-5.59737755 52.70516054 -6.90377392 64.62723257 -12.9453125 74.78515625 C-19.24457018 83.56016869 -27.50654494 87.61331223 -37.4375 91.25 C-37.4375 96.53 -37.4375 101.81 -37.4375 107.25 C-35.643125 107.930625 -33.84875 108.61125 -32 109.3125 C-21.39224541 113.77300458 -14.14447402 119.96547472 -9.40625 130.5546875 C-5.82860351 140.65822619 -6.33718874 151.54575875 -10.11328125 161.49609375 C-14.644691 170.919822 -21.88739555 177.52188626 -31.4375 181.625 C-41.29244584 184.8826071 -52.49306622 184.59226181 -62.04296875 180.51171875 C-72.01461952 175.25748841 -78.6196141 167.84218602 -82.4375 157.25 C-82.7675 155.93 -83.0975 154.61 -83.4375 153.25 C-88.0575 153.25 -92.6775 153.25 -97.4375 153.25 C-96.63354258 164.10342519 -92.60577943 172.14354085 -85.4375 180.25 C-84.81746094 180.95253906 -84.19742188 181.65507812 -83.55859375 182.37890625 C-73.88323043 192.67974761 -61.55541941 198.09667818 -47.41137695 198.72265625 C-32.41260816 198.92405442 -18.77319403 193.48843936 -7.75 183.375 C3.29125624 171.79591752 8.09751634 157.61045294 7.80859375 141.8046875 C6.7328585 126.26628938 -0.70543222 113.7282431 -12.34765625 103.5859375 C-13.16556641 102.92464844 -13.16556641 102.92464844 -14 102.25 C-14.804375 101.59 -15.60875 100.93 -16.4375 100.25 C-16.4375 99.59 -16.4375 98.93 -16.4375 98.25 C-14.96875 96.83984375 -14.96875 96.83984375 -12.9375 95.1875 C-4.11327006 87.59492053 1.30955906 80.16215109 5.5625 69.25 C5.9646875 68.23679688 5.9646875 68.23679688 6.375 67.203125 C10.50748811 54.23170397 7.18708165 39.9568722 1.75 28 C-5.78380453 14.23132276 -17.49804121 5.74186412 -32.4375 1.25 C-52.53971234 -3.79181701 -72.06004442 3.62373643 -86.0703125 18.23828125 Z " fill="#E51743" transform="translate(301.4375,156.75)"/>
<path d="M0 0 C4.95 0 9.9 0 15 0 C15 5.28 15 10.56 15 16 C10.05 16 5.1 16 0 16 C0 10.72 0 5.44 0 0 Z " fill="#E51743" transform="translate(331,134)"/>
<path d="M0 0 C4.95 0 9.9 0 15 0 C15 5.28 15 10.56 15 16 C10.05 16 5.1 16 0 16 C0 10.72 0 5.44 0 0 Z " fill="#E51743" transform="translate(301,119)"/>
</svg>
