<?xml version="1.0" encoding="UTF-8"?>
<svg version="1.1" xmlns="http://www.w3.org/2000/svg" width="512" height="512">
<path d="M0 0 C7.25878119 5.42673699 11.17778672 13.53336015 14 22 C15.27687422 37.03155729 12.94703852 51.6672469 3.66796875 64.0234375 C2.84232422 65.00183594 2.84232422 65.00183594 2 66 C1.37738281 66.75539063 0.75476563 67.51078125 0.11328125 68.2890625 C-8.36894081 77.66497524 -20.31960742 83.29996834 -32.875 84.3125 C-41.30442913 84.01499074 -47.3482572 81.48081878 -53.11328125 75.328125 C-54.91690037 73.78037809 -54.91690037 73.78037809 -57.2109375 74.04296875 C-61.09731512 75.3765297 -64.66784939 77.17666202 -68.3125 79.0625 C-69.05306641 79.43955078 -69.79363281 79.81660156 -70.55664062 80.20507812 C-72.37387522 81.13128157 -74.18732404 82.06490629 -76 83 C-72.443917 89.7344136 -68.68585111 96.14859831 -64.3203125 102.39453125 C-62.73133919 105.53016793 -62.61089216 107.52650071 -63 111 C-65 113.9375 -65 113.9375 -68 116 C-72.86522939 116.54930009 -72.86522939 116.54930009 -76 115 C-78.87371192 112.0152583 -80.85769815 108.53002775 -83 105 C-84.28740237 103.00089623 -85.59186687 101.01417367 -86.90478516 99.03173828 C-87.79026479 97.6943587 -88.66778984 96.35167261 -89.53662109 95.00341797 C-91.51371991 91.98160663 -92.95746948 90.02835368 -96 88 C-99.07665027 88.08221709 -99.07665027 88.08221709 -102 89 C-104.33258334 91.85110651 -104.33258334 91.85110651 -103.82788086 95.24902344 C-102.96108447 99.17631915 -101.59055451 102.47504522 -99.75390625 106.015625 C-99.42711884 106.66490463 -99.10033142 107.31418427 -98.76364136 107.98313904 C-97.70639397 110.07723068 -96.63487572 112.16362114 -95.5625 114.25 C-94.82814367 115.69600818 -94.0945047 117.1423809 -93.36157227 118.58911133 C-88.34995352 128.45876392 -83.26996002 138.29377233 -78.03759766 148.04833984 C-77.00068068 149.99871969 -75.98785786 151.96001114 -74.98046875 153.92578125 C-74.664729 154.53397705 -74.34898926 155.14217285 -74.02368164 155.76879883 C-73.20093551 157.35371945 -72.38526073 158.94230571 -71.5703125 160.53125 C-69.92656035 163.11545736 -68.63977487 164.47144465 -66 166 C-61.076211 166.62524305 -59.1450099 166.80394312 -55.0625 163.9375 C-52.53653169 160.33990877 -51.92539704 158.4015747 -52 154 C-53.44868452 149.84710437 -55.63673829 146.47125843 -58.3125 143 C-60.73033319 138.70162988 -60.31790421 136.7289504 -59 132 C-56.16908952 129.25235159 -54.48455679 129.02643037 -50.5625 128.8125 C-43.46551886 131.17816038 -40.45055235 138.67797053 -36.98046875 144.921875 C-33.96410452 151.31512507 -34.15792696 158.83184851 -36 165.5625 C-38.59309925 172.39664941 -43.66113354 178.13761553 -50.125 181.5625 C-65.08372218 186.67120016 -81.31549309 180.32293139 -95.875 176.5 C-98.31601199 175.87216303 -100.75741581 175.24584745 -103.19921875 174.62109375 C-109.13744817 173.09825703 -115.07054944 171.55664802 -121 170 C-121.29712891 170.94472168 -121.59425781 171.88944336 -121.90039062 172.86279297 C-123.89929558 178.56570786 -128.2236488 182.35713433 -133.36328125 185.3984375 C-140.96162691 188.81587526 -148.51174377 189.39339025 -156.3359375 186.47265625 C-157.54507812 185.98667969 -158.75421875 185.50070313 -160 185 C-160.15557373 185.54825439 -160.31114746 186.09650879 -160.47143555 186.66137695 C-165.6238184 204.68242686 -165.6238184 204.68242686 -168.875 211.25 C-171.11749592 215.88739449 -171.78325079 218.86535594 -171 224 C-167.85262349 229.61685654 -163.41107267 233.73976571 -158.8125 238.1875 C-152.38798309 244.50483988 -146.51862672 250.87224598 -141 258 C-140.34128906 258.77988281 -139.68257813 259.55976563 -139.00390625 260.36328125 C-129.19683193 272.04383176 -122.6631763 285.35223417 -116.30078125 299.109375 C-114.50942781 302.97310734 -112.55129485 306.70424318 -110.5 310.4375 C-104.83255593 321.77238814 -105.1385675 333.96976496 -108.90234375 345.84765625 C-112.04690218 353.98322201 -116.42964783 361.60020696 -120.6953125 369.19140625 C-121.06672363 369.85342041 -121.43813477 370.51543457 -121.82080078 371.19750977 C-123.85408786 374.3055343 -125.27958217 375.7807424 -128.875 376.875 C-132.58842999 377.0235372 -134.05896353 376.18476995 -137 374 C-138 373 -138 373 -138.4296875 369.6328125 C-138.3515449 363.5888865 -135.11710524 358.94856975 -132.125 353.875 C-126.0782298 343.39486696 -121.72455187 334.48541345 -124 322 C-125.6506703 317.04435326 -128.28596709 312.55298111 -130.86669922 308.03369141 C-132.73840817 304.67493751 -134.38192644 301.20706177 -136.0625 297.75 C-139.01145305 291.78812843 -142.20597655 286.04707745 -145.65234375 280.35546875 C-147 278 -147 278 -148 275 C-153.7028602 279.54785054 -159.26010457 284.08389951 -164.3359375 289.328125 C-167.3928007 292.39933967 -170.7244099 295.16658547 -174 298 C-175.83935165 299.59726245 -177.67258671 301.20159266 -179.5 302.8125 C-180.3559375 303.56144531 -181.211875 304.31039063 -182.09375 305.08203125 C-184.23497888 306.78573281 -184.23497888 306.78573281 -184 309 C-182.40577976 310.51054732 -182.40577976 310.51054732 -180.30859375 312.046875 C-179.52806641 312.645 -178.74753906 313.243125 -177.94335938 313.859375 C-177.11642578 314.48328125 -176.28949219 315.1071875 -175.4375 315.75 C-173.03901873 317.57446924 -170.64502774 319.40328337 -168.26513672 321.25195312 C-166.81125916 322.37393667 -165.33994937 323.4738825 -163.84814453 324.54492188 C-160.48203544 327.09939922 -159.17167057 328.21597872 -158.2421875 332.4609375 C-159.1803205 336.84211531 -161.21554125 339.37807024 -164.125 342.625 C-177.99888095 359.25456057 -179.30204421 378.96494748 -181.625 399.6875 C-181.94901365 402.54166489 -182.27484764 405.39559961 -182.60360718 408.2492218 C-182.80589149 410.00846701 -183.00527565 411.76804888 -183.20132446 413.52799988 C-183.29166962 414.32015396 -183.38201477 415.11230804 -183.47509766 415.9284668 C-183.59143051 416.96646675 -183.59143051 416.96646675 -183.71011353 418.0254364 C-184.0092979 420.06333273 -184.46774199 422.01137713 -185 424 C-180.54890464 425.10965683 -176.53188054 425.59303361 -172.11767578 424.30761719 C-164.80837151 419.79428612 -160.90425199 407.58786102 -157.5012207 399.93847656 C-155.6467194 396.30849157 -153.73166291 392.86583146 -150 391 C-145.94736402 390.45964854 -144.46269769 390.65800605 -141.125 393.125 C-138.57201509 396.57903841 -138.58531344 397.79696551 -139 402 C-140.22167969 404.95678711 -140.22167969 404.95678711 -141.921875 408.02734375 C-142.84226562 409.71053711 -142.84226562 409.71053711 -143.78125 411.42773438 C-144.43725439 412.59779399 -145.09350617 413.76771493 -145.75 414.9375 C-146.70132813 416.6690332 -146.70132813 416.6690332 -147.671875 418.43554688 C-150.20111059 423.02769025 -152.75497462 427.59811057 -155.42578125 432.109375 C-157.21426879 435.39344641 -157.59967118 437.31630563 -157 441 C-153.1550627 443.56329153 -149.89574085 443.28631481 -145.4375 443.375 C-138.27293415 443.6510802 -132.34648109 444.40650303 -126 448 C-125.35933594 448.34933594 -124.71867187 448.69867188 -124.05859375 449.05859375 C-117.01085174 453.45772429 -112.76666771 460.90074048 -110.46875 468.73828125 C-109.38189219 473.9823702 -109.38368376 478.33594616 -111.25 483.375 C-113.31605669 486.47408504 -115.10419879 488.35942858 -118.66668701 489.56315613 C-121.90569963 490.16956548 -125.11216372 490.16426333 -128.39550781 490.17700195 C-129.13426651 490.18357315 -129.87302521 490.19014435 -130.63417053 490.19691467 C-133.07382316 490.21658993 -135.51341438 490.22829773 -137.953125 490.23828125 C-138.78897881 490.24235678 -139.62483261 490.2464323 -140.48601532 490.25063133 C-144.91075898 490.27146809 -149.33547185 490.2857798 -153.76025391 490.29516602 C-158.31756921 490.3062218 -162.8743951 490.34061875 -167.43153763 490.38033772 C-170.94727452 490.4065505 -174.46289561 490.414862 -177.97872162 490.41844749 C-179.65795952 490.42330189 -181.33719265 490.43488303 -183.01633453 490.45348549 C-201.03553511 490.64069544 -201.03553511 490.64069544 -208.875 483.3125 C-212.90960886 477.02325677 -213.5773514 470.55738829 -212.74609375 463.19921875 C-211.6545516 458.51873175 -209.78056283 454.21974399 -207.70336914 449.89257812 C-200.03241899 433.12914527 -200.13523508 412.06032542 -198.12768555 394.03295898 C-194.21900215 359.12725179 -194.21900215 359.12725179 -187.5 346.4375 C-186.9328125 345.34308594 -186.365625 344.24867188 -185.78125 343.12109375 C-183.98049177 339.96581782 -182.05338014 336.99451271 -180 334 C-180.43755615 333.64808594 -180.8751123 333.29617188 -181.32592773 332.93359375 C-198.1955683 319.34742508 -211.56324389 305.78534015 -224 288 C-228.30895581 289.51156992 -230.14903793 292.73807705 -232.5625 296.375 C-242.59749412 310.91477477 -255.2008367 323.30510343 -270 333 C-269.39161832 336.23515906 -268.29522233 338.14800219 -266.3125 340.75 C-260.31134671 349.60747144 -257.08048633 359.75122288 -255.5390625 370.265625 C-255.41712021 371.06602203 -255.29517792 371.86641907 -255.16954041 372.69107056 C-253.17823388 386.12819892 -251.68709289 399.64452474 -250.12768555 413.13720703 C-249.70147403 416.80899891 -249.26005445 420.47871696 -248.81640625 424.1484375 C-248.6933461 425.2466684 -248.57028595 426.34489929 -248.4434967 427.47640991 C-247.20456263 437.55515708 -244.54907682 446.85964715 -240.25 456.0625 C-236.88594734 463.967503 -236.79349284 471.31106596 -239.5625 479.4375 C-241.65417574 484.06747264 -244.40756787 486.83470853 -249 489 C-252.75505669 490.23658825 -256.51724991 490.15485469 -260.42724609 490.16113281 C-261.16921738 490.16609772 -261.91118866 490.17106262 -262.67564392 490.17617798 C-265.12491795 490.19075708 -267.57412724 490.1975941 -270.0234375 490.203125 C-271.72970582 490.20887947 -273.43597413 490.21463717 -275.14224243 490.22039795 C-278.71820374 490.2308955 -282.29414264 490.23674647 -285.87011719 490.24023438 C-290.44547518 490.24571981 -295.0205357 490.26975405 -299.5958004 490.29820633 C-303.12003437 490.31685603 -306.64419696 490.32203952 -310.1684761 490.32357025 C-311.85493218 490.32659149 -313.54138716 490.33460216 -315.22779465 490.34775543 C-317.59008005 490.36486682 -319.95164211 490.36292368 -322.31396484 490.35644531 C-323.00611588 490.3656601 -323.69826691 490.37487488 -324.41139221 490.3843689 C-330.22196723 490.33461166 -334.20576963 488.79423037 -338.3125 484.6875 C-341.79256967 479.14516682 -341.11667334 474.06040781 -339.84765625 467.875 C-337.10391301 458.56903213 -331.07941962 451.70641196 -322.8984375 446.71875 C-316.56371916 443.67111918 -310.15935827 443.48121586 -303.24462891 443.41455078 C-298.90146269 443.33133403 -296.1389388 443.16411745 -293 440 C-293.53739633 435.81310406 -294.447952 432.66358312 -296.484375 428.97265625 C-297.25865845 427.55557373 -297.25865845 427.55557373 -298.04858398 426.10986328 C-298.89078491 424.60141846 -298.89078491 424.60141846 -299.75 423.0625 C-300.33273682 422.00272949 -300.91547363 420.94295898 -301.51586914 419.85107422 C-305.95786845 411.79827107 -310.4958289 403.79968928 -315.04077148 395.8046875 C-321.55777429 384.30951395 -327.81855208 372.67847209 -334 361 C-334.44843262 360.15663086 -334.89686523 359.31326172 -335.35888672 358.44433594 C-342.28409945 345.35208528 -346.66739932 333.30717786 -343.3828125 318.15234375 C-342.42029781 315.3286834 -341.28048156 312.69517789 -340 310 C-339.45214844 308.84628906 -338.90429688 307.69257813 -338.33984375 306.50390625 C-336.68002086 303.08641736 -334.94975554 299.70824907 -333.20214844 296.33496094 C-331.90089841 293.80751267 -330.62618916 291.26753305 -329.3515625 288.7265625 C-324.30057742 278.74946218 -319.20349219 269.60246682 -312 261 C-311.17113281 259.98292969 -310.34226562 258.96585937 -309.48828125 257.91796875 C-304.45619005 251.80637683 -299.16364394 245.9621971 -293.75 240.1875 C-293.15268066 239.54901123 -292.55536133 238.91052246 -291.93994141 238.25268555 C-289.50741284 235.65678833 -287.06904195 233.07105614 -284.58984375 230.51953125 C-283.96207031 229.85308594 -283.33429688 229.18664062 -282.6875 228.5 C-282.17574219 227.9740625 -281.66398438 227.448125 -281.13671875 226.90625 C-279.37237131 223.94748179 -278.79540145 221.39092577 -279 218 C-280.09478729 213.92317388 -281.63677345 210.04732135 -283.1875 206.125 C-286.95922901 196.18439866 -289.94924453 186.42586873 -292 176 C-292.30292969 176.50789062 -292.60585938 177.01578125 -292.91796875 177.5390625 C-300.47847708 189.96155926 -309.82467103 197.26318474 -324.0625 200.75 C-337.83424929 201.92206377 -348.61003763 198.25826048 -360.625 191.5625 C-361.69878906 190.98951172 -362.77257812 190.41652344 -363.87890625 189.82617188 C-372.66545369 185.01185301 -372.66545369 185.01185301 -374 181 C-373.82357605 177.64794489 -373.56269287 175.02608699 -371.9375 172.0625 C-368.7154677 170.29557906 -365.53148856 170.43871599 -362 171 C-358.45264968 172.47366924 -355.22310666 174.39422733 -351.9375 176.375 C-344.10601587 181.00456451 -337.4168973 184.94168973 -328 184 C-318.3057806 181.29008852 -312.66299179 177.93471246 -307.6640625 169.12890625 C-295.72528125 147.09885747 -295.72528125 147.09885747 -291 123 C-307.17 118.71 -323.34 114.42 -340 110 C-340.04345949 118.39420812 -340.04345949 118.39420812 -339.67578125 126.7109375 C-339.58780273 128.11279297 -339.58780273 128.11279297 -339.49804688 129.54296875 C-339.37276811 131.45511829 -339.23709485 133.36661113 -339.09179688 135.27734375 C-338.57356858 144.0445471 -338.57356858 144.0445471 -342 148 C-344.95793723 149.47896861 -346.70220224 149.4355582 -350 149 C-354.36460226 146.37723442 -357.37785426 142.60483975 -360.375 138.5625 C-364.35401924 133.26610276 -369.1628313 128.2927047 -375.5625 126.13671875 C-378.00935652 125.75966291 -378.00935652 125.75966291 -379.7734375 127.14453125 C-380.30195313 127.69496094 -380.83046875 128.24539062 -381.375 128.8125 C-385.67005337 132.81935715 -389.61873717 133.78352156 -395.4375 134.3125 C-403.59762235 133.59669979 -409.57130147 130.15598829 -415 124 C-416.5 120.5625 -416.5 120.5625 -417 118 C-417.74765625 118.01160156 -418.4953125 118.02320313 -419.265625 118.03515625 C-420.25046875 118.04417969 -421.2353125 118.05320312 -422.25 118.0625 C-423.22453125 118.07410156 -424.1990625 118.08570313 -425.203125 118.09765625 C-428 118 -428 118 -432 117 C-432 122.61 -432 128.22 -432 134 C-430.02 134.66 -428.04 135.32 -426 136 C-424.00424119 136.97208662 -422.03061596 137.9905679 -420.078125 139.046875 C-418.96953125 139.645 -417.8609375 140.243125 -416.71875 140.859375 C-415.00171875 141.79523438 -415.00171875 141.79523438 -413.25 142.75 C-412.12078125 143.3584375 -410.9915625 143.966875 -409.828125 144.59375 C-390.45669643 155.08660714 -390.45669643 155.08660714 -389 158 C-388.30890052 165.14136126 -388.30890052 165.14136126 -391.0625 168.5625 C-394.93334826 170.4567449 -396.81219884 169.9049358 -401 169 C-403.53529522 167.87484531 -405.8817885 166.72951486 -408.296875 165.39453125 C-408.9711554 165.03284348 -409.64543579 164.6711557 -410.34014893 164.29850769 C-412.48229626 163.14642052 -414.61611282 161.97980207 -416.75 160.8125 C-418.16614159 160.04785487 -419.58280466 159.28417472 -421 158.52148438 C-431.42813829 152.89662127 -431.42813829 152.89662127 -436.31958008 150.10644531 C-437.77207153 149.28225098 -437.77207153 149.28225098 -439.25390625 148.44140625 C-440.07963135 147.9626001 -440.90535645 147.48379395 -441.75610352 146.99047852 C-445.23938289 145.45292391 -447.42664017 145.88828805 -451 147 C-452.04608416 150.13825248 -452.14794583 152.87229963 -452.23876953 156.15673828 C-452.57643776 167.17456188 -454.0642968 175.86314432 -461.87109375 184.17578125 C-469.25137154 190.4997991 -477.17336134 193.35878078 -486.78515625 193.21484375 C-490.09488543 192.89379418 -492.2779224 191.87952977 -495 190 C-498.24868887 185.82208588 -498.43475681 182.01511212 -498.40405273 176.90844727 C-498.41091599 176.10780853 -498.41777924 175.3071698 -498.42485046 174.48226929 C-498.44310738 171.84346636 -498.43928259 169.20525861 -498.43359375 166.56640625 C-498.43815615 164.72704373 -498.4434619 162.88768292 -498.44947815 161.04832458 C-498.45840711 157.19580149 -498.45598864 153.34348571 -498.44604492 149.4909668 C-498.4345566 144.56013974 -498.45476561 139.63002897 -498.48396206 134.699296 C-498.50233073 130.90137709 -498.50203026 127.10362961 -498.49632454 123.30567741 C-498.4961714 121.4880466 -498.50220963 119.67040411 -498.51461601 117.85281563 C-498.52953672 115.30840584 -498.51884176 112.76531646 -498.50170898 110.22094727 C-498.51137695 109.47426285 -498.52104492 108.72757843 -498.53100586 107.95826721 C-498.45895414 102.83399896 -497.2148923 99.95248651 -494 96 C-488.28243883 91.2132046 -481.85579053 89.68730304 -474.5 89.9375 C-468.71670165 90.66267848 -463.52703606 93.03919855 -458.24023438 95.38452148 C-449.04868409 99.44498108 -440.47027229 100.45666307 -430.5 101.125 C-428.69402344 101.25455078 -428.69402344 101.25455078 -426.8515625 101.38671875 C-423.90142603 101.59744278 -420.95099283 101.8016943 -418 102 C-417.92523438 101.40832031 -417.85046875 100.81664063 -417.7734375 100.20703125 C-417.04768781 95.84541794 -416.35050591 93.41824172 -413.453125 89.9609375 C-408.98333436 87.42266273 -405.78695108 87.38834136 -400.75 87.625 C-399.90606689 87.64788086 -399.06213379 87.67076172 -398.19262695 87.69433594 C-395.79306394 87.76928614 -393.39769104 87.88056465 -391 88 C-389.92621094 88.03351563 -388.85242188 88.06703125 -387.74609375 88.1015625 C-381.39998959 88.46973343 -377.48992351 90.26108414 -373.125 95.0625 C-371.37639461 99.62830297 -371.77150433 104.16773978 -372 109 C-371.175 109.20625 -370.35 109.4125 -369.5 109.625 C-365.04064403 111.37688985 -361.70446154 114.01010465 -358 117 C-358.02320313 115.8140625 -358.04640625 114.628125 -358.0703125 113.40625 C-358.29378211 97.36813645 -356.88916371 83.20689934 -351.4375 68.05859375 C-349.46284722 62.56309171 -347.94947265 57.25297758 -347.3125 51.4375 C-345.29310305 38.9610708 -338.81927797 28.69504079 -328.65625 21.29296875 C-317.42441544 13.98872191 -304.79241723 12.08483575 -291.64453125 14.65625 C-284.35797929 16.71530001 -277.7689253 19.90806446 -271.09375 23.4140625 C-268.43109168 24.77901108 -265.79701666 25.94590044 -263 27 C-262.85304688 26.443125 -262.70609375 25.88625 -262.5546875 25.3125 C-259.75355858 15.7822223 -254.06386536 8.76617595 -246 3 C-235.97149477 -2.45207039 -224.99111809 -3.62963833 -213.8203125 -1.3515625 C-202.75645155 2.31549623 -196.06967649 9.3002276 -190 19 C-181.07761306 18.349621 -172.53776731 16.11107913 -163.875 14 C-161.58284399 13.4440035 -159.29032295 12.8896792 -156.99685669 12.33911133 C-155.5791194 11.99853702 -154.16212834 11.65483454 -152.74606323 11.30737305 C-136.11604666 7.30104503 -121.56487668 8.8708497 -106.2890625 16.95703125 C-101.33172135 20.03623484 -96.87203339 23.61942767 -93 28 C-93 28.66 -93 29.32 -93 30 C-76.35454566 27.27451802 -76.35454566 27.27451802 -62 19 C-60.64872645 16.58147855 -59.49549118 14.10580382 -58.328125 11.59375 C-53.83022195 2.80960993 -46.214548 -2.87502552 -36.97265625 -6.03515625 C-23.14647993 -9.78374125 -11.9924183 -7.84329634 0 0 Z M-42 16 C-48.74805711 27.5218625 -52.58519937 39.48293893 -49.3125 52.796875 C-47.00135206 58.38214919 -43.27546763 63.97106661 -38.0703125 67.1953125 C-33.54678523 68.95351366 -28.90885146 67.68447224 -24.47265625 66.09375 C-13.65472044 61.15983783 -8.18263427 53.92226358 -4 43 C-3.566875 42.030625 -3.13375 41.06125 -2.6875 40.0625 C-1.06387919 32.83000732 -0.80280381 25.26630723 -4.6796875 18.74609375 C-9.81423866 11.95572579 -16.16591189 8.87511322 -24.5 7.625 C-31.07073673 8.61061051 -37.74212015 10.62162546 -42 16 Z M-244.5546875 23.8046875 C-249.96790007 32.02691849 -249.08217829 43.92091792 -247.41796875 53.26953125 C-244.74180047 61.81127385 -238.67836863 69.2544579 -230.875 73.6875 C-226.9112391 75.32470559 -224.14682564 75.33290824 -220 74 C-212.0670155 69.50000294 -206.38271356 62.57479277 -203.5234375 53.9296875 C-201.0165048 44.68771171 -200.63608198 33.52788287 -205.1171875 24.83203125 C-208.86068458 19.19563593 -213.56138732 16.01032943 -220 14 C-230.80506308 12.30184683 -237.58217673 15.79440768 -244.5546875 23.8046875 Z M-136 25 C-137.03447266 26.50626953 -137.03447266 26.50626953 -138.08984375 28.04296875 C-138.76575562 29.02668457 -138.76575562 29.02668457 -139.45532227 30.03027344 C-140.44957393 31.47735098 -141.44354848 32.92461896 -142.43725586 34.37207031 C-144.83470885 37.86164938 -147.23743118 41.34703879 -149.6640625 44.81640625 C-150.07019775 45.39817627 -150.47633301 45.97994629 -150.89477539 46.5793457 C-152.00213004 48.16362917 -153.11231234 49.74593512 -154.22265625 51.328125 C-157.98556675 56.98489595 -158.88018379 61.20541047 -158 68 C-155.90702755 72.11119588 -153.68141909 74.34721271 -150 77 C-149.79842285 76.36908447 -149.5968457 75.73816895 -149.38916016 75.08813477 C-148.47555745 72.24368706 -147.55044903 69.40311438 -146.625 66.5625 C-146.30789063 65.56927734 -145.99078125 64.57605469 -145.6640625 63.55273438 C-145.3546875 62.60849609 -145.0453125 61.66425781 -144.7265625 60.69140625 C-144.44377441 59.81685791 -144.16098633 58.94230957 -143.86962891 58.04125977 C-143 56 -143 56 -141 55 C-138.06655244 54.72062404 -135.8455444 54.51318589 -133 55 C-130.875 56.875 -130.875 56.875 -130 60 C-130.87550425 68.3815363 -133.79248772 76.61941682 -136.140625 84.67578125 C-136.54974407 86.090811 -136.95848859 87.50594909 -137.36688232 88.92118835 C-138.43942615 92.63439779 -139.5167837 96.34619278 -140.59527588 100.05767822 C-141.67172056 103.76487464 -142.74392571 107.47329586 -143.81640625 111.18164062 C-144.23791225 112.63817423 -144.65942102 114.09470703 -145.08093262 115.55123901 C-145.90794587 118.40958956 -146.73376224 121.26828215 -147.55871582 124.12722778 C-149.32985315 130.26094309 -151.11029169 136.39093707 -152.94726562 142.50537109 C-153.23237 143.46654343 -153.51747437 144.42771576 -153.81121826 145.41801453 C-154.31961892 147.12983807 -154.83605884 148.83930925 -155.36309814 150.54548645 C-156.83389683 155.53615759 -157.39078247 159.78945123 -157 165 C-155.10181738 168.26250137 -153.70715156 170.38735287 -150.0625 171.6953125 C-146.75037269 172.28497153 -144.50327637 172.17556152 -141.3125 171.0625 C-134.28447518 164.79426165 -131.21108807 154.98718376 -127.625 146.5 C-126.48215025 143.81178278 -125.33674214 141.12465869 -124.19140625 138.4375 C-123.91459518 137.78591919 -123.63778412 137.13433838 -123.35258484 136.4630127 C-121.80757406 132.83918197 -120.21095416 129.2489563 -118.52734375 125.6875 C-118.18687012 124.95853516 -117.84639648 124.22957031 -117.49560547 123.47851562 C-116.63634806 121.65658417 -115.75848119 119.84346009 -114.87890625 118.03125 C-113.39681243 112.91967309 -115.78337541 109.29627746 -118.125 104.8125 C-120.87650064 98.62421931 -121.19569459 92.71935088 -119.1171875 86.25390625 C-116.59631946 80.63621026 -113.71619744 76.52004403 -108 74 C-104.03871587 72.77885226 -100.06200408 71.82040476 -96 71 C-95.29414847 58.66720522 -97.46162385 49.36046185 -104.8828125 39.359375 C-113.5837019 29.6631809 -123.34313516 25.75214975 -136 25 Z M-326.67578125 41.9609375 C-330.6754961 48.11979046 -331.52684211 54.69915215 -332.7331543 61.79394531 C-333.73954731 67.3759685 -335.49097409 72.35992974 -337.81640625 77.546875 C-338.93721722 80.81683175 -339.52885891 83.81089517 -340.07397461 87.21582031 C-340.24891953 88.29841125 -340.42386444 89.3810022 -340.60411072 90.49639893 C-340.73475418 91.32258728 -340.86539764 92.14877563 -341 93 C-333.76540102 95.03486257 -326.52406539 97.04423307 -319.27758789 99.03637695 C-316.8153675 99.71645268 -314.35472257 100.40226028 -311.89575195 101.09399414 C-308.35250213 102.08965953 -304.80402072 103.06429226 -301.25390625 104.03515625 C-300.1629213 104.34655045 -299.07193634 104.65794464 -297.94789124 104.97877502 C-288.96259327 107.40012663 -282.35905991 106.95121068 -273.50390625 104.22265625 C-271.80137695 103.69961914 -271.80137695 103.69961914 -270.06445312 103.16601562 C-268.90880859 102.80185547 -267.75316406 102.43769531 -266.5625 102.0625 C-264.78842773 101.52206055 -264.78842773 101.52206055 -262.97851562 100.97070312 C-256.97741161 99.38605394 -256.97741161 99.38605394 -252 96 C-249.5013286 85.9555672 -249.5013286 85.9555672 -251.2578125 76.07421875 C-252.47202439 74.46841038 -253.73713349 72.89998492 -255.046875 71.37109375 C-261.65032512 63.3545053 -263.00753219 53.01355582 -264 43 C-265.32837891 42.5978125 -265.32837891 42.5978125 -266.68359375 42.1875 C-273.22281952 40.11889996 -279.36446711 37.9164621 -285.47607422 34.78369141 C-300.40743818 27.16703335 -315.63232888 27.68199424 -326.67578125 41.9609375 Z M-167.54296875 31.21484375 C-168.61611328 31.48876953 -169.68925781 31.76269531 -170.79492188 32.04492188 C-171.91447266 32.33947266 -173.03402344 32.63402344 -174.1875 32.9375 C-175.31865234 33.22818359 -176.44980469 33.51886719 -177.61523438 33.81835938 C-180.4121417 34.53823848 -183.20684393 35.26572486 -186 36 C-186.09796875 37.24394531 -186.1959375 38.48789062 -186.296875 39.76953125 C-187.492874 53.6000081 -189.68553831 67.68553831 -200 78 C-200.00882734 80.51284898 -199.90708325 82.88166756 -199.6875 85.375 C-199.63916016 86.04789063 -199.59082031 86.72078125 -199.54101562 87.4140625 C-199.39599601 89.27912489 -199.19971804 91.1399997 -199 93 C-198.92789307 93.69303223 -198.85578613 94.38606445 -198.78149414 95.10009766 C-198.15051766 97.20754754 -198.15051766 97.20754754 -195.88964844 98.125 C-194.9721582 98.41375 -194.05466797 98.7025 -193.109375 99 C-191.58787842 99.49209961 -191.58787842 99.49209961 -190.03564453 99.99414062 C-188.95138184 100.32607422 -187.86711914 100.65800781 -186.75 101 C-185.65929199 101.34740234 -184.56858398 101.69480469 -183.44482422 102.05273438 C-180.30105452 103.05028118 -177.15128671 104.02651667 -174 105 C-172.52810177 105.46703881 -171.05665541 105.93550752 -169.5859375 106.40625 C-164.39085447 108.25157534 -164.39085447 108.25157534 -159 109 C-157.68 103.72 -156.36 98.44 -155 93 C-156.546875 91.989375 -158.09375 90.97875 -159.6875 89.9375 C-167.02739092 84.76432829 -171.3046115 78.92378909 -173 70 C-174.07308688 57.31405509 -171.72156804 48.63811367 -164.3125 38.4375 C-163.80138672 37.71498047 -163.29027344 36.99246094 -162.76367188 36.24804688 C-161.51904875 34.49161611 -160.26093511 32.74475741 -159 31 C-162.56571316 29.81142895 -163.94781941 30.282768 -167.54296875 31.21484375 Z M-76.1875 43 C-79.5596875 43.99 -79.5596875 43.99 -83 45 C-82.01 51.93 -81.02 58.86 -80 66 C-75.49842772 64.49947591 -72.51800301 63.29497484 -68.625 60.875 C-66.335625 59.451875 -66.335625 59.451875 -64 58 C-64.66 52.39 -65.32 46.78 -66 41 C-69.69170478 41 -72.64597235 41.96028546 -76.1875 43 Z M-235 89 C-236.74134895 90.74134895 -236.50043685 93.31640334 -236.8125 95.6875 C-237.73410361 101.35838935 -238.8754264 105.56467058 -243.59375 109.2421875 C-245.02393395 110.22037935 -246.50826363 111.11851942 -248 112 C-247.45455202 119.57211295 -246.09443482 126.78740917 -244.3828125 134.17578125 C-244.12498993 135.30396774 -243.86716736 136.43215424 -243.60153198 137.5945282 C-243.05828844 139.96258411 -242.51186286 142.32991209 -241.96240234 144.6965332 C-241.12402036 148.31673014 -240.30173501 151.94033995 -239.48046875 155.56445312 C-238.94888576 157.87261924 -238.41636621 160.18056989 -237.8828125 162.48828125 C-237.63894806 163.5685408 -237.39508362 164.64880035 -237.14382935 165.76179504 C-236.78863724 167.27443184 -236.78863724 167.27443184 -236.42626953 168.81762695 C-236.22276886 169.70013626 -236.01926819 170.58264557 -235.80960083 171.49189758 C-234.53976639 175.42578045 -232.90423174 178.26683913 -229.6875 180.875 C-226.20580295 182.33245458 -224.57286725 182.19095575 -221 181 C-215.87740748 177.42609824 -214.98792103 173.25372493 -213.7734375 167.42578125 C-213 165 -213 165 -210 163 C-206.4227467 162.54332937 -204.66541695 162.56222569 -201.625 164.5625 C-198.97452009 168.53821987 -199.57273582 171.83543024 -200.47265625 176.39453125 C-202.21921666 183.20297931 -205.01350705 189.35001914 -211.02734375 193.34765625 C-217.97221769 196.95588685 -224.86319342 198.22938816 -232.5625 196.38671875 C-238.98187534 194.16538003 -243.4193382 190.81263931 -247 185 C-249.89230919 178.12047567 -251.49011254 171.09257052 -253.1015625 163.8203125 C-253.53222731 161.91223433 -253.96289462 160.00415671 -254.393713 158.0961132 C-254.9905827 155.44624937 -255.58230917 152.79524781 -256.17401123 150.14422607 C-257.21608031 145.47853773 -258.26456203 140.81429739 -259.31552124 136.15060425 C-259.87379208 133.67170503 -260.42923025 131.19216587 -260.9815979 128.71194458 C-261.23210907 127.59673431 -261.48262024 126.48152405 -261.74072266 125.33251953 C-261.96039703 124.34849152 -262.18007141 123.3644635 -262.40640259 122.35061646 C-262.91054257 120.00007467 -262.91054257 120.00007467 -264 118 C-266.97 118.66 -269.94 119.32 -273 120 C-273.81848848 123.16522481 -274.62992428 126.33198947 -275.4375 129.5 C-275.66759766 130.386875 -275.89769531 131.27375 -276.13476562 132.1875 C-278.84494542 142.8711073 -278.94045749 151.24927114 -277.4375 162.1875 C-277.30370438 163.17819489 -277.30370438 163.17819489 -277.16720581 164.18890381 C-275.05930519 179.58208571 -271.49210134 194.46377961 -264.98046875 208.625 C-261.60983959 216.78971128 -262.69009476 225.00929592 -266 233 C-268.74757995 237.6284736 -271.96749331 241.18398759 -275.8125 244.875 C-284.5485675 253.07006776 -284.5485675 253.07006776 -291 263 C-285.07630683 268.45967054 -279.15713485 273.91427404 -273.0625 279.18359375 C-270.4820964 281.45610828 -267.96470338 283.79351753 -265.4375 286.125 C-261.46098609 289.75813806 -257.47878036 293.01414643 -253 296 C-248.78971576 291.526573 -245.2992137 286.9800166 -242.0625 281.75 C-238.7163312 276.66330962 -236.05233258 273.38560728 -230 272 C-224.070119 271.04326201 -219.05828623 271.47861656 -214.07421875 274.9765625 C-210.23682758 278.72000624 -207.35739439 283.17949298 -204.39453125 287.625 C-202.2332234 290.81254682 -199.80616456 293.36828617 -197 296 C-192.44536141 292.05873681 -187.95008971 288.05907764 -183.5 284 C-179.72360983 280.55605683 -175.91621742 277.15705069 -172.05859375 273.8046875 C-168.00016101 270.24682047 -164.00424976 266.61859456 -160 263 C-162.77285559 256.99433646 -167.40604414 252.47514813 -172.17578125 247.9765625 C-181.04741733 239.57078859 -187.06482263 232.73886798 -187.5625 219.9375 C-187.31074664 213.50380312 -185.73729817 208.74832617 -183 203 C-178.6142222 192.62750097 -175.70050669 182.39332164 -174.43359375 171.20703125 C-172.72696741 156.38443477 -169.08586627 142.68055436 -164.68676758 128.44824219 C-163.90997023 126.10284533 -163.90997023 126.10284533 -164 124 C-171.59 121.69 -179.18 119.38 -187 117 C-188.56239234 124.10358178 -188.56239234 124.10358178 -190.11083984 131.21020508 C-190.40788818 132.53894653 -190.40788818 132.53894653 -190.7109375 133.89453125 C-190.90993652 134.80050049 -191.10893555 135.70646973 -191.31396484 136.63989258 C-192 139 -192 139 -194 142 C-197.47145233 142.83572001 -199.95649876 143.35698727 -203.375 142.1875 C-205 141 -205 141 -206 139 C-206.34087174 133.40402225 -205.38470065 128.61103698 -204 123.25 C-202.52267427 117.69763182 -202.52267427 117.69763182 -202 112 C-203.0725 111.484375 -204.145 110.96875 -205.25 110.4375 C-209.24362357 108.10586927 -211.46894646 105.36234852 -213 101 C-213.87143972 97.02125521 -214.49575143 93.04062343 -215 89 C-215.94101562 89.08378906 -216.88203125 89.16757813 -217.8515625 89.25390625 C-219.09679687 89.35574219 -220.34203125 89.45757812 -221.625 89.5625 C-222.85476563 89.66691406 -224.08453125 89.77132812 -225.3515625 89.87890625 C-228.75502263 89.99186906 -231.66521508 89.59585496 -235 89 Z M-402 104 C-402.74433998 110.82717228 -402.74433998 110.82717228 -399.8125 116.6875 C-397.1205655 118.19737751 -397.1205655 118.19737751 -394.375 117.9375 C-391.79467937 116.91895238 -390.7250939 116.14549493 -389 114 C-388.42676193 111.72838745 -388.42676193 111.72838745 -388.3125 109.3125 C-388.24675781 108.50425781 -388.18101562 107.69601563 -388.11328125 106.86328125 C-388.07589844 106.24839844 -388.03851563 105.63351563 -388 105 C-391.14930893 103.95023036 -393.38814456 103.89868405 -396.6875 103.9375 C-397.68136719 103.94652344 -398.67523438 103.95554687 -399.69921875 103.96484375 C-400.45847656 103.97644531 -401.21773438 103.98804687 -402 104 Z M-482 107 C-482 129.77 -482 152.54 -482 176 C-476.98706633 174.99741327 -475.52407204 174.4313333 -472 171 C-468.16410085 164.97754408 -468.28463709 158.79525369 -467.91601562 151.875 C-467.44421084 145.26020158 -466.3080931 139.18493508 -461.35400391 134.4152832 C-457.25290433 131.11630128 -453.11127193 129.98638581 -448 129 C-448 124.71 -448 120.42 -448 116 C-449.0621875 115.68546875 -450.124375 115.3709375 -451.21875 115.046875 C-464.08697336 111.17028087 -464.08697336 111.17028087 -468.625 108.75 C-473.5721337 106.18481956 -476.60209328 105.65052332 -482 107 Z M-105 133 C-106.50605402 136.28893003 -108.00380532 139.58157446 -109.5 142.875 C-109.92925781 143.81214844 -110.35851562 144.74929687 -110.80078125 145.71484375 C-111.20683594 146.61074219 -111.61289062 147.50664062 -112.03125 148.4296875 C-112.40830078 149.25710449 -112.78535156 150.08452148 -113.17382812 150.93701172 C-114.12392316 152.93906349 -114.12392316 152.93906349 -114 155 C-110.73257727 155.86759552 -107.46063519 156.71673443 -104.1875 157.5625 C-103.25873047 157.80935547 -102.32996094 158.05621094 -101.37304688 158.31054688 C-100.48037109 158.53935547 -99.58769531 158.76816406 -98.66796875 159.00390625 C-97.43469849 159.32597046 -97.43469849 159.32597046 -96.17651367 159.65454102 C-93.82791455 160.19876753 -93.82791455 160.19876753 -91 159 C-95.29 150.42 -99.58 141.84 -104 133 C-104.33 133 -104.66 133 -105 133 Z M-302 275 C-307.22359505 281.79067356 -311.08577961 288.87759271 -314.8046875 296.54296875 C-317.629185 302.34771686 -320.6963224 308.0251813 -323.76293945 313.70483398 C-324.16988037 314.46739502 -324.57682129 315.22995605 -324.99609375 316.015625 C-325.35888428 316.68883789 -325.7216748 317.36205078 -326.09545898 318.05566406 C-329.88613196 326.2038205 -328.15486742 334.54855187 -325.3269043 342.68994141 C-322.97838941 348.54848138 -319.87246183 353.96521994 -316.75 359.4375 C-316.04163177 360.69722138 -315.33438012 361.95757121 -314.62817383 363.21850586 C-313.16149544 365.83527557 -311.69010053 368.44930534 -310.21533203 371.06152344 C-307.00277671 376.76111042 -303.8515428 382.494439 -300.69787598 388.22674561 C-299.36773954 390.64347351 -298.0348903 393.05869992 -296.70199585 395.47390747 C-291.45768219 404.97693 -286.22693953 414.48741301 -281 424 C-276.05 424 -271.1 424 -266 424 C-266.58535884 412.85888443 -267.58167837 401.85569382 -268.99194336 390.78955078 C-269.31376509 388.23997752 -269.6169871 385.68859637 -269.91992188 383.13671875 C-271.88530976 367.21338284 -275.66101025 352.73703 -286.875 340.625 C-289.09514961 338.20983725 -290.00586374 336.98338607 -291.125 333.8125 C-290.97030665 330.33189954 -289.97743368 328.84596969 -288 326 C-285.97875977 324.2265625 -285.97875977 324.2265625 -283.69140625 322.625 C-282.86189453 322.03203125 -282.03238281 321.4390625 -281.17773438 320.828125 C-280.31470703 320.22484375 -279.45167969 319.6215625 -278.5625 319 C-271.00672079 313.82946256 -271.00672079 313.82946256 -265 307 C-274.41279446 298.24315011 -274.41279446 298.24315011 -284.03515625 289.71875 C-286.43343646 287.62085081 -288.77458817 285.46384278 -291.125 283.3125 C-294.5956973 280.17387559 -297.99996863 277.42107162 -302 275 Z M-276 439 C-276.495 440.670625 -276.99 442.34125 -277.5 444.0625 C-279.64989026 449.95760545 -282.55089752 453.81594182 -288 457 C-293.94182889 459.13388535 -299.4583444 459.34607939 -305.68359375 459.390625 C-312.30120912 459.60602659 -316.6634945 461.60200751 -321.375 466.4375 C-323.35594371 469.22179682 -323.35594371 469.22179682 -324 474 C-301.23 474 -278.46 474 -255 474 C-253.46260034 470.92520067 -253.78781776 468.40882944 -254 465 C-254.85138449 462.47615472 -255.73259592 460.16534101 -256.8125 457.75 C-259.43271256 451.58764824 -261.39294357 445.51750662 -263 439 C-267.29 439 -271.58 439 -276 439 Z M-187 439 C-187.38671875 440.18335938 -187.7734375 441.36671875 -188.171875 442.5859375 C-188.69735465 444.18247676 -189.22343586 445.7788181 -189.75 447.375 C-190.02078369 448.1990332 -190.29156738 449.02306641 -190.57055664 449.87207031 C-192.02668138 454.2538193 -193.58177373 458.51764184 -195.4375 462.75 C-197.0046028 466.49939058 -197.32525311 469.02424067 -196 473 C-194.9122807 474.31285928 -194.9122807 474.31285928 -192.26023865 474.12025452 C-191.03668167 474.11803391 -189.81312469 474.11581329 -188.55249023 474.11352539 C-187.87934784 474.11367142 -187.20620544 474.11381744 -186.51266479 474.1139679 C-184.27794216 474.11326878 -182.0433019 474.10547652 -179.80859375 474.09765625 C-178.26302638 474.09579206 -176.71745843 474.09436816 -175.17189026 474.09336853 C-171.09642923 474.0895434 -167.02100363 474.07971317 -162.94555664 474.06866455 C-158.78988118 474.05845032 -154.63420001 474.05387089 -150.47851562 474.04882812 C-142.31899413 474.03809089 -134.15950147 474.02101454 -126 474 C-128.31336161 468.14385534 -128.31336161 468.14385534 -132.5 463.625 C-133.38171875 462.90183594 -133.38171875 462.90183594 -134.28125 462.1640625 C-137.66105497 459.87501277 -140.83222487 459.87818982 -144.80175781 459.76098633 C-154.00309498 459.46189319 -161.8066031 458.74729085 -168.9375 452.375 C-171.60227422 448.01446036 -172.72980585 443.94707197 -174 439 C-178.29 439 -182.58 439 -187 439 Z " fill="#E51743" transform="translate(498,15)"/>
</svg>
