<?xml version="1.0" encoding="UTF-8"?>
<svg version="1.1" xmlns="http://www.w3.org/2000/svg" width="512" height="512">
<path d="M0 0 C0.7734375 -0.00773438 1.546875 -0.01546875 2.34375 -0.0234375 C5.14671037 0.49450083 5.83450026 1.05384646 7.5 3.375 C7.79676419 5.91663057 7.90917478 8.21421141 7.88768005 10.75666809 C7.89575836 11.89347402 7.89575836 11.89347402 7.90399987 13.05324572 C7.9183422 15.60052089 7.9111604 18.14728097 7.90405273 20.69458008 C7.90975314 22.51778076 7.91671611 24.34097787 7.92485046 26.16416931 C7.94283622 31.12296527 7.94160301 36.08158479 7.93590808 41.0404036 C7.93282318 45.17807315 7.93890108 49.31570845 7.94494683 53.45337313 C7.95900904 63.21544488 7.95741746 72.97742916 7.94604492 82.73950195 C7.93456943 92.81254991 7.94862598 102.88533145 7.9754414 112.95834428 C7.9975934 121.60303207 8.00423668 130.24763621 7.99836498 138.89235038 C7.99499211 144.05692302 7.99743208 149.22132499 8.01461601 154.38587379 C8.03007442 159.24424111 8.0261418 164.1022139 8.00731087 168.96056557 C8.00362153 170.74314803 8.00674349 172.52575964 8.01719666 174.30831528 C8.03038549 176.74345927 8.01887869 179.17729325 8.00120544 181.61238098 C8.01081045 182.31657396 8.02041546 183.02076693 8.03031152 183.74629909 C7.9559888 188.72933173 6.59073503 191.52107902 3.5 195.375 C-1.63641469 199.89993675 -4.68799131 200.52196706 -11.38184738 200.50922108 C-12.6235672 200.51274942 -12.6235672 200.51274942 -13.89037228 200.51634905 C-16.69440415 200.52306347 -19.49838994 200.52258009 -22.3024292 200.52217102 C-24.32103206 200.52546812 -26.33963425 200.52919336 -28.3582356 200.5333125 C-33.92890537 200.54335804 -39.49956437 200.54705338 -45.07024193 200.54970181 C-51.06901892 200.55359729 -57.06778732 200.56317611 -63.06655884 200.57191467 C-76.8794758 200.59076469 -90.6923934 200.60093816 -104.50531956 200.60937535 C-111.32841694 200.61357954 -118.15151344 200.61880183 -124.97461007 200.62405988 C-148.32226788 200.64195121 -171.66992593 200.65694817 -195.01758957 200.66438007 C-196.48380159 200.66485483 -197.95001361 200.66533072 -199.41622563 200.66580774 C-200.50690997 200.6661623 -200.50690997 200.6661623 -201.61962834 200.66652403 C-205.30371056 200.66772525 -208.98779278 200.66894069 -212.671875 200.67016602 C-213.40299759 200.67040617 -214.13412019 200.67064632 -214.88739801 200.67089374 C-238.5980038 200.6787886 -262.30855959 200.7022237 -286.01914355 200.73472196 C-311.07631806 200.76900331 -336.13346331 200.78872963 -361.19066167 200.79202431 C-363.9402512 200.79244187 -366.68984072 200.79292143 -369.43943024 200.79344749 C-370.45499953 200.79363228 -370.45499953 200.79363228 -371.49108538 200.7938208 C-382.39675934 200.79615493 -393.30237533 200.81182671 -404.20802862 200.83228934 C-415.16577224 200.85252384 -426.12345554 200.85770192 -437.08121583 200.84851871 C-443.02012588 200.84395915 -448.95884733 200.84595618 -454.89773178 200.86528015 C-460.3309158 200.88280651 -465.76377217 200.88200013 -471.19695917 200.86638286 C-473.16604147 200.86399071 -475.13514585 200.86841278 -477.10419425 200.88021151 C-479.77479441 200.89522708 -482.44421802 200.88573002 -485.11478806 200.86998463 C-485.88458354 200.88020683 -486.65437903 200.89042904 -487.44750166 200.90096101 C-492.613076 200.83419918 -495.51409355 199.61964221 -499.5 196.375 C-504.30496972 190.92071004 -504.66862347 187.43684355 -504.703125 180.31640625 C-504.70882507 179.41631332 -504.71452515 178.5162204 -504.72039795 177.58885193 C-504.72985201 175.68318866 -504.73638354 173.777509 -504.74023438 171.87182617 C-504.7499495 168.9526735 -504.78097267 166.03422199 -504.8125 163.11523438 C-504.81902902 161.26562919 -504.82427989 159.41601896 -504.828125 157.56640625 C-504.8466452 156.25380577 -504.8466452 156.25380577 -504.86553955 154.91468811 C-504.86253845 154.10051926 -504.85953735 153.2863504 -504.85644531 152.44750977 C-504.86009094 151.73184341 -504.86373657 151.01617706 -504.86749268 150.27882385 C-504.3898487 147.80435276 -503.45577054 146.91581983 -501.5 145.375 C-499.34375 144.9765625 -499.34375 144.9765625 -497 145 C-496.2265625 144.99226562 -495.453125 144.98453125 -494.65625 144.9765625 C-492.5 145.375 -492.5 145.375 -489.5 148.375 C-489.17 160.255 -488.84 172.135 -488.5 184.375 C-330.1 184.375 -171.7 184.375 -8.5 184.375 C-8.17 143.455 -7.84 102.535 -7.5 60.375 C-22.55447754 60.41427612 -22.55447754 60.41427612 -37.91308594 60.4543457 C-70.0021166 60.53454528 -102.09114762 60.59019067 -134.18025242 60.63032665 C-139.16216072 60.6365804 -144.14406872 60.64305199 -149.12597656 60.6496582 C-150.11781143 60.65096976 -151.10964629 60.65228131 -152.13153675 60.6536326 C-168.20466662 60.67540674 -184.27770734 60.7148393 -200.35078427 60.76076398 C-216.83541892 60.80747279 -233.32000679 60.83528358 -249.8047049 60.84544247 C-259.98191993 60.85231322 -270.15888301 60.8740366 -280.3360205 60.91458233 C-287.30883023 60.94095192 -294.28150916 60.94901416 -301.25436518 60.94250689 C-305.28126356 60.93929493 -309.3077208 60.94432011 -313.33454132 60.97102737 C-317.01856119 60.99528342 -320.70184154 60.9966384 -324.38589481 60.97949447 C-326.35537482 60.97636722 -328.32484561 60.99800117 -330.29420066 61.02040654 C-331.45865218 61.0104513 -332.62310371 61.00049606 -333.82284164 60.99023914 C-334.82985996 60.99213775 -335.83687828 60.99403635 -336.8744123 60.99599248 C-339.5 60.375 -339.5 60.375 -341.85872865 58.06311005 C-343.5 55.375 -343.5 55.375 -343.4375 51.75 C-342.22121647 47.37137931 -342.22121647 47.37137931 -339.5 45.375 C-336.99861079 45.00240451 -336.99861079 45.00240451 -333.94588947 45.00585651 C-332.783429 44.99988337 -331.62096852 44.99391022 -330.42328197 44.98775607 C-329.14022566 44.9964946 -327.85716935 45.00523312 -326.53523254 45.01423645 C-325.16320784 45.01292889 -323.79118385 45.01030338 -322.41916388 45.00646895 C-318.64052406 44.99974225 -314.86213802 45.01178644 -311.08353055 45.02680314 C-307.01197053 45.03972791 -302.94042546 45.03537657 -298.86885071 45.03309631 C-291.81178697 45.03152132 -284.75480629 45.0409541 -277.69776344 45.05780983 C-267.49440882 45.08216469 -257.29109446 45.0900015 -247.08771392 45.0937738 C-230.534446 45.10034381 -213.98122238 45.12031986 -197.42797852 45.14868164 C-181.345624 45.176208 -165.26328151 45.19744854 -149.1809082 45.21020508 C-148.19001384 45.21099325 -147.19911948 45.21178142 -146.17819802 45.21259347 C-141.20729834 45.21650851 -136.23639858 45.22029966 -131.26549876 45.22402918 C-90.01030169 45.2551422 -48.75515338 45.30799293 -7.5 45.375 C-7.51571045 44.11840576 -7.5314209 42.86181152 -7.54760742 41.56713867 C-7.60186183 36.90997718 -7.63633376 32.25284369 -7.66479492 27.59545898 C-7.67989179 25.57880966 -7.70037115 23.56219321 -7.72631836 21.5456543 C-7.76266211 18.64884329 -7.7797172 15.75246594 -7.79296875 12.85546875 C-7.80845261 11.95225388 -7.82393646 11.049039 -7.83988953 10.11845398 C-7.84011612 9.27780899 -7.84034271 8.437164 -7.84057617 7.57104492 C-7.85056892 6.46184944 -7.85056892 6.46184944 -7.86076355 5.33024597 C-7.04353907 0.90109875 -4.11464037 -0.0411464 0 0 Z " fill="#E51743" transform="translate(504.5,226.625)"/>
<path d="M0 0 C0.82781322 -0.00235223 1.65562643 -0.00470446 2.50852489 -0.00712797 C5.31255677 -0.01384239 8.11654256 -0.01335902 10.92058182 -0.01294994 C12.93918467 -0.01624705 14.95778687 -0.01997229 16.97638822 -0.02409142 C22.54705799 -0.03413696 28.11771699 -0.03783231 33.68839455 -0.04048073 C39.68717154 -0.04437622 45.68593993 -0.05395503 51.68471146 -0.0626936 C65.49762841 -0.08154361 79.31054602 -0.09171708 93.12347218 -0.10015428 C99.94656956 -0.10435846 106.76966606 -0.10958075 113.59276269 -0.11483881 C136.9404205 -0.13273013 160.28807855 -0.14772709 183.63574219 -0.155159 C185.10195421 -0.15563376 186.56816623 -0.15610965 188.03437825 -0.15658666 C189.12506259 -0.15694122 189.12506259 -0.15694122 190.23778096 -0.15730295 C193.92186318 -0.15850417 197.6059454 -0.15971961 201.29002762 -0.16094494 C202.38671151 -0.16130516 202.38671151 -0.16130516 203.50555063 -0.16167267 C227.21615642 -0.16956753 250.92671221 -0.19300262 274.63729617 -0.22550088 C299.69447068 -0.25978223 324.75161593 -0.27950856 349.80881429 -0.28280324 C352.55840382 -0.28322079 355.30799334 -0.28370036 358.05758286 -0.28422642 C359.07315215 -0.28441121 359.07315215 -0.28441121 360.109238 -0.28459973 C371.01491196 -0.28693385 381.92052795 -0.30260564 392.82618124 -0.32306826 C403.78392485 -0.34330276 414.74160816 -0.34848084 425.69936845 -0.33929763 C431.6382785 -0.33473807 437.57699995 -0.3367351 443.5158844 -0.35605907 C448.94906842 -0.37358544 454.38192479 -0.37277905 459.81511179 -0.35716178 C461.78419409 -0.35476963 463.75329846 -0.3591917 465.72234687 -0.37099043 C468.39294703 -0.386006 471.06237064 -0.37650894 473.73294067 -0.36076355 C474.50273616 -0.37098576 475.27253165 -0.38120796 476.06565428 -0.39173993 C481.23122862 -0.3249781 484.13224617 0.88957887 488.11815262 4.13422108 C491.52924596 8.00627298 493.23926913 10.31779829 493.25859451 15.45464039 C493.26715973 16.81535412 493.26715973 16.81535412 493.27589798 18.20355701 C493.27701584 19.20153309 493.2781337 20.19950916 493.27928543 21.22772694 C493.28425034 22.27658573 493.28921524 23.32544453 493.2943306 24.40608692 C493.3089752 27.88708614 493.31575749 31.36803982 493.32127762 34.84906483 C493.32702646 37.2604062 493.33278422 39.67174755 493.33855057 42.08308887 C493.34906661 47.14302249 493.35490557 52.20294018 493.35838699 57.26288319 C493.3638779 63.75771268 493.3879163 70.25233317 493.41635895 76.74709702 C493.43494799 81.72867423 493.4401889 86.71020068 493.44172287 91.69180965 C493.44475756 94.08688534 493.45281335 96.48195996 493.46590805 98.87700176 C493.482893 102.22193841 493.48110686 105.56635886 493.47459793 108.91132069 C493.4884201 110.40524845 493.4884201 110.40524845 493.50252151 111.92935658 C493.49695236 112.83931889 493.49138321 113.7492812 493.48564529 114.68681812 C493.48711185 115.47788424 493.48857841 116.26895037 493.49008942 117.08398819 C493.02211277 119.66362301 492.16855699 120.54796052 490.11815262 122.13422108 C487.96190262 122.53265858 487.96190262 122.53265858 485.61815262 122.50922108 C484.45799637 122.52082264 484.45799637 122.52082264 483.27440262 122.53265858 C481.11815262 122.13422108 481.11815262 122.13422108 478.11815262 119.13422108 C477.78815262 85.14422108 477.45815262 51.15422108 477.11815262 16.13422108 C318.71815262 16.13422108 160.31815262 16.13422108 -2.88184738 16.13422108 C-3.21184738 72.56422108 -3.54184738 128.99422108 -3.88184738 187.13422108 C36.4175756 186.9758291 36.4175756 186.9758291 76.71678543 186.77386951 C84.50633621 186.75580311 84.50633621 186.75580311 88.15153885 186.75244617 C91.37104962 186.74468187 94.59012754 186.72211235 97.80952191 186.69495463 C100.99734876 186.67361792 104.18514961 186.67885934 107.37303543 186.68011951 C108.51095158 186.66572708 109.64886772 186.65133465 110.82126617 186.63650608 C111.85954937 186.64201607 112.89783257 186.64752605 113.96757889 186.65320301 C114.87093601 186.64951584 115.77429314 186.64582867 116.70502472 186.64202976 C119.92554543 187.29890018 121.1180248 188.57320063 123.11815262 191.13422108 C123.61815262 194.63422108 123.61815262 194.63422108 123.11815262 198.13422108 C121.1180248 200.69524152 119.92554543 201.96954198 116.70502472 202.62641239 C115.80166759 202.62272522 114.89831047 202.61903805 113.96757889 202.61523914 C112.92713928 202.6207378 111.88669968 202.62623646 110.8147316 202.63190174 C109.111092 202.61033009 109.111092 202.61033009 107.37303543 202.58832264 C105.5726255 202.5891988 105.5726255 202.5891988 103.73584366 202.59009266 C100.44872259 202.58778426 97.16228366 202.56773197 93.8752985 202.53979683 C90.43868159 202.51478247 87.00205111 202.51244117 83.56535721 202.5076952 C77.05944807 202.49526544 70.55380796 202.46244411 64.04801726 202.42229724 C56.64060651 202.3775793 49.23318287 202.35559248 41.82567072 202.3355155 C26.58967557 202.29371126 11.3539488 202.22335952 -3.88184738 202.13422108 C-3.87518555 202.90429996 -3.86852371 203.67437885 -3.86166 204.46779346 C-3.8015711 211.7218989 -3.75588449 218.97588383 -3.72641087 226.23017311 C-3.71074879 229.95977163 -3.68950109 233.68916466 -3.65552902 237.41864491 C-3.62295419 241.01721881 -3.60499844 244.61559497 -3.59721565 248.21430492 C-3.59166871 249.58786285 -3.58083686 250.96140985 -3.56465721 252.33488369 C-3.54291063 254.25722815 -3.54162221 256.17977123 -3.54127121 258.10223866 C-3.53460938 259.19700016 -3.52794754 260.29176167 -3.52108383 261.41969776 C-3.88184738 264.13422108 -3.88184738 264.13422108 -5.26836777 265.98631763 C-7.39513451 267.4993971 -8.78934341 267.53514612 -11.38184738 267.50922108 C-12.15528488 267.51695545 -12.92872238 267.52468983 -13.72559738 267.53265858 C-16.43213974 267.03253662 -17.1817241 266.26894197 -18.88184738 264.13422108 C-19.25904554 262.14628619 -19.25904554 262.14628619 -19.26216412 259.8306427 C-19.27060406 258.94707067 -19.279044 258.06349863 -19.28773969 257.15315169 C-19.28172965 256.18157301 -19.2757196 255.20999434 -19.26952744 254.20897388 C-19.27491297 253.17750526 -19.28029851 252.14603663 -19.28584725 251.08331138 C-19.3002103 247.61017139 -19.29300241 244.13740806 -19.28590012 240.66425037 C-19.29159938 238.1809607 -19.2985619 235.69767364 -19.30669785 233.21439075 C-19.32282389 227.1587736 -19.32471942 221.10330567 -19.31948494 215.04768165 C-19.31544682 210.1255013 -19.31688254 205.20335163 -19.3222332 200.28117275 C-19.32298162 199.58114517 -19.32373004 198.88111758 -19.32450115 198.15987704 C-19.3260326 196.73783502 -19.32757095 195.31579301 -19.32911611 193.893751 C-19.34285273 180.54959283 -19.33739585 167.20549323 -19.3259309 153.86133639 C-19.31600235 141.65348695 -19.32893053 129.44578915 -19.35286509 117.2379631 C-19.37725016 104.70598584 -19.38686512 92.17407922 -19.38021237 79.6420787 C-19.37671816 72.60516567 -19.37896512 65.56836922 -19.39646339 58.53147411 C-19.41271571 51.91342212 -19.40801281 45.29561276 -19.38915825 38.67755222 C-19.38546311 36.24672152 -19.38860758 33.81586951 -19.39904404 31.3850584 C-19.41219206 28.06984182 -19.40076022 24.7555937 -19.38305283 21.4404192 C-19.39265783 20.47553269 -19.40226284 19.51064618 -19.41215891 18.51652068 C-19.35008476 12.87855836 -18.68090853 9.58819195 -14.88184738 5.13422108 C-9.74543269 0.60928433 -6.69385607 -0.01274598 0 0 Z " fill="#E51743" transform="translate(18.881847381591797,84.86577892303467)"/>
<path d="M0 0 C0.98782471 -0.01260864 1.97564941 -0.02521729 2.9934082 -0.03820801 C4.05390381 -0.03011108 5.11439941 -0.02201416 6.20703125 -0.01367188 C7.84901489 -0.01941223 7.84901489 -0.01941223 9.52416992 -0.02526855 C11.8374117 -0.02798924 14.15068417 -0.02061721 16.46386719 -0.00390625 C20.00655647 0.01749973 23.54721761 -0.00370413 27.08984375 -0.02929688 C29.33724406 -0.02665363 31.58464312 -0.02152872 33.83203125 -0.01367188 C34.89252686 -0.0217688 35.95302246 -0.02986572 37.0456543 -0.03820801 C44.35236514 0.0550552 44.35236514 0.0550552 47.6875 2.3671875 C49.53592588 5.35122987 49.58324198 7.0648499 49.01953125 10.51757812 C47.53222656 13.1784668 47.53222656 13.1784668 45.01953125 15.51757812 C41.93069823 15.9623104 39.39359537 16.10424886 36.31640625 16.00585938 C35.57342285 16.00082397 34.83043945 15.99578857 34.06494141 15.99060059 C31.29941007 15.96451333 28.53443043 15.8947053 25.76953125 15.83007812 C19.58203125 15.72695312 13.39453125 15.62382812 7.01953125 15.51757812 C7.01953125 32.67757812 7.01953125 49.83757812 7.01953125 67.51757812 C51.23953125 67.51757812 95.45953125 67.51757812 141.01953125 67.51757812 C141.01953125 50.35757813 141.01953125 33.19757813 141.01953125 15.51757812 C136.085 15.56398437 131.15046875 15.61039063 126.06640625 15.65820312 C122.94008313 15.67864159 119.81384239 15.69789723 116.6875 15.71289062 C111.72524914 15.73680148 106.76329353 15.76508614 101.80126953 15.81933594 C97.80067968 15.86280061 93.80040644 15.8867165 89.79959869 15.8970871 C88.27333848 15.90447744 86.74709557 15.91890924 85.22097015 15.94049835 C83.08280511 15.96954237 80.94594779 15.97353398 78.80761719 15.97167969 C76.98227448 15.98500336 76.98227448 15.98500336 75.12005615 15.99859619 C71.40033878 15.42151608 70.22459236 14.5231244 68.01953125 11.51757812 C67.47351631 7.69547356 67.30215955 5.5346639 69.56164551 2.33117676 C72.90831039 -0.13822479 75.84379392 -0.04398153 79.84570312 0 C80.62990128 -0.00700928 81.41409943 -0.01401855 82.22206116 -0.02124023 C84.81116267 -0.03882832 87.39916885 -0.02719518 89.98828125 -0.01367188 C91.78902394 -0.01636657 93.58976522 -0.0202488 95.39050293 -0.02526855 C99.16330833 -0.03116468 102.93573476 -0.02259707 106.70849609 -0.00390625 C111.54430048 0.01888351 116.3792169 0.00576102 121.21498871 -0.01819611 C124.93307179 -0.03265106 128.65094439 -0.02804952 132.36903381 -0.01768494 C134.15202438 -0.01501681 135.93503407 -0.01829045 137.71800232 -0.02760315 C140.21030282 -0.03776399 142.70116593 -0.02227559 145.19335938 0 C145.93010391 -0.00809692 146.66684845 -0.01619385 147.42591858 -0.02453613 C150.6753062 0.02926207 152.72617726 0.327711 155.47631836 2.10768127 C157.58105452 5.39445853 157.52737453 7.69979932 157.53710938 11.59350586 C157.54411865 12.29806915 157.55112793 13.00263245 157.55834961 13.72854614 C157.57592713 16.05315798 157.56430769 18.37654807 157.55078125 20.70117188 C157.55347657 22.3201572 157.55735932 23.93914094 157.56237793 25.55812073 C157.56827286 28.95011823 157.55971171 32.34169413 157.54101562 35.73364258 C157.51824383 40.07614236 157.53133722 44.41765229 157.55530548 48.76011562 C157.56977944 52.10337238 157.56514993 55.4463956 157.55479431 58.7896595 C157.55213047 60.39040304 157.55538475 61.99116794 157.56471252 63.59188652 C157.57490301 65.83257825 157.5593442 68.07168203 157.53710938 70.31225586 C157.533927 71.58592514 157.53074463 72.85959442 157.52746582 74.17185974 C156.9141729 78.21156389 155.91779409 79.66987901 153.01953125 82.51757812 C150.07096863 83.14399052 150.07096863 83.14399052 146.56713867 83.14576721 C145.92134196 83.1528616 145.27554525 83.15995599 144.61017895 83.16726536 C142.44784578 83.18485739 140.28730751 83.16673774 138.125 83.14868164 C136.57426128 83.15382009 135.0235284 83.1611008 133.47280884 83.17036438 C129.26194812 83.18889651 125.05171966 83.17592877 120.84088516 83.15627408 C116.43582663 83.13990103 112.03080856 83.14869859 107.62573242 83.15379333 C100.22792448 83.15831581 92.83036925 83.14243503 85.43261719 83.11450195 C76.87783145 83.08244926 68.32350154 83.08246522 59.76868343 83.09971672 C51.54174517 83.11557644 43.31497415 83.10885186 35.08804321 83.09177971 C31.58569898 83.08490421 28.08348861 83.08594674 24.58114624 83.09332466 C20.45730041 83.10098171 16.33397378 83.08888085 12.21021652 83.06147575 C10.69610511 83.05458466 9.18194526 83.05450175 7.66783524 83.06169128 C5.60195063 83.07037103 3.53767387 83.05445891 1.47192383 83.03224182 C-0.262472 83.02803144 -0.262472 83.02803144 -2.03190613 83.023736 C-5.62801381 82.40641887 -6.81317046 81.40797806 -8.98046875 78.51757812 C-9.48840332 75.25415039 -9.48840332 75.25415039 -9.49804688 71.33398438 C-9.50505615 70.61806122 -9.51206543 69.90213806 -9.51928711 69.16452026 C-9.53686423 66.80264269 -9.5252465 64.44196746 -9.51171875 62.08007812 C-9.51441377 60.43627696 -9.51829628 58.79247735 -9.52331543 57.14868164 C-9.52921005 53.70541184 -9.52064903 50.26255741 -9.50195312 46.81933594 C-9.47916317 42.4072412 -9.4922865 37.99611971 -9.51624298 33.58406067 C-9.53070218 30.19023312 -9.52609451 26.79663604 -9.51573181 23.40280151 C-9.51306484 21.7761117 -9.51633328 20.14940091 -9.52565002 18.5227356 C-9.53581817 16.24831784 -9.52031352 13.97547258 -9.49804688 11.70117188 C-9.4948645 10.40751709 -9.49168213 9.1138623 -9.48840332 7.78100586 C-8.98046875 4.51757812 -8.98046875 4.51757812 -7.25939941 2.10095215 C-4.58784065 0.24478477 -3.22787653 0.01184404 0 0 Z " fill="#E51743" transform="translate(181.98046875,114.482421875)"/>
<path d="M0 0 C1.54153496 -0.01475121 1.54153496 -0.01475121 3.11421204 -0.02980042 C4.2359079 -0.02013245 5.35760376 -0.01046448 6.51329041 -0.00050354 C7.69899124 -0.00590652 8.88469208 -0.01130951 10.10632324 -0.01687622 C13.35435313 -0.02723881 16.60172124 -0.01966347 19.84970784 -0.00316501 C23.24892033 0.01069065 26.64810223 0.00422496 30.04733276 0.0007019 C35.75449661 -0.00199946 41.46145006 0.01147008 47.16856384 0.03465271 C53.76814957 0.06127492 60.3673838 0.06300535 66.96700484 0.05126435 C73.31554735 0.04048892 79.66396263 0.04667089 86.01249504 0.06081963 C88.7146092 0.06658025 91.41663027 0.06649623 94.1187458 0.06175423 C97.88980154 0.05885399 101.66027665 0.07529264 105.43125916 0.09715271 C107.11683929 0.09040024 107.11683929 0.09040024 108.83647156 0.08351135 C109.86134171 0.09341599 110.88621185 0.10332062 111.94213867 0.11352539 C112.83384797 0.11595529 113.72555727 0.11838518 114.64428806 0.12088871 C117.37280635 0.57938118 118.26200128 1.31339469 119.90757751 3.50120544 C120.28852844 5.70201111 120.28852844 5.70201111 120.29576111 8.29222107 C120.30521759 9.26332825 120.31467407 10.23443542 120.32441711 11.23497009 C120.31530807 12.80535034 120.31530807 12.80535034 120.30601501 14.40745544 C120.31032028 16.02182495 120.31032028 16.02182495 120.31471252 17.66880798 C120.31675476 19.94513983 120.31121381 22.22148916 120.2986908 24.49778748 C120.28264006 27.98760618 120.29853479 31.47626664 120.31773376 34.96604919 C120.31575136 37.17568717 120.31190775 39.38532443 120.30601501 41.59495544 C120.31208771 42.64187561 120.3181604 43.68879578 120.32441711 44.7674408 C120.31023239 46.22410156 120.31023239 46.22410156 120.29576111 47.71018982 C120.29337433 48.56495911 120.29098755 49.41972839 120.28852844 50.30039978 C119.80955555 53.06749174 119.10988833 53.791803 116.90757751 55.50120544 C114.64428806 55.88152218 114.64428806 55.88152218 111.94213867 55.8888855 C110.91726852 55.89879013 109.89239838 55.90869476 108.83647156 55.91889954 C107.71275146 55.91439789 106.58903137 55.90989624 105.43125916 55.90525818 C104.24731064 55.91212143 103.06336212 55.91898468 101.84353638 55.92605591 C98.59550235 55.94123646 95.34782732 55.9428136 92.09977269 55.93711352 C89.38848624 55.93402559 86.67725189 55.94010974 83.96597284 55.94615227 C77.569592 55.96020557 71.17334469 55.9586298 64.77696228 55.94725037 C58.17793742 55.93576985 51.57931899 55.94984143 44.98034769 55.97664684 C39.31484967 55.99879884 33.64947928 56.00544235 27.98394102 55.99957043 C24.60009656 55.99619819 21.2165126 55.99863308 17.83270454 56.01582146 C14.05925664 56.03065514 10.28670961 56.02010909 6.51329041 56.00291443 C5.39159454 56.0125824 4.26989868 56.02225037 3.11421204 56.0322113 C2.08652206 56.02237717 1.05883209 56.01254303 0 56.00241089 C-0.89208632 56.0022016 -1.78417265 56.00199232 -2.70329189 56.0017767 C-5.87023607 55.33823774 -7.07991545 53.97777228 -9.09242249 51.50120544 C-9.60035706 49.26280212 -9.60035706 49.26280212 -9.61000061 46.79612732 C-9.62260925 45.86836487 -9.6352179 44.94060242 -9.64820862 43.98472595 C-9.64011169 42.98985168 -9.63201477 41.99497742 -9.62367249 40.96995544 C-9.62749939 39.94188782 -9.63132629 38.91382019 -9.63526917 37.854599 C-9.63798922 35.68259196 -9.63062154 33.51055222 -9.61390686 31.33860779 C-9.59249943 28.01315816 -9.61370626 24.68986909 -9.63929749 21.36448669 C-9.63665423 19.25380484 -9.63152929 17.14312433 -9.62367249 15.03245544 C-9.63176941 14.03758118 -9.63986633 13.04270691 -9.64820862 12.01768494 C-9.63559998 11.08992249 -9.62299133 10.16216003 -9.61000061 9.20628357 C-9.60681824 8.39228088 -9.60363586 7.5782782 -9.60035706 6.73960876 C-8.43766205 1.61575913 -4.90482071 0.00115067 0 0 Z M6.90757751 15.50120544 C6.90757751 23.75120544 6.90757751 32.00120544 6.90757751 40.50120544 C39.24757751 40.50120544 71.58757751 40.50120544 104.90757751 40.50120544 C104.90757751 32.25120544 104.90757751 24.00120544 104.90757751 15.50120544 C72.56757751 15.50120544 40.22757751 15.50120544 6.90757751 15.50120544 Z " fill="#E51743" transform="translate(362.09242248535156,171.49879455566406)"/>
<path d="M0 0 C1.53730522 -0.01485695 1.53730522 -0.01485695 3.10566711 -0.03001404 C4.22938721 -0.02551239 5.3531073 -0.02101074 6.51087952 -0.01637268 C7.69482803 -0.02323593 8.87877655 -0.03009918 10.09860229 -0.03717041 C13.34663632 -0.05235096 16.59431135 -0.05392811 19.84236598 -0.04822803 C22.55365244 -0.04514009 25.26488678 -0.05122425 27.97616583 -0.05726677 C34.37254667 -0.07132007 40.76879398 -0.0697443 47.16517639 -0.05836487 C53.76420126 -0.04688435 60.36281968 -0.06095594 66.96179098 -0.08776134 C72.627289 -0.10991335 78.2926594 -0.11655685 83.95819765 -0.11068493 C87.34204212 -0.10731269 90.72562607 -0.10974758 94.10943413 -0.12693596 C97.88288203 -0.14176964 101.65542907 -0.13122359 105.42884827 -0.11402893 C106.55054413 -0.1236969 107.67223999 -0.13336487 108.82792664 -0.14332581 C109.85561661 -0.13349167 110.88330658 -0.12365753 111.94213867 -0.11352539 C112.834225 -0.11331611 113.72631132 -0.11310682 114.64543056 -0.1128912 C117.81136676 0.55043656 119.02125873 1.91341652 121.03456116 4.38768005 C121.54249573 6.58139038 121.54249573 6.58139038 121.55213928 8.98509216 C121.56474792 9.88960617 121.57735657 10.79412018 121.59034729 11.7260437 C121.58225037 12.69590714 121.57415344 13.66577057 121.56581116 14.6650238 C121.56963806 15.66852371 121.57346497 16.67202362 121.57740784 17.70593262 C121.5801279 19.82666528 121.57276016 21.94743144 121.55604553 24.06809998 C121.53466026 27.31015603 121.5558331 30.54999033 121.58143616 33.79197693 C121.57879246 35.85383077 121.57366661 37.91568323 121.56581116 39.9775238 C121.57390808 40.94536301 121.582005 41.91320221 121.59034729 42.91036987 C121.57143433 44.27186913 121.57143433 44.27186913 121.55213928 45.66087341 C121.54895691 46.45489059 121.54577454 47.24890778 121.54249573 48.06698608 C120.75859187 51.64855165 119.8881746 53.0108842 117.03456116 55.38768005 C113.1735357 56.14285025 109.35176042 56.04930004 105.42884827 56.00291443 C103.65029701 56.01123795 103.65029701 56.01123795 101.83581543 56.01972961 C98.58764021 56.02951549 95.34050781 56.01692602 92.09243083 55.99344444 C88.6932258 55.97333174 85.29405581 55.97921513 81.89480591 55.98155212 C76.18758675 55.98149856 70.4806988 55.96174714 64.77357483 55.92967224 C58.17397989 55.89276199 51.57481852 55.88399912 44.97513384 55.89096975 C38.62657751 55.8972728 32.27816994 55.88652538 25.92964363 55.86700439 C23.22753849 55.8588267 20.52550935 55.8561215 17.82339287 55.85769653 C14.05231166 55.85590504 10.28185345 55.83457812 6.51087952 55.80760193 C5.38715942 55.81053253 4.26343933 55.81346313 3.10566711 55.81648254 C2.08079697 55.80513275 1.05592682 55.79378296 0 55.78208923 C-0.8917093 55.77836052 -1.7834186 55.77463181 -2.70214939 55.7707901 C-5.42922905 55.30917366 -6.32005241 54.5746682 -7.96543884 52.38768005 C-8.34638977 50.18687439 -8.34638977 50.18687439 -8.35362244 47.59666443 C-8.36307892 46.62555725 -8.3725354 45.65445007 -8.38227844 44.65391541 C-8.37620575 43.60699524 -8.37013306 42.56007507 -8.36387634 41.48143005 C-8.36674652 40.40518372 -8.3696167 39.32893738 -8.37257385 38.22007751 C-8.37461609 35.94374567 -8.36907514 33.66739634 -8.35655212 31.39109802 C-8.34050139 27.90127932 -8.35639612 24.41261886 -8.37559509 20.9228363 C-8.37361269 18.71319832 -8.36976908 16.50356107 -8.36387634 14.29393005 C-8.36994904 13.24700989 -8.37602173 12.20008972 -8.38227844 11.1214447 C-8.37282196 10.15033752 -8.36336548 9.17923035 -8.35362244 8.17869568 C-8.35123566 7.32392639 -8.34884888 6.4691571 -8.34638977 5.58848572 C-7.50748224 0.74200207 -4.48662586 0.01222599 0 0 Z M7.03456116 15.38768005 C7.03456116 23.63768005 7.03456116 31.88768005 7.03456116 40.38768005 C39.37456116 40.38768005 71.71456116 40.38768005 105.03456116 40.38768005 C105.03456116 32.13768005 105.03456116 23.88768005 105.03456116 15.38768005 C72.69456116 15.38768005 40.35456116 15.38768005 7.03456116 15.38768005 Z " fill="#E51743" transform="translate(37.96543884277344,171.61231994628906)"/>
<path d="M0 0 C1.54153496 -0.01475121 1.54153496 -0.01475121 3.11421204 -0.02980042 C4.2359079 -0.02013245 5.35760376 -0.01046448 6.51329041 -0.00050354 C7.69899124 -0.00590652 8.88469208 -0.01130951 10.10632324 -0.01687622 C13.35435313 -0.02723881 16.60172124 -0.01966347 19.84970784 -0.00316501 C23.24892033 0.01069065 26.64810223 0.00422496 30.04733276 0.0007019 C35.75449661 -0.00199946 41.46145006 0.01147008 47.16856384 0.03465271 C53.76814957 0.06127492 60.3673838 0.06300535 66.96700484 0.05126435 C73.31554735 0.04048892 79.66396263 0.04667089 86.01249504 0.06081963 C88.7146092 0.06658025 91.41663027 0.06649623 94.1187458 0.06175423 C97.88980154 0.05885399 101.66027665 0.07529264 105.43125916 0.09715271 C107.11683929 0.09040024 107.11683929 0.09040024 108.83647156 0.08351135 C109.86134171 0.09341599 110.88621185 0.10332062 111.94213867 0.11352539 C112.83384797 0.11595529 113.72555727 0.11838518 114.64428806 0.12088871 C117.40250512 0.58437167 118.29344615 1.23991455 119.90757751 3.50120544 C120.20583095 6.26539577 120.32802638 8.79969139 120.30601501 11.56370544 C120.31032028 12.74525208 120.31032028 12.74525208 120.31471252 13.95066833 C120.31675273 15.61498229 120.31122584 17.27932025 120.2986908 18.94358826 C120.28263561 21.49198491 120.29853996 24.03879565 120.31773376 26.58714294 C120.31575132 28.20433395 120.31190763 29.82152396 120.30601501 31.43870544 C120.31208771 32.20126648 120.3181604 32.96382751 120.32441711 33.74949646 C120.25436348 39.01538133 120.25436348 39.01538133 118.69365597 41.20182896 C116.32825701 42.92266254 114.85547079 42.88094671 111.94213867 42.8888855 C110.91726852 42.89879013 109.89239838 42.90869476 108.83647156 42.91889954 C107.71275146 42.91439789 106.58903137 42.90989624 105.43125916 42.90525818 C104.24731064 42.91212143 103.06336212 42.91898468 101.84353638 42.92605591 C98.59550235 42.94123646 95.34782732 42.9428136 92.09977269 42.93711352 C89.38848624 42.93402559 86.67725189 42.94010974 83.96597284 42.94615227 C77.569592 42.96020557 71.17334469 42.9586298 64.77696228 42.94725037 C58.17793742 42.93576985 51.57931899 42.94984143 44.98034769 42.97664684 C39.31484967 42.99879884 33.64947928 43.00544235 27.98394102 42.99957043 C24.60009656 42.99619819 21.2165126 42.99863308 17.83270454 43.01582146 C14.05925664 43.03065514 10.28670961 43.02010909 6.51329041 43.00291443 C5.39159454 43.0125824 4.26989868 43.02225037 3.11421204 43.0322113 C2.08652206 43.02237717 1.05883209 43.01254303 0 43.00241089 C-0.89208632 43.0022016 -1.78417265 43.00199232 -2.70329189 43.0017767 C-5.90147318 42.33169294 -7.10015151 41.04450658 -9.09242249 38.50120544 C-9.49065198 35.79925587 -9.65442253 33.51205973 -9.62367249 30.81370544 C-9.62749939 30.0741864 -9.63132629 29.33466736 -9.63526917 28.57273865 C-9.6379852 27.01274755 -9.63064541 25.45271067 -9.61390686 23.89280701 C-9.59248921 21.50863358 -9.61371512 19.12747296 -9.63929749 16.74339294 C-9.63665415 15.22515715 -9.63152904 13.70692322 -9.62367249 12.18870544 C-9.63176941 11.47819031 -9.63986633 10.76767517 -9.64820862 10.03562927 C-9.58705895 6.798409 -9.40144542 4.89569916 -7.37835026 2.31304836 C-4.6564204 0.15562703 -3.43203844 0.00080516 0 0 Z M6.90757751 15.50120544 C6.90757751 19.46120544 6.90757751 23.42120544 6.90757751 27.50120544 C39.24757751 27.50120544 71.58757751 27.50120544 104.90757751 27.50120544 C104.90757751 23.54120544 104.90757751 19.58120544 104.90757751 15.50120544 C72.56757751 15.50120544 40.22757751 15.50120544 6.90757751 15.50120544 Z " fill="#E51743" transform="translate(362.09242248535156,114.49879455566406)"/>
<path d="M0 0 C1.53730522 -0.01485695 1.53730522 -0.01485695 3.10566711 -0.03001404 C4.22938721 -0.02551239 5.3531073 -0.02101074 6.51087952 -0.01637268 C7.69482803 -0.02323593 8.87877655 -0.03009918 10.09860229 -0.03717041 C13.34663632 -0.05235096 16.59431135 -0.05392811 19.84236598 -0.04822803 C22.55365244 -0.04514009 25.26488678 -0.05122425 27.97616583 -0.05726677 C34.37254667 -0.07132007 40.76879398 -0.0697443 47.16517639 -0.05836487 C53.76420126 -0.04688435 60.36281968 -0.06095594 66.96179098 -0.08776134 C72.627289 -0.10991335 78.2926594 -0.11655685 83.95819765 -0.11068493 C87.34204212 -0.10731269 90.72562607 -0.10974758 94.10943413 -0.12693596 C97.88288203 -0.14176964 101.65542907 -0.13122359 105.42884827 -0.11402893 C106.55054413 -0.1236969 107.67223999 -0.13336487 108.82792664 -0.14332581 C109.85561661 -0.13349167 110.88330658 -0.12365753 111.94213867 -0.11352539 C112.834225 -0.11331611 113.72631132 -0.11310682 114.64543056 -0.1128912 C117.84077913 0.55659905 119.04069558 1.85017081 121.03456116 4.38768005 C121.43315977 7.00921802 121.59672826 9.20376035 121.56581116 11.8212738 C121.56963806 12.53622513 121.57346497 13.25117645 121.57740784 13.98779297 C121.58012374 15.49650992 121.5727848 17.00527422 121.55604553 18.51390076 C121.53465856 20.814701 121.55583724 23.11236819 121.58143616 25.41307068 C121.5787922 26.88247857 121.57366581 28.35188453 121.56581116 29.8212738 C121.57390808 30.50475388 121.582005 31.18823395 121.59034729 31.89242554 C121.52994977 34.99356309 121.08783687 37.27834029 119.72756958 40.07006836 C115.41640199 43.78027303 110.93595078 43.06803194 105.42884827 43.00291443 C103.65029701 43.01123795 103.65029701 43.01123795 101.83581543 43.01972961 C98.58764021 43.02951549 95.34050781 43.01692602 92.09243083 42.99344444 C88.6932258 42.97333174 85.29405581 42.97921513 81.89480591 42.98155212 C76.18758675 42.98149856 70.4806988 42.96174714 64.77357483 42.92967224 C58.17397989 42.89276199 51.57481852 42.88399912 44.97513384 42.89096975 C38.62657751 42.8972728 32.27816994 42.88652538 25.92964363 42.86700439 C23.22753849 42.8588267 20.52550935 42.8561215 17.82339287 42.85769653 C14.05231166 42.85590504 10.28185345 42.83457812 6.51087952 42.80760193 C5.38715942 42.81053253 4.26343933 42.81346313 3.10566711 42.81648254 C2.08079697 42.80513275 1.05592682 42.79378296 0 42.78208923 C-0.8917093 42.77836052 -1.7834186 42.77463181 -2.70214939 42.7707901 C-5.45895028 42.30414271 -6.35148632 41.64816125 -7.96543884 39.38768005 C-8.26369228 36.62348973 -8.38588771 34.08919411 -8.36387634 31.32518005 C-8.36818161 30.14363342 -8.36818161 30.14363342 -8.37257385 28.93821716 C-8.37461406 27.2739032 -8.36908717 25.60956525 -8.35655212 23.94529724 C-8.34049693 21.39690059 -8.35640128 18.85008984 -8.37559509 16.30174255 C-8.37361265 14.68455155 -8.36976896 13.06736154 -8.36387634 11.45018005 C-8.36994904 10.68761902 -8.37602173 9.92505798 -8.38227844 9.13938904 C-8.31222481 3.87350417 -8.31222481 3.87350417 -6.7515173 1.68705654 C-4.38611834 -0.03377705 -2.91333212 0.00793879 0 0 Z M7.03456116 15.38768005 C7.03456116 19.34768005 7.03456116 23.30768005 7.03456116 27.38768005 C39.37456116 27.38768005 71.71456116 27.38768005 105.03456116 27.38768005 C105.03456116 23.42768005 105.03456116 19.46768005 105.03456116 15.38768005 C72.69456116 15.38768005 40.35456116 15.38768005 7.03456116 15.38768005 Z " fill="#E51743" transform="translate(37.96543884277344,114.61231994628906)"/>
<path d="M0 0 C0.82830322 -0.00619858 1.65660645 -0.01239716 2.51000977 -0.01878357 C4.25828884 -0.02587592 6.00663554 -0.02271786 7.75488281 -0.01000977 C10.42899824 0.00386215 13.09961732 -0.03022521 15.7734375 -0.06835938 C17.47395919 -0.06931056 19.17448525 -0.06745177 20.875 -0.0625 C21.67301025 -0.07575821 22.47102051 -0.08901642 23.29321289 -0.10267639 C26.81260175 -0.04367381 29.04133463 0.28648496 31.93945312 2.33422852 C34.29800197 7.42302059 34.0073833 12.36791163 33.96875 17.91015625 C33.9725769 19.11200562 33.97640381 20.31385498 33.98034668 21.55212402 C33.98306602 24.0905847 33.97570346 26.62907339 33.95898438 29.16748047 C33.93757721 33.05239349 33.9587876 36.93545699 33.984375 40.8203125 C33.98173173 43.2877645 33.97660678 45.75521535 33.96875 48.22265625 C33.97684692 49.38422241 33.98494385 50.54578857 33.99328613 51.74255371 C33.94072869 56.26366925 33.85447435 59.66674467 31.93945312 63.79858398 C28.37069061 66.32018912 25.08906477 66.26532533 20.875 66.1953125 C19.63254517 66.19893044 19.63254517 66.19893044 18.36499023 66.20262146 C16.61665044 66.20164353 14.86827948 66.18826246 13.12011719 66.16333008 C10.44619412 66.12901781 7.77557608 66.14267185 5.1015625 66.16210938 C3.40102762 66.15521071 1.70050126 66.14553814 0 66.1328125 C-1.19701538 66.1402523 -1.19701538 66.1402523 -2.41821289 66.14784241 C-5.80624821 66.07607167 -8.03174297 65.9703188 -10.77258301 63.88450623 C-12.98729427 61.0162603 -13.06854226 59.53802333 -13.08007812 55.94335938 C-13.09268677 54.8153894 -13.10529541 53.68741943 -13.11828613 52.52526855 C-13.11018921 51.31165649 -13.10209229 50.09804443 -13.09375 48.84765625 C-13.0975769 47.59762817 -13.10140381 46.3476001 -13.10534668 45.05969238 C-13.10806914 42.4163472 -13.10269953 39.77448139 -13.08398438 37.13134766 C-13.06119354 33.74823134 -13.07431983 30.36638428 -13.09827423 26.98331451 C-13.11622684 23.75054992 -13.10364701 20.51793743 -13.09375 17.28515625 C-13.10184692 16.07154419 -13.10994385 14.85793213 -13.11828613 13.60754395 C-13.10567749 12.47957397 -13.09306885 11.351604 -13.08007812 10.18945312 C-13.07689575 9.19780151 -13.07371338 8.2061499 -13.07043457 7.18444824 C-11.68990743 0.06881125 -6.17420275 -0.03837449 0 0 Z M3.4375 15.56640625 C3.4375 27.11640625 3.4375 38.66640625 3.4375 50.56640625 C8.0575 50.56640625 12.6775 50.56640625 17.4375 50.56640625 C17.4375 39.01640625 17.4375 27.46640625 17.4375 15.56640625 C12.8175 15.56640625 8.1975 15.56640625 3.4375 15.56640625 Z " fill="#E51743" transform="translate(377.5625,331.43359375)"/>
<path d="M0 0 C1.24245483 -0.00361794 1.24245483 -0.00361794 2.51000977 -0.00730896 C4.25834956 -0.00633103 6.00672052 0.00705004 7.75488281 0.03198242 C10.42880588 0.06629469 13.09942392 0.05264065 15.7734375 0.03320312 C17.47397238 0.04010179 19.17449874 0.04977436 20.875 0.0625 C22.07201538 0.0550602 22.07201538 0.0550602 23.29321289 0.04747009 C26.68124821 0.11924083 28.90674297 0.2249937 31.64758301 2.31080627 C33.86229427 5.1790522 33.94354226 6.65728917 33.95507812 10.25195312 C33.96768677 11.3799231 33.98029541 12.50789307 33.99328613 13.67004395 C33.98518921 14.88365601 33.97709229 16.09726807 33.96875 17.34765625 C33.9725769 18.59768433 33.97640381 19.8477124 33.98034668 21.13562012 C33.98306914 23.7789653 33.97769953 26.42083111 33.95898438 29.06396484 C33.93619354 32.44708116 33.94931983 35.82892822 33.97327423 39.21199799 C33.99122684 42.44476258 33.97864701 45.67737507 33.96875 48.91015625 C33.97684692 50.12376831 33.98494385 51.33738037 33.99328613 52.58776855 C33.98067749 53.71573853 33.96806885 54.8437085 33.95507812 56.00585938 C33.95030457 57.49333679 33.95030457 57.49333679 33.94543457 59.01086426 C33.29115096 62.38323164 32.14579422 63.56786144 29.4375 65.62890625 C26.45769608 66.03870431 23.85428683 66.21382965 20.875 66.1953125 C20.04669678 66.20151108 19.21839355 66.20770966 18.36499023 66.21409607 C16.61671116 66.22118842 14.86836446 66.21803036 13.12011719 66.20532227 C10.44600176 66.19145035 7.77538268 66.22553771 5.1015625 66.26367188 C3.40104081 66.26462306 1.70051475 66.26276427 0 66.2578125 C-0.79801025 66.27107071 -1.59602051 66.28432892 -2.41821289 66.29798889 C-5.93760175 66.23898631 -8.16633463 65.90882754 -11.06445312 63.86108398 C-13.42300197 58.77229191 -13.1323833 53.82740087 -13.09375 48.28515625 C-13.0975769 47.08330688 -13.10140381 45.88145752 -13.10534668 44.64318848 C-13.10806602 42.1047278 -13.10070346 39.56623911 -13.08398438 37.02783203 C-13.06257721 33.14291901 -13.0837876 29.25985551 -13.109375 25.375 C-13.10673173 22.907548 -13.10160678 20.44009715 -13.09375 17.97265625 C-13.10184692 16.81109009 -13.10994385 15.64952393 -13.11828613 14.45275879 C-13.06572869 9.93164325 -12.97947435 6.52856783 -11.06445312 2.39672852 C-7.49569061 -0.12487662 -4.21406477 -0.07001283 0 0 Z M3.4375 15.62890625 C3.4375 27.17890625 3.4375 38.72890625 3.4375 50.62890625 C8.0575 50.62890625 12.6775 50.62890625 17.4375 50.62890625 C17.4375 39.07890625 17.4375 27.52890625 17.4375 15.62890625 C12.8175 15.62890625 8.1975 15.62890625 3.4375 15.62890625 Z " fill="#E51743" transform="translate(53.5625,331.37109375)"/>
<path d="M0 0 C0.99 0.03287109 0.99 0.03287109 2 0.06640625 C2.66 0.06511719 3.32 0.06382812 4 0.0625 C7.15680516 0.95651709 8.15187839 1.86899013 10 4.62890625 C10.4922444 8.22404837 10.37532148 11.75904358 10.25 15.37890625 C10.23195313 16.36246094 10.21390625 17.34601563 10.1953125 18.359375 C10.14825241 20.78296966 10.07651086 23.2060625 10 25.62890625 C14.62 25.62890625 19.24 25.62890625 24 25.62890625 C23.95359375 24.24316406 23.9071875 22.85742188 23.859375 21.4296875 C23.82184873 19.60028201 23.78544949 17.77085316 23.75 15.94140625 C23.69972656 14.57338867 23.69972656 14.57338867 23.6484375 13.17773438 C23.58599463 8.8847868 23.61043586 6.31495284 25.765625 2.51953125 C28.11268575 0.53355677 28.98033141 -0.03385618 32 0.06640625 C32.66 0.06511719 33.32 0.06382812 34 0.0625 C36.90235766 0.88445676 38.09531676 2.31610272 40 4.62890625 C40.50793457 7.24694824 40.50793457 7.24694824 40.51757812 10.25195312 C40.53018677 11.3799231 40.54279541 12.50789307 40.55578613 13.67004395 C40.54768921 14.88365601 40.53959229 16.09726807 40.53125 17.34765625 C40.5350769 18.59768433 40.53890381 19.8477124 40.54284668 21.13562012 C40.54556914 23.7789653 40.54019953 26.42083111 40.52148438 29.06396484 C40.49869354 32.44708116 40.51181983 35.82892822 40.53577423 39.21199799 C40.55372684 42.44476258 40.54114701 45.67737507 40.53125 48.91015625 C40.53934692 50.12376831 40.54744385 51.33738037 40.55578613 52.58776855 C40.54317749 53.71573853 40.53056885 54.8437085 40.51757812 56.00585938 C40.51280457 57.49333679 40.51280457 57.49333679 40.50793457 59.01086426 C39.8618663 62.34088738 38.60786286 63.53035476 36 65.62890625 C34 66.1953125 34 66.1953125 32 66.19140625 C31.01 66.22427734 31.01 66.22427734 30 66.2578125 C26.6513168 65.2048086 25.72276257 63.66279785 24 60.62890625 C23.52476228 57.17494637 23.62218901 53.79433983 23.75 50.31640625 C23.76804688 49.38505859 23.78609375 48.45371094 23.8046875 47.49414062 C23.85165112 45.20466428 23.91730525 42.91732441 24 40.62890625 C23.23333008 40.65509033 22.46666016 40.68127441 21.67675781 40.70825195 C18.20138051 40.81221848 14.72633017 40.87723349 11.25 40.94140625 C10.0434375 40.98330078 8.836875 41.02519531 7.59375 41.06835938 C6.43359375 41.08447266 5.2734375 41.10058594 4.078125 41.1171875 C3.00981445 41.14337158 1.94150391 41.16955566 0.84082031 41.1965332 C-2 40.62890625 -2 40.62890625 -4.34667969 38.52807617 C-6.34918701 35.01659146 -6.51608751 32.78279685 -6.53125 28.75390625 C-6.53640625 27.4390625 -6.5415625 26.12421875 -6.546875 24.76953125 C-6.53849609 24.08955078 -6.53011719 23.40957031 -6.52148438 22.70898438 C-6.50005496 20.63422731 -6.52131059 18.56293164 -6.546875 16.48828125 C-6.54171875 15.1734375 -6.5365625 13.85859375 -6.53125 12.50390625 C-6.52673828 11.30507813 -6.52222656 10.10625 -6.51757812 8.87109375 C-5.85648706 4.7299195 -4.21369878 1.32501075 0 0 Z " fill="#E51743" transform="translate(107,331.37109375)"/>
<path d="M0 0 C0.95976242 -0.00700928 1.91952484 -0.01401855 2.90837097 -0.02124023 C6.08178617 -0.03884947 9.25431006 -0.02718677 12.42773438 -0.01367188 C14.63204113 -0.01636594 16.83634673 -0.02024764 19.04064941 -0.02526855 C23.66084099 -0.03116759 28.28072327 -0.02258735 32.90087891 -0.00390625 C38.82624174 0.01888322 44.75087989 0.00576235 50.67621613 -0.01819611 C55.22810334 -0.03264295 59.77981845 -0.02805314 64.33171082 -0.01768494 C66.51661769 -0.01501458 68.70154014 -0.0182982 70.88642883 -0.02760315 C73.93903049 -0.03775012 76.99045489 -0.02229293 80.04296875 0 C80.94802658 -0.00809692 81.85308441 -0.01619385 82.78556824 -0.02453613 C88.87234286 0.05791007 88.87234286 0.05791007 92.0826416 2.33117676 C94.20326182 5.55357675 94.05970662 7.75002242 93.52148438 11.51757812 C92.0826416 13.70397949 92.0826416 13.70397949 89.52148438 15.51757812 C86.36489581 16.11512133 83.24768252 16.0638266 80.04296875 16.03515625 C79.08320633 16.04216553 78.12344391 16.0491748 77.13459778 16.05639648 C73.96118258 16.07400572 70.78865869 16.06234302 67.61523438 16.04882812 C65.41092762 16.05152219 63.20662202 16.05540389 61.00231934 16.0604248 C56.38212776 16.06632384 51.76224548 16.0577436 47.14208984 16.0390625 C41.21672701 16.01627303 35.29208886 16.0293939 29.36675262 16.05335236 C24.81486541 16.0677992 20.2631503 16.06320939 15.71125793 16.05284119 C13.52635106 16.05017083 11.34142861 16.05345445 9.15653992 16.0627594 C6.10393826 16.07290637 3.05251386 16.05744918 0 16.03515625 C-0.90505783 16.04325317 -1.81011566 16.0513501 -2.74259949 16.05969238 C-8.82937411 15.97724618 -8.82937411 15.97724618 -12.03967285 13.70397949 C-14.16029307 10.4815795 -14.01673787 8.28513383 -13.47851562 4.51757812 C-10.06439025 -0.67037467 -5.63988113 -0.0504561 0 0 Z " fill="#E51743" transform="translate(186.478515625,211.482421875)"/>
<path d="M0 0 C1.24457726 -0.00786278 1.24457726 -0.00786278 2.51429749 -0.0158844 C4.26855348 -0.02230571 6.02285253 -0.02096615 7.77709961 -0.01245117 C10.45960325 -0.00394763 13.1399728 -0.03268816 15.82226562 -0.06445312 C17.52734311 -0.06606542 19.23242437 -0.06548706 20.9375 -0.0625 C21.73864731 -0.07373398 22.53979462 -0.08496796 23.36521912 -0.09654236 C26.80879662 -0.0535164 29.12842079 0.17815621 32.07250977 2.02709961 C34.07140571 5.31588568 34.22836069 7.75029771 33.53515625 11.43359375 C32.34744377 15.35396467 30.84304166 19.12122549 29.30078125 22.9140625 C28.86634705 24.00447342 28.43191284 25.09488434 27.98431396 26.21833801 C27.06540195 28.51599861 26.14048405 30.81126522 25.20996094 33.10424805 C23.78839762 36.61309309 22.39101882 40.13088359 20.99609375 43.65039062 C20.0990867 45.8846894 19.20069579 48.1184332 18.30078125 50.3515625 C17.88395081 51.40264694 17.46712036 52.45373138 17.03765869 53.53666687 C16.63754578 54.5148085 16.23743286 55.49295013 15.82519531 56.50073242 C15.47877991 57.35898117 15.1323645 58.21722992 14.77545166 59.10148621 C13.36752762 61.74878318 11.78936508 63.46917061 9.53515625 65.43359375 C6.76935639 66.21687691 4.32759343 66.08459138 1.53515625 65.43359375 C-1.02734375 63.37109375 -1.02734375 63.37109375 -2.46484375 60.43359375 C-2.09525369 54.63579143 -0.24509494 49.75323217 1.9140625 44.4375 C2.24558823 43.60395493 2.57711395 42.77040985 2.91868591 41.91160583 C3.97116708 39.27016803 5.03421962 36.63313732 6.09765625 33.99609375 C6.81645962 32.19754699 7.53456596 30.39872149 8.25195312 28.59960938 C10.00497203 24.20767117 11.76747943 19.81965178 13.53515625 15.43359375 C12.56690918 15.47286987 12.56690918 15.47286987 11.57910156 15.51293945 C8.64803508 15.61701814 5.71735716 15.68195185 2.78515625 15.74609375 C1.26148438 15.80893555 1.26148438 15.80893555 -0.29296875 15.87304688 C-7.80026224 15.9965221 -7.80026224 15.9965221 -11.171875 13.140625 C-12.93033234 9.45902097 -12.54455321 7.32054781 -11.46484375 3.43359375 C-8.88605834 -0.78406881 -4.41438727 -0.01613484 0 0 Z " fill="#E51743" transform="translate(278.46484375,331.56640625)"/>
<path d="M0 0 C0.82830322 -0.00619858 1.65660645 -0.01239716 2.51000977 -0.01878357 C4.25828884 -0.02587592 6.00663554 -0.02271786 7.75488281 -0.01000977 C10.42899824 0.00386215 13.09961732 -0.03022521 15.7734375 -0.06835938 C17.47395919 -0.06931056 19.17448525 -0.06745177 20.875 -0.0625 C21.67301025 -0.07575821 22.47102051 -0.08901642 23.29321289 -0.10267639 C27.06305541 -0.03947496 29.0707045 0.26962595 32.03515625 2.66821289 C34.28133271 7.31033698 33.15581017 10.45807957 31.57672119 15.09289551 C30.45855188 18.11143476 29.27475003 21.09688016 28.0703125 24.08203125 C27.63492157 25.17481384 27.19953064 26.26759644 26.75094604 27.39349365 C25.83175662 29.6945207 24.90867029 31.99399442 23.98193359 34.29199219 C22.56354182 37.81381943 21.16187159 41.34198174 19.76171875 44.87109375 C18.86557853 47.10847178 17.96847609 49.3454647 17.0703125 51.58203125 C16.44203049 53.16639984 16.44203049 53.16639984 15.80105591 54.78277588 C15.40409515 55.76099304 15.0071344 56.73921021 14.59814453 57.74707031 C14.25252472 58.60753967 13.90690491 59.46800903 13.55081177 60.35455322 C12.39952851 62.64184545 11.47247661 64.01763297 9.4375 65.56640625 C2.64504717 66.32112323 2.64504717 66.32112323 -1.0625 64.00390625 C-3.14899247 60.61335598 -2.86577266 58.53447127 -2.5625 54.56640625 C-1.69235682 51.47236818 -0.50639179 48.53910031 0.71875 45.5703125 C1.05169067 44.73676743 1.38463135 43.90322235 1.72766113 43.04441833 C2.78640123 40.40124297 3.86162991 37.765149 4.9375 35.12890625 C5.66125811 33.33052117 6.3839262 31.53169702 7.10546875 29.73242188 C8.870237 25.33856763 10.64981684 20.95098448 12.4375 16.56640625 C11.51469238 16.5523877 11.51469238 16.5523877 10.57324219 16.53808594 C7.77718914 16.4842954 4.9827938 16.40066806 2.1875 16.31640625 C1.21941406 16.30222656 0.25132812 16.28804688 -0.74609375 16.2734375 C-7.89742944 16.02683972 -7.89742944 16.02683972 -11.203125 13.73828125 C-13.22251689 10.51189651 -13.09406041 8.28732913 -12.5625 4.56640625 C-9.29163348 -0.20698789 -5.34837661 -0.03324174 0 0 Z " fill="#E51743" transform="translate(437.5625,331.43359375)"/>
<path d="M0 0 C0.95455078 -0.01998047 1.90910156 -0.03996094 2.89257812 -0.06054688 C3.81361328 -0.05990234 4.73464844 -0.05925781 5.68359375 -0.05859375 C6.5233374 -0.06044678 7.36308105 -0.0622998 8.22827148 -0.06420898 C11.42763545 0.62344847 12.51259761 1.91640408 14.5625 4.4375 C15.07043457 7.05554199 15.07043457 7.05554199 15.08007812 10.06054688 C15.09268677 11.18851685 15.10529541 12.31648682 15.11828613 13.4786377 C15.11018921 14.69224976 15.10209229 15.90586182 15.09375 17.15625 C15.0975769 18.40627808 15.10140381 19.65630615 15.10534668 20.94421387 C15.10806914 23.58755905 15.10269953 26.22942486 15.08398438 28.87255859 C15.06119354 32.25567491 15.07431983 35.63752197 15.09827423 39.02059174 C15.11622684 42.25335633 15.10364701 45.48596882 15.09375 48.71875 C15.10184692 49.93236206 15.10994385 51.14597412 15.11828613 52.3963623 C15.10567749 53.52433228 15.09306885 54.65230225 15.08007812 55.81445312 C15.07530457 57.30193054 15.07530457 57.30193054 15.07043457 58.81945801 C14.4243663 62.14948113 13.17036286 63.33894851 10.5625 65.4375 C8.5625 66.00390625 8.5625 66.00390625 6.5625 66 C5.5725 66.03287109 5.5725 66.03287109 4.5625 66.06640625 C1.27280275 65.03195067 0.35157641 63.36349078 -1.4375 60.4375 C-1.9879453 56.98859518 -1.90318463 53.59034093 -1.828125 50.10546875 C-1.81963531 48.61784782 -1.81963531 48.61784782 -1.81097412 47.10017395 C-1.78863344 43.94128586 -1.73844038 40.78354364 -1.6875 37.625 C-1.66743206 35.47983412 -1.6491818 33.33465041 -1.6328125 31.18945312 C-1.58877645 25.93841297 -1.5218875 20.68803836 -1.4375 15.4375 C-2.0567334 15.46142822 -2.6759668 15.48535645 -3.31396484 15.51000977 C-4.53140381 15.53792603 -4.53140381 15.53792603 -5.7734375 15.56640625 C-6.5782959 15.59033447 -7.3831543 15.6142627 -8.21240234 15.63891602 C-10.4375 15.4375 -10.4375 15.4375 -13.0625 13.375 C-14.8533923 9.54900281 -14.55796692 7.47118093 -13.4375 3.4375 C-10.03767711 -1.09888586 -5.19589186 -0.03843632 0 0 Z " fill="#E51743" transform="translate(237.4375,331.5625)"/>
<path d="M0 0 C1.30823227 -0.01268417 2.61646454 -0.02536835 3.96434021 -0.03843689 C5.39427854 -0.03638538 6.82421579 -0.0333973 8.25415039 -0.02954102 C9.72001895 -0.03410174 11.18588536 -0.03940699 12.65174866 -0.04542542 C15.72430099 -0.05436212 18.79659349 -0.05192751 21.86914062 -0.04199219 C25.80484005 -0.0305054 29.73964187 -0.05070546 33.67522335 -0.07990932 C36.70274037 -0.09826523 39.73004208 -0.09798011 42.75760078 -0.0922718 C44.20846376 -0.09211849 45.65934123 -0.09817118 47.11015129 -0.11056328 C49.13979037 -0.12545575 51.16957697 -0.11217523 53.19921875 -0.09765625 C54.3537706 -0.09749008 55.50832245 -0.09732391 56.69786072 -0.09715271 C60.3030525 0.5119741 61.48279141 1.51861174 63.66430664 4.40405273 C64.30115162 8.145517 64.02765759 9.81244966 62.03613281 13.05502319 C58.9711713 16.09052606 57.47745795 16.03630108 53.21508789 16.05102539 C51.25285278 16.0746666 51.25285278 16.0746666 49.25097656 16.0987854 C47.82624469 16.08983563 46.40152049 16.07958064 44.97680664 16.06811523 C43.5123657 16.0714846 42.04792748 16.07633822 40.58349609 16.08261108 C37.51673719 16.08997695 34.45070725 16.07928757 31.3840332 16.0559082 C27.45595786 16.02741882 23.52959045 16.04382458 19.60157776 16.07377052 C16.57827928 16.09185227 13.55538473 16.08608185 10.53207397 16.07313156 C9.08401283 16.06979988 7.63591482 16.07387638 6.18789673 16.08552933 C4.16311357 16.09824846 2.13820156 16.07541889 0.11352539 16.05102539 C-1.03801025 16.04704742 -2.1895459 16.04306946 -3.37597656 16.03897095 C-6.33569336 15.40405273 -6.33569336 15.40405273 -8.74267578 13.09017944 C-10.33569336 10.40405273 -10.33569336 10.40405273 -10.27319336 6.77905273 C-8.55681168 0.60007868 -6.21065385 0.02908419 0 0 Z " fill="#E51743" transform="translate(260.335693359375,301.595947265625)"/>
<path d="M0 0 C1.14799072 -0.01583633 2.29598145 -0.03167267 3.47875977 -0.04798889 C4.71424561 -0.04302902 5.94973145 -0.03806915 7.22265625 -0.03295898 C8.49488037 -0.03915756 9.76710449 -0.04535614 11.07788086 -0.05174255 C13.76829885 -0.05884811 16.45722299 -0.05759748 19.14746094 -0.04296875 C22.59129057 -0.025773 26.03345295 -0.04928543 29.47709656 -0.08445835 C32.76730326 -0.11172283 36.05736843 -0.1016969 39.34765625 -0.09545898 C40.58314209 -0.10871719 41.81862793 -0.1219754 43.09155273 -0.13563538 C44.23954346 -0.12310226 45.38753418 -0.11056915 46.5703125 -0.09765625 C47.579729 -0.09669449 48.58914551 -0.09573273 49.62915039 -0.09474182 C52.28515625 0.53344727 52.28515625 0.53344727 54.64624023 2.84632874 C56.28515625 5.53344727 56.28515625 5.53344727 56.22265625 9.15844727 C55.00638186 13.53703506 55.00638186 13.53703506 52.28515625 15.53344727 C49.74940491 15.92112732 49.74940491 15.92112732 46.68383789 15.9375 C45.53577164 15.95018417 44.38770538 15.96286835 43.20484924 15.97593689 C41.34387856 15.97153343 41.34387856 15.97153343 39.4453125 15.96704102 C37.5348539 15.97490379 37.5348539 15.97490379 35.58580017 15.98292542 C32.88965056 15.98935516 30.19434532 15.98943156 27.49829102 15.97949219 C24.0468173 15.96800659 20.59636732 15.98820425 17.14502811 16.01740932 C13.84928431 16.04019093 10.55361661 16.0333039 7.2578125 16.02954102 C6.01918961 16.04077499 4.78056671 16.05200897 3.50440979 16.06358337 C2.35319138 16.05420242 1.20197296 16.04482147 0.01586914 16.03515625 C-1.50277992 16.034907 -1.50277992 16.034907 -3.05210876 16.03465271 C-6.45127715 15.39482873 -7.63449108 14.25331007 -9.71484375 11.53344727 C-10.21484375 8.03344727 -10.21484375 8.03344727 -9.71484375 4.53344727 C-6.77804113 0.69961248 -4.75317431 0.02918807 0 0 Z " fill="#E51743" transform="translate(394.71484375,301.466552734375)"/>
<path d="M0 0 C1.14806625 -0.01268417 2.29613251 -0.02536835 3.47898865 -0.03843689 C5.33995934 -0.03403343 5.33995934 -0.03403343 7.23852539 -0.02954102 C8.51216446 -0.03478287 9.78580353 -0.04002472 11.09803772 -0.04542542 C13.79418733 -0.05185516 16.48949257 -0.05193156 19.18554688 -0.04199219 C22.63702059 -0.03050659 26.08747057 -0.05070425 29.53880978 -0.07990932 C32.83455358 -0.10269093 36.13022128 -0.0958039 39.42602539 -0.09204102 C40.66464828 -0.10327499 41.90327118 -0.11450897 43.1794281 -0.12608337 C44.33064651 -0.11670242 45.48186493 -0.10732147 46.66796875 -0.09765625 C48.18661781 -0.097407 48.18661781 -0.097407 49.73594666 -0.09715271 C53.13511504 0.54267127 54.31832897 1.68418993 56.39868164 4.40405273 C56.89868164 7.90405273 56.89868164 7.90405273 56.39868164 11.40405273 C54.32127305 14.11599574 53.1296428 15.26241179 49.74267578 15.91871643 C48.22855103 15.9280143 48.22855103 15.9280143 46.68383789 15.9375 C45.53584717 15.95333633 44.38785645 15.96917267 43.20507812 15.98548889 C41.35184937 15.97804909 41.35184937 15.97804909 39.46118164 15.97045898 C38.18895752 15.97665756 36.9167334 15.98285614 35.60595703 15.98924255 C32.91553904 15.99634811 30.2266149 15.99509748 27.53637695 15.98046875 C24.09254732 15.963273 20.65038494 15.98678543 17.20674133 16.02195835 C13.91653463 16.04922283 10.62646946 16.0391969 7.33618164 16.03295898 C5.48295288 16.0528463 5.48295288 16.0528463 3.59228516 16.07313538 C2.44429443 16.06060226 1.29630371 16.04806915 0.11352539 16.03515625 C-0.89589111 16.03419449 -1.90530762 16.03323273 -2.9453125 16.03224182 C-5.60131836 15.40405273 -5.60131836 15.40405273 -7.96240234 13.09117126 C-9.60131836 10.40405273 -9.60131836 10.40405273 -9.53881836 6.77905273 C-7.93270357 0.99703949 -5.86628383 0.03133084 0 0 Z " fill="#E51743" transform="translate(70.601318359375,301.595947265625)"/>
<path d="M0 0 C1.14799072 -0.01583633 2.29598145 -0.03167267 3.47875977 -0.04798889 C4.71424561 -0.04302902 5.94973145 -0.03806915 7.22265625 -0.03295898 C8.49488037 -0.03915756 9.76710449 -0.04535614 11.07788086 -0.05174255 C13.76829885 -0.05884811 16.45722299 -0.05759748 19.14746094 -0.04296875 C22.59129057 -0.025773 26.03345295 -0.04928543 29.47709656 -0.08445835 C32.76730326 -0.11172283 36.05736843 -0.1016969 39.34765625 -0.09545898 C40.58314209 -0.10871719 41.81862793 -0.1219754 43.09155273 -0.13563538 C44.23954346 -0.12310226 45.38753418 -0.11056915 46.5703125 -0.09765625 C47.579729 -0.09669449 48.58914551 -0.09573273 49.62915039 -0.09474182 C52.28515625 0.53344727 52.28515625 0.53344727 54.64624023 2.84632874 C56.28515625 5.53344727 56.28515625 5.53344727 56.22265625 9.15844727 C55.00638186 13.53703506 55.00638186 13.53703506 52.28515625 15.53344727 C49.74940491 15.92112732 49.74940491 15.92112732 46.68383789 15.9375 C45.53577164 15.95018417 44.38770538 15.96286835 43.20484924 15.97593689 C41.34387856 15.97153343 41.34387856 15.97153343 39.4453125 15.96704102 C37.5348539 15.97490379 37.5348539 15.97490379 35.58580017 15.98292542 C32.88965056 15.98935516 30.19434532 15.98943156 27.49829102 15.97949219 C24.0468173 15.96800659 20.59636732 15.98820425 17.14502811 16.01740932 C13.84928431 16.04019093 10.55361661 16.0333039 7.2578125 16.02954102 C6.01918961 16.04077499 4.78056671 16.05200897 3.50440979 16.06358337 C2.35319138 16.05420242 1.20197296 16.04482147 0.01586914 16.03515625 C-1.50277992 16.034907 -1.50277992 16.034907 -3.05210876 16.03465271 C-6.45127715 15.39482873 -7.63449108 14.25331007 -9.71484375 11.53344727 C-10.21484375 8.03344727 -10.21484375 8.03344727 -9.71484375 4.53344727 C-6.77804113 0.69961248 -4.75317431 0.02918807 0 0 Z " fill="#E51743" transform="translate(394.71484375,241.466552734375)"/>
<path d="M0 0 C1.14806625 -0.01268417 2.29613251 -0.02536835 3.47898865 -0.03843689 C5.33995934 -0.03403343 5.33995934 -0.03403343 7.23852539 -0.02954102 C8.51216446 -0.03478287 9.78580353 -0.04002472 11.09803772 -0.04542542 C13.79418733 -0.05185516 16.48949257 -0.05193156 19.18554688 -0.04199219 C22.63702059 -0.03050659 26.08747057 -0.05070425 29.53880978 -0.07990932 C32.83455358 -0.10269093 36.13022128 -0.0958039 39.42602539 -0.09204102 C40.66464828 -0.10327499 41.90327118 -0.11450897 43.1794281 -0.12608337 C44.33064651 -0.11670242 45.48186493 -0.10732147 46.66796875 -0.09765625 C48.18661781 -0.097407 48.18661781 -0.097407 49.73594666 -0.09715271 C53.13511504 0.54267127 54.31832897 1.68418993 56.39868164 4.40405273 C56.89868164 7.90405273 56.89868164 7.90405273 56.39868164 11.40405273 C54.32127305 14.11599574 53.1296428 15.26241179 49.74267578 15.91871643 C48.22855103 15.9280143 48.22855103 15.9280143 46.68383789 15.9375 C45.53584717 15.95333633 44.38785645 15.96917267 43.20507812 15.98548889 C41.35184937 15.97804909 41.35184937 15.97804909 39.46118164 15.97045898 C38.18895752 15.97665756 36.9167334 15.98285614 35.60595703 15.98924255 C32.91553904 15.99634811 30.2266149 15.99509748 27.53637695 15.98046875 C24.09254732 15.963273 20.65038494 15.98678543 17.20674133 16.02195835 C13.91653463 16.04922283 10.62646946 16.0391969 7.33618164 16.03295898 C5.48295288 16.0528463 5.48295288 16.0528463 3.59228516 16.07313538 C2.44429443 16.06060226 1.29630371 16.04806915 0.11352539 16.03515625 C-0.89589111 16.03419449 -1.90530762 16.03323273 -2.9453125 16.03224182 C-5.60131836 15.40405273 -5.60131836 15.40405273 -7.96240234 13.09117126 C-9.60131836 10.40405273 -9.60131836 10.40405273 -9.53881836 6.77905273 C-7.93270357 0.99703949 -5.86628383 0.03133084 0 0 Z " fill="#E51743" transform="translate(70.601318359375,241.595947265625)"/>
<path d="M0 0 C1.14799072 -0.01260864 2.29598145 -0.02521729 3.47875977 -0.03820801 C4.71424561 -0.03011108 5.94973145 -0.02201416 7.22265625 -0.01367188 C8.49488037 -0.01749878 9.76710449 -0.02132568 11.07788086 -0.02526855 C13.76829452 -0.02799114 16.45725496 -0.02262001 19.14746094 -0.00390625 C22.5911037 0.01888451 26.03349952 0.00575844 29.47709656 -0.01819611 C32.76732753 -0.0361474 36.057409 -0.02356908 39.34765625 -0.01367188 C40.58314209 -0.0217688 41.81862793 -0.02986572 43.09155273 -0.03820801 C44.81353882 -0.01929504 44.81353882 -0.01929504 46.5703125 0 C47.579729 0.00318237 48.58914551 0.00636475 49.62915039 0.00964355 C53.006791 0.65558356 54.1966088 1.83371698 56.28515625 4.51757812 C56.92650603 8.28550806 56.65794169 9.92703437 54.61108398 13.16954041 C52.28515625 15.51757812 52.28515625 15.51757812 49.62915039 16.14576721 C48.11502563 16.14720985 48.11502563 16.14720985 46.5703125 16.14868164 C45.42232178 16.16121475 44.27433105 16.17374786 43.09155273 16.18666077 C41.85606689 16.17340256 40.62058105 16.16014435 39.34765625 16.14648438 C38.07543213 16.14889633 36.80320801 16.15130829 35.49243164 16.15379333 C32.80171235 16.1528135 30.11321276 16.14198095 27.42285156 16.11450195 C23.97916669 16.08041714 20.53697218 16.08643838 17.09321594 16.10516453 C13.80294284 16.11829042 10.51289716 16.10001521 7.22265625 16.08398438 C5.98717041 16.08894424 4.75168457 16.09390411 3.47875977 16.09901428 C2.33076904 16.08317795 1.18277832 16.06734161 0 16.05102539 C-1.0094165 16.04482681 -2.01883301 16.03862823 -3.05883789 16.03224182 C-6.4458049 15.37593718 -7.63743515 14.22952113 -9.71484375 11.51757812 C-10.21484375 8.01757812 -10.21484375 8.01757812 -9.71484375 4.51757812 C-6.77662035 0.68014781 -4.75664327 0.0149962 0 0 Z " fill="#E51743" transform="translate(232.71484375,241.482421875)"/>
<path d="M0 0 C1.17018677 -0.00717545 1.17018677 -0.00717545 2.36401367 -0.01449585 C4.00799586 -0.01788758 5.65204615 -0.00873581 7.29589844 0.01220703 C9.80557295 0.03898858 12.31077629 0.0124405 14.8203125 -0.01953125 C16.42188482 -0.01622702 18.02345438 -0.00982049 19.625 0 C20.37096436 -0.01012115 21.11692871 -0.02024231 21.88549805 -0.03067017 C25.84706368 0.05799032 27.64332362 0.53009415 30.78515625 3.01806641 C32.8125 5.6640625 32.8125 5.6640625 33.4375 8.6640625 C32.58312757 12.76505016 31.08123135 14.07560096 27.8125 16.6640625 C24.88313764 17.16372845 22.54659945 17.36776491 19.625 17.328125 C18.45481323 17.33530045 18.45481323 17.33530045 17.26098633 17.34262085 C15.61700414 17.34601258 13.97295385 17.33686081 12.32910156 17.31591797 C9.81942705 17.28913642 7.31422371 17.3156845 4.8046875 17.34765625 C3.20311518 17.34435202 1.60154562 17.33794549 0 17.328125 C-0.74596436 17.33824615 -1.49192871 17.34836731 -2.26049805 17.35879517 C-6.22206368 17.27013468 -8.01832362 16.79803085 -11.16015625 14.31005859 C-13.1875 11.6640625 -13.1875 11.6640625 -13.8125 8.6640625 C-12.25458215 1.1860568 -6.81122327 -0.09241386 0 0 Z " fill="#E51743" transform="translate(276.1875,147.3359375)"/>
<path d="M0 0 C1.17018677 -0.00717545 1.17018677 -0.00717545 2.36401367 -0.01449585 C4.00799586 -0.01788758 5.65204615 -0.00873581 7.29589844 0.01220703 C9.80557295 0.03898858 12.31077629 0.0124405 14.8203125 -0.01953125 C16.42188482 -0.01622702 18.02345438 -0.00982049 19.625 0 C20.37096436 -0.01012115 21.11692871 -0.02024231 21.88549805 -0.03067017 C25.84706368 0.05799032 27.64332362 0.53009415 30.78515625 3.01806641 C32.8125 5.6640625 32.8125 5.6640625 33.4375 8.6640625 C32.58312757 12.76505016 31.08123135 14.07560096 27.8125 16.6640625 C24.88313764 17.16372845 22.54659945 17.36776491 19.625 17.328125 C18.45481323 17.33530045 18.45481323 17.33530045 17.26098633 17.34262085 C15.61700414 17.34601258 13.97295385 17.33686081 12.32910156 17.31591797 C9.81942705 17.28913642 7.31422371 17.3156845 4.8046875 17.34765625 C3.20311518 17.34435202 1.60154562 17.33794549 0 17.328125 C-0.74596436 17.33824615 -1.49192871 17.34836731 -2.26049805 17.35879517 C-6.22206368 17.27013468 -8.01832362 16.79803085 -11.16015625 14.31005859 C-13.1875 11.6640625 -13.1875 11.6640625 -13.8125 8.6640625 C-12.25458215 1.1860568 -6.81122327 -0.09241386 0 0 Z " fill="#E51743" transform="translate(216.1875,147.3359375)"/>
<path d="M0 0 C0.87269531 -0.0038269 1.74539062 -0.00765381 2.64453125 -0.01159668 C4.48699092 -0.0143149 6.32948924 -0.00695994 8.171875 0.00976562 C10.99045934 0.03117752 13.80649485 0.00996199 16.625 -0.015625 C18.41667229 -0.01298171 20.20834299 -0.00785669 22 0 C22.84175781 -0.00809692 23.68351562 -0.01619385 24.55078125 -0.02453613 C28.36291401 0.03649075 30.37021548 0.07980724 33.53125 2.34570312 C35.6927383 5.5620667 35.54038687 7.74854194 35 11.53125 C33.35758026 13.97522298 32.06926707 15.3201447 29.11914062 15.90258789 C26.73696082 16.06227071 24.387465 16.08546518 22 16.0625 C21.12730469 16.0663269 20.25460938 16.07015381 19.35546875 16.07409668 C17.51300908 16.0768149 15.67051076 16.06945994 13.828125 16.05273438 C11.00954066 16.03132248 8.19350515 16.05253801 5.375 16.078125 C3.58332771 16.07548171 1.79165701 16.07035669 0 16.0625 C-0.84175781 16.07059692 -1.68351563 16.07869385 -2.55078125 16.08703613 C-6.36291401 16.02600925 -8.37021548 15.98269276 -11.53125 13.71679688 C-13.6927383 10.5004333 -13.54038687 8.31395806 -13 4.53125 C-9.61524384 -0.50537519 -5.54276296 -0.0533162 0 0 Z " fill="#E51743" transform="translate(201,301.46875)"/>
<path d="M0 0 C0.80752213 -0.00524185 1.61504425 -0.0104837 2.44703674 -0.0158844 C4.15421398 -0.02230511 5.86143545 -0.02096693 7.56860352 -0.01245117 C10.1787005 -0.00394764 12.78660405 -0.03268838 15.39648438 -0.06445312 C17.05598893 -0.06606543 18.71549735 -0.06548704 20.375 -0.0625 C21.15427353 -0.07373398 21.93354706 -0.08496796 22.73643494 -0.09654236 C26.28965356 -0.0509302 28.35351609 0.13682107 31.24633789 2.28100586 C33.32132959 5.24379158 33.3331931 6.88546179 32.75390625 10.43359375 C31.24414062 13.08349609 31.24414062 13.08349609 28.75390625 15.43359375 C25.7788606 15.94183711 23.38315632 16.13642545 20.41015625 16.09765625 C19.20099548 16.1048317 19.20099548 16.1048317 17.96740723 16.1121521 C16.26617477 16.11554864 14.56487683 16.10636315 12.86376953 16.08544922 C10.26186402 16.05867564 7.66427158 16.08520052 5.0625 16.1171875 C3.40754258 16.11388335 1.75258783 16.107477 0.09765625 16.09765625 C-0.67848022 16.1077774 -1.4546167 16.11789856 -2.25427246 16.12832642 C-6.10910974 16.04482024 -7.88768629 15.76213392 -10.77148438 13.11865234 C-12.78459153 9.45306418 -12.34902252 7.40413731 -11.24609375 3.43359375 C-8.67316567 -0.71933978 -4.37861252 -0.01645214 0 0 Z " fill="#E51743" transform="translate(306.24609375,211.56640625)"/>
<path d="M0 0 C2.3125 1.0625 2.3125 1.0625 4 3 C5.10373378 6.97344161 5.41543583 9.08999772 3.6875 12.875 C2 15 2 15 0 16 C-3.65546065 16.40616229 -5.58917682 16.21434253 -8.875 14.5 C-11.44978331 11.47084317 -11.74545844 9.79349229 -11.484375 5.90625 C-11 4 -11 4 -8.875 1.5 C-5.52678113 -0.2468968 -3.7241837 -0.55466566 0 0 Z " fill="#E51743" transform="translate(211,370)"/>
<path d="M0 0 C2.3125 1.0625 2.3125 1.0625 4 3 C5.10373378 6.97344161 5.41543583 9.08999772 3.6875 12.875 C2 15 2 15 0 16 C-3.65546065 16.40616229 -5.58917682 16.21434253 -8.875 14.5 C-11.44978331 11.47084317 -11.74545844 9.79349229 -11.484375 5.90625 C-11 4 -11 4 -8.875 1.5 C-5.52678113 -0.2468968 -3.7241837 -0.55466566 0 0 Z " fill="#E51743" transform="translate(211,343)"/>
</svg>
