<?xml version="1.0" encoding="UTF-8"?>
<svg version="1.1" xmlns="http://www.w3.org/2000/svg" width="512" height="512">
<path d="M0 0 C5.31800661 4.12438589 9.35248129 9.11860074 10.26213074 15.97610474 C10.34428965 18.10373461 10.33815398 20.21114193 10.29296875 22.33984375 C10.28872391 23.10680069 10.28447906 23.87375763 10.28010559 24.66395569 C10.2634507 27.08884332 10.22582553 29.51286798 10.1875 31.9375 C10.17243601 33.59178478 10.15875062 35.24608273 10.14648438 36.90039062 C10.11359077 40.93392103 10.06190249 44.96681473 10 49 C11.09940918 48.98251709 12.19881836 48.96503418 13.33154297 48.94702148 C18.75120873 49.02529032 22.56208155 50.98882352 27 54 C32.74471229 59.98025858 33.36187785 65.80105565 33.2734375 73.76953125 C32.7711097 79.70417538 30.16068481 83.08613783 25.9375 87.1875 C21.53769056 90.77075092 16.3611531 92.35190592 11 94 C10.97312721 95.81242052 10.95366285 97.62495233 10.9375 99.4375 C10.92009766 100.95150391 10.92009766 100.95150391 10.90234375 102.49609375 C10.71387324 104.94021067 10.71387324 104.94021067 12 106 C13.48030443 105.94018972 14.9594658 105.85145633 16.4375 105.75 C22.52533825 105.70639084 27.05666624 107.48532476 32 111 C37.48439398 116.74855057 38.37113727 122.26305139 38.26953125 129.9296875 C37.67308331 136.72400747 34.75582411 140.5533371 29.75 145 C28.51066086 146.01318236 27.26424071 147.01806547 26 148 C26.52096605 152.44824859 28.12205185 154.87592224 30.9375 158.3125 C31.64777344 159.19550781 32.35804688 160.07851562 33.08984375 160.98828125 C33.72019531 161.65214844 34.35054687 162.31601563 35 163 C35.66 163 36.32 163 37 163 C37.721875 162.236875 38.44375 161.47375 39.1875 160.6875 C43.94445594 156.14196432 48.00763706 154.82929929 54.4375 154.5625 C61.44834576 154.78369266 65.83582813 156.88392084 70.8125 161.75 C75.30044386 168.4178023 76.52339534 173.38683991 75.52734375 181.43359375 C74.84700849 184.74455867 73.77798396 187.13976494 72 190 C73.03060547 190.30744141 73.03060547 190.30744141 74.08203125 190.62109375 C75.43361328 191.02521484 75.43361328 191.02521484 76.8125 191.4375 C77.70582031 191.70433594 78.59914063 191.97117187 79.51953125 192.24609375 C81.35473055 192.80387873 83.18033726 193.39344575 85 194 C85.37125 192.6696875 85.37125 192.6696875 85.75 191.3125 C88.22452663 184.75500443 91.94653603 182.02673198 98 179 C103.47285249 176.88147645 109.2777654 177.45246139 114.625 179.5625 C120.01767681 182.18898508 123.50631513 185.98225023 126.15234375 191.328125 C127.14460355 194.45580104 127.19696031 197.03830568 127.125 200.3125 C127.10695313 201.38113281 127.08890625 202.44976562 127.0703125 203.55078125 C127.03550781 204.76314453 127.03550781 204.76314453 127 206 C135.0833258 209.15289978 143.32026411 211.19540989 151.75 213.1875 C152.96722748 213.47755417 152.96722748 213.47755417 154.20904541 213.77346802 C170.22847737 217.57055291 186.36249892 220.60385974 202.57714844 223.4362793 C203.93209915 223.67347687 203.93209915 223.67347687 205.31442261 223.91546631 C206.99428848 224.20812997 208.67469085 224.49773973 210.35574341 224.7835083 C224.25578048 227.18812416 224.25578048 227.18812416 227.0625 230.25 C228.24005128 233.70415042 228.10757358 235.52960278 227 239 C225.30834961 241.18310547 225.30834961 241.18310547 223 243 C210.56592913 244.47163527 196.12647744 239.69990134 183.97973633 237.28759766 C181.12205812 236.72304181 178.26236384 236.1697356 175.40234375 235.6171875 C174.53149643 235.44017303 173.66064911 235.26315857 172.76341248 235.08078003 C166.97739063 233.96652084 163.25810873 233.71592004 157.984375 236.71484375 C139.70780095 249.27447012 131.28117246 264.87531018 126 286 C178.47 286 230.94 286 285 286 C282.45642214 268.29926673 282.45642214 268.29926673 272.0625 255.5625 C266.70937942 251.97691923 261.6683875 250.04875841 255.3125 249.0625 C251.88988065 248.49441092 250.235915 248.16851071 247.375 246.125 C245.94418534 243.91374098 245.15932834 242.62891754 245 240 C246.07343431 235.99901756 247.45245314 234.10406228 251 232 C262.75013717 231.03973619 274.71531845 236.11386119 284 243 C291.5689088 249.65021879 298.05071281 260.01754232 300 270 C300.10623737 272.03486687 300.15853523 274.07279702 300.17700195 276.11035156 C300.18983719 277.34553528 300.20267242 278.58071899 300.21589661 279.85333252 C300.22406576 281.19909257 300.23150915 282.54485719 300.23828125 283.890625 C300.24235678 284.57202293 300.2464323 285.25342087 300.25063133 285.95546722 C300.27145621 289.56324455 300.28577249 293.17098426 300.29516602 296.77880859 C300.30621429 300.48869657 300.34060522 304.1979821 300.38033772 307.90765762 C300.40659161 310.77487232 300.41486561 313.64194541 300.41844749 316.50926971 C300.42329202 317.87591361 300.43484471 319.2425521 300.45348549 320.60907745 C300.5801262 330.50932975 299.42506168 336.00919584 293.8125 344.1875 C287.79131465 350.20868535 281.16830463 353.09577339 272.70396838 353.13871691 C272.00265438 353.13723328 271.30134039 353.13574966 270.57877445 353.13422108 C269.82503917 353.13657331 269.07130388 353.13892554 268.29472813 353.14134905 C265.75466298 353.14803616 263.21464902 353.14758091 260.67457581 353.14717102 C258.84072683 353.15046984 257.00687859 353.15419544 255.17303127 353.1583125 C250.12206364 353.16833883 245.07110788 353.17205032 240.02013171 353.17470181 C234.57681626 353.17860305 229.13351024 353.18818159 223.69020081 353.19691467 C210.53781642 353.2166854 197.38543125 353.2267466 184.23303571 353.23564246 C178.03986222 353.24002484 171.84668958 353.24539183 165.65351677 353.25063133 C145.06617822 353.26764512 124.47884021 353.28213896 103.8914957 353.28938007 C98.54786236 353.29128998 93.20422903 353.29320865 87.8605957 353.29516602 C86.86479306 353.29552624 86.86479306 353.29552624 85.84887319 353.29589374 C64.33463909 353.30378305 42.82046018 353.32720655 21.30625017 353.35972196 C-1.44611229 353.39404576 -24.19844397 353.41373252 -46.9508329 353.41702431 C-59.35071992 353.41918919 -71.75052584 353.4279346 -84.15038872 353.45348549 C-94.71170674 353.47519752 -105.27292396 353.48324042 -115.83426177 353.47351871 C-121.2211627 353.46897536 -126.6078557 353.47086246 -131.99472809 353.49028015 C-136.93167881 353.50792198 -141.86827006 353.50690564 -146.80522466 353.49138286 C-148.5859481 353.48900834 -150.3666965 353.49332217 -152.14738183 353.50521151 C-165.24375969 353.58719806 -177.6648602 352.88628818 -188.0703125 343.91015625 C-195.59810856 336.45855246 -200.15113807 328.30148545 -200.30010986 317.57666016 C-200.29009905 314.20549884 -200.25933086 310.83507854 -200.21456909 307.46420288 C-200.01367294 287.3204569 -203.18823624 269.32508308 -208.45277405 249.96653748 C-211.6252732 238.13716149 -212.40842479 226.50309514 -212.375 214.3125 C-212.37418427 213.18923309 -212.37418427 213.18923309 -212.37335205 212.04327393 C-212.33521993 200.61309358 -211.66753012 189.89652785 -208 179 C-207.67854004 178.00226563 -207.67854004 178.00226563 -207.35058594 176.984375 C-204.54594113 168.42755475 -200.89339057 160.37237549 -196.71582031 152.40185547 C-194.7684855 148.67479228 -193.21433067 145.02711703 -192 141 C-192.9590625 140.071875 -192.9590625 140.071875 -193.9375 139.125 C-197.16773015 135.79688409 -197.13639938 133.85515487 -197.125 129.3125 C-197.12757813 128.29800781 -197.13015625 127.28351563 -197.1328125 126.23828125 C-197 123 -197 123 -196.50268555 119.796875 C-195.98008838 115.84960395 -195.84791577 111.98419256 -195.82421875 108.01171875 C-195.80101866 106.48501228 -195.77690125 104.95831953 -195.75195312 103.43164062 C-195.71696031 101.06216207 -195.68753233 98.69319117 -195.67407227 96.32348633 C-195.60258126 85.75931605 -194.86838163 77.54649199 -189.375 68.25 C-180.90578884 60.22653679 -170.10112779 57.52572031 -159.16796875 54.42041016 C-156.36915283 53.62333478 -153.57915334 52.79969441 -150.7890625 51.97265625 C-148.992648 51.45153493 -147.19578698 50.93194987 -145.3984375 50.4140625 C-144.57427338 50.17039948 -143.75010925 49.92673645 -142.90097046 49.6756897 C-136.58290628 47.90461623 -130.74037773 46.55225327 -124.6875 49.75 C-122.32101681 51.73124174 -120.7769075 53.51962472 -119 56 C-116.47878568 55.37650642 -113.95803069 54.75124639 -111.4375 54.125 C-110.73302734 53.95097656 -110.02855469 53.77695313 -109.30273438 53.59765625 C-105.91425574 52.75444037 -102.56919091 51.87080182 -99.22265625 50.8671875 C-96 50 -96 50 -92 50 C-92.04640625 49.04480469 -92.0928125 48.08960938 -92.140625 47.10546875 C-92.47743349 35.0405075 -90.74616107 26.44209765 -82.5859375 17.0703125 C-75.57223248 11.45511059 -67.3119314 8.96883249 -58.69921875 6.921875 C-57.65981644 6.66496887 -56.62041412 6.40806274 -55.54951477 6.14337158 C-52.26479646 5.3344066 -48.97632564 4.54208078 -45.6875 3.75 C-43.46262807 3.20419414 -41.23801588 2.65732834 -39.01367188 2.109375 C-34.9490275 1.11182471 -30.88365666 0.1175792 -26.81518555 -0.86425781 C-26.00373581 -1.06013489 -25.19228607 -1.25601196 -24.35624695 -1.45782471 C-15.93111345 -3.39645819 -7.81027892 -4.50164753 0 0 Z M-20.13232422 14.11401367 C-21.15373505 14.35814499 -22.17514587 14.60227631 -23.22750854 14.85380554 C-24.87446213 15.25681633 -24.87446213 15.25681633 -26.5546875 15.66796875 C-27.688992 15.94465897 -28.82329651 16.22134918 -29.99197388 16.50642395 C-32.39164841 17.09470604 -34.79063042 17.68581915 -37.18896484 18.27954102 C-40.85031477 19.18141943 -44.5166725 20.06054518 -48.18359375 20.93945312 C-50.51597197 21.51421883 -52.84801508 22.09034647 -55.1796875 22.66796875 C-56.27360809 22.92652145 -57.36752869 23.18507416 -58.49459839 23.45146179 C-65.89827162 25.32372799 -70.51992259 27.27988388 -74.875 33.8125 C-75.89442112 36.70085985 -76.1251407 38.23545018 -76.0703125 41.19921875 C-76.04710937 42.45347656 -76.02390625 43.70773438 -76 45 C-75.46109131 44.84853516 -74.92218262 44.69707031 -74.36694336 44.54101562 C-71.89295139 43.85136417 -69.41536048 43.17561413 -66.9375 42.5 C-66.08994141 42.26152344 -65.24238281 42.02304688 -64.36914062 41.77734375 C-56.47892044 39.64485181 -50.45750186 38.9950453 -43 43 C-37.91206706 47.07034635 -36.5057156 50.95596654 -35.70800781 57.33496094 C-35.62389648 58.12676758 -35.53978516 58.91857422 -35.453125 59.734375 C-35.36708008 60.53584961 -35.28103516 61.33732422 -35.19238281 62.16308594 C-35.12889648 62.76926758 -35.06541016 63.37544922 -35 64 C-31.19076766 62.73849111 -27.38219296 61.47501857 -23.57421875 60.2097168 C-22.27850006 59.77948756 -20.98260245 59.34979683 -19.68652344 58.9206543 C-17.82440063 58.30398652 -15.96297138 57.68522569 -14.1015625 57.06640625 C-12.98088379 56.69459229 -11.86020508 56.32277832 -10.70556641 55.93969727 C-8.07490774 55.09120463 -8.07490774 55.09120463 -6 54 C-5.87630293 48.80396196 -5.78561691 43.60878256 -5.7253418 38.41162109 C-5.70021359 36.64421662 -5.66610484 34.8769159 -5.62280273 33.10986328 C-5.56207265 30.56777351 -5.53377485 28.02705835 -5.51171875 25.484375 C-5.48591232 24.69569031 -5.4601059 23.90700562 -5.43351746 23.09442139 C-5.43153625 19.20987501 -5.63887542 17.40067393 -8.28051758 14.46972656 C-12.43061609 12.22683285 -15.7509255 13.05939104 -20.13232422 14.11401367 Z M-57.24633789 55.58325195 C-58.5756655 55.95461481 -59.90095619 56.34062408 -61.22265625 56.73828125 C-61.9239415 56.93850388 -62.62522675 57.1387265 -63.34776306 57.34501648 C-65.58975585 57.98860069 -67.82587887 58.65051777 -70.0625 59.3125 C-71.57323358 59.74790581 -73.08429821 60.18216472 -74.59570312 60.61523438 C-81.45007687 62.41018368 -81.45007687 62.41018368 -88 65 C-88.01458252 65.98395752 -88.02916504 66.96791504 -88.04418945 67.98168945 C-88.10216998 71.63293774 -88.17940185 75.28356911 -88.26245117 78.93432617 C-88.29570188 80.51430243 -88.32373346 82.09439752 -88.34643555 83.67456055 C-88.37998016 85.94631579 -88.43229227 88.21698203 -88.48828125 90.48828125 C-88.49467117 91.19463211 -88.5010611 91.90098297 -88.50764465 92.6287384 C-88.59397021 95.50910448 -88.66449896 97.52259593 -90.34838867 99.91870117 C-92.86189836 101.56427906 -95.0270683 101.81798377 -98 102 C-100.74954328 101.03394425 -101.69007757 100.61984486 -103 98 C-103.15441209 95.89625004 -103.24992639 93.78804881 -103.31640625 91.6796875 C-103.35830078 90.42285156 -103.40019531 89.16601562 -103.44335938 87.87109375 C-103.48267578 86.55238281 -103.52199219 85.23367187 -103.5625 83.875 C-103.60569512 82.53514249 -103.64930973 81.19529844 -103.69335938 79.85546875 C-103.79970981 76.57042185 -103.90173808 73.28529719 -104 70 C-105.58357459 70.31127516 -107.16684993 70.62407289 -108.75 70.9375 C-110.07257813 71.19853516 -110.07257813 71.19853516 -111.421875 71.46484375 C-113.63235053 71.92368488 -115.81512068 72.43336074 -118 73 C-118.01458252 73.60360352 -118.02916504 74.20720703 -118.04418945 74.82910156 C-118.55681159 93.83415955 -120.16376429 112.80281487 -134.0703125 127.265625 C-142.04342676 134.43174389 -151.53152826 140.37992937 -162.3671875 141.55078125 C-166.79882515 142.03418959 -170.76508039 142.53165578 -175 144 C-178.23177466 148.09434797 -180 152.73717174 -180 158 C-159.26598911 157.52984102 -141.85236363 153.10943359 -126 139 C-125.37480469 138.44570312 -124.74960938 137.89140625 -124.10546875 137.3203125 C-120.46243987 133.88287216 -117.81859643 130.24748527 -115.0625 126.0625 C-111.6676991 121.24769483 -111.6676991 121.24769483 -108.8203125 120.19140625 C-105.90488052 120.10063273 -103.56960845 120.69739551 -101 122.0625 C-99.31443227 125.32828747 -99.47074023 127.35398826 -100 131 C-103.54938217 138.24665526 -109.44462041 144.25272474 -115 150 C-115.59167969 150.61746094 -116.18335937 151.23492187 -116.79296875 151.87109375 C-130.02400692 164.51798012 -149.39926126 171.71330871 -167.4921875 172.31640625 C-168.69101563 172.35830078 -169.88984375 172.40019531 -171.125 172.44335938 C-172.3625 172.48267578 -173.6 172.52199219 -174.875 172.5625 C-176.13570312 172.60568359 -177.39640625 172.64886719 -178.6953125 172.69335938 C-181.79677423 172.79909102 -184.89831145 172.90118571 -188 173 C-200.0679378 199.0201027 -197.67041607 226.74188 -191 254 C-190.66267841 255.47826225 -190.32892303 256.95734637 -190 258.4375 C-189.35866548 261.29883861 -188.69649694 264.1517239 -188 267 C-182.91609043 264.22340323 -178.33934888 261.15004168 -173.75 257.625 C-172.3352235 256.55130799 -170.91983292 255.47842477 -169.50390625 254.40625 C-168.40006592 253.56900391 -168.40006592 253.56900391 -167.27392578 252.71484375 C-163.4351341 249.8198821 -159.56144977 246.97264813 -155.6875 244.125 C-154.89311523 243.54057129 -154.09873047 242.95614258 -153.28027344 242.35400391 C-151.66145358 241.16319663 -150.04247524 239.97260477 -148.42333984 238.78222656 C-144.44677482 235.85769254 -140.47353729 232.92864567 -136.5 230 C-134.91668304 228.83331112 -133.33334969 227.66664447 -131.75 226.5 C-130.96625 225.9225 -130.1825 225.345 -129.375 224.75 C-103.25 205.5 -103.25 205.5 -100.87426758 203.74951172 C-99.29331017 202.58456151 -97.71241808 201.41952266 -96.1315918 200.25439453 C-92.13744172 197.3107302 -88.1421157 194.36868654 -84.14453125 191.4296875 C-76.36730311 185.70984845 -68.60178583 179.97537421 -60.875 174.1875 C-60.19348877 173.67751465 -59.51197754 173.1675293 -58.80981445 172.64208984 C-55.79165132 170.45531467 -55.79165132 170.45531467 -53 168 C-52.86670436 166.31455074 -52.76880187 164.62625604 -52.6875 162.9375 C-51.98794453 154.98520033 -49.73779347 150.29893227 -43.75 145 C-42.50354758 143.99558158 -41.25411651 142.99483254 -40 142 C-40.20157715 141.46632813 -40.4031543 140.93265625 -40.61083984 140.3828125 C-41.53678138 137.92356283 -42.45591988 135.46182175 -43.375 133 C-43.69210938 132.16082031 -44.00921875 131.32164062 -44.3359375 130.45703125 C-46.23635797 125.34965123 -47.78253441 120.31257712 -49 115 C-50.41152344 114.85304688 -50.41152344 114.85304688 -51.8515625 114.703125 C-60.43970232 113.67183699 -65.39399969 113.00666701 -71.25 106.5 C-75.69088289 100.15588159 -75.60973914 94.64079355 -75 87 C-73.26748395 81.89363691 -70.07443261 77.62520653 -65.2043457 75.05078125 C-63.23710908 74.22236679 -61.25932631 73.47010538 -59.25 72.75 C-54.79343269 71.40127932 -54.79343269 71.40127932 -51 69 C-50.84873769 67.02486333 -50.77826234 65.04321865 -50.75 63.0625 C-50.72421875 61.98097656 -50.6984375 60.89945313 -50.671875 59.78515625 C-50.78015625 58.86605469 -50.8884375 57.94695312 -51 57 C-53.86593909 54.58880698 -53.86593909 54.58880698 -57.24633789 55.58325195 Z M4.90283203 66.57299805 C3.37941696 67.08935066 3.37941696 67.08935066 1.82522583 67.61613464 C0.73047943 67.9941774 -0.36426697 68.37222015 -1.4921875 68.76171875 C-2.62971466 69.14938919 -3.76724182 69.53705963 -4.9392395 69.93647766 C-8.5864632 71.18113739 -12.23069638 72.43431954 -15.875 73.6875 C-18.2914838 74.51290534 -20.70814858 75.33778106 -23.125 76.16210938 C-28.78935189 78.09624631 -34.44837055 80.04537618 -40.1048584 82.00238037 C-42.63749753 82.87508743 -45.17358516 83.73631427 -47.71191406 84.59228516 C-48.97733695 85.02600729 -50.24265045 85.46004884 -51.5078125 85.89453125 C-52.52762207 86.2397583 -53.54743164 86.58498535 -54.59814453 86.94067383 C-57.03120745 88.01376389 -58.37969846 88.90674739 -60 91 C-60.42674516 93.84496772 -60.36066991 95.36352369 -58.9375 97.875 C-55.96276816 99.60226365 -53.2175692 98.70225679 -50 98 C-46.75743981 97.06967913 -43.57944188 95.97723845 -40.39453125 94.8671875 C-39.47524338 94.55226349 -38.55595551 94.23733948 -37.60881042 93.91287231 C-34.67466446 92.90607774 -31.74359371 91.89064174 -28.8125 90.875 C-26.8940725 90.21558614 -24.97545412 89.55672732 -23.05664062 88.8984375 C-19.25205083 87.59188924 -15.45045471 86.27710941 -11.65087891 84.95605469 C-7.84723399 83.6344011 -4.03685376 82.33538403 -0.22021484 81.05175781 C1.59928844 80.4329562 3.41878733 79.81414165 5.23828125 79.1953125 C6.07892624 78.91702606 6.91957123 78.63873962 7.78569031 78.35202026 C8.94812004 77.95371506 8.94812004 77.95371506 10.1340332 77.54736328 C10.81101761 77.31993439 11.48800201 77.09250549 12.1855011 76.85818481 C14.29157381 75.86209734 15.52372299 74.79613557 17 73 C17.4387102 70.07526531 17.44316113 68.64258364 15.75 66.1875 C12.19102366 63.77248034 8.62261458 65.30016408 4.90283203 66.57299805 Z M-150.7199707 68.94287109 C-152.35393323 69.39456708 -153.99000919 69.83869205 -155.62817383 70.27490234 C-158.00099843 70.90730344 -160.36582617 71.56430449 -162.73046875 72.2265625 C-163.45364792 72.41433258 -164.17682709 72.60210266 -164.92192078 72.79556274 C-170.32151256 74.35030719 -174.12771437 76.91899712 -178 81 C-179.47955203 83.95910406 -179.21814998 86.99763636 -179.28125 90.24609375 C-179.29965942 90.97184097 -179.31806885 91.6975882 -179.33703613 92.44532776 C-179.39582679 94.77596853 -179.44849831 97.10668753 -179.5 99.4375 C-179.71556412 108.99384012 -179.9306257 118.49113408 -181 128 C-168.29097294 128.62672884 -156.97069959 126.26232427 -147 118 C-139.30964991 110.28375648 -134.28497135 100.87685333 -133.88647461 89.86206055 C-133.89171143 88.71519775 -133.89694824 87.56833496 -133.90234375 86.38671875 C-133.90556641 85.13955078 -133.90878906 83.89238281 -133.91210938 82.60742188 C-133.92048828 81.31384766 -133.92886719 80.02027344 -133.9375 78.6875 C-133.94201172 77.37458984 -133.94652344 76.06167969 -133.95117188 74.70898438 C-133.96294051 71.4726099 -133.9793824 68.23632822 -134 65 C-139.49580538 65 -145.43363945 67.46989954 -150.7199707 68.94287109 Z M-14.76171875 101.96875 C-15.87998047 102.37480469 -16.99824219 102.78085938 -18.15039062 103.19921875 C-19.90125977 103.84310547 -19.90125977 103.84310547 -21.6875 104.5 C-22.86634766 104.92925781 -24.04519531 105.35851562 -25.25976562 105.80078125 C-28.17476336 106.86292617 -31.08806396 107.92949576 -34 109 C-33.01489017 115.19560238 -31.95264481 120.92171556 -29.375 126.6875 C-28.92898437 127.70199219 -28.48296875 128.71648437 -28.0234375 129.76171875 C-27.68570313 130.50035156 -27.34796875 131.23898438 -27 132 C-13.19998504 125.22914276 -13.19998504 125.22914276 -3.99609375 114.046875 C-3.99998717 111.19689067 -4.33272954 108.76566044 -5 106 C-5.165 104.783125 -5.33 103.56625 -5.5 102.3125 C-5.7475 101.1678125 -5.7475 101.1678125 -6 100 C-9.39612724 100 -11.57544602 100.80422392 -14.76171875 101.96875 Z M11.5234375 124.16796875 C10.86206787 124.64234375 10.20069824 125.11671875 9.51928711 125.60546875 C8.81167236 126.12753906 8.10405762 126.64960938 7.375 127.1875 C6.62935791 127.72632813 5.88371582 128.26515625 5.11547852 128.8203125 C3.53623563 129.96273651 1.95988278 131.1091647 0.38623047 132.25927734 C-1.92010279 133.94171607 -4.2369275 135.6083347 -6.55859375 137.26953125 C-22.426177 147.86303234 -22.426177 147.86303234 -37 160 C-37.29431219 162.7959658 -37.33772308 164.43712819 -35.875 166.875 C-33.99177384 168.23388471 -33.99177384 168.23388471 -31.39453125 167.92578125 C-26.74996191 166.65908052 -23.61364674 164.19693393 -19.8125 161.3125 C-19.03438965 160.7359668 -18.2562793 160.15943359 -17.45458984 159.56542969 C-15.80544906 158.34250098 -14.15968565 157.1150065 -12.51708984 155.88330078 C-10.02818248 154.02108629 -7.52666763 152.17742434 -5.01953125 150.33984375 C9.02772701 140.80995231 9.02772701 140.80995231 22 130 C22.29978682 127.15202522 22.40071289 125.58103368 20.75 123.1875 C17.27332813 120.8283298 14.58209462 121.94042201 11.5234375 124.16796875 Z M5.8125 161.5 C4.884375 162.325 3.95625 163.15 3 164 C5.90968988 167.21235265 8.61771973 169.03600712 12.5625 170.8125 C13.51253906 171.25207031 14.46257812 171.69164062 15.44140625 172.14453125 C18.07328449 173.30931203 18.07328449 173.30931203 21 172 C19.57455646 169.8244803 18.13585452 167.66018146 16.6875 165.5 C16.28337891 164.87996094 15.87925781 164.25992188 15.46289062 163.62109375 C14.38507533 162.02627762 13.19816168 160.5064969 12 159 C8.6133629 159 8.22330713 159.35706033 5.8125 161.5 Z M49 174 C46.57385958 177.85782315 44.43478419 181.87661 42.25 185.875 C41.32767578 187.50888672 41.32767578 187.50888672 40.38671875 189.17578125 C39.81050781 190.22894531 39.23429688 191.28210938 38.640625 192.3671875 C38.10985352 193.32737793 37.57908203 194.28756836 37.03222656 195.27685547 C35.84184555 198.41723149 35.82717681 199.87314321 37 203 C39.74904188 205.26806524 39.74904188 205.26806524 42.51171875 204.8515625 C48.97047334 202.64118809 52.1818877 192.99471919 55.3125 187.25 C55.66223877 186.61239746 56.01197754 185.97479492 56.37231445 185.31787109 C58.17796672 181.92009528 59.64921738 178.8586088 60 175 C59.00965774 172.59616005 59.00965774 172.59616005 57 171 C52.99626248 170.29934593 51.56020492 170.99796111 49 174 Z M-18 178.4375 C-22.56434175 181.79962674 -25.56049814 183.14776884 -31.25 183.1875 C-32.61898437 183.20876953 -32.61898437 183.20876953 -34.015625 183.23046875 C-37 183 -37 183 -40.49609375 181.734375 C-44.00733533 180.60841586 -44.00733533 180.60841586 -46.89453125 182.53515625 C-47.85746094 183.36917969 -48.82039063 184.20320312 -49.8125 185.0625 C-50.94517347 186.00720501 -52.08075531 186.94843051 -53.21875 187.88671875 C-53.82460937 188.39380371 -54.43046875 188.90088867 -55.0546875 189.42333984 C-58.5230348 192.23440748 -62.17541696 194.7886126 -65.8125 197.375 C-71.5675232 201.50231544 -77.28210851 205.67464209 -82.9375 209.9375 C-91.10479572 216.09350754 -99.33655723 222.15970138 -107.57666016 228.21777344 C-111.55322518 231.14230746 -115.52646271 234.07135433 -119.5 237 C-121.08331696 238.16668888 -122.66665031 239.33335553 -124.25 240.5 C-125.03375 241.0775 -125.8175 241.655 -126.625 242.25 C-133.75 247.5 -133.75 247.5 -136.12963867 249.25317383 C-137.69782135 250.40883838 -139.26569739 251.56491915 -140.83325195 252.72143555 C-145.02084524 255.81008565 -149.21498898 258.88934343 -153.41796875 261.95703125 C-154.2996875 262.60220703 -155.18140625 263.24738281 -156.08984375 263.91210938 C-157.79495352 265.15953178 -159.50192798 266.40441012 -161.2109375 267.64648438 C-161.97019531 268.20271484 -162.72945312 268.75894531 -163.51171875 269.33203125 C-164.18678467 269.82421143 -164.86185059 270.3163916 -165.55737305 270.82348633 C-166.03343994 271.21173584 -166.50950684 271.59998535 -167 272 C-167 272.33 -167 272.66 -167 273 C-161.68417665 273.25003873 -156.37187802 273.42992936 -151.05151367 273.54931641 C-149.24817198 273.5991458 -147.44522451 273.66704299 -145.64331055 273.75439453 C-135.13894364 274.25029633 -127.40635949 274.19624194 -119.26387024 267.02885437 C-117.83052397 265.69877821 -116.41485267 264.34973184 -115 263 C-113.36489517 261.7313815 -111.71013112 260.48743419 -110.03125 259.27734375 C-109.28198242 258.72312744 -108.53271484 258.16891113 -107.76074219 257.59790039 C-104.59323986 255.2715307 -101.41818571 252.95562563 -98.24023438 250.64355469 C-96.19042764 249.13970781 -94.16334699 247.61026681 -92.140625 246.0703125 C-91.01098549 245.23360648 -89.88081935 244.39761076 -88.75 243.5625 C-87.79609375 242.84191406 -86.8421875 242.12132812 -85.859375 241.37890625 C-82.12649589 239.578761 -79.95600742 239.95894542 -76 241 C-74 243.1875 -74 243.1875 -73 246 C-73.19498889 249.57986475 -73.45597363 251.41640683 -75.93017578 254.07055664 C-76.7601709 254.67762451 -77.59016602 255.28469238 -78.4453125 255.91015625 C-79.35796875 256.59013672 -80.270625 257.27011719 -81.2109375 257.97070312 C-82.65339844 259.00614258 -82.65339844 259.00614258 -84.125 260.0625 C-85.0634375 260.75666016 -86.001875 261.45082031 -86.96875 262.16601562 C-91.00308985 265.14091749 -95.07629363 268.05501644 -99.1796875 270.93359375 C-100.11039062 271.61550781 -101.04109375 272.29742187 -102 273 C-102 273.33 -102 273.66 -102 274 C-100.96858887 274.03963867 -99.93717773 274.07927734 -98.87451172 274.12011719 C-78.29285691 274.92948295 -57.76723046 276.03585029 -37.25 277.875 C-36.29999115 277.9600177 -35.3499823 278.0450354 -34.3711853 278.13262939 C-27.5797059 278.74341951 -20.78975497 279.37037538 -14 280 C27.37564689 283.83170225 68.43007885 286.48049166 110 286 C110.26192139 284.77458496 110.52384277 283.54916992 110.79370117 282.28662109 C111.14739273 280.65717641 111.50132819 279.02778466 111.85546875 277.3984375 C112.02687378 276.5933374 112.19827881 275.7882373 112.37487793 274.95874023 C113.84017667 268.25487056 115.92801589 262.1525974 119 256 C119.47953125 255.02933594 119.9590625 254.05867188 120.453125 253.05859375 C125.30005851 244.03529764 132.38614615 234.74256923 141 229 C141 228.34 141 227.68 141 227 C134.07 225.35 127.14 223.7 120 222 C118.35 224.97 116.7 227.94 115 231 C111.17635885 235.88576369 107.01200815 237.92336463 101 239 C94.31617743 239.25510773 89.40839218 237.89404237 84 234 C78.79240364 228.51091195 77.69217259 223.593628 77.875 216.1875 C77.91625 213.815625 77.9575 211.44375 78 209 C73.38 207.35 68.76 205.7 64 204 C62.948125 205.5675 61.89625 207.135 60.8125 208.75 C56.91458396 214.30276571 53.47117021 217.75816811 47 220 C39.89613967 220.91320178 33.87613978 220.24697307 28 216 C24.29881716 212.39884913 21.97415386 208.07715784 21 203 C21.04963338 198.95487985 21.44596742 195.00505483 22 191 C19.04045845 189.45481053 16.3285888 188.39777591 13 188 C9.52247186 189.31613185 6.94795117 191.55661097 4.125 193.9375 C2.45116101 195.25992528 0.77666329 196.58151715 -0.8984375 197.90234375 C-2.1683252 198.92884033 -2.1683252 198.92884033 -3.46386719 199.97607422 C-7.3868193 203.106732 -11.44274645 206.0469704 -15.5 209 C-17.06454853 210.15133009 -18.62834668 211.30368054 -20.19140625 212.45703125 C-23.55304093 214.93406171 -26.91508689 217.41053289 -30.27734375 219.88671875 C-31.14101562 220.52287109 -32.0046875 221.15902344 -32.89453125 221.81445312 C-34.54937555 223.03334382 -36.20431828 224.25210088 -37.859375 225.47070312 C-38.60574219 226.02048828 -39.35210937 226.57027344 -40.12109375 227.13671875 C-40.7752124 227.61842529 -41.42933105 228.10013184 -42.10327148 228.59643555 C-43.45452377 229.5963518 -44.79037214 230.61722737 -46.11523438 231.65185547 C-49.43588448 234.0270666 -52.01247465 233.44305837 -56 233 C-58.65656032 230.84154474 -58.92904589 229.41685537 -59.5 226.0625 C-58.40654735 219.36510251 -50.55350173 215.30607791 -45.375 211.5625 C-43.67310284 210.32041423 -41.97128214 209.07822367 -40.26953125 207.8359375 C-38.96363037 206.88605957 -38.96363037 206.88605957 -37.63134766 205.91699219 C-31.10731072 201.16409388 -24.61959629 196.36155575 -18.12695312 191.56591797 C-16.13662139 190.10058421 -14.13975539 188.64470078 -12.140625 187.19140625 C-11.03113577 186.3777599 -9.92175182 185.56396997 -8.8125 184.75 C-7.87019531 184.06421875 -6.92789063 183.3784375 -5.95703125 182.671875 C-4.98830078 181.84429687 -4.98830078 181.84429687 -4 181 C-4 180.34 -4 179.68 -4 179 C-9.90703869 174.5369041 -12.08083968 174.05978768 -18 178.4375 Z M102.046875 195.44140625 C99.22120431 198.97349461 97.82582062 202.7274213 96.25 206.9375 C95.93417969 207.73607422 95.61835938 208.53464844 95.29296875 209.35742188 C93.07840567 215.00719584 93.07840567 215.00719584 93 221 C94.57695632 223.0785608 94.57695632 223.0785608 97 224 C100.23916704 223.36796741 101.58417961 222.60808143 103.453125 219.875 C105.2673422 216.50312156 106.76441645 213.0489244 108.1875 209.5 C108.46013672 208.84902344 108.73277344 208.19804687 109.01367188 207.52734375 C110.46696111 203.92143813 111.52548109 200.89850161 111 197 C109.26961928 195.09798258 109.26961928 195.09798258 107 194 C103.99773598 193.70309865 103.99773598 193.70309865 102.046875 195.44140625 Z M-184 289 C-184 291.97 -184 294.94 -184 298 C-183.07849152 298.00808685 -182.15698303 298.01617371 -181.20755005 298.02450562 C-125.40003071 298.52345623 -70.21051706 299.79634295 -14.61769104 305.09625244 C-9.29727432 305.60335103 -3.97686329 306.09181704 1.34960938 306.53125 C2.35368835 306.61596558 3.35776733 306.70068115 4.39227295 306.78796387 C6.26518707 306.944837 8.13858698 307.09606256 10.01251221 307.24035645 C14.60647522 307.63032729 18.70410118 308.18568803 23 310 C25.03814717 312.48122264 25.0032832 313.83912318 24.9375 317.0625 C24 320 24 320 21.8515625 321.69750977 C18.33965742 323.30162052 16.26726499 323.16219234 12.4375 322.77734375 C11.79102509 322.71740234 11.14455017 322.65746094 10.47848511 322.59570312 C9.06546062 322.46238754 7.65317169 322.32109238 6.24163818 322.17282104 C3.94506715 321.9317333 1.64726748 321.71165182 -0.65185547 321.49633789 C-4.00022606 321.1804694 -7.34754307 320.8556057 -10.69433594 320.5234375 C-27.44887702 318.86372737 -44.21748754 317.34799763 -61 316 C-61.79319641 315.93621155 -62.58639282 315.8724231 -63.40362549 315.80670166 C-103.46407176 312.6522597 -143.84944535 313.8095421 -184 314 C-184.06816711 320.17405618 -183.65517154 323.98050259 -180 329 C-173.81492403 334.8493516 -168.01539047 337.30769909 -159.50143623 337.25726891 C-158.37653641 337.26252802 -158.37653641 337.26252802 -157.22891134 337.26789337 C-154.70780136 337.27722137 -152.18692167 337.27228048 -149.665802 337.26742554 C-147.84331189 337.27116109 -146.02082339 337.27576222 -144.19833744 337.28115618 C-139.18363454 337.29341326 -134.16899823 337.29312253 -129.15428376 337.29076743 C-123.74858711 337.29035995 -118.342912 337.30139177 -112.93722534 337.31088257 C-102.3442902 337.32750805 -91.75137732 337.3329928 -81.15843023 337.33410732 C-72.55019573 337.335057 -63.94196859 337.33916327 -55.33373642 337.34550858 C-30.93954552 337.36312469 -6.54537223 337.37234679 17.84882508 337.37084763 C19.16441105 337.37076772 20.47999701 337.3706878 21.83544922 337.37060547 C23.15263727 337.37052371 24.46982532 337.37044195 25.82692815 337.37035771 C47.18085124 337.36954455 68.53469405 337.38868869 89.88859831 337.4168822 C111.80312592 337.44558813 133.71761913 337.45942378 155.63216603 337.45769465 C167.9401803 337.45702999 180.24812065 337.46255569 192.55611801 337.48405075 C203.0341462 337.50223234 213.51206696 337.50663472 223.99010406 337.4930319 C229.33778489 337.48648718 234.68525944 337.48643932 240.03292084 337.5037384 C244.92696615 337.51940753 249.82064059 337.5166687 254.71467651 337.49917014 C256.4865123 337.49608664 258.25837535 337.49978314 260.03017901 337.51089029 C262.4371543 337.52498162 264.84282331 337.51444962 267.24975395 337.49777794 C267.9390563 337.5077143 268.62835866 337.51765066 269.33854896 337.52788812 C274.67685615 337.44961498 277.72165771 335.99235497 282 333 C283.50804535 329.90243083 283.50804535 329.90243083 284 327 C282.40064559 326.99365209 282.40064559 326.99365209 280.76898098 326.98717594 C254.73220678 326.88362676 228.69545842 326.77483551 202.6587286 326.66066074 C190.06717227 326.60556425 177.47561312 326.55212319 164.8840332 326.50268555 C153.89933568 326.45955261 142.91465703 326.41320533 131.92998892 326.36312145 C126.12270929 326.33675252 120.31543283 326.31190939 114.50813103 326.29092598 C109.02279198 326.27105485 103.53748808 326.24683016 98.05218124 326.21950912 C96.05744008 326.21029704 94.0626913 326.20256824 92.06793785 326.19658089 C81.5009795 326.16393587 70.93806648 326.01464515 60.37623596 325.67466736 C59.39748534 325.6529744 58.41873472 325.63128144 57.41032499 325.60893112 C56.49913154 325.57446898 55.5879381 325.54000684 54.64913273 325.50450039 C53.84640432 325.47962313 53.04367592 325.45474587 52.21662241 325.42911476 C49.47696848 324.89874661 48.0462294 323.8688485 46 322 C45.50390625 320.0625 45.50390625 320.0625 45.5625 318 C45.56443359 316.9790625 45.56443359 316.9790625 45.56640625 315.9375 C46.12823143 313.42700189 47.01591208 312.61130848 49 311 C50.8858344 310.62740451 50.8858344 310.62740451 53.05484295 310.63085651 C54.2969247 310.6218968 54.2969247 310.6218968 55.56409901 310.61275607 C56.47362429 310.6214946 57.38314956 310.63023312 58.32023621 310.63923645 C59.76965865 310.63539154 59.76965865 310.63539154 61.24836236 310.63146895 C64.50062184 310.62651004 67.75242165 310.6430589 71.00463867 310.65942383 C73.33017465 310.66026964 75.65571144 310.65979585 77.98124695 310.65809631 C84.30738353 310.65723316 90.63335056 310.67491074 96.95944762 310.69581819 C102.89695367 310.712637 108.83445296 310.71568522 114.77197961 310.7187738 C126.53348398 310.72534193 138.29492598 310.74531285 150.05639648 310.77368164 C161.48250008 310.80121289 172.90858674 310.82245103 184.3347168 310.83520508 C185.03885958 310.83599325 185.74300237 310.83678142 186.46848281 310.83759347 C190.00091162 310.84150855 193.53334055 310.84529968 197.06576955 310.84902918 C226.37721993 310.88013632 255.6886093 310.93320472 285 311 C285 308.03 285 305.06 285 302 C283.42829937 301.99503478 283.42829937 301.99503478 281.82484722 301.98996925 C256.11484435 301.90831899 230.40489708 301.81581585 204.69497204 301.71247292 C192.26093411 301.66273471 179.82690154 301.61629399 167.39282227 301.578125 C156.53243464 301.54477786 145.672094 301.504726 134.81175882 301.45720994 C129.08208616 301.43236015 123.35244294 301.41046687 117.62273216 301.39665604 C81.95913793 301.30739368 46.25729821 300.7690775 10.7293396 297.36810303 C7.98614644 297.10574243 5.24193641 296.85681308 2.49731445 296.60986328 C-3.33604995 296.08309639 -9.16804702 295.54213209 -15 295 C-30.3263619 293.57908917 -45.65511021 292.20679281 -61 291 C-61.79090027 290.93727905 -62.58180054 290.87455811 -63.39666748 290.80993652 C-103.46568266 287.68344546 -143.84230601 288.80950824 -184 289 Z " fill="#E51743" transform="translate(212,81)"/>
<path d="M0 0 C2.5 1.5625 2.5 1.5625 4 4 C4.5625 7.4375 4.5625 7.4375 4 11 C0.03617622 15.62706201 -4.87183141 18.98319048 -9.8125 22.5 C-10.58142578 23.05558594 -11.35035156 23.61117188 -12.14257812 24.18359375 C-25.38683408 33.68369296 -25.38683408 33.68369296 -30.1875 34.625 C-34.12906717 33.74909618 -35.61954538 32.22061508 -38 29 C-38.625 26 -38.625 26 -38 23 C-34.37357728 18.91942714 -30.22272181 15.78716209 -25.8125 12.625 C-25.15048584 12.14893311 -24.48847168 11.67286621 -23.80639648 11.18237305 C-22.48185274 10.23052318 -21.15643278 9.27989125 -19.83007812 8.33056641 C-18.22276631 7.16196324 -16.64754023 5.94949314 -15.078125 4.73046875 C-9.85657962 0.7494458 -6.62330654 -1.25614434 0 0 Z " fill="#E51743" transform="translate(133,233)"/>
<path d="M0 0 C2.99097304 2.54232708 3.84202557 4.1574697 4.5625 8 C3.35344737 14.44828069 -3.76314398 18.23420078 -8.875 21.8125 C-9.55691406 22.31458984 -10.23882812 22.81667969 -10.94140625 23.33398438 C-15.41623255 26.46636278 -18.36126417 27.70834866 -24 27 C-26.375 25.875 -26.375 25.875 -28 24 C-29.07941911 20.68978138 -29.3850928 18.87707447 -27.97265625 15.66015625 C-25.31776843 12.0800006 -22.12724796 9.85157357 -18.5 7.3125 C-17.82324219 6.82716797 -17.14648438 6.34183594 -16.44921875 5.84179688 C-6.5034991 -1.26929459 -6.5034991 -1.26929459 0 0 Z " fill="#E51743" transform="translate(86,266)"/>
</svg>
