<?xml version="1.0" encoding="UTF-8"?>
<svg version="1.1" xmlns="http://www.w3.org/2000/svg" width="512" height="512">
<path d="M0 0 C1.03488808 -0.00006042 1.03488808 -0.00006042 2.09068298 -0.00012207 C3.54044775 0.00521002 4.99021405 0.02269387 6.43969727 0.05175781 C8.65015521 0.09370847 10.85756924 0.09281322 13.06835938 0.0859375 C25.45773746 0.17781523 25.45773746 0.17781523 29.58984375 3.59375 C32.81630468 8.5558539 33.82335306 14.11783939 35.078125 19.8203125 C35.54189433 21.84254506 36.00610115 23.86467733 36.47070312 25.88671875 C37.18724087 29.04476533 37.89900037 32.20372287 38.60229492 35.36474609 C44.12740198 60.55660613 44.12740198 60.55660613 61.33984375 78.90625 C72.42322844 85.05066417 84.00019973 86.3573033 96.21484375 83.03125 C107.04012377 79.34935835 115.77928526 72.60448712 120.91015625 62.3125 C125.1370739 52.82571514 126.89409689 42.4335563 129.15234375 32.34375 C130.07816931 28.2104525 131.01899688 24.08098179 131.96875 19.953125 C132.17303116 19.01756775 132.37731232 18.0820105 132.58778381 17.11810303 C133.95262447 11.19146182 135.38025365 5.11383071 140.39111328 1.17944336 C145.513562 -0.18506413 150.96229424 0.18160439 156.23388672 0.16821289 C158.45132165 0.15632251 160.66596495 0.10712427 162.8828125 0.05664062 C164.30337193 0.04717424 165.72394834 0.03994023 167.14453125 0.03515625 C168.42827637 0.02170166 169.71202148 0.00824707 171.03466797 -0.00561523 C175.60879988 0.76553528 177.47071556 2.18973724 180.58984375 5.59375 C183.40064646 11.84278933 182.89586774 18.6033791 182.890625 25.3515625 C182.89491013 26.57277802 182.89919525 27.79399353 182.90361023 29.05221558 C182.90933787 31.62578716 182.90986538 34.19937493 182.90551758 36.77294922 C182.90234902 40.71219319 182.92586736 44.65069204 182.95117188 48.58984375 C182.95344413 51.09374905 182.95414871 53.59765637 182.953125 56.1015625 C182.96233475 57.27872833 182.97154449 58.45589417 182.98103333 59.66873169 C182.97480453 60.7669223 182.96857574 61.86511292 182.9621582 62.99658203 C182.96278763 63.95919952 182.96341705 64.92181702 182.96406555 65.91360474 C182.51474787 69.13158039 181.49987508 70.98253733 179.58984375 73.59375 C176.58984375 75.59375 176.58984375 75.59375 173.08984375 75.40625 C168.6043769 74.36498091 168.6043769 74.36498091 166.58984375 71.59375 C166.2290802 69.10700989 166.2290802 69.10700989 166.24926758 66.11254883 C166.24949417 64.99161331 166.24972076 63.8706778 166.24995422 62.71577454 C166.26543808 61.50632675 166.28092194 60.29687897 166.296875 59.05078125 C166.30111984 57.81204758 166.30536469 56.5733139 166.30973816 55.29704285 C166.32369642 52.00725999 166.35064162 48.71791797 166.3838501 45.42828369 C166.41456442 42.07008254 166.42824636 38.71181682 166.44335938 35.35351562 C166.47647027 28.76673198 166.52827516 22.18032665 166.58984375 15.59375 C160.97984375 15.59375 155.36984375 15.59375 149.58984375 15.59375 C149.49759521 16.76397705 149.40534668 17.9342041 149.31030273 19.13989258 C148.60457774 25.44447654 147.07389613 31.55619277 145.58210945 37.7107296 C145.0510868 39.90257786 144.52718643 42.0960266 144.00498962 44.28999329 C142.70637951 49.74013827 141.39691989 55.18766089 140.08587646 60.63482666 C138.9766632 65.244368 137.87266269 69.85509665 136.77557182 74.46753883 C136.26547178 76.60319252 135.74802557 78.73697241 135.23023987 80.87077332 C132.16998299 93.63296486 130.20669025 106.14171796 130.27734375 119.28125 C130.28580322 120.96661865 130.28580322 120.96661865 130.29443359 122.68603516 C130.75233768 154.50810231 142.13955048 181.89549685 159.79589844 207.94238281 C161.72442778 210.7926589 163.63158707 213.65643683 165.53515625 216.5234375 C168.87599782 221.554087 172.22865003 226.57667968 175.58984375 231.59375 C176.76332856 226.59851579 177.92038556 221.59985655 179.06274414 216.59741211 C179.45316656 214.89814499 179.84796564 213.19987703 180.24731445 211.50268555 C180.8224132 209.0551055 181.3813862 206.6042979 181.9375 204.15234375 C182.11765152 203.40101669 182.29780304 202.64968964 182.4834137 201.87559509 C183.79067139 196.0000216 183.95582943 191.06817275 180.953125 185.62890625 C180.27636719 184.64792969 179.59960938 183.66695312 178.90234375 182.65625 C175.69993972 177.7703088 173.25684088 172.8804156 171.21484375 167.40625 C170.85773315 166.4637439 170.85773315 166.4637439 170.4934082 165.50219727 C167.20054966 156.31473006 166.27447272 147.31721672 166.25390625 137.6015625 C166.24392105 135.93901932 166.24392105 135.93901932 166.23373413 134.2428894 C166.22367252 131.91845344 166.21891508 129.59398897 166.21923828 127.26953125 C166.21483027 123.70785925 166.17834606 120.1473937 166.140625 116.5859375 C166.13476251 114.32031672 166.13078932 112.05469008 166.12890625 109.7890625 C166.11453522 108.72551544 166.10016418 107.66196838 166.08535767 106.56619263 C166.13077299 99.27052953 166.13077299 99.27052953 168.39990234 95.92529297 C171.64358602 93.95304651 173.87464539 94.06300738 177.58984375 94.59375 C180.49701448 96.81238029 181.42966018 98.11319929 182.58984375 101.59375 C182.68405312 103.0331772 182.72513095 104.47645335 182.73168945 105.91894531 C182.74224113 107.22741425 182.74224113 107.22741425 182.75300598 108.56231689 C182.75717026 109.50597107 182.76133453 110.44962524 182.765625 111.421875 C182.78885661 113.44011421 182.8129752 115.45834337 182.83789062 117.4765625 C182.87272465 120.6423177 182.90218914 123.80771102 182.91577148 126.97363281 C182.99540396 142.51299252 183.59544893 156.57950208 191.46484375 170.40625 C191.97712524 171.33377075 191.97712524 171.33377075 192.49975586 172.2800293 C194.05467942 175.06613038 195.69912434 177.75665274 197.4765625 180.40625 C198.02957031 181.23125 198.58257812 182.05625 199.15234375 182.90625 C199.64863281 183.58300781 200.14492188 184.25976562 200.65625 184.95703125 C203.845201 193.96348281 198.6914487 206.80123172 196.65234375 215.84375 C187.22008822 257.71171471 188.69078235 295.81486117 201.06201172 336.92944336 C203.79097188 346.06177263 205.94892965 355.20609541 207.58984375 364.59375 C207.81542969 365.85703125 208.04101562 367.1203125 208.2734375 368.421875 C212.31813965 395.98163864 209.10498791 424.67972168 206.76391602 452.2565918 C206.35044178 457.1276284 205.95929945 462.00017415 205.5742979 466.8735342 C205.27116024 470.6824749 204.95712758 474.49045672 204.63974953 478.29823494 C204.49105105 480.09636362 204.34552468 481.89475786 204.20340538 483.6934185 C202.46535624 505.49701441 202.46535624 505.49701441 197.55351257 510.78674316 C193.45670178 513.28464882 190.18390906 513.14884807 185.47265625 513.09545898 C184.56312195 513.10086197 183.65358765 513.10626495 182.7164917 513.11183167 C179.71560947 513.1243198 176.71568646 513.10782716 173.71484375 513.08984375 C171.62646433 513.08999874 169.53808462 513.09148764 167.44970703 513.09425354 C163.07506581 513.09563757 158.70075242 513.08307848 154.32617188 513.06030273 C148.72050447 513.03191832 143.11538178 513.03465548 137.50967407 513.04739285 C133.19795078 513.05434995 128.88635324 513.04656032 124.574646 513.03413582 C122.50779706 513.02962165 120.44093463 513.02928422 118.37408447 513.03320122 C115.48478553 513.0361137 112.59623553 513.01960437 109.70703125 512.99780273 C108.85389343 513.00230438 108.00075562 513.00680603 107.12176514 513.01144409 C102.5049999 512.95360367 99.21581253 512.76095995 95.58984375 509.59375 C91.87670203 504.35530501 92.17283661 499.15507489 92.22094727 492.98608398 C92.21529755 491.40210815 92.21529755 491.40210815 92.20953369 489.78613281 C92.2031106 487.49937769 92.20342242 485.21259586 92.2097187 482.92584038 C92.21883253 479.30707326 92.20860197 475.68882382 92.19309998 472.07008362 C92.15300251 461.78379101 92.15180154 451.49753939 92.15405273 441.21118164 C92.15410378 434.91478338 92.13496749 428.61866534 92.10471916 422.32234383 C92.09387641 418.75641566 92.10603375 415.19101807 92.11854553 411.62510681 C92.10964328 409.44073966 92.09956965 407.25637685 92.08813477 405.07202148 C92.09787827 404.08019363 92.10762177 403.08836578 92.11766052 402.06648254 C92.07205731 397.7079952 92.00008906 395.26382183 89.68370056 391.48036194 C87.43595591 389.4550936 86.57156327 388.91051329 83.58984375 388.96875 C82.59984375 388.94941406 82.59984375 388.94941406 81.58984375 388.9296875 C78.31643753 390.01656066 77.38515521 391.66138832 75.58984375 394.59375 C75.00035625 398.08506462 75.05683847 401.53832428 75.09155273 405.07202148 C75.08603394 406.12625305 75.08051514 407.18048462 75.0748291 408.2666626 C75.06551177 410.55287756 75.06540168 412.83914443 75.07342339 415.1253643 C75.08604057 418.74440844 75.07477452 422.36268847 75.05738831 425.98170471 C75.03066631 432.35971564 75.0250934 438.73753973 75.02648926 445.11560059 C75.02871632 455.32095452 75.0146208 465.52607709 74.9709034 475.73134041 C74.96105997 479.29549923 74.96978557 482.85929526 74.979599 486.42344666 C74.97345456 488.61099485 74.96654275 490.79854107 74.95874023 492.98608398 C74.9664595 493.9758876 74.97417877 494.96569122 74.98213196 495.98548889 C74.94356157 501.22617632 74.72531408 505.1702752 71.58984375 509.59375 C67.31405638 513.32856327 62.86779699 513.02627061 57.47265625 512.99780273 C56.56312195 513.00466599 55.65358765 513.01152924 54.7164917 513.01860046 C51.71578274 513.03687318 48.7155963 513.03303064 45.71484375 513.02734375 C43.62646311 513.03190495 41.53808398 513.03721034 39.44970703 513.04322815 C35.07513323 513.05215991 30.700742 513.04973488 26.32617188 513.03979492 C20.72043529 513.02829858 15.11532799 513.04852687 9.50967407 513.07771206 C5.19795735 513.09605689 0.88639195 513.09578512 -3.425354 513.09007454 C-5.49221683 513.08992115 -7.55908981 513.09597997 -9.62591553 513.10836601 C-12.5153353 513.12324351 -15.40358558 513.11262304 -18.29296875 513.09545898 C-19.14610657 513.10512695 -19.99924438 513.11479492 -20.87823486 513.12475586 C-24.83989962 513.07547602 -26.92151724 512.89168276 -30.37382507 510.78674316 C-37.29364968 503.33455256 -36.47399342 490.65072672 -37.234375 481.02734375 C-37.38642592 479.18867582 -37.53909245 477.3500587 -37.69233704 475.51148987 C-38.01138906 471.65137037 -38.32215361 467.79069427 -38.62719727 463.92944336 C-39.0109054 459.08192393 -39.41615528 454.23650073 -39.82746506 449.39125633 C-43.42610361 406.75412243 -43.44501434 368.03793713 -31.05078125 326.6628418 C-26.11061819 310.08588521 -22.93226057 292.91399327 -22.41015625 275.59375 C-22.37019531 274.70300781 -22.33023438 273.81226563 -22.2890625 272.89453125 C-21.66102124 246.99706527 -27.6609076 221.42243004 -33.87915039 196.44775391 C-34.96153212 190.63026317 -34.60707139 187.19965796 -31.41015625 182.21875 C-28.48188102 177.4216162 -25.7262369 172.59496431 -23.16015625 167.59375 C-22.83144531 166.97838379 -22.50273437 166.36301758 -22.1640625 165.72900391 C-17.01708898 155.58999128 -15.96700984 145.1714829 -16.00952148 133.94995117 C-16.00254242 132.64271088 -15.99556335 131.33547058 -15.9883728 129.98861694 C-15.97339142 127.17152719 -15.96747387 124.35462532 -15.96890068 121.53749657 C-15.97095266 117.07765253 -15.95124894 112.61805749 -15.9287262 108.15827942 C-15.88795302 99.50247456 -15.86918684 90.84669027 -15.85255432 82.19081116 C-15.83012128 71.15508093 -15.79656582 60.11940923 -15.74535519 49.08377439 C-15.72550573 44.65502513 -15.71585855 40.22640837 -15.71440303 35.79761636 C-15.71230999 33.70683517 -15.70574795 31.61612428 -15.69723511 29.52536011 C-15.68700198 26.98314803 -15.68380559 24.44089348 -15.68913269 21.89866638 C-15.60492601 7.98518949 -15.60492601 7.98518949 -10.74829102 2.69335938 C-6.81316549 0.21825665 -4.61677992 -0.02562451 0 0 Z M0.58984375 15.59375 C0.58619812 17.23698242 0.58255249 18.88021484 0.57879639 20.57324219 C0.54175035 36.10863377 0.48410631 51.6438089 0.40594101 67.17904663 C0.36628145 75.16461484 0.333823 83.15008637 0.31884766 91.13574219 C0.30576278 98.10324564 0.27862609 105.07053519 0.23523068 112.03791809 C0.21276793 115.72061311 0.1969238 119.40304584 0.1979599 123.08581543 C0.19734526 146.63894084 -1.10314869 168.35928596 -16.1875 187.703125 C-19.82757433 196.30905154 -14.84122426 208.38743004 -12.84765625 217.21875 C-12.51444255 218.71472548 -12.18175618 220.21081853 -11.84960938 221.70703125 C-11.04252945 225.33731213 -10.22833886 228.96595318 -9.41015625 232.59375 C-6.60546554 229.87146425 -3.99209673 227.29584393 -1.90234375 223.984375 C-1.47872559 223.32115234 -1.05510742 222.65792969 -0.61865234 221.97460938 C-0.17859863 221.27142578 0.26145508 220.56824219 0.71484375 219.84375 C1.68316214 218.31743443 2.6519247 216.79140057 3.62109375 215.265625 C4.11222656 214.48896484 4.60335937 213.71230469 5.109375 212.91210938 C6.52782551 210.69086827 7.97356823 208.49095767 9.43359375 206.296875 C23.59702141 186.77427896 23.59702141 186.77427896 30.58984375 164.59375 C38.49236702 163.19223412 38.49236702 163.19223412 42.15234375 164.53125 C44.34511712 167.67740309 43.99083445 170.91752306 43.58984375 174.59375 C42.82764656 177.29041653 41.72923513 179.75393776 40.52734375 182.28125 C40.20717285 182.97766602 39.88700195 183.67408203 39.55712891 184.39160156 C38.58923436 186.46993771 37.59568042 188.5335472 36.58984375 190.59375 C36.07292969 191.65722656 35.55601562 192.72070312 35.0234375 193.81640625 C30.17597485 203.23190388 24.25868982 211.97861319 18.42822266 220.80371094 C16.50706858 223.71937478 14.59940726 226.64348196 12.6953125 229.5703125 C12.0463501 230.56675781 11.3973877 231.56320313 10.72875977 232.58984375 C9.43466647 234.58190229 8.14473944 236.57667394 6.85913086 238.57421875 C1.7164746 246.53284983 1.7164746 246.53284983 -1.13671875 250.1171875 C-6.48154272 257.01068838 -7.00210035 262.32536525 -6.57421875 270.72265625 C-6.30926404 276.28094533 -6.70426858 281.74141651 -7.16015625 287.28125 C-7.23266602 288.29670898 -7.30517578 289.31216797 -7.37988281 290.35839844 C-7.81371796 295.57926632 -8.53557276 300.41984534 -9.99609375 305.45703125 C-13.01723191 314.79149021 -13.01723191 314.79149021 -11.13330078 323.97167969 C-7.50428979 328.59620726 -3.14557644 332.19850259 1.46289062 335.8059082 C4.9197777 338.71164558 7.72479332 342.11880564 10.58984375 345.59375 C11.28851563 346.39941406 11.9871875 347.20507812 12.70703125 348.03515625 C28.90642649 367.5824265 38.51675814 391.49624638 41.23046875 416.65234375 C41.49758338 419.64837053 41.49758338 419.64837053 42.58984375 422.59375 C47.86984375 422.59375 53.14984375 422.59375 58.58984375 422.59375 C58.615625 420.46035156 58.64140625 418.32695312 58.66796875 416.12890625 C58.70652107 414.03364582 58.75163797 411.93862063 58.79736328 409.84350586 C58.82536838 408.40156528 58.84668343 406.95947702 58.86083984 405.51733398 C58.96244541 395.7462657 59.5176001 387.68405456 65.83984375 379.78125 C72.81149433 374.23561886 78.22209559 372.94991966 87.234375 373.19140625 C91.84643315 373.7444237 94.66733298 375.15143197 98.58984375 377.59375 C99.57984375 377.92375 100.56984375 378.25375 101.58984375 378.59375 C102.64746094 380.42211914 102.64746094 380.42211914 103.58984375 382.59375 C103.9343457 383.18599365 104.27884766 383.7782373 104.63378906 384.38842773 C108.55099903 391.77989592 108.259925 399.51475975 108.33984375 407.65625 C108.3680541 409.10875874 108.39798846 410.56123508 108.4296875 412.01367188 C108.50614277 415.54067398 108.54720673 419.06553641 108.58984375 422.59375 C113.86984375 422.59375 119.14984375 422.59375 124.58984375 422.59375 C124.93015625 420.2734375 124.93015625 420.2734375 125.27734375 417.90625 C126.28865446 411.87424784 127.57990683 405.92550761 128.96484375 399.96875 C129.16166748 399.09903564 129.35849121 398.22932129 129.5612793 397.33325195 C133.44144557 380.97242371 133.44144557 380.97242371 137.58642578 378.3125 C141.05071275 377.06964589 144.01049031 377.99719109 147.58984375 378.59375 C149.15547506 385.45844112 148.06782796 389.85808517 145.64111328 396.42089844 C142.73412806 404.52656576 140.58984375 413.94931532 140.58984375 422.59375 C157.74984375 422.59375 174.90984375 422.59375 192.58984375 422.59375 C195.63897741 395.15154707 193.91404358 367.02751223 185.58984375 340.59375 C182.61315652 340.27033838 182.61315652 340.27033838 180.95166016 341.9831543 C180.37077637 342.62164307 179.78989258 343.26013184 179.19140625 343.91796875 C178.546875 344.61728516 177.90234375 345.31660156 177.23828125 346.03710938 C176.57054687 346.77767578 175.9028125 347.51824219 175.21484375 348.28125 C172.67647084 351.05511649 170.13444823 353.82559951 167.58984375 356.59375 C167.10692871 357.12758301 166.62401367 357.66141602 166.12646484 358.21142578 C163.58432911 360.91949978 162.8066175 361.56385017 158.96484375 362.09375 C155.58984375 361.59375 155.58984375 361.59375 153.65234375 360.59375 C151.81599877 357.13710062 151.51849509 354.28395094 152.58984375 350.59375 C155.21646981 346.89232064 158.39183936 343.80148956 161.58984375 340.59375 C163.09894849 338.91438729 164.59916796 337.2269923 166.08984375 335.53125 C168.26991312 333.07002088 170.32361543 330.79733311 172.94091797 328.79589844 C175.6865999 326.53598696 177.68496816 324.60640464 179.58984375 321.59375 C180.00918642 316.52368666 178.90107747 311.86931678 177.71484375 306.96875 C177.16830873 304.41565069 176.62923237 301.86094324 176.09765625 299.3046875 C175.83122314 298.03818359 175.56479004 296.77167969 175.2902832 295.46679688 C173.91060475 287.83793005 172.9233278 279.84732455 174.125 272.140625 C176.22920082 256.99037908 166.23922173 246.19812637 157.78173828 234.63671875 C155.05435209 230.85033631 152.56586286 226.95978933 150.15234375 222.96875 C147.80296802 219.1253635 145.42531438 215.31973959 142.8984375 211.58984375 C118.22371912 175.01239237 111.7527704 136.14520889 115.58984375 92.59375 C114.61144531 93.00367187 113.63304687 93.41359375 112.625 93.8359375 C93.76446728 101.64145961 76.90669635 102.86620243 57.58203125 95.4375 C55.55750806 94.54899453 53.56734442 93.58250033 51.58984375 92.59375 C51.65985596 93.36033936 51.72986816 94.12692871 51.80200195 94.91674805 C52.52461151 103.42514014 52.77289976 111.86934248 52.77734375 120.40625 C52.78958984 121.66373047 52.80183594 122.92121094 52.81445312 124.21679688 C52.82463313 130.6607391 52.73344465 136.47884637 50.58984375 142.59375 C47.48063766 144.14835305 43.95901347 144.32095693 40.58984375 143.59375 C38.15366354 141.18930915 37.61239296 139.83987457 37.296875 136.39599609 C37.33167969 135.14898926 37.36648437 133.90198242 37.40234375 132.6171875 C37.41370361 131.93306793 37.42506348 131.24894836 37.43676758 130.5440979 C37.48518182 127.63903776 37.5677826 124.73528729 37.65136719 121.83105469 C37.86223013 113.7997663 37.72542105 106.07779439 36.32885742 98.14941406 C36.19574504 97.37508844 36.06263266 96.60076283 35.92548656 95.80297279 C34.44497288 87.42069024 32.54093546 79.14724345 30.578125 70.8671875 C30.20076742 69.25635306 29.82392146 67.6453987 29.44755554 66.03433228 C28.47119034 61.86094201 27.48803974 57.68918124 26.5032959 53.51776123 C25.49340526 49.23418794 24.49017648 44.94905502 23.48632812 40.6640625 C21.52722197 32.3057791 19.56030347 23.9493641 17.58984375 15.59375 C11.97984375 15.59375 6.36984375 15.59375 0.58984375 15.59375 Z M-17.41015625 339.59375 C-24.87813764 358.50838093 -26.58000471 378.43480563 -26.59765625 398.59375 C-26.5987439 399.26828217 -26.59983154 399.94281433 -26.60095215 400.63778687 C-26.59959033 408.0956619 -26.23753362 415.14735367 -25.41015625 422.59375 C-8.25015625 422.59375 8.90984375 422.59375 26.58984375 422.59375 C22.82133959 394.32996879 14.27400169 370.50910856 -6.67578125 350.328125 C-9.25153419 347.75237206 -11.58194506 344.97822001 -13.9296875 342.1953125 C-15.33800503 340.48264677 -15.33800503 340.48264677 -17.41015625 339.59375 Z M-23.41015625 437.59375 C-23.41015625 440.89375 -23.41015625 444.19375 -23.41015625 447.59375 C-22.15356201 447.61562378 -22.15356201 447.61562378 -20.87158203 447.63793945 C-17.76636723 447.69895707 -14.66182508 447.77310065 -11.55712891 447.85620117 C-9.55133289 447.90584959 -7.54517938 447.94029164 -5.5390625 447.97460938 C-3.65380859 448.0277832 -3.65380859 448.0277832 -1.73046875 448.08203125 C-0.56789551 448.10821533 0.59467773 448.13439941 1.79248047 448.16137695 C3.17717529 448.37540161 3.17717529 448.37540161 4.58984375 448.59375 C7.04796 452.28092438 6.90102539 454.23720704 6.58984375 458.59375 C5.92984375 459.58375 5.26984375 460.57375 4.58984375 461.59375 C1.97607422 462.02612305 1.97607422 462.02612305 -1.29296875 462.10546875 C-3.04287109 462.15864258 -3.04287109 462.15864258 -4.828125 462.21289062 C-6.05144531 462.23544922 -7.27476562 462.25800781 -8.53515625 462.28125 C-10.38173828 462.33249023 -10.38173828 462.33249023 -12.265625 462.38476562 C-15.31371135 462.46746564 -18.36150196 462.53654427 -21.41015625 462.59375 C-21.86711088 474.39841117 -20.44257678 485.72091391 -19.41015625 497.59375 C6.32984375 497.59375 32.06984375 497.59375 58.58984375 497.59375 C58.58984375 486.04375 58.58984375 474.49375 58.58984375 462.59375 C49.46535504 462.34417246 49.46535504 462.34417246 40.34033203 462.11572266 C38.64239502 462.06230713 38.64239502 462.06230713 36.91015625 462.0078125 C35.74758301 461.9763916 34.58500977 461.9449707 33.38720703 461.91259766 C30.58984375 461.59375 30.58984375 461.59375 28.58984375 459.59375 C28.32421875 457.5 28.32421875 457.5 28.33984375 455.09375 C28.33210938 453.90265625 28.33210938 453.90265625 28.32421875 452.6875 C28.58984375 450.59375 28.58984375 450.59375 30.58984375 448.59375 C33.38720703 448.27490234 33.38720703 448.27490234 36.91015625 448.1796875 C38.79541016 448.12167969 38.79541016 448.12167969 40.71875 448.0625 C42.69681641 448.01609375 42.69681641 448.01609375 44.71484375 447.96875 C46.05471293 447.93056971 47.39455758 447.89151794 48.734375 447.8515625 C52.01938994 447.7570297 55.30439513 447.67147844 58.58984375 447.59375 C58.58984375 444.29375 58.58984375 440.99375 58.58984375 437.59375 C31.52984375 437.59375 4.46984375 437.59375 -23.41015625 437.59375 Z M108.58984375 437.59375 C108.58984375 440.89375 108.58984375 444.19375 108.58984375 447.59375 C135.64984375 447.59375 162.70984375 447.59375 190.58984375 447.59375 C190.58984375 444.29375 190.58984375 440.99375 190.58984375 437.59375 C163.52984375 437.59375 136.46984375 437.59375 108.58984375 437.59375 Z M108.58984375 462.59375 C108.58984375 474.14375 108.58984375 485.69375 108.58984375 497.59375 C134.32984375 497.59375 160.06984375 497.59375 186.58984375 497.59375 C187.60217135 485.95198259 188.58984375 474.27944876 188.58984375 462.59375 C162.18984375 462.59375 135.78984375 462.59375 108.58984375 462.59375 Z " fill="#E51743" transform="translate(172.41015625,-0.59375)"/>
</svg>
